/* XPM */
static char * delete_xpm[] = {
"24 24 248 2",
"  	c None",
". 	c #C44333",
"+ 	c #C64534",
"@ 	c #C64434",
"# 	c #C64433",
"$ 	c #C44232",
"% 	c #BD3627",
"& 	c #D96E5A",
"* 	c #EC967F",
"= 	c #FCB59C",
"- 	c #FFCBB0",
"; 	c #FFC9AF",
"> 	c #FFC5AB",
", 	c #FFC0A6",
"' 	c #FAA68E",
") 	c #EA836C",
"! 	c #D75E4A",
"~ 	c #BD392A",
"{ 	c #CA4D3D",
"] 	c #FAB299",
"^ 	c #FDA98F",
"/ 	c #EE7358",
"( 	c #E64F33",
"_ 	c #E44A2D",
": 	c #EF7055",
"< 	c #FD9E85",
"[ 	c #FFAE97",
"} 	c #F1876C",
"| 	c #C84736",
"1 	c #D56351",
"2 	c #FFC6AB",
"3 	c #FDB69C",
"4 	c #ED6A50",
"5 	c #E23B1F",
"6 	c #E34126",
"7 	c #E5462C",
"8 	c #E5472C",
"9 	c #E34227",
"0 	c #E23C21",
"a 	c #EF674C",
"b 	c #FEA48C",
"c 	c #F99076",
"d 	c #D1513E",
"e 	c #CB513F",
"f 	c #FFC4AA",
"g 	c #FAA78D",
"h 	c #E85036",
"i 	c #E44126",
"j 	c #E74A30",
"k 	c #E74B30",
"l 	c #E74B31",
"m 	c #E64B31",
"n 	c #E44228",
"o 	c #E85137",
"p 	c #FA947D",
"q 	c #F68D73",
"r 	c #C94735",
"s 	c #B92E20",
"t 	c #FEBBA1",
"u 	c #FBAB90",
"v 	c #E84A30",
"w 	c #E84E34",
"x 	c #E84B31",
"y 	c #E85037",
"z 	c #FB917A",
"A 	c #EF765B",
"B 	c #BB3728",
"C 	c #E88B75",
"D 	c #FFC0A5",
"E 	c #F06B52",
"F 	c #E84D33",
"G 	c #E95238",
"H 	c #E95137",
"I 	c #F1674F",
"J 	c #FC927A",
"K 	c #DD5A42",
"L 	c #BD4132",
"M 	c #FAB69C",
"N 	c #FBA48B",
"O 	c #E9482F",
"P 	c #EC533A",
"Q 	c #EC543B",
"R 	c #EC543A",
"S 	c #E94C32",
"T 	c #FC907B",
"U 	c #EE6E55",
"V 	c #BB3C2C",
"W 	c #D1604D",
"X 	c #FEBCA2",
"Y 	c #F3745B",
"Z 	c #EC5037",
"` 	c #ED573D",
" .	c #ED553C",
"..	c #EC5339",
"+.	c #F56D56",
"@.	c #F9856E",
"#.	c #C94531",
"$.	c #DF715C",
"%.	c #ED533C",
"&.	c #EE573F",
"*.	c #EE553C",
"=.	c #EE5E47",
"-.	c #EE5E48",
";.	c #EE5D46",
">.	c #EE5D45",
",.	c #EE5840",
"'.	c #EE5640",
").	c #FE9783",
"!.	c #D34832",
"~.	c #DE715C",
"{.	c #FFC2A9",
"].	c #EC4D36",
"^.	c #F05B44",
"/.	c #ED472D",
"(.	c #FFFAF9",
"_.	c #FFFFFF",
":.	c #ED533B",
"<.	c #FE9784",
"[.	c #D44730",
"}.	c #DE6F5A",
"|.	c #F0523B",
"1.	c #F25E47",
"2.	c #F0472C",
"3.	c #F05740",
"4.	c #FE9481",
"5.	c #D3442E",
"6.	c #DE6D57",
"7.	c #FFBDA4",
"8.	c #F25640",
"9.	c #F3604A",
"0.	c #F2543C",
"a.	c #FBC8C1",
"b.	c #FEEDEB",
"c.	c #FEEAE7",
"d.	c #F3614B",
"e.	c #F25B45",
"f.	c #FE927E",
"g.	c #D3422C",
"h.	c #D7624E",
"i.	c #FFB39B",
"j.	c #F66C57",
"k.	c #F4634C",
"l.	c #F5654E",
"m.	c #F3573E",
"n.	c #F35137",
"o.	c #F35037",
"p.	c #F4644D",
"q.	c #F76A56",
"r.	c #FA836E",
"s.	c #CE402A",
"t.	c #C14F3E",
"u.	c #FAA188",
"v.	c #FC8E77",
"w.	c #F5614C",
"x.	c #F66852",
"y.	c #F66752",
"z.	c #F66853",
"A.	c #F56550",
"B.	c #FE816D",
"C.	c #EE634B",
"D.	c #BB3A28",
"E.	c #9F271C",
"F.	c #F28B70",
"G.	c #FFA992",
"H.	c #F86954",
"I.	c #F76A55",
"J.	c #F86B56",
"K.	c #FF8B79",
"L.	c #E04428",
"M.	c #A13428",
"N.	c #CC4F3C",
"O.	c #FE9F85",
"P.	c #FE8E79",
"Q.	c #FA6A56",
"R.	c #FA6D59",
"S.	c #FA6C58",
"T.	c #FF816F",
"U.	c #F15D43",
"V.	c #C73E2B",
"W.	c #A02F22",
"X.	c #DC624D",
"Y.	c #FFA289",
"Z.	c #FC826E",
"`.	c #FB6B58",
" +	c #FB705C",
".+	c #FB705D",
"++	c #FB6E5A",
"@+	c #FD7C6A",
"#+	c #F8735C",
"$+	c #D3412B",
"%+	c #A13528",
"&+	c #B83A2B",
"*+	c #E77158",
"=+	c #FDA189",
"-+	c #FE8672",
";+	c #FC715E",
">+	c #FC715F",
",+	c #FC725F",
"'+	c #FC7360",
")+	c #FF7E6B",
"!+	c #FA7F6A",
"~+	c #DC4328",
"{+	c #B83B2D",
"]+	c #B43C2D",
"^+	c #DF614A",
"/+	c #FC8F75",
"(+	c #FF927D",
"_+	c #FF8572",
":+	c #FE7A67",
"<+	c #FE7361",
"[+	c #FD7361",
"}+	c #FD7461",
"|+	c #FE7462",
"1+	c #FE7A68",
"2+	c #FF8270",
"3+	c #FE8472",
"4+	c #F5684F",
"5+	c #D74028",
"6+	c #B33929",
"7+	c #9F3326",
"8+	c #CF4735",
"9+	c #ED6F54",
"0+	c #F87F66",
"a+	c #FF8E78",
"b+	c #FF9885",
"c+	c #FF9584",
"d+	c #FF9482",
"e+	c #FD846F",
"f+	c #F3674F",
"g+	c #E54D31",
"h+	c #CC412D",
"i+	c #A03427",
"j+	c #B43628",
"k+	c #C94733",
"l+	c #DA5138",
"m+	c #E55539",
"n+	c #E45234",
"o+	c #E24D30",
"p+	c #E2492D",
"q+	c #D7422A",
"r+	c #C63E2A",
"s+	c #B43A2C",
"t+	c #8A2A20",
"u+	c #922C22",
"v+	c #912D22",
"w+	c #922D23",
"x+	c #932F24",
"y+	c #8B2D23",
"                  . + @ @ # $                   ",
"            % & * = - ; > , ' ) ! ~             ",
"          { ] ; ^ / ( _ _ ( : < [ } |           ",
"        1 2 3 4 5 6 7 8 8 7 9 0 a b c d         ",
"      e f g h i j k l m m l k j n o p q r       ",
"    s t u h v w w w w w w w w w w x y z A B     ",
"    C D E F G H H H H H H H H H H G w I J K     ",
"  L M N O P Q Q Q Q Q Q Q Q Q Q Q Q R S T U V   ",
"  W X Y Z `  . . . . . . . . . . . .` ..+.@.#.  ",
"  $.f %.&.*.=.-.;.>.>.>.>.>.>.;.-.=.*.,.'.).!.  ",
"  ~.{.].^./.(._._._._._._._._._._.(./.^.:.<.[.  ",
"  }., |.1.2._._._._._._._._._._._._.2.1.3.4.5.  ",
"  6.7.8.9.0.a.b.c.c.c.c.c.c.c.c.b.a.0.d.e.f.g.  ",
"  h.i.j.k.l.m.n.o.o.o.o.o.o.o.o.n.m.l.p.q.r.s.  ",
"  t.u.v.w.x.x.x.y.y.y.y.y.y.y.y.x.x.z.A.B.C.D.  ",
"  E.F.G.H.I.I.I.I.I.I.I.I.I.I.I.I.I.I.J.K.L.M.  ",
"    N.O.P.Q.R.R.R.R.R.R.R.R.R.R.R.R.S.T.U.V.    ",
"    W.X.Y.Z.`. +.+.+.+.+.+.+.+.+.+++@+#+$+%+    ",
"      &+*+=+-+;+>+,+,+,+,+,+,+,+'+)+!+~+{+      ",
"        ]+^+/+(+_+:+<+[+}+|+1+2+3+4+5+6+        ",
"          7+8+9+0+a+b+b+c+d+e+f+g+h+i+          ",
"              j+k+l+m+n+o+p+q+r+s+              ",
"                  t+u+v+w+x+y+                  ",
"                                                "};
