/* XPM */
static char * dev_20_xpm[] = {
"20 20 222 2",
"  	c None",
". 	c #FFFFFF",
"+ 	c #F1F0EF",
"@ 	c #DCDADA",
"# 	c #D6D5D3",
"$ 	c #ADA9AB",
"% 	c #85817C",
"& 	c #5C5654",
"* 	c #3E3736",
"= 	c #DADAD9",
"- 	c #F4F4F4",
"; 	c #3B3732",
"> 	c #868684",
", 	c #252624",
"' 	c #353934",
") 	c #274231",
"! 	c #00692F",
"~ 	c #006933",
"{ 	c #5B675E",
"] 	c #E7E7E7",
"^ 	c #F3F3F3",
"/ 	c #636462",
"( 	c #E5E1E4",
"_ 	c #CAC9C5",
": 	c #84938B",
"< 	c #AAB8B3",
"[ 	c #CADBCC",
"} 	c #DEDADF",
"| 	c #D4DED9",
"1 	c #C5C9C7",
"2 	c #E4E2E4",
"3 	c #F4F4F3",
"4 	c #605F5E",
"5 	c #D1D2D1",
"6 	c #BBB9BB",
"7 	c #C1C4C1",
"8 	c #7C7A7C",
"9 	c #428258",
"0 	c #00773A",
"a 	c #016B2E",
"b 	c #4A5D52",
"c 	c #F0F3F1",
"d 	c #F4F3F3",
"e 	c #605C5E",
"f 	c #D0D2D0",
"g 	c #C2C1C2",
"h 	c #C0BCBE",
"i 	c #6B6869",
"j 	c #9B9894",
"k 	c #B9BDBF",
"l 	c #D5D3D2",
"m 	c #E5E1E1",
"n 	c #E5E3E5",
"o 	c #5F5F5B",
"p 	c #C7C5C6",
"q 	c #D1D2D2",
"r 	c #E8E7E2",
"s 	c #E1E1E1",
"t 	c #DEE0DE",
"u 	c #DDE2DD",
"v 	c #E4E3E4",
"w 	c #EBE8EB",
"x 	c #EEEDEE",
"y 	c #F8F8F8",
"z 	c #7E7977",
"A 	c #CECAD0",
"B 	c #AAA4B7",
"C 	c #D4D4CE",
"D 	c #EAEDEA",
"E 	c #E3E1E3",
"F 	c #E4E2E5",
"G 	c #E3E4E3",
"H 	c #E6E3E6",
"I 	c #FDFDFD",
"J 	c #A4A2A2",
"K 	c #C9C6C7",
"L 	c #1D0766",
"M 	c #635A90",
"N 	c #CFCDCE",
"O 	c #DBD9DB",
"P 	c #DCD7D9",
"Q 	c #D7D5D7",
"R 	c #D9D8D9",
"S 	c #E0DCD7",
"T 	c #E7E2E2",
"U 	c #B2B1B2",
"V 	c #AFAFAF",
"W 	c #FBFCFB",
"X 	c #9B9A9B",
"Y 	c #CFC8CB",
"Z 	c #2C1C6D",
"` 	c #270F6B",
" .	c #CAC9C8",
"..	c #D2D5D2",
"+.	c #D6D7D4",
"@.	c #D8D9D7",
"#.	c #BBBBBC",
"$.	c #939293",
"%.	c #8F8D8F",
"&.	c #9F9D9E",
"*.	c #C6C4C6",
"=.	c #D5D4D6",
"-.	c #BCB6B6",
";.	c #E2E2DE",
">.	c #7B729D",
",.	c #C8C5C9",
"'.	c #D3D7D3",
").	c #CECBC7",
"!.	c #717975",
"~.	c #565B58",
"{.	c #584945",
"].	c #734441",
"^.	c #563B34",
"/.	c #736C6A",
"(.	c #DADADA",
"_.	c #7A7C7B",
":.	c #E1E0DC",
"<.	c #E8EAE3",
"[.	c #D4D2D4",
"}.	c #E7E4E7",
"|.	c #707070",
"1.	c #672221",
"2.	c #922727",
"3.	c #A52A2D",
"4.	c #B82524",
"5.	c #572927",
"6.	c #7A7773",
"7.	c #FAFAFA",
"8.	c #959190",
"9.	c #918D8B",
"0.	c #E2E4E2",
"a.	c #DCDEDC",
"b.	c #D4D1D4",
"c.	c #797C76",
"d.	c #A62A25",
"e.	c #882728",
"f.	c #902A2C",
"g.	c #972829",
"h.	c #5B3F43",
"i.	c #838082",
"j.	c #FCFCFC",
"k.	c #8F8F8C",
"l.	c #D4D2D5",
"m.	c #DBDCDB",
"n.	c #DDDFDD",
"o.	c #E6E4E6",
"p.	c #787776",
"q.	c #6D4141",
"r.	c #483333",
"s.	c #36312F",
"t.	c #444A35",
"u.	c #424C36",
"v.	c #898680",
"w.	c #686761",
"x.	c #D9D7DA",
"y.	c #DBDDDB",
"z.	c #DCDFDC",
"A.	c #767671",
"B.	c #814745",
"C.	c #60554F",
"D.	c #4D4B4D",
"E.	c #58555A",
"F.	c #4F494C",
"G.	c #928C8A",
"H.	c #6B6862",
"I.	c #D4D5D4",
"J.	c #E1E4E6",
"K.	c #797572",
"L.	c #3F5B66",
"M.	c #39749B",
"N.	c #4D433B",
"O.	c #463D3E",
"P.	c #362F2B",
"Q.	c #969596",
"R.	c #6B6562",
"S.	c #E5E3E4",
"T.	c #74716C",
"U.	c #305B77",
"V.	c #4586B0",
"W.	c #4A4747",
"X.	c #3C5F76",
"Y.	c #4C4340",
"Z.	c #A19B98",
"`.	c #6C6663",
" +	c #D7D6D8",
".+	c #D3D6D3",
"++	c #746E6D",
"@+	c #2C5872",
"#+	c #59A0CC",
"$+	c #3C5A6A",
"%+	c #2C70A1",
"&+	c #332A26",
"*+	c #AEA8A6",
"=+	c #F9F9F9",
"-+	c #6C6B68",
";+	c #D6D3D6",
">+	c #CBC9CB",
",+	c #D7D8D8",
"'+	c #D4D7D4",
")+	c #E4E5E4",
"!+	c #696361",
"~+	c #3C4D57",
"{+	c #596E79",
"]+	c #86807B",
"^+	c #B8B2B0",
"/+	c #DEDEDC",
"(+	c #EFF0EF",
"_+	c #C9CBC8",
":+	c #CCCBCC",
"<+	c #9C9597",
"[+	c #C0BEC0",
"}+	c #C2C3C2",
"|+	c #C5C4C6",
"1+	c #CDCFD1",
"2+	c #D3D5DB",
"3+	c #E1DBD9",
"4+	c #AAABAB",
"5+	c #BBBBB9",
"6+	c #E7E8E7",
"7+	c #F1F2F1",
"8+	c #F6F6F6",
"9+	c #FEFEFE",
". . . . + @ # $ % & * = . . . . . . . . ",
". . . - ; > , ' ) ! ~ { ] . . . . . . . ",
". . . ^ / ( _ : < [ } | 1 2 . . . . . . ",
". . . 3 4 5 6 7 8 9 0 a b c . . . . . . ",
". . . d e f g h i j k l m n . . . . . . ",
". . . 3 o 5 p q r s t u v w x . . . . . ",
". . . y z A B C t D E 2 2 F G H . . . . ",
". . . I J K L M N O P Q R S T U V . . . ",
". . . W X Y Z `  ...+.@.#.$.%.&.*.. . . ",
". . . I =.-.;.>.,.'.).!.~.{.].^./.. . . ",
". . . I (._.:.<.[.}.|.1.2.3.4.5.6.. . . ",
". . . 7.8.9.0.a.b.H c.d.e.f.g.h.i.. . . ",
". . . j.k.l.m.n.b.o.p.q.r.s.t.u.v.. . . ",
". . . y w.x.y.z.[.o.A.B.C.D.E.F.G.. . . ",
". . . y H.x.y.a.I.J.K.L.M.N.O.P.Q.. . . ",
". . . y R.x.y.a.I.S.T.U.V.W.X.Y.Z.. . . ",
". . . y `. +.+n.I.o.++@+#+$+%+&+*+. . . ",
". . . =+-+;+>+,+'+)+!+~+{+]+^+/+(+. . . ",
". . . . . _+:+<+[+}+|+f 1+2+. . . . . . ",
". . . . . . 3+4+5+6+7+8+9+. . . . . . . "};
