/* XPM */
static char * l_green_18_xpm[] = {
"18 18 200 2",
"  	c None",
". 	c #FFFFFF",
"+ 	c #9E9E9E",
"@ 	c #959595",
"# 	c #CAC8CA",
"$ 	c #B0AFB1",
"% 	c #A7A7A7",
"& 	c #9F9F9F",
"* 	c #A09FA0",
"= 	c #A6A5A7",
"- 	c #B1AEB1",
"; 	c #CAC9CA",
"> 	c #A3A6A3",
", 	c #BFBFBE",
"' 	c #989898",
") 	c #838A82",
"! 	c #73896F",
"~ 	c #6C8C68",
"{ 	c #6B8C68",
"] 	c #72896F",
"^ 	c #838C80",
"/ 	c #999999",
"( 	c #BFBFBF",
"_ 	c #A4A5A4",
": 	c #A8A9A8",
"< 	c #C5C5C6",
"[ 	c #898E89",
"} 	c #7A9375",
"| 	c #9DBD97",
"1 	c #D0E4CB",
"2 	c #E4F1DF",
"3 	c #E3F1E0",
"4 	c #CFE3CA",
"5 	c #9BBC96",
"6 	c #799375",
"7 	c #8C908B",
"8 	c #C6C6C6",
"9 	c #A8A9A7",
"0 	c #C8C7C8",
"a 	c #8E928D",
"b 	c #789A71",
"c 	c #C3DFBF",
"d 	c #E7F3E5",
"e 	c #DCEAD8",
"f 	c #DAE8D6",
"g 	c #DBE9D6",
"h 	c #DDEAD9",
"i 	c #E9F3E5",
"j 	c #C2DDBC",
"k 	c #769A6F",
"l 	c #90958F",
"m 	c #D8D7D8",
"n 	c #698D61",
"o 	c #9FCC97",
"p 	c #D2E5CF",
"q 	c #BFDABA",
"r 	c #C2DDBF",
"s 	c #C2DDBE",
"t 	c #C1DBBD",
"u 	c #BDDAB8",
"v 	c #D1E6CD",
"w 	c #9BC991",
"x 	c #6A9163",
"y 	c #A8A7A9",
"z 	c #D9D8D9",
"A 	c #C5C1C5",
"B 	c #8E9A8E",
"C 	c #59A14D",
"D 	c #ACD3A5",
"E 	c #B2D5AB",
"F 	c #B0D4A9",
"G 	c #B1D4A9",
"H 	c #AFD3A8",
"I 	c #B2D3AA",
"J 	c #AAD1A1",
"K 	c #589F4A",
"L 	c #929E90",
"M 	c #C4C2C5",
"N 	c #C2BFC2",
"O 	c #7C9B74",
"P 	c #53A740",
"Q 	c #9CCD93",
"R 	c #A3D09A",
"S 	c #A0CE96",
"T 	c #A1CE96",
"U 	c #9FCE96",
"V 	c #9ECE95",
"W 	c #A1CE99",
"X 	c #99CA8F",
"Y 	c #4FA53C",
"Z 	c #7E9E76",
"` 	c #C3C1C3",
" .	c #C0BCC1",
"..	c #77A46C",
"+.	c #4FAB39",
"@.	c #7DC06F",
"#.	c #9ACD8D",
"$.	c #93CA87",
"%.	c #93CA86",
"&.	c #93CA85",
"*.	c #92CA85",
"=.	c #97CD8B",
"-.	c #7BBE6A",
";.	c #4EAA38",
">.	c #7AA76F",
",.	c #C2BFC3",
"'.	c #C4C1C5",
").	c #81AD75",
"!.	c #59B741",
"~.	c #64BA4F",
"{.	c #7FC66D",
"].	c #89CA7B",
"^.	c #89CA7A",
"/.	c #88CA77",
"(.	c #7CC56A",
"_.	c #61B94C",
":.	c #58B53F",
"<.	c #83B077",
"[.	c #C6C5C8",
"}.	c #CBCACD",
"|.	c #94B48E",
"1.	c #65C44D",
"2.	c #68C351",
"3.	c #6AC352",
"4.	c #73C75E",
"5.	c #7BCA68",
"6.	c #7ECA6B",
"7.	c #7BC968",
"8.	c #73C65D",
"9.	c #68C251",
"0.	c #66C14F",
"a.	c #63C24B",
"b.	c #99B791",
"c.	c #CDCCCE",
"d.	c #D5D3D5",
"e.	c #B2BAAF",
"f.	c #77C961",
"g.	c #74CF5C",
"h.	c #74CE5C",
"i.	c #72CE5A",
"j.	c #73CD5B",
"k.	c #74CE5D",
"l.	c #73CE5B",
"m.	c #73CD5A",
"n.	c #72CF5B",
"o.	c #76CA61",
"p.	c #B5C0B3",
"q.	c #D6D4D6",
"r.	c #F4F4F4",
"s.	c #C6C5C7",
"t.	c #9CC690",
"u.	c #7DDE60",
"v.	c #81DA67",
"w.	c #80DB67",
"x.	c #7EDA65",
"y.	c #80DA66",
"z.	c #7BDD5F",
"A.	c #9EC993",
"B.	c #C8C7C9",
"C.	c #B6B6B6",
"D.	c #EDEDED",
"E.	c #C2C5C2",
"F.	c #9DD58D",
"G.	c #88EB6C",
"H.	c #8BE970",
"I.	c #8CE773",
"J.	c #8BE772",
"K.	c #8AE871",
"L.	c #87EB6B",
"M.	c #9DD68D",
"N.	c #C5C8C4",
"O.	c #EEEDEE",
"P.	c #BCBBBC",
"Q.	c #F2F0F3",
"R.	c #C7CBC7",
"S.	c #ADD9A2",
"T.	c #99EC80",
"U.	c #95F377",
"V.	c #96F478",
"W.	c #96F479",
"X.	c #96F477",
"Y.	c #99EC7F",
"Z.	c #AED8A1",
"`.	c #C8CCC7",
" +	c #F3F0F3",
".+	c #BCBCBC",
"++	c #BFC0BE",
"@+	c #F6F7F6",
"#+	c #D4D2D4",
"$+	c #C8D1C6",
"%+	c #BDDBB4",
"&+	c #B4E2A7",
"*+	c #B4E3A7",
"=+	c #D5D3D6",
"-+	c #BEC0BE",
";+	c #F5F2F5",
">+	c #E5E1E6",
",+	c #E2DFE3",
"'+	c #F5F2F6",
")+	c #C1BFC1",
". . . . . + + + + + + + + . . . . . ",
". . . . @ # $ % & * = - ; @ . . . . ",
". . . > , ' ) ! ~ { ] ^ / ( _ . . . ",
". . : < [ } | 1 2 3 4 5 6 7 8 9 . . ",
". + 0 a b c d e f g h i j k l 0 + . ",
"+ m = n o p q r s r t u v w x y z + ",
"+ A B C D E F G G G G H I J K L M + ",
"+ N O P Q R S S T S U V W X Y Z ` + ",
"+  ...+.@.#.$.%.&.*.%.*.=.-.;.>.,.+ ",
"+ '.).!.~.{.].].].^.^./.(._.:.<.[.+ ",
"+ }.|.1.2.3.4.5.6.6.7.8.9.0.a.b.c.+ ",
"+ d.e.f.g.h.i.j.h.k.l.m.j.n.o.p.q.+ ",
"+ r.s.t.u.v.w.w.x.x.x.y.y.z.A.B.r.+ ",
". C.D.E.F.G.H.I.J.J.J.K.L.M.N.O.C.. ",
". . P.Q.R.S.T.U.V.W.X.Y.Z.`. +.+. . ",
". . . ++@+#+$+%+&+*+%+$+=+@+-+. . . ",
". . . . ( . ;+>+,+,+>+'+. )+. . . . ",
". . . . . + + + + + + + + . . . . . "};
