/* XPM */
static char * l_red_xpm[] = {
"24 24 271 2",
"  	c None",
". 	c #B8B9B8",
"+ 	c #B6B6B6",
"@ 	c #B3B4B3",
"# 	c #ACADAC",
"$ 	c #B7B8B7",
"% 	c #B4B4B4",
"& 	c #B0B1B0",
"* 	c #AFB0AF",
"= 	c #B7B7B7",
"- 	c #B3B3B3",
"; 	c #B0B0B0",
"> 	c #A6A4A4",
", 	c #9C9696",
"' 	c #979191",
") 	c #C2C2C2",
"! 	c #AFB0B0",
"~ 	c #9D9A9A",
"{ 	c #8D8182",
"] 	c #947272",
"^ 	c #AA5C5D",
"/ 	c #B55858",
"( 	c #8D8282",
"_ 	c #9E9B9B",
": 	c #BBBBBB",
"< 	c #B8B8B8",
"[ 	c #ACACAC",
"} 	c #938888",
"| 	c #A07071",
"1 	c #D57475",
"2 	c #F9AAAB",
"3 	c #FFDADB",
"4 	c #FFEAEA",
"5 	c #FFDADA",
"6 	c #F8AAAA",
"7 	c #D57373",
"8 	c #A07070",
"9 	c #958B8B",
"0 	c #ADADAD",
"a 	c #BEBEBE",
"b 	c #BCBCBC",
"c 	c #928181",
"d 	c #B86C6D",
"e 	c #F7ACAD",
"f 	c #FFE9EA",
"g 	c #FFE0E0",
"h 	c #FEDCDC",
"i 	c #FEDBDB",
"j 	c #FFE9E9",
"k 	c #F7A8A8",
"l 	c #B96D6E",
"m 	c #968585",
"n 	c #B1B1B1",
"o 	c #BDBDBD",
"p 	c #978C8C",
"q 	c #B96365",
"r 	c #F7A4A6",
"s 	c #F7D7D9",
"t 	c #F6CDCF",
"u 	c #F6CDCE",
"v 	c #F6CCCE",
"w 	c #F7D7D8",
"x 	c #F6A0A1",
"y 	c #BA6364",
"z 	c #9B8F90",
"A 	c #B8B9B9",
"B 	c #C3C3C3",
"C 	c #C0C0C0",
"D 	c #A9A6A6",
"E 	c #A56B6C",
"F 	c #EA6467",
"G 	c #F6C9CB",
"H 	c #F4BBBD",
"I 	c #F4BABD",
"J 	c #F6C8CA",
"K 	c #E95F62",
"L 	c #A96E70",
"M 	c #ABA8A8",
"N 	c #C4C4C4",
"O 	c #C9C9C9",
"P 	c #C0C1C1",
"Q 	c #9A8C8C",
"R 	c #D14448",
"S 	c #F08B8F",
"T 	c #F5B1B4",
"U 	c #F4ADB1",
"V 	c #F4ACB0",
"W 	c #F4ACAF",
"X 	c #F4ABAF",
"Y 	c #F4ABAE",
"Z 	c #F5AEB2",
"` 	c #EF868A",
" .	c #D14348",
"..	c #9F9091",
"+.	c #CACACA",
"@.	c #C5C5C5",
"#.	c #B9B9B9",
"$.	c #A37B7C",
"%.	c #E5323A",
"&.	c #ED878D",
"*.	c #F2A2A6",
"=.	c #F29FA3",
"-.	c #F2A0A4",
";.	c #F1A0A4",
">.	c #F19FA3",
",.	c #F19EA2",
"'.	c #F19DA1",
").	c #ED8288",
"!.	c #E43037",
"~.	c #A87F81",
"{.	c #BABABA",
"].	c #C6C6C6",
"^.	c #CCCCCC",
"/.	c #B2AFAF",
"(.	c #BA696D",
"_.	c #E73842",
":.	c #E96C73",
"<.	c #ED979C",
"[.	c #ED9196",
"}.	c #ED9296",
"|.	c #EC9296",
"1.	c #EB9196",
"2.	c #EB9096",
"3.	c #EB9095",
"4.	c #EC9599",
"5.	c #E8676F",
"6.	c #E5363F",
"7.	c #BE6C70",
"8.	c #B6B2B2",
"9.	c #CACBCB",
"0.	c #CDCDCD",
"a.	c #CBCBCB",
"b.	c #B2ACAD",
"c.	c #C6656B",
"d.	c #E63C47",
"e.	c #E64F5A",
"f.	c #EB8289",
"g.	c #EC898F",
"h.	c #EC868D",
"i.	c #EC868C",
"j.	c #EC858C",
"k.	c #EC888E",
"l.	c #EB7F87",
"m.	c #E64D57",
"n.	c #E63B47",
"o.	c #C8676D",
"p.	c #B6B1B1",
"q.	c #CFCFCF",
"r.	c #CECECE",
"s.	c #CA6C73",
"t.	c #E94350",
"u.	c #E74754",
"v.	c #EB5D68",
"w.	c #EC7781",
"x.	c #EC7E89",
"y.	c #EC7D86",
"z.	c #EC7C85",
"A.	c #EC7E86",
"B.	c #EC7680",
"C.	c #EA5B67",
"D.	c #CC6E75",
"E.	c #BAB6B5",
"F.	c #D5D5D5",
"G.	c #D3D3D3",
"H.	c #BEBABA",
"I.	c #C67D83",
"J.	c #EE4B5B",
"K.	c #EC4E5D",
"L.	c #EC4F5D",
"M.	c #EC5A69",
"N.	c #EC6774",
"O.	c #EC6F7B",
"P.	c #EC747E",
"Q.	c #EC747F",
"R.	c #EC737E",
"S.	c #EC6673",
"T.	c #EC5967",
"U.	c #EB4E5D",
"V.	c #CA8086",
"W.	c #C0BEBD",
"X.	c #D6D6D6",
"Y.	c #C9C8C8",
"Z.	c #B9979A",
"`.	c #F15363",
" +	c #EB5767",
".+	c #EC5666",
"++	c #EC5868",
"@+	c #EB5E6D",
"#+	c #EB6170",
"$+	c #EC6271",
"%+	c #EC6170",
"&+	c #EC5E6D",
"*+	c #EC5767",
"=+	c #F05163",
"-+	c #BE9B9E",
";+	c #D8D8D8",
">+	c #D5D6D6",
",+	c #B8AEAF",
"'+	c #E66D7C",
")+	c #F35F71",
"!+	c #F15F72",
"~+	c #F05F71",
"{+	c #F25E72",
"]+	c #F15E71",
"^+	c #F05F70",
"/+	c #F05E70",
"(+	c #F15D6F",
"_+	c #E56D7C",
":+	c #BDB2B3",
"<+	c #D6D7D6",
"[+	c #DCDCDC",
"}+	c #DBDBDB",
"|+	c #C9C7C8",
"1+	c #CA99A0",
"2+	c #F86579",
"3+	c #F4687B",
"4+	c #F4677B",
"5+	c #F4687C",
"6+	c #F66377",
"7+	c #CC9DA3",
"8+	c #CCCACB",
"9+	c #D7D8D8",
"0+	c #C4BDBE",
"a+	c #DB909C",
"b+	c #F86C82",
"c+	c #F37085",
"d+	c #F37084",
"e+	c #F86A80",
"f+	c #DD939E",
"g+	c #C9C1C2",
"h+	c #D8D9D8",
"i+	c #E0E0E0",
"j+	c #E1E1E1",
"k+	c #DADBDB",
"l+	c #CABEC0",
"m+	c #E199A4",
"n+	c #FF778E",
"o+	c #FE778E",
"p+	c #FD798F",
"q+	c #FE788E",
"r+	c #FF758C",
"s+	c #E299A4",
"t+	c #CCC0C2",
"u+	c #E3E3E3",
"v+	c #E4E4E4",
"w+	c #DCDDDD",
"x+	c #CEC7C8",
"y+	c #D8ACB5",
"z+	c #F58CA1",
"A+	c #FF7D96",
"B+	c #FF7E97",
"C+	c #FF7F97",
"D+	c #F58CA0",
"E+	c #D7ACB4",
"F+	c #DDDDDD",
"G+	c #D7D5D5",
"H+	c #CEC5C7",
"I+	c #D3B8BE",
"J+	c #E2A9B5",
"K+	c #E8A2B0",
"L+	c #CFC5C7",
"M+	c #EBEBEB",
"N+	c #ECECEC",
"O+	c #E8E8E8",
"P+	c #E2E1E1",
"Q+	c #DBD8D9",
"R+	c #D8D4D5",
"S+	c #D9D5D6",
"T+	c #DCD9DA",
"U+	c #E9E9E9",
"V+	c #EDEDED",
"                . + @ # # @ + .                 ",
"            $ % & & * * * * & & % $             ",
"          = % - ; > , ' ' , > ; - % =           ",
"      ) + % ! ~ { ] ^ / / ^ ] ( _ ; % + )       ",
"      : < [ } | 1 2 3 4 4 5 6 7 8 9 0 < :       ",
"    a b ; c d e f g h i i h g j k l m n b a     ",
"  ) o < p q r s t t u u u u u v w x y z A o B   ",
"  B C D E F G H H H H H H H H H I J K L M ) N   ",
"O N P Q R S T U U V W W X X X Y Y Z `  ...P N O ",
"+.@.#.$.%.&.*.=.=.-.;.>.,.,.,.'.'.>.).!.~.{.].+.",
"^.O /.(._.:.<.[.[.}.|.1.1.2.1.3.3.4.5.6.7.8.9.0.",
"^.a.b.c.d.e.f.g.h.h.h.i.i.j.i.i.k.l.m.n.o.p.a.^.",
"q.r.p.s.t.u.v.w.x.y.z.z.z.z.z.A.B.C.u.t.D.E.r.q.",
"F.G.H.I.J.K.L.M.N.O.P.Q.Q.R.O.S.T.U.U.J.V.W.G.F.",
"X.G.Y.Z.`. + +.+++@+#+$+$+%+&+++.+*+*+=+-++.G.X.",
"  ;+>+,+'+)+!+~+~+{+]+^+^+/+/+^+~+~+(+_+:+<+;+  ",
"  [+}+|+1+2+3+4+3+5+4+4+4+4+3+3+3+4+6+7+8+}+[+  ",
"  [+[+9+0+a+b+c+d+d+d+c+c+c+c+c+d+e+f+g+h+[+}+  ",
"    i+j+k+l+m+n+o+p+p+p+p+p+p+q+r+s+t+[+u+j+    ",
"      v+v+w+x+y+z+A+B+C+C+B+A+D+E+x+F+v+v+      ",
"        u+v+i+G+H+I+J+K+K+J+I+L+G+i+v+v+        ",
"          M+N+M+O+P+Q+R+S+T+P+U+M+N+M+          ",
"            N+N+N+N+M+M+M+M+N+N+N+V+            ",
"                  N+N+N+V+V+N+                  "};
