/* XPM */
static char * l_red_18_xpm[] = {
"18 18 200 2",
"  	c None",
". 	c #FFFFFF",
"+ 	c #A9A8A8",
"@ 	c #959595",
"# 	c #C9CACA",
"$ 	c #AFB2B1",
"% 	c #A7AAA8",
"& 	c #A0A3A3",
"* 	c #969594",
"= 	c #A5A4A4",
"- 	c #BEC0C0",
"; 	c #9A9A9A",
"> 	c #958384",
", 	c #A17373",
"' 	c #AE6868",
") 	c #958484",
"! 	c #9B9B9B",
"~ 	c #BEBFBF",
"{ 	c #A4A4A4",
"] 	c #C4C6C6",
"^ 	c #948C8C",
"/ 	c #AC7878",
"( 	c #E19596",
"_ 	c #FDC7C6",
": 	c #FFE0E0",
"< 	c #FCC7C7",
"[ 	c #E19494",
"} 	c #AC7777",
"| 	c #968F8F",
"1 	c #A9A7A7",
"2 	c #9D9D9D",
"3 	c #C6C8C8",
"4 	c #988F90",
"5 	c #BA6F70",
"6 	c #FBBCBD",
"7 	c #FFE7E8",
"8 	c #FBD9DA",
"9 	c #FBD7D7",
"0 	c #FBDADB",
"a 	c #FFE6E7",
"b 	c #FBBABA",
"c 	c #BC7070",
"d 	c #9B9293",
"e 	c #C6C9C9",
"f 	c #D8D8D8",
"g 	c #A7AAA9",
"h 	c #AD6466",
"i 	c #F59396",
"j 	c #F6CED0",
"k 	c #F2B9BC",
"l 	c #F4BCBF",
"m 	c #F4BEC0",
"n 	c #F4BCBE",
"o 	c #F2B8BB",
"p 	c #F48F91",
"q 	c #B06568",
"r 	c #A8ABAB",
"s 	c #D9D9D9",
"t 	c #C1C5C5",
"u 	c #A39191",
"v 	c #D74E52",
"w 	c #F5A4A7",
"x 	c #F3ADB1",
"y 	c #F4A9AE",
"z 	c #F4AAAE",
"A 	c #F4AAAD",
"B 	c #F4A9AD",
"C 	c #F4A8AB",
"D 	c #F3ABAE",
"E 	c #F59FA4",
"F 	c #D84B51",
"G 	c #A79495",
"H 	c #BEC4C3",
"I 	c #B0797B",
"J 	c #E64049",
"K 	c #EE9297",
"L 	c #EF9B9F",
"M 	c #EF979B",
"N 	c #EF999D",
"O 	c #EE989C",
"P 	c #EE979C",
"Q 	c #EE959A",
"R 	c #EE999E",
"S 	c #ED8E93",
"T 	c #E53D45",
"U 	c #B47D7F",
"V 	c #BFC6C5",
"W 	c #BCC2C2",
"X 	c #BF7075",
"Y 	c #E63B46",
"Z 	c #E96E77",
"` 	c #EC8E94",
" .	c #EC878E",
"..	c #EB878D",
"+.	c #EB888D",
"@.	c #EB8D93",
"#.	c #E96B73",
"$.	c #E53944",
"%.	c #C37478",
"&.	c #BFC4C4",
"*.	c #C1C6C6",
"=.	c #C47A7F",
"-.	c #E94250",
";.	c #E94F5C",
">.	c #EC6D78",
",.	c #EC7B86",
"'.	c #EC7B85",
").	c #EC7C85",
"!.	c #EC7B84",
"~.	c #EC6C77",
"{.	c #E94E5B",
"].	c #EA4250",
"^.	c #C87D82",
"/.	c #C4C9C8",
"(.	c #CACECD",
"_.	c #C19397",
":.	c #EE4F5E",
"<.	c #EB5261",
"[.	c #EC5464",
"}.	c #EC5E6D",
"|.	c #EB6875",
"1.	c #EC6B78",
"2.	c #EC6975",
"3.	c #EC5F6D",
"4.	c #EC5463",
"5.	c #EB5262",
"6.	c #EE4D5F",
"7.	c #C5969A",
"8.	c #CACFCE",
"9.	c #DEE1E1",
"0.	c #BCB1B2",
"a.	c #E86574",
"b.	c #F25D6F",
"c.	c #EF5E70",
"d.	c #F05C6E",
"e.	c #F15D70",
"f.	c #EF5E6F",
"g.	c #EF5D6F",
"h.	c #F05C6D",
"i.	c #F15C6E",
"j.	c #E76474",
"k.	c #C0B4B5",
"l.	c #DFE1E0",
"m.	c #F5F4F4",
"n.	c #C5C8C8",
"o.	c #D1959D",
"p.	c #F96379",
"q.	c #F3697D",
"r.	c #F36A7D",
"s.	c #F3687C",
"t.	c #F3687D",
"u.	c #F36A7C",
"v.	c #F86277",
"w.	c #D398A0",
"x.	c #C7CACA",
"y.	c #F4F3F3",
"z.	c #B6B5B6",
"A.	c #EEEFEF",
"B.	c #C6C4C4",
"C.	c #DE929E",
"D.	c #FC7087",
"E.	c #FA7389",
"F.	c #F8758A",
"G.	c #FA7489",
"H.	c #FC6F86",
"I.	c #DF939F",
"J.	c #CAC7C7",
"K.	c #EFF0EF",
"L.	c #B5B5B5",
"M.	c #BCBCBC",
"N.	c #F1F3F3",
"O.	c #CBC9C9",
"P.	c #DEA6B0",
"Q.	c #F7859B",
"R.	c #FF7C94",
"S.	c #FF7D95",
"T.	c #FF7C95",
"U.	c #F7859A",
"V.	c #DDA6AF",
"W.	c #CCC9C9",
"X.	c #F2F3F3",
"Y.	c #BDBDBD",
"Z.	c #BEBEBE",
"`.	c #F6F7F7",
" +	c #D3D5D5",
".+	c #D2C8CA",
"++	c #DCB8BF",
"@+	c #E3ABB6",
"#+	c #D3C9CB",
"$+	c #D2D5D4",
"%+	c #F6F6F6",
"&+	c #BFBEBE",
"*+	c #C1C1C1",
"=+	c #F4F5F5",
"-+	c #E4E6E6",
";+	c #E0E4E3",
">+	c #E1E4E4",
",+	c #E4E7E6",
"'+	c #F4F6F5",
")+	c #C2C1C1",
". . . . . + + + + + + + + . . . . . ",
". . . . @ # $ % & & % $ # * . . . . ",
". . . = - ; > , ' ' , ) ! ~ { + . . ",
". . + ] ^ / ( _ : : < [ } | ] 1 . . ",
". 2 3 4 5 6 7 8 9 9 0 a b c d e 2 . ",
"+ f g h i j k l m m n o j p q r s + ",
"+ t u v w x y z A B B C D E F G t + ",
"+ H I J K L M N O P P Q R S T U V + ",
"+ W X Y Z `  . .......+.@.#.$.%.&.+ ",
"+ *.=.-.;.>.,.'.).).!.!.~.{.].^./.+ ",
"+ (._.:.<.[.}.|.1.1.2.3.4.5.6.7.8.+ ",
"+ 9.0.a.b.c.d.e.f.f.g.h.c.i.j.k.l.+ ",
"+ m.n.o.p.q.r.s.s.s.t.r.u.v.w.x.y.+ ",
". z.A.B.C.D.E.F.F.F.F.G.H.I.J.K.L.. ",
". . M.N.O.P.Q.R.S.S.T.U.V.W.X.Y.. . ",
". . . Z.`. +.+++@+@+++#+$+%+&+. . . ",
". . . . *+. =+-+;+>+,+'+. )+. . . . ",
". . . . . + + + + + + + + . . . . . "};
