/* XPM */
static char * save_as_xpm[] = {
"32 32 384 2",
"  	c None",
". 	c #1581B7",
"+ 	c #127FB6",
"@ 	c #127FB5",
"# 	c #0F7EB5",
"$ 	c #0B7CB5",
"% 	c #097CB5",
"& 	c #0C7CB5",
"* 	c #CEECFF",
"= 	c #CCEBFD",
"- 	c #CDEBFD",
"; 	c #C6E8FC",
"> 	c #FFFFFF",
", 	c #D5EDFD",
"' 	c #0389D9",
") 	c #088CDC",
"! 	c #0085D8",
"~ 	c #DFE7F1",
"{ 	c #DEE7F1",
"] 	c #D0ECFC",
"^ 	c #1091DF",
"/ 	c #064064",
"( 	c #078DDD",
"_ 	c #E0E8F2",
": 	c #DFE9F4",
"< 	c #DFEAF4",
"[ 	c #DFE9F3",
"} 	c #DEE9F3",
"| 	c #DEE8F3",
"1 	c #DFE8F2",
"2 	c #063F64",
"3 	c #CCEAFB",
"4 	c #1795E1",
"5 	c #0B486D",
"6 	c #0D91E0",
"7 	c #E5ECF6",
"8 	c #E8F1FB",
"9 	c #E9F2FD",
"0 	c #E7F0FB",
"a 	c #E6EFF9",
"b 	c #E5EEF9",
"c 	c #E5EEF8",
"d 	c #E7F0FA",
"e 	c #E6EFFA",
"f 	c #E4EDF8",
"g 	c #E3EBF4",
"h 	c #0A476C",
"i 	c #1280B6",
"j 	c #C5E5FA",
"k 	c #1B96E0",
"l 	c #14689A",
"m 	c #1292DF",
"n 	c #E9F0FA",
"o 	c #414447",
"p 	c #43474A",
"q 	c #9AA1A7",
"r 	c #989EA5",
"s 	c #979DA4",
"t 	c #959CA2",
"u 	c #E9F3FD",
"v 	c #3F4345",
"w 	c #99A0A6",
"x 	c #969CA2",
"y 	c #949BA1",
"z 	c #E6EDF7",
"A 	c #146799",
"B 	c #1380B6",
"C 	c #C0E2F9",
"D 	c #2096DD",
"E 	c #259ADF",
"F 	c #1692DB",
"G 	c #FFFFFD",
"H 	c #E8F0F9",
"I 	c #EBF4FF",
"J 	c #EDF6FF",
"K 	c #EAF4FE",
"L 	c #E9F2FC",
"M 	c #E8F1FC",
"N 	c #E7F1FB",
"O 	c #EAF3FD",
"P 	c #E5EDF7",
"Q 	c #BBE0F8",
"R 	c #2497DD",
"S 	c #299ADE",
"T 	c #1A93DB",
"U 	c #FFFEFD",
"V 	c #E9F1FA",
"W 	c #ECF6FF",
"X 	c #EEF7FF",
"Y 	c #EBF5FF",
"Z 	c #EAF3FE",
"` 	c #E8F2FC",
" .	c #ECF5FF",
"..	c #E7EFF8",
"+.	c #FFFDFC",
"@.	c #1480B6",
"#.	c #B4DDF8",
"$.	c #2D9CDE",
"%.	c #1E95DC",
"&.	c #EDF3FC",
"*.	c #424447",
"=.	c #454749",
"-.	c #9DA2A8",
";.	c #9A9FA5",
">.	c #9A9EA5",
",.	c #9A9EA4",
"'.	c #989CA3",
").	c #EEF5FF",
"!.	c #434447",
"~.	c #9DA1A8",
"{.	c #979CA2",
"].	c #EAEFF9",
"^.	c #B1DCF6",
"/.	c #2D9CDF",
"(.	c #309EDF",
"_.	c #2297DD",
":.	c #FFFCFC",
"<.	c #ECF2FB",
"[.	c #EFF6FF",
"}.	c #F1F8FF",
"|.	c #EDF4FE",
"1.	c #EDF4FF",
"2.	c #EDF5FF",
"3.	c #ECF3FD",
"4.	c #EBF2FD",
"5.	c #EFF7FF",
"6.	c #F0F8FF",
"7.	c #EBF2FC",
"8.	c #EAF0F9",
"9.	c #FFFBFC",
"0.	c #ABD9F6",
"a.	c #319FDF",
"b.	c #34A0DF",
"c.	c #269ADD",
"d.	c #FFFAFC",
"e.	c #F0F7FF",
"f.	c #F1F9FF",
"g.	c #ECF3FE",
"h.	c #EBF1FA",
"i.	c #1481B6",
"j.	c #A6D6F5",
"k.	c #36A1E1",
"l.	c #39A2E0",
"m.	c #2B9CDE",
"n.	c #FFFBFE",
"o.	c #F1F6FF",
"p.	c #414245",
"q.	c #9FA2AA",
"r.	c #9B9FA6",
"s.	c #F2F8FF",
"t.	c #444549",
"u.	c #46474B",
"v.	c #9FA3AB",
"w.	c #424246",
"x.	c #9FA3AA",
"y.	c #9CA0A7",
"z.	c #9A9DA5",
"A.	c #EFF3FC",
"B.	c #FFFBFD",
"C.	c #1581B6",
"D.	c #A2D5F5",
"E.	c #3BA3E2",
"F.	c #3DA4E1",
"G.	c #FFFAFE",
"H.	c #F0F4FD",
"I.	c #F0F6FF",
"J.	c #EFF5FF",
"K.	c #F3F9FF",
"L.	c #F1F7FF",
"M.	c #EEF4FE",
"N.	c #EEF3FC",
"O.	c #FFF9FE",
"P.	c #9FD4F3",
"Q.	c #3FA6E3",
"R.	c #42A6E3",
"S.	c #35A1E1",
"T.	c #FFFCFE",
"U.	c #F1F4FD",
"V.	c #EEF3FD",
"W.	c #EDF2FC",
"X.	c #F1F4FC",
"Y.	c #9BD1F3",
"Z.	c #44A7E3",
"`.	c #47A8E3",
" +	c #3FA4E1",
".+	c #B9DAF4",
"++	c #98D1F3",
"@+	c #48A9E4",
"#+	c #4BAAE4",
"$+	c #4AA9E3",
"%+	c #42A6E2",
"&+	c #3CA3E1",
"*+	c #39A2E1",
"=+	c #38A2E1",
"-+	c #95CFF3",
";+	c #4DABE5",
">+	c #50ADE5",
",+	c #46A8E4",
"'+	c #41A6E3",
")+	c #3FA5E3",
"!+	c #3EA5E3",
"~+	c #92CEF3",
"{+	c #52AEE6",
"]+	c #54AFE6",
"^+	c #4DACE5",
"/+	c #A5CBE6",
"(+	c #FFFFFC",
"_+	c #FFFCFB",
":+	c #FFFBFA",
"<+	c #FFFCFA",
"[+	c #FFFDFB",
"}+	c #1681B6",
"|+	c #8FCCF3",
"1+	c #56B0E7",
"2+	c #58B1E7",
"3+	c #57B0E7",
"4+	c #4CABE6",
"5+	c #CFDAE7",
"6+	c #CFDCE9",
"7+	c #D4E1EF",
"8+	c #D8E5F3",
"9+	c #D8E5F2",
"0+	c #D5E1EE",
"a+	c #D2DDEA",
"b+	c #D1DCE9",
"c+	c #D3DCE8",
"d+	c #4EACE7",
"e+	c #58B1E8",
"f+	c #59B1E8",
"g+	c #57B1E8",
"h+	c #90CDF4",
"i+	c #1582B6",
"j+	c #8ECBF3",
"k+	c #5BB2E7",
"l+	c #5DB3E7",
"m+	c #4FADE5",
"n+	c #D1DDE9",
"o+	c #EEF4FC",
"p+	c #929CA5",
"q+	c #4E4A48",
"r+	c #59514E",
"s+	c #9B9DA4",
"t+	c #FBFAFE",
"u+	c #E0E6EF",
"v+	c #E0E6EE",
"w+	c #E0E5EE",
"x+	c #55B2EA",
"y+	c #5EB6EB",
"z+	c #5FB6EB",
"A+	c #90CEF6",
"B+	c #1382B8",
"C+	c #8BCBF2",
"D+	c #5EB5E8",
"E+	c #5FB5E8",
"F+	c #5EB4E8",
"G+	c #52AFE7",
"H+	c #FAF8F7",
"I+	c #D4E0EB",
"J+	c #FDFFFF",
"K+	c #474444",
"L+	c #637E92",
"M+	c #1579B7",
"N+	c #0B70AD",
"O+	c #046AA7",
"P+	c #0368A6",
"Q+	c #0267A5",
"R+	c #0167A5",
"S+	c #0167A4",
"T+	c #0166A4",
"U+	c #0367A4",
"V+	c #0969A4",
"W+	c #0D6BA5",
"X+	c #0E6CA6",
"Y+	c #126FA9",
"Z+	c #1974AC",
"`+	c #237AB0",
" @	c #8ACBF1",
".@	c #63B7E9",
"+@	c #64B7E9",
"@@	c #62B6E9",
"#@	c #56B1E8",
"$@	c #F7F6F6",
"%@	c #D6E2ED",
"&@	c #FAFFFF",
"*@	c #4E4B4A",
"=@	c #688192",
"-@	c #1275B1",
";@	c #88C9F3",
">@	c #67B9EB",
",@	c #68B9EA",
"'@	c #66B8EA",
")@	c #5BB4E9",
"!@	c #F6F4F5",
"~@	c #DAE5ED",
"{@	c #F8FFFF",
"]@	c #514F4E",
"^@	c #6A8392",
"/@	c #0E72AF",
"(@	c #545250",
"_@	c #595857",
":@	c #535251",
"<@	c #E1E0E2",
"[@	c #DCDBDD",
"}@	c #DADADC",
"|@	c #DCDADB",
"1@	c #1471AB",
"2@	c #86C9F1",
"3@	c #6CBBEA",
"4@	c #6ABAEA",
"5@	c #5FB6E9",
"6@	c #F3F3F5",
"7@	c #DDE8EE",
"8@	c #F6FDFF",
"9@	c #545252",
"0@	c #6B8494",
"a@	c #0D71AE",
"b@	c #F6F5F6",
"c@	c #575757",
"d@	c #F4F5F7",
"e@	c #E9EAEB",
"f@	c #E6E7E8",
"g@	c #E5E6E7",
"h@	c #E6E6E6",
"i@	c #1371AA",
"j@	c #85C9F1",
"k@	c #70BDEC",
"l@	c #70BDEB",
"m@	c #6EBCEB",
"n@	c #64B8EA",
"o@	c #F1F2F2",
"p@	c #DFEAF0",
"q@	c #F3FBFF",
"r@	c #585554",
"s@	c #6D8695",
"t@	c #0C70AE",
"u@	c #FEFEFD",
"v@	c #535353",
"w@	c #FDFEFE",
"x@	c #F3F4F4",
"y@	c #F0F1F1",
"z@	c #F2F2F1",
"A@	c #85C9F3",
"B@	c #76C1EE",
"C@	c #76C0ED",
"D@	c #74BFED",
"E@	c #69BBEC",
"F@	c #F0F3F2",
"G@	c #E2EDF1",
"H@	c #F2FBFF",
"I@	c #5A5858",
"J@	c #6F8896",
"K@	c #525252",
"L@	c #FDFFFE",
"M@	c #FBFCFC",
"N@	c #FDFDFC",
"O@	c #1370AA",
"P@	c #1882B7",
"Q@	c #8BCDF6",
"R@	c #83C8F3",
"S@	c #82C7F2",
"T@	c #80C6F2",
"U@	c #75C2F1",
"V@	c #F4F6F4",
"W@	c #E9F2F5",
"X@	c #F3FDFF",
"Y@	c #5F5C5C",
"Z@	c #728B99",
"`@	c #555555",
" #	c #1380B5",
".#	c #067AB3",
"+#	c #CFCFD7",
"@#	c #C4CBD7",
"##	c #CAD3DF",
"$#	c #0F71AE",
"%#	c #53504E",
"&#	c #585656",
"*#	c #504E4E",
"=#	c #1471AA",
"-#	c #1775AE",
";#	c #227AB0",
">#	c #1975AD",
",#	c #1573AC",
"'#	c #1473AC",
")#	c #1472AC",
"    . + @ # $ % % % % % % % % % % % % % % % % & # @ + .         ",
"  . * = - ; > > > > > > > > > > > > > > > > > > ; - = * .       ",
"  @ , ' ) ! > ~ { { { { { { { { { { { { { { ~ > ! ) ' , @       ",
"  @ ] ^ / ( > _ : < [ } } | | [ [ } } [ [ | 1 > ( 2 ^ ] @       ",
"  + 3 4 5 6 > 7 8 9 0 a b c c d e c c d e f g > 6 h 4 3 +       ",
"  i j k l m > n o p q r s t u v w x u v w y z > m A k j i       ",
"  B C D E F G H I J K L M N N O u N 8 K O d P G F E D C B       ",
"  B Q R S T U V W X Y Z u 9 9 u ` `  .X I 8 ..+.T S R Q B       ",
"  @.#.S $.%.U &.*.=.-.;.>.>.>.,.'.).!.=.~.{.].+.%.$.S #.@.      ",
"  @.^./.(._.:.<.[.}.).|.1.2.|.3.4.3.5.6.).7.8.9._.(./.^.@.      ",
"  @.0.a.b.c.d.&.[.[.|.|.e.f.[.|.g.[.5.[.2.3.h.d.c.b.a.0.@.      ",
"  i.j.k.l.m.n.o.p.q.r.s.t.u.v.r.s.w.x.~.y.z.A.B.m.l.k.j.i.      ",
"  C.D.E.F.(.G.H.e.I.J.J.s.K.L.J.).L.e.I.J.M.N.O.(.F.E.D.C.      ",
"  C.P.Q.R.S.T.U.V.V.W.W.V.V.V.&.W.V.V.V.N.N.X.T.S.R.Q.P.C.      ",
"  C.Y.Z.`. +.+> > > > > > > > > > > > > > > > .+ +`.Z.Y.C.      ",
"  C.++@+#+$+%+&+*+=+=+=+=+=+=+=+=+=+=+=+=+*+&+%+$+#+@+++C.      ",
"  C.-+;+>+>+;+,+'+)+!+!+!+)+)+)+)+)+)+)+)+'+,+;+>+>+;+-+C.      ",
"  C.~+{+]+]+^+/+(+(+U U U U _+:+:+:+:+:+<+[+/+^+]+]+{+~+C.      ",
"  }+|+1+2+3+4+(+5+6+7+8+9+0+a+b+b+b+b+b+b+c+G d+e+f+g+h+i+      ",
"  }+j+k+l+k+m+:+n+o+p+q+r+s+t+u+u+u+u+u+v+w+> x+y+z+y+A+B+      ",
"  }+C+D+E+F+G+H+I+J+K+L+M+N+O+P+P+Q+R+R+S+T+U+V+W+W+W+X+Y+Z+`+  ",
"  }+ @.@+@@@#@$@%@&@*@=@-@> > > > > > > > > > > > > > > > > Z+  ",
"  }+;@>@,@'@)@!@~@{@]@^@/@> (@_@:@<@[@}@}@}@}@}@}@}@}@}@|@> 1@  ",
"  }+2@3@3@4@5@6@7@8@9@0@a@> b@c@d@e@f@g@g@g@g@g@g@g@g@g@h@> i@  ",
"  }+j@k@l@m@n@o@p@q@r@s@t@> u@v@w@x@y@y@y@y@y@y@y@y@y@y@z@> i@  ",
"  }+A@B@C@D@E@F@G@H@I@J@N+> > K@> L@M@M@M@M@M@M@M@M@M@M@N@> O@  ",
"  P@Q@R@S@T@U@V@W@X@Y@Z@t@> > `@> > > > > > > > > > > > > > O@  ",
"    P@}+}+ #.#+#@###    $#> %#&#*#> > > > > > > > > > > > > =#  ",
"                        -#> > > > > > > > > > > > > > > > > Z+  ",
"                        ;#>#,#'#)#i@O@O@O@O@O@O@O@O@O@O@i@Z+`+  ",
"                                                                ",
"                                                                "};
