/* XPM */
static char * search_xpm[] = {
"24 24 266 2",
"  	c None",
". 	c #CECECE",
"+ 	c #BBCBFF",
"@ 	c #BADAEF",
"# 	c #99A8B2",
"$ 	c #838485",
"% 	c #7F7D7C",
"& 	c #9AA8B2",
"* 	c #BADAEE",
"= 	c #64A4D3",
"- 	c #B0B8BE",
"; 	c #878483",
"> 	c #D5D1CE",
", 	c #FFFFFD",
"' 	c #FFFFFF",
") 	c #D5D1CF",
"! 	c #868483",
"~ 	c #9FAFB9",
"{ 	c #D9D9EA",
"] 	c #7F8992",
"^ 	c #ADABAA",
"/ 	c #A2C1D8",
"( 	c #4D86B1",
"_ 	c #3172A2",
": 	c #3373A3",
"< 	c #3374A3",
"[ 	c #5188B1",
"} 	c #A5C2D8",
"| 	c #AAA8A7",
"1 	c #8A8F93",
"2 	c #ADADAE",
"3 	c #AEADAC",
"4 	c #588EB5",
"5 	c #83ABC9",
"6 	c #CFE2F2",
"7 	c #D8ECFA",
"8 	c #CBE5F8",
"9 	c #BEDDF6",
"0 	c #9FC9E7",
"a 	c #659BC1",
"b 	c #5F92B6",
"c 	c #A9A7A5",
"d 	c #A2B2BA",
"e 	c #E5E5E6",
"f 	c #87898A",
"g 	c #5D93BB",
"h 	c #A8C5DE",
"i 	c #E5F2FD",
"j 	c #D3E7F8",
"k 	c #C6E1F5",
"l 	c #B9DAF2",
"m 	c #AFD7F0",
"n 	c #A4D1EF",
"o 	c #99CDEF",
"p 	c #599AC9",
"q 	c #6497BC",
"r 	c #FFFFFE",
"s 	c #858485",
"t 	c #A2A3A5",
"u 	c #CECDCB",
"v 	c #A3C4DC",
"w 	c #7DABCE",
"x 	c #E6F2FC",
"y 	c #D1E6F7",
"z 	c #C5E0F3",
"A 	c #BADCF2",
"B 	c #B0D8F1",
"C 	c #A6D4F0",
"D 	c #9DD0EE",
"E 	c #8FCAEE",
"F 	c #7DC2EB",
"G 	c #5696C5",
"H 	c #A8C6DD",
"I 	c #CDCBC9",
"J 	c #A3B1B9",
"K 	c #7D7F80",
"L 	c #F8F4F1",
"M 	c #5998C4",
"N 	c #D1E4F3",
"O 	c #D3E7F7",
"P 	c #B1DAF2",
"Q 	c #A9D8F1",
"R 	c #A1D6F1",
"S 	c #97D2F0",
"T 	c #88CCEE",
"U 	c #85CBEE",
"V 	c #79BCE5",
"W 	c #609AC4",
"X 	c #F8F4EF",
"Y 	c #818386",
"Z 	c #7C7D7E",
"` 	c #FFFFFC",
" .	c #478FC4",
"..	c #D7EAF8",
"+.	c #C5E1F4",
"@.	c #ABD9F2",
"#.	c #A4D9F2",
"$.	c #9CD8F2",
"%.	c #90D5F2",
"&.	c #90D4F1",
"*.	c #8ED3F1",
"=.	c #8ACFF1",
"-.	c #4E91C4",
";.	c #787879",
">.	c #797B7D",
",.	c #FFFCF9",
"'.	c #4F97CC",
").	c #CAE2F5",
"!.	c #B8DAF1",
"~.	c #9EDAF4",
"{.	c #95DBF4",
"].	c #98DDF6",
"^.	c #97DCF5",
"/.	c #95D9F3",
"(.	c #90D5F4",
"_.	c #5498CC",
":.	c #767678",
"<.	c #797A7C",
"[.	c #FFFAF6",
"}.	c #55A0D6",
"|.	c #BCDAF2",
"1.	c #AFD6EF",
"2.	c #9CE1F7",
"3.	c #A1E7F9",
"4.	c #A0E5F9",
"5.	c #95DCF6",
"6.	c #599FD5",
"7.	c #FFF9F4",
"8.	c #727173",
"9.	c #797A7B",
"0.	c #EBE6E5",
"a.	c #6FB0E2",
"b.	c #A3CEED",
"c.	c #A3D0ED",
"d.	c #9CD0EE",
"e.	c #A8EFFE",
"f.	c #A7EDFD",
"g.	c #9FE5F9",
"h.	c #8DD3F3",
"i.	c #71B0E1",
"j.	c #EAE4E2",
"k.	c #7B797A",
"l.	c #939394",
"m.	c #C0BDBD",
"n.	c #ACD0EB",
"o.	c #81BDEC",
"p.	c #96CAEB",
"q.	c #8EC9EC",
"r.	c #88CBEE",
"s.	c #A5EBFC",
"t.	c #9EE5FA",
"u.	c #74BDEC",
"v.	c #ACCFEB",
"w.	c #C0BBBA",
"x.	c #6E8698",
"y.	c #C3C3C3",
"z.	c #EEE9E4",
"A.	c #83C1EF",
"B.	c #6EB7E9",
"C.	c #7BBEE6",
"D.	c #84C9EC",
"E.	c #8DD1F0",
"F.	c #95D8F3",
"G.	c #9BE0F6",
"H.	c #9EE5F8",
"I.	c #9EE5F9",
"J.	c #82CBF3",
"K.	c #82BEEE",
"L.	c #ECE8E3",
"M.	c #797979",
"N.	c #B5B5B5",
"O.	c #E1E1E1",
"P.	c #949496",
"Q.	c #9A9A9A",
"R.	c #EAEAE9",
"S.	c #87C7F5",
"T.	c #75BEF4",
"U.	c #7EC4ED",
"V.	c #86CCED",
"W.	c #8ED2F0",
"X.	c #93DAF3",
"Y.	c #8FD7F6",
"Z.	c #7CC6F8",
"`.	c #85C4F4",
" +	c #E7E7E8",
".+	c #949495",
"++	c #999CA0",
"@+	c #9499A4",
"#+	c #D1D1D1",
"$+	c #7B7C7E",
"%+	c #989797",
"&+	c #E7E2DE",
"*+	c #B1D5F2",
"=+	c #84C9FF",
"-+	c #77C5FF",
";+	c #77C4FF",
">+	c #83C8FE",
",+	c #B0D4F1",
"'+	c #E7E1DD",
")+	c #949494",
"!+	c #838489",
"~+	c #F6FAFF",
"{+	c #E2CD9F",
"]+	c #C88E39",
"^+	c #C9C9C9",
"/+	c #8D8E90",
"(+	c #78787A",
"_+	c #B6B4B3",
":+	c #DBD7D4",
"<+	c #EAE6E2",
"[+	c #EAE5E1",
"}+	c #B5B3B3",
"|+	c #777779",
"1+	c #808285",
"2+	c #9EA5AD",
"3+	c #F1ECE4",
"4+	c #FFF1C8",
"5+	c #FFC73E",
"6+	c #C48E41",
"7+	c #B3B3B4",
"8+	c #88888A",
"9+	c #717173",
"0+	c #707072",
"a+	c #706F72",
"b+	c #AFAFAF",
"c+	c #757981",
"d+	c #A98F6C",
"e+	c #FFA316",
"f+	c #FFE9C6",
"g+	c #FFF1CF",
"h+	c #FFC841",
"i+	c #C38E42",
"j+	c #EFE4D5",
"k+	c #CDCDCD",
"l+	c #C0C0C0",
"m+	c #BCBCBC",
"n+	c #D5D5D5",
"o+	c #C1C1C1",
"p+	c #B18144",
"q+	c #EB9519",
"r+	c #FFA21E",
"s+	c #FFE9C8",
"t+	c #FFC842",
"u+	c #C38F42",
"v+	c #9C9CF1",
"w+	c #E3E3E3",
"x+	c #C2C2C2",
"y+	c #A9814C",
"z+	c #E9951C",
"A+	c #FFE9C9",
"B+	c #FFF2D2",
"C+	c #FFCB47",
"D+	c #C89346",
"E+	c #A8804D",
"F+	c #FFA31F",
"G+	c #FFEDCF",
"H+	c #FFBE3B",
"I+	c #C59246",
"J+	c #EA961C",
"K+	c #FFA824",
"L+	c #FFB733",
"M+	c #C49248",
"N+	c #A8804C",
"O+	c #A9804C",
"P+	c #AA814C",
"Q+	c #C8C8C8",
"                . . .                           ",
"        + @ # $ % % % $ & *                     ",
"      = - ; > , ' ' ' , ) ! ~                   ",
"    { ] ^ ' / ( _ : < [ } ' | 1                 ",
"    2 3 ' 4 5 6 7 8 9 0 a b ' c d               ",
"  e f ' g h i j k l m n o p q r s               ",
"  t u v w x y z A B C D E F G H I J             ",
"  K L M N O z A P Q R S T U V W X Y             ",
". Z `  ...+.A P @.#.$.%.&.*.=.-.` ;..           ",
". >.,.'.).!.B Q #.~.{.].^./.(._.,.:..           ",
". <.[.}.|.1.C R $.{.2.3.4.2.5.6.7.8..           ",
". 9.0.a.b.c.d.S %.].3.e.f.g.h.i.j.k..           ",
"  l.m.n.o.p.q.r.&.^.4.f.s.t.u.v.w.x.            ",
"  y.Z z.A.B.C.D.E.F.G.H.I.J.K.L.M.N.            ",
"  O.P.Q.R.S.T.U.V.W.X.Y.Z.`. +.+++@+            ",
"    #+$+%+&+*+=+-+;+;+>+,+'+)+!+~+{+]+          ",
"    { ^+/+(+_+:+<+[+<+:+}+|+1+2+3+4+5+6+        ",
"      { #+7+8+9+0+a+0+9+8+b+c+d+e+f+g+h+i+j+    ",
"          O.k+l+m+m+m+l+. n+o+p+q+r+s+g+t+u+    ",
"                { { { v+    w+x+y+z+r+A+B+C+D+  ",
"                              w+x+E+z+F+G+H+I+  ",
"                                w+x+E+J+K+L+M+{ ",
"                                  w+x+N+O+P+Q+  ",
"                                    w+Q+m+Q+w+  "};
