/* XPM */
static char * accept_xpm[] = {"24 24 190 2",
"   c None",   ".  c #3A7003","+  c #367600","@  c #5D9605","#  c #79AC28","$  c #7FB02D","%  c #76AB22",
"&  c #6CA40D","*  c #5A9701","=  c #4C8A01","-  c #3F7C03",";  c #3B7104",">  c #468704",",  c #498702",
"'  c #BFE068",")  c #DFF690","!  c #D6F472","~  c #D9F677","{  c #D7F475","]  c #D5F471","^  c #BCDD5C",
"/  c #99C91E","(  c #6CA30C","_  c #468503",":  c #478804","<  c #4C8B08","[  c #76AD0F","}  c #F6FFAB",
"|  c #E5FB94","1  c #BDDE59","2  c #A0CE1A","3  c #8DBD09","4  c #92C301","5  c #94C500","6  c #93C400",
"7  c #A1CF1B","8  c #BDDD5A","9  c #B0D732","0  c #82B610","a  c #5D9802","b  c #488803","c  c #4D8B08",
"d  c #A2CA4A","e  c #E9FF94","f  c #C4E65D","g  c #A3D017","h  c #94C600","i  c #97C703","j  c #98C804",
"k  c #98C805","l  c #95C600","m  c #9DCA16","n  c #B1D842","o  c #96C230","p  c #609A06","q  c #77AD14",
"r  c #ECFCB0","s  c #B7DE44","t  c #97C705","u  c #97C704","v  c #AED739","w  c #8EBD28","x  c #3B7103",
"y  c #478600","z  c #CFEC6D","A  c #BEE44A","B  c #97C702","C  c #98C806","D  c #B1D843","E  c #3C7104",
"F  c #2F6200","G  c #9BC535","H  c #D8F772","I  c #A5D11B","J  c #BCDD59","K  c #9AC90B","L  c #AAD32D",
"M  c #619D01","N  c #356503","O  c #4B8100","P  c #B5D953","Q  c #BEDF58","R  c #90C300","S  c #DAEDA1",
"T  c #FFFFFF","U  c #ACD534","V  c #96C700","W  c #B1D64C","X  c #80B214","Y  c #4B8702","Z  c #679F0D",
"`  c #BEDE5C"," . c #A1D01B",".. c #FBFDFA","+. c #92C400","@. c #A3D21E","#. c #A4D12B","$. c #5A9703",
"%. c #649D0B","&. c #D3F270","*. c #94C900","=. c #99CC04","-. c #93C500",";. c #99CD04",">. c #D5EA97",
",. c #FDFEFC","'. c #FCFEFA","). c #FAFDF5","!. c #C0DF64","~. c #96C600","{. c #97CF00","]. c #B2D554",
"^. c #589600","/. c #659D0B","(. c #D4F270","_. c #9AD103",":. c #9AD203","<. c #9DCA13","[. c #D9ED9E",
"}. c #9BC90C","|. c #98CA05","1. c #99CE04","2. c #FBFDF9","3. c #FBFDF8","4. c #97C603","5. c #99D004",
"6. c #97D000","7. c #B8DA58","8. c #589500","9. c #579500","0. c #B6D857","a. c #98D000","b. c #96C701",
"c. c #BDDF60","d. c #EAF6CA","e. c #96C601","f. c #C8E475","g. c #92C500","h. c #9AD104","i. c #B9DA5B",
"j. c #96CF00","k. c #93CA00","l. c #FBFEF6","m. c #FDFEFD","n. c #FEFFFF","o. c #EAF5CB","p. c #D9ECA4",
"q. c #FCFEFC","r. c #C0DE64","s. c #9AD204","t. c #A6D22C","u. c #A3D31E","v. c #99D002","w. c #99D102",
"x. c #A7D02B","y. c #F5FBE6","z. c #FCFEFB","A. c #98CE02","B. c #A4D31E","C. c #457C02","D. c #81B214",
"E. c #B3D84E","F. c #98CF01","G. c #B0D63D","H. c #F4FAE6","I. c #C8E575","J. c #93C900","K. c #B1D74C",
"L. c #366903","M. c #B1D834","N. c #9ED115","O. c #99D003","P. c #95CF00","Q. c #B1DB3C","R. c #F5FAE7",
"S. c #C1E264","T. c #94CE00","U. c #9FD215","V. c #1F3604","W. c #447F03","X. c #9AD105","Y. c #98D001",
"Z. c #A2D419","`. c #A4D51D"," + c #386C04",".+ c #5E9A02","++ c #8EBD29","@+ c #ACD538","#+ c #619B06",
"$+ c #488102",
"                                                ","            . + @ # $ $ % & * = - ;             ",
"          > , ' ) ! ~ ~ { ] ^ / ( _ :           ","        < [ } | 1 2 3 4 5 6 7 8 9 0 a b         ",
"      c d e f g h i j j k k i l m n o p b       ","    > q r s t u k k k k k k k k u k v w a :     ",
"  x y z A t k k k k k k k k k u B u C D 0 _ E   ","  F G H I u k k k k k k k k k u J K u m L M N   ",
"  O P Q h k k k k k k k k k R S T U i V W X Y   ","  Z `  .i t j k j t t t u i S T ..T +.i @.#.$.  ",
"  %.&.*.=.=.i -.i ;.;.k i >.,.'.).!.~.=.{.].^.  ","  /.(.5 _.:.<.[.}.|.1.R S ,.2.3.!.4.5._.6.7.8.  ",
"  9.0.a._.b.c.T d.K e.S T '.3.f.g.5.5.h.6.7.8.  ","  8.i.j.h.k.l.m.n.o.p.q.'.).r.k.s._.h.h.6.].^.  ",
"  $.t.u.v.w.x.y.z.z.q.2.3.r.A.h.5.h.h.v.B.#.$.  ","  C.D.E.a.5.F.G.H.z.z.3.I.J.h.h.h.h.h.a.K.D.C.  ",
"  L.M M.N.O.h.P.Q.R.m.S.T.h.5.h.h.h.O.U.L M L.  ","  V.W.0 D X.h.h.Y.Z.`.h.h.h.h.h.h.h.X.D 0 W.V.  ",
"     +.+++@+X.O.h.h.h.h.h.h.h.h.O.X.@+++.+ +    ","      b #+++D U.a.v.h.h.h.h.v.a.U.D ++#+b       ",
"        b .+0 L K.B.6.6.6.6.B.K.L 0 .+b         ","           +W.M X #.].7.7.].#.X M W. +          ",
"            V.  $+$.^.8.8.^.$.$+  V.            ","                                                "};
