/* XPM */
static char * add_xpm[] = {"24 24 154 2",
"   c None",   ".  c #3A7003","+  c #367600","@  c #5D9704","#  c #73A62A","$  c #80B02D","%  c #7FB02D",
"&  c #77AB25","*  c #6BA11A","=  c #5A9701","-  c #4C8B00",";  c #3F7C03",">  c #3B7104",",  c #468704",
"'  c #498801",")  c #C0DE6F","!  c #DDF09D","~  c #D4F372","{  c #D9F678","]  c #D9F677","^  c #D7F476",
"/  c #D5F374","(  c #BCDD5A","_  c #96C043",":  c #6DA40A","<  c #468503","[  c #478804","}  c #4B8A08",
"|  c #76AC10","1  c #F2FFB3","2  c #DBF485","3  c #BBDD53","4  c #9FCE1B","5  c #91C300","6  c #92C400",
"7  c #A0CF1C","8  c #BDDE57","9  c #AFD633","0  c #82B610","a  c #5D9802","b  c #488803","c  c #9AC251",
"d  c #E8FB9E","e  c #BCE347","f  c #A3D01A","g  c #95C604","h  c #96C706","i  c #93C500","j  c #9CCA16",
"k  c #B2D943","l  c #96C230","m  c #609A06","n  c #78AE14","o  c #E7FB9E","p  c #B5DD40","q  c #95C605",
"r  c #93C501","s  c #90C300","t  c #AFD73A","u  c #8FBE28","v  c #3B7103","w  c #478600","x  c #CFEC6D",
"y  c #BEE44C","z  c #95C603","A  c #BFDF5B","B  c #FFFFFF","C  c #96C707","D  c #B3D943","E  c #3C7104",
"F  c #2F6200","G  c #9BC535","H  c #D8F772","I  c #A3D01C","J  c #94C603","K  c #C9E283","L  c #FDFEFE",
"M  c #9CCA17","N  c #AAD32D","O  c #619D01","P  c #356503","Q  c #4B8100","R  c #B5D953","S  c #BDDF58",
"T  c #C8E280","U  c #FDFEFD","V  c #C9E280","W  c #B2D84C","X  c #80B214","Y  c #4B8702","Z  c #679F0D",
"`  c #BEDE5C"," . c #A1D01C",".. c #C7E180","+. c #94C604","@. c #A3D11F","#. c #A4D12B","$. c #5A9703",
"%. c #649D0B","&. c #D4F270","*. c #92C900","=. c #97CC05","-. c #93C601",";. c #DFECC5",">. c #FCFEFC",
",. c #96D000","'. c #B3D654","). c #589600","!. c #659D0B","~. c #99D303","{. c #90C500","]. c #FBFDFA",
"^. c #99D203","/. c #96D100","(. c #B8D958","_. c #589500",":. c #579500","<. c #B7D857","[. c #97D100",
"}. c #B9DA5B","|. c #95D100","1. c #99D204","2. c #95CB00","3. c #C1E45A","4. c #C9E183","5. c #C8E180",
"6. c #C8E17F","7. c #E2F0BD","8. c #5A9702","9. c #A6D22D","0. c #A3D31F","a. c #98D101","b. c #97D101",
"c. c #97CF01","d. c #97D001","e. c #95CE00","f. c #457C02","g. c #B4DA4E","h. c #B3D94C","i. c #366903",
"j. c #B0D834","k. c #9ED315","l. c #98D103","m. c #CBE882","n. c #AAD42D","o. c #1F3604","p. c #447F03",
"q. c #99D105","r. c #C1E55A","s. c #386C04","t. c #5D9A02","u. c #ADD538","v. c #93CF00","w. c #488102",
"                                                ","            . + @ # $ % & * = - ; >             ",
"          , ' ) ! ~ { ] ^ / ( _ : < [           ","        } | 1 2 3 4 5 6 6 5 7 8 9 0 a b         ",
"      } c d e f 6 g h h h h g i j k l m b       ","    , n o p h q h h r s s r h h q h t u a [     ",
"  v w x y h h h h z A B B A z h h h C D 0 < E   ","  F G H I q h h h J K L L K J h h h q M N O P   ",
"  Q R S 6 h h h h J T U U V J h h h h i W X Y   ","  Z `  .g h z J J i ..U U ..i J J z h +.@.#.$.  ",
"  %.&.*.=.-.A K T ..;.>.>.;...T K A -.=.,.'.).  ","  !.&.6 ~.{.B L U U >.].].>.U U L B {.^./.(._.  ",
"  :.<.[.^.{.B L U U >.].].>.U U L B {.^./.(._.  ","  _.}.|.1.2.3.4.5.6.7.>.>.7.6.5.4.3.2.1./.'.).  ",
"  8.9.0.a.1.b.c.d.e.6.U U 6.e.d.c.b.1.a.0.#.$.  ","  f.X g.[.1.1.1.1.d.V U U V d.1.1.1.1.[.h.X f.  ",
"  i.O j.k.l.1.1.1.b.m.L L m.b.1.1.1.l.k.n.O i.  ","  o.p.0 D q.1.1.1.a.r.B B r.a.1.1.1.q.D 0 p.o.  ",
"    s.t.u u.q.l.1.1.,.v.v.,.1.1.l.q.u.u t.s.    ","      b m u D k.[.a.1.1.1.1.a.[.k.D u m b       ",
"        b t.0 n.h.0././././.0.h.n.0 t.b         ","          s.p.O X #.'.(.(.'.#.X O p.s.          ",
"            o.  w.$.)._._.).$.w.  o.            ","                                                "};
