/* XPM */
static char * cancel_xpm[] = {"24 24 214 2",
"   c None",   ".  c #C13A29","+  c #D37368","@  c #D3756A","#  c #D27468","$  c #D37468","%  c #CF6D61",
"&  c #CF6C61","*  c #CE685C","=  c #CD6357","-  c #CD6457",";  c #CC5E50",">  c #C23E2D",",  c #BD2E1C",
"'  c #E3A198",")  c #EB8C7E","!  c #E65339","~  c #E6543B","{  c #E55239","]  c #E55138","^  c #E45036",
"/  c #E54F35","(  c #E0705E","_  c #D0675A",":  c #BF3725","<  c #C03928","[  c #F8AB9F","}  c #E43D1F",
"|  c #E6482C","1  c #E5482C","2  c #E74325","3  c #DB6D5D","4  c #D06457","5  c #C13C2B","6  c #C13B2A",
"7  c #DB8F87","8  c #EB8D7E","9  c #E5472B","0  c #E64325","a  c #DC6451","b  c #CD6255","c  c #BE311F",
"d  c #DE968E","e  c #EF9385","f  c #E6472B","g  c #E8472C","h  c #EB472C","i  c #E6492D","j  c #EC5238",
"k  c #EC5137","l  c #E8472B","m  c #EB5136","n  c #DC604E","o  c #CF6356","p  c #C03827","q  c #D9867B",
"r  c #E89487","s  c #ED4A2F","t  c #ED543A","u  c #F2B2A5","v  c #FEFFFF","w  c #E75036","x  c #E8492E",
"y  c #F2B2A6","z  c #E5462A","A  c #ED5339","B  c #EF5136","C  c #D86252","D  c #C85142","E  c #D26F63",
"F  c #EA8778","G  c #ED4B30","H  c #E8482C","I  c #F6BBB0","J  c #FDFFFF","K  c #FBFAF8","L  c #FCFBF9",
"M  c #EB6A53","N  c #EC5036","O  c #DC5E4C","P  c #C64B3C","Q  c #D37569","R  c #EC5D45","S  c #EC5339",
"T  c #EB4A2E","U  c #FDE3DF","V  c #FCFEFD","W  c #FCFCFA","X  c #E8543A","Y  c #EA553D","Z  c #C75243",
"`  c #D27367"," . c #EC5E46",".. c #E74E33","+. c #FBDCD7","@. c #FBFCFA","#. c #FDE3E0","$. c #E85239",
"%. c #C24636","&. c #D06F63","*. c #F25C44","=. c #EB4F34","-. c #EC6048",";. c #FBDDD8",">. c #FCFFFE",
",. c #FCFDFB","'. c #F15B43","). c #ED5B44","!. c #CE6B60","~. c #EA5A42","{. c #F6644D","]. c #F7654F",
"^. c #F5624C","/. c #F15A41","(. c #E84F34","_. c #F1CDC9",":. c #FCFEFC","<. c #F1634D","[. c #C24535",
"}. c #CD695D","|. c #F46C58","1. c #F6644E","2. c #F15941","3. c #EE5E46","4. c #FDE4E1","5. c #FBFDFB",
"6. c #F1624D","7. c #CB6154","8. c #F36955","9. c #F6614A","0. c #F57A67","a. c #FCFCFB","b. c #FCFDFC",
"c. c #CC6255","d. c #F36A55","e. c #F76C57","f. c #FCFFFD","g. c #FBD9D4","h. c #F76E59","i. c #F0604B",
"j. c #BF3B2B","k. c #C9584A","l. c #F36752","m. c #F65C44","n. c #FCFFFF","o. c #FCFAF8","p. c #EE5A41",
"q. c #FBDBD6","r. c #FCE6E3","s. c #F65E47","t. c #BE3A29","u. c #C95446","v. c #E47161","w. c #FC6C57",
"x. c #F6634D","y. c #F6604A","z. c #FAA79B","A. c #FBF6F4","B. c #F1654E","C. c #F6624B","D. c #F46B55",
"E. c #FCF7F5","F. c #FAA99D","G. c #F66049","H. c #F76853","I. c #FE715D","J. c #DA5544","K. c #C03B2A",
"L. c #C95344","M. c #DC6B5D","N. c #FF7461","O. c #FB7461","P. c #F66B56","Q. c #F86853","R. c #FB7360",
"S. c #F96955","T. c #F9A69A","U. c #FB7361","V. c #FF7966","W. c #D04A39","X. c #C03C2B","Y. c #C23D2C",
"Z. c #C85141","`. c #E26C5D"," + c #FC7563",".+ c #FB7462","++ c #F7624C","@+ c #F75D47","#+ c #F86954",
"$+ c #FC7664","%+ c #F75D46","&+ c #F96B57","*+ c #D95341","=+ c #C64F40","-+ c #FF7765",";+ c #FC7564",
">+ c #FB7563",",+ c #FF7866","'+ c #D95342",")+ c #BE3928","!+ c #C85242","~+ c #D55A49","{+ c #FF7865",
"]+ c #D65C4C","^+ c #C03A29","/+ c #C13A28","(+ c #C74F3F","_+ c #DD5F4E",":+ c #F6715F","<+ c #F46E5C",
"[+ c #F56E5C","}+ c #DD5E4E","|+ c #C13D2C","1+ c #C1402F",
"                                                ","            . + @ # $ % & * = - ; >             ",
"          , ' ) ! ~ ~ { { ] ^ / ( _ :           ","        < ' [ } | | | | | | | 1 2 3 4 5         ",
"      6 7 8 } 1 9 9 9 9 9 9 9 9 9 0 a b 5       ","    c d e f 1 g h i j k k j i h l m k n o p     ",
"  5 q r s t f u v w x j j x w v y z A B C D 5   ","  E F G A H I J K L M N N M L K J I H A B O P   ",
"  Q R S A T U V K L W X X W L K V U T A S Y Z   ","  `  .j j A ..+.L K @.#.#.@.K L +...A j j $.%.  ",
"  &.R A *.*.=.-.;.>.K ,.,.K >.;.-.=.*.'.'.).%.  ","  !.~.{.].].^./.(._.:.L L :._.(./.^.].].].<.[.  ",
"  }.|.1.].].1.2.3.4.5.L L 5.4.3.2.1.].].].6.[.  ","  7.8.].].].9.0.a.@.K b.b.K @.a.0.9.].].].<.%.  ",
"  c.d.].].].e.L L K f.g.g.f.K L L h.].].].i.j.  ","  k.l.1.].m.n.K o.L +.p.p.q.L o.5.r.s.1.1.6.t.  ",
"  u.v.w.x.y.z.L K A.B.C.C.D.E.K L F.G.H.I.J.K.  ","  > L.M.N.O.C.z.n.P.Q.R.R.S.e.n.T.C.U.V.W.X.Y.  ",
"    . Z.`. +.+++@+#+$+.+.+$+#+%+&+$+ +*+X.5     ","      5 =+`.-+;+$+;+.+ + +.+;+$+>+,+'+)+Y.      ",
"        5 !+~+{+.+ + + + + + +.+-+]+^+Y.        ","          /+(+_+:+<+[+[+[+[+[+[+}+|+Y.          ",
"            . 1+[.)+)+)+)+)+)+)+^+5             ","                                                "};
