/* XPM */
static char * chart_xpm[] = {"24 24 287 2",
"   c None",   ".  c #B5BAB3","+  c #CCD0CB","@  c #E3E2E3","#  c #E7E2E0","$  c #EBE4E0","%  c #ECE4E1",
"&  c #E9E3E0","*  c #E3E0E0","=  c #DFDEDE","-  c #E0DFDF",";  c #DFDEDF",">  c #E3E3E3",",  c #CED1CB",
"'  c #D1D8DC",")  c #4599C3","!  c #1C82B6","~  c #107BB5","{  c #3491BF","]  c #81B0C4","^  c #D2DCE1",
"/  c #DEDCDB","(  c #DCDADA","_  c #C5CCC7",":  c #DCDADB","<  c #DBDADA","[  c #DAD9D9","}  c #D7D7D7",
"|  c #CFD3D1","1  c #DEDDDE","2  c #D2D2CC","3  c #8ABDD7","4  c #89B8CE","5  c #D8D1C8","6  c #EFE7E4",
"7  c #D8DAD7","8  c #7DB0CA","9  c #2F8DBD","0  c #95C0D6","a  c #EFE7E5","b  c #C6CDC8","c  c #E1E0E1",
"d  c #D9D8D8","e  c #DFDFDF","f  c #E0DFE1","g  c #9EB591","h  c #80AA62","i  c #D8D9DA","j  c #CDD0CC",
"k  c #CBCFCA","l  c #ECECED","m  c #E5E5E5","n  c #D4D8D6","o  c #E8E9EA","p  c #D7DAD6","q  c #D6DEE2",
"r  c #4599C4","s  c #91BBD1","t  c #C9CDC7","u  c #E9EAEB","v  c #E6E6E7","w  c #C7CDC9","x  c #E9E9EB",
"y  c #EBEBED","z  c #9EA897","A  c #6F9F50","B  c #CDD7C8","C  c #CCCFCB","D  c #CDD1CC","E  c #CED3D0",
"F  c #C5CDCB","G  c #3C96C5","H  c #9EBCC4","I  c #C9CEC9","J  c #C8CECA","K  c #BFC9BD","L  c #498B1C",
"M  c #D3D4DA","N  c #E2E3E4","O  c #E3E4E5","P  c #E9E9EA","Q  c #D5E0E6","R  c #1B91C9","S  c #BCD4E1",
"T  c #FAFFFF","U  c #EDF7F9","V  c #C6D3CF","W  c #EFEDFA","X  c #4A900C","Y  c #D0CCD6","Z  c #D6DAD8",
"`  c #F1EEF5"," . c #FCFAFF",".. c #D7D9DA","+. c #E6E7E8","@. c #D3D7D5","#. c #E0E2E2","$. c #E6ECED",
"%. c #DCC6C4","&. c #BA3F34","*. c #1777AD","=. c #D6412D","-. c #C23E30",";. c #CC776E",">. c #9E9F61",
",. c #86A17D","'. c #F8FBFC","). c #D0D5D2","!. c #CCCFCA","~. c #D5D5D7","{. c #5A982E","]. c #3F7F0D",
"^. c #76A35A","/. c #DADCDB","(. c #E5E6E7","_. c #D1D7D5",":. c #F0ECEA","<. c #CA6C64","[. c #C44C3E",
"}. c #DEB2AE","|. c #61A9CB","1. c #7EC5E5","2. c #E1ECED","3. c #D18F88","4. c #717620","5. c #BA664B",
"6. c #D39F9C","7. c #E8DDDC","8. c #E4E7E7","9. c #EDE9F0","0. c #E9E5ED","a. c #ADC1A0","b. c #5C8C3A",
"c. c #E1DFE8","d. c #DCCFCB","e. c #BF3F30","f. c #D4958F","g. c #E9E8E9","h. c #D0D6D4","i. c #E7E8E9",
"j. c #3B92BF","k. c #CDD3D7","l. c #CAD7C7","m. c #64A235","n. c #E0CAC1","o. c #D9887F","p. c #C96359",
"q. c #BC6B5F","r. c #E4ECEA","s. c #E1E3E3","t. c #BFCABD","u. c #508616","v. c #D34844","w. c #DAB9B6",
"x. c #F7FBFB","y. c #EDEEEF","z. c #C6CBC8","A. c #3A92BD","B. c #A8AC97","C. c #A0C47B","D. c #ECEDEF",
"E. c #E7DEDD","F. c #F4E2DF","G. c #EBEDEE","H. c #E9E9E9","I. c #FFFFFF","J. c #96917D","K. c #7BAB64",
"L. c #F9FAFC","M. c #EAEBEC","N. c #C9CFCB","O. c #EAEAEC","P. c #FCF9F8","Q. c #82B5D9","R. c #428A0A",
"S. c #F2EFFE","T. c #EBECEC","U. c #E3E5E5","V. c #DEE3E0","W. c #E2E2E2","X. c #E8E7E7","Y. c #E0E1E2",
"Z. c #E8D5D3","`. c #BE452F"," + c #6FA455",".+ c #C4C9C2","++ c #EDEDED","@+ c #DDDBDC","#+ c #EAEAE9",
"$+ c #EEECF4","%+ c #7A9E59","&+ c #5F905B","*+ c #5EA8D4","=+ c #EDECEB","-+ c #E7E7E7",";+ c #E2E1E1",
">+ c #DFDFE0",",+ c #E2E2E3","'+ c #CBCECA",")+ c #F6F7F7","!+ c #F1F2F2","~+ c #EAF4F5","{+ c #C74D40",
"]+ c #DDD8D8","^+ c #C9CFC9","/+ c #3D820D","(+ c #DDDAE5","_+ c #FEFDFF",":+ c #DCDBDA","<+ c #FAFAFC",
"[+ c #B2CD95","}+ c #849A74","|+ c #D9D8DB","1+ c #6EADCE","2+ c #5BA1C5","3+ c #FFFDF8","4+ c #EAE7E7",
"5+ c #F5F6F6","6+ c #CACEC9","7+ c #FAFAFB","8+ c #F5F7F7","9+ c #D7C2C1","0+ c #C14235","a+ c #FEFFFF",
"b+ c #ECEBEB","c+ c #DCDAE3","d+ c #418A0B","e+ c #96B674","f+ c #D0DACC","g+ c #BFD0B3","h+ c #569214",
"i+ c #EFF6E9","j+ c #DCDBDB","k+ c #8ABCD6","l+ c #117CB4","m+ c #93BDD4","n+ c #D6E6EE","o+ c #F8F7F7",
"p+ c #FBFCFC","q+ c #F7FAFB","r+ c #CF8C85","s+ c #E5C6C4","t+ c #FCFEFE","u+ c #E8E8E8","v+ c #F9F9F9",
"w+ c #FFFEFF","x+ c #AFC5A2","y+ c #84AC68","z+ c #98BE7F","A+ c #F0ECF7","B+ c #DCDCDC","C+ c #FCFDFD",
"D+ c #EEEBE9","E+ c #82B6D1","F+ c #6AAFD3","G+ c #F3F0EE","H+ c #E4DBDB","I+ c #C75749","J+ c #E4D8D7",
"K+ c #DEDCDE","L+ c #DDDCDC","M+ c #DEDBDB","N+ c #DFDDDC","O+ c #E1E0E0","P+ c #FBFDFD","Q+ c #EED8D6",
"R+ c #D0847C","S+ c #F8FCFC","T+ c #FAFBFB","U+ c #FCFFFF","V+ c #CC7A72","W+ c #E0A9A3","X+ c #F9FBFC",
"Y+ c #F9FAFA","Z+ c #F5F5F5","`+ c #FAFCFC"," @ c #BF3B2D",".@ c #EBEFF0","+@ c #E8E8E7","@@ c #CED1CD",
"#@ c #CFD8D4","$@ c #DBA7A3","%@ c #EAEEF0","&@ c #EBECED","*@ c #B5BAB2","=@ c #CED1CC","-@ c #CDD4D0",
"                                                ","  . + + + + + + + + + + + + + + + + + + + + .   ",
"  + @ # $ % & * = = = - = = = - = = ; - = > +   ","  , ' ) ! ~ { ] ^ / ( _ : < : _ : [ } | 1 = +   ",
"  2 3 4 5 6 7 8 9 0 a b c d c b 1 e f g h i j   ","  k l m n o o p q r s t u v u w x y z A B o C   ",
"  D E b _ w w _ b F G H I b w _ J K L M w E D   ","  k y N n o o n O P Q R S T U V W X Y Z o y k   ",
"  k `  ...+.+.@.#.$.%.&.*.=.-.;.>.,.'.).+.u !.  ","  ~.{.].^./.(._.:.<.[.}.|.1.2.3.4.5.6.7.8.(.C   ",
"  k 9.0.a.b.c.d.e.f.g.h.i.j.k.l.m.n.o.p.q.r.C   ","  !.u s.s.t.u.v.w.x.o b y.z.A.B.C.D.i.E.F.G.k   ",
"  !.u +.H.I.J.K.L.+.M.N.O.P.Q.R.S.T.U.V.i.u !.  ","  + W.X.Y.Z.`. +.+++H.@+#+$+%+&+*+=+-+;+>+,++   ",
"  '+)+!+~+{+]+^+/+(+_+:+<+[+}+|+1+2+3+4+5+)+'+  ","  6+7+8+9+0+a+b+c+d+e+f+g+h+i+j+I.k+l+m+n+o+'+  ",
"  6+p+q+r+s+t+u+v+w+x+y+z+A+a+B+C+I.D+E+F+G+k   ","  + - H+I+J+j+< j+B+1 K+1 L+B+< B+j+L+M+N+O++   ",
"  6+P+Q+R+S+p+u+)+T+C+B+C+T+C+B+C+T+)+u+p+p+6+  ","  6+U+V+W+X+Y+u+Z+Y+T+B+T+Y+T+j+`+Y+Z+X.Y+7+6+  ",
"  6+I. @.@T+T+u+5+T+C+j+P+T+P+j+C+T+5++@T+T+6+  ","  @@#@$@%@o o u o o o u o o o u o o o u o &@+   ",
"  *@=@-@k !.!.!.!.!.!.!.!.!.!.!.!.!.!.!.!.+ .   ","                                                "};
