/* XPM */
static char * cog_xpm[] = {"24 24 217 2",
"   c None",   ".  c #8F9296","+  c #BFC3C5","@  c #BBBDC0","#  c #BEC2C4","$  c #A8ABAE","%  c #828589",
"&  c #888B8F","*  c #94979B","=  c #D1D3D5","-  c #B2B3B7",";  c #BABBBE",">  c #C8CACC",",  c #85888D",
"'  c #7E8083",")  c #9C9EA2","!  c #E8E9EB","~  c #ACADB0","{  c #898C90","]  c #979A9D","^  c #CBCCCE",
"/  c #A9AAAE","(  c #B1B2B6","_  c #7D7F82",":  c #909294","<  c #D6D7D8","[  c #ACAEB2","}  c #7F8184",
"|  c #999A9E","1  c #D7D8DA","2  c #B5B7BA","3  c #D6D7D9","4  c #C5C7C9","5  c #B8BBBD","6  c #CED0D1",
"7  c #C2C3C5","8  c #AEB0B3","9  c #D4D7D8","0  c #BCBEC1","a  c #CECFD1","b  c #D5D6D8","c  c #BBBCBF",
"d  c #D8DCDD","e  c #B0B2B5","f  c #7B7D80","g  c #D8DADC","h  c #B6B8BB","i  c #ABACB0","j  c #B3B5B8",
"k  c #B0B1B5","l  c #AAABAF","m  c #AEAFB3","n  c #ADAEB2","o  c #D3D6D7","p  c #8A8C8F","q  c #75777A",
"r  c #9A9C9E","s  c #D6D8D9","t  c #ACADB1","u  c #AAACAF","v  c #A8A9AD","w  c #A9A9AE","x  c #C1C4C5",
"y  c #C8C9CC","z  c #77797C","A  c #B7B8BA","B  c #C6C7C9","C  c #B3B7B8","D  c #B4B7B9","E  c #B3B6B8",
"F  c #BBBEC0","G  c #CFD1D3","H  c #D9DCDC","I  c #D3D5D7","J  c #C0C3C4","K  c #B8B9BC","L  c #808385",
"M  c #A9ABAD","N  c #C8CBCD","O  c #B2B5B7","P  c #C2C4C6","Q  c #E0E2E2","R  c #9A9C9F","S  c #848688",
"T  c #8B8D90","U  c #CDCED0","V  c #BFC2C4","W  c #D4D5D6","X  c #87898C","Y  c #86888B","Z  c #888A8C",
"`  c #C5C7C8"," . c #B9BBBD",".. c #BABDBF","+. c #DFE1E2","@. c #75787C","#. c #626467","$. c #D2D4D4",
"%. c #C2C5C6","&. c #B0B3B5","*. c #DDDEDF","=. c #989A9D","-. c #848689",";. c #8D8F92",">. c #B3B5B7",
",. c #DBDCDE","'. c #D6D8DA","). c #D0D2D4","!. c #D4D6D7","~. c #848589","{. c #E9EAEB","]. c #B7BABC",
"^. c #B9BCBE","/. c #C6C8CA","(. c #D2D4D6","_. c #D4D5D7",":. c #E5E7E9","<. c #67696C","[. c #B9BABE",
"}. c #C0C3C5","|. c #C1C4C6","1. c #828487","2. c #717376","3. c #BCBFC1","4. c #DEDEE0","5. c #696B6F",
"6. c #B0B1B3","7. c #CDCFD1","8. c #C5C8CA","9. c #C3C5C7","0. c #DCDDDF","a. c #88898C","b. c #737578",
"c. c #EBEBED","d. c #BEC1C3","e. c #C2C5C7","f. c #DFDFE1","g. c #696B6E","h. c #919295","i. c #B1B2B4",
"j. c #AEB0B1","k. c #CECED1","l. c #C9CBCD","m. c #65676A","n. c #6A6C6F","o. c #B3B6B7","p. c #CFD0D2",
"q. c #D0D1D3","r. c #B5B6B9","s. c #AFB0B2","t. c #A6A8AA","u. c #A7A9AB","v. c #CDCFD0","w. c #C9CACC",
"x. c #D8D9DB","y. c #737577","z. c #707275","A. c #67696B","B. c #AEB0B2","C. c #DADBDD","D. c #C1C3C5",
"E. c #CACBCD","F. c #C8C9CB","G. c #D5D7D7","H. c #6F7175","I. c #A7A9AA","J. c #CFD0D1","K. c #E1E2E3",
"L. c #DDDEE0","M. c #E5E7E7","N. c #D1D1D4","O. c #66676A","P. c #7A7C7E","Q. c #D4D6D6","R. c #C9CACD",
"S. c #D9DBDC","T. c #929496","U. c #6B6D6F","V. c #66696B","W. c #D9DADC","X. c #D3D4D6","Y. c #D3D4D7",
"Z. c #76787A","`. c #474446"," + c #989A9C",".+ c #DEE0E1","++ c #D0D1D2","@+ c #D3D5D5","#+ c #D1D2D4",
"$+ c #D1D3D3","%+ c #D2D4D5","&+ c #B5B8B9","*+ c #535153","=+ c #5C5E60","-+ c #949698",";+ c #A4A5A8",
">+ c #636669",",+ c #818385","'+ c #56585A",")+ c #616365","!+ c #8E9092","~+ c #AFB2B4","{+ c #656769",
"]+ c #504F51","^+ c #727376","/+ c #606264","(+ c #E2E4E5","_+ c #D9DADB",":+ c #9C9E9F","<+ c #5E6063",
"[+ c #757779","}+ c #515052","|+ c #D8DADA","1+ c #696B6D","2+ c #525456","3+ c #4E5052","4+ c #646668",
"                                                ","                  . + @ # $                     ",
"          % &     * = - ; >       , '           ","        ) ! ~ {   ] ^ / ( >   _ : < [ }         ",
"      | 1 2 3 4 5 6 7 / 8 9 0 a b c d e f       ","    f g h / i - j k i / l 8 - ( m / n o p       ",
"    q r s t i i i u v t w l i i i v x y f       ","      z A B C D E F G H I J E D D K 1 L         ",
"        M N E O P Q R S T 3 U O E V W           ","  X Y Z `  .E ..+.@.      #.$.%.O &.*.=.-.;.}   ",
"  >.,.'.).F ..!.|           ~.{.].^./.(._.:.<.  ","  [.4 V }.|.}.(.1.          2.,.V |.}.V 3.4.5.  ",
"  6.7.8.9.|.}.0.a.          b.c.d.}.e.8.8.f.g.  ","  h.i.j.k.e.}.l.` m.      n.o.p.V V q.r.s.t.2.  ",
"        u.v.l.w.x.v.y.z.A.B.C.D.E.F.G.H.        ","        I.J.^ ^ E.^ K.L.M.N.E.^ E.w.H O.        ",
"      P.Q.U E.E.E.E.w.q.w.E.E.E.E.R.S.T.U.      ","    V.U W.^ ^ b b w.E.E.E.w.X.b p.w.1 Y.Z.      ",
"    `. +.+1 1 ++@+#+x.1 1 Y.$+%+_.1 C.&+*+      ","      =+-+3 ;+>+  ,+0.1 1 M '+)+!+_.~+{+        ",
"        ]+^+/+    Z.(+3 _+:+    <+[+}+          ","                  Z.|+^ @+:+                    ",
"                  1+2+n.3+4+                    ","                                                "};
