/* XPM */
static char * cog_stop_xpm[] = {"24 24 202 2",
"   c None",   ".  c #8A8C8E","+  c #BBBEBF","@  c #BCBEBF","#  c #B2B5B6","$  c #87898B","%  c #87888B",
"&  c #EAEDED","*  c #B6B8BB","=  c #B6B9BB","-  c #E1E4E4",";  c #A4A6A8",">  c #BEC0C3",",  c #919395",
"'  c #717477",")  c #8B8D90","!  c #E8EBEB","~  c #AEB0B3","{  c #E3E6E6","]  c #7F8184","^  c #989A9C",
"/  c #C1C3C5","(  c #959799","_  c #D4D6D8",":  c #D0D3D4","<  c #DEE1E1","[  c #C5C7C8","}  c #D3D5D7",
"|  c #CACCCE","1  c #B0B2B5","2  c #D0D2D4","3  c #D6D8DA","4  c #BBBDBE","5  c #E3E5E6","6  c #D3D6D7",
"7  c #9A9C9E","8  c #C0C2C4","9  c #AFB1B4","0  c #BCBFC1","a  c #C8CACC","b  c #B5B7BA","c  c #B1B3B6",
"d  c #B2B4B7","e  c #B5B8BA","f  c #D1D3D5","g  c #ABADB0","h  c #E7EAEA","i  c #ADAFB2","j  c #888A8C",
"k  c #75787B","l  c #DEE0E1","m  c #BDBFC1","n  c #B6B8BA","o  c #BABCBE","p  c #B4B6B9","q  c #D4D7D8",
"r  c #C9CBCD","s  c #64676B","t  c #737679","u  c #BCBFC0","v  c #AEAFB3","w  c #CDCFD1","x  c #D2D4D6",
"y  c #C2C5C6","z  c #C1C4C5","A  c #D5D7D9","B  c #BFC1C4","C  c #B3B5B8","D  c #DDE0E1","E  c #96989B",
"F  c #6C6F72","G  c #676A6E","H  c #74777A","I  c #C6C8CB","J  c #737578","K  c #474746","L  c #525151",
"M  c #838689","N  c #D8DBDC","O  c #B7B9BB","P  c #C2C4C6","Q  c #CFD1D3","R  c #636669","S  c #676A6D",
"T  c #6F7275","U  c #ADB0B1","V  c #ECEFEF","W  c #929497","X  c #D3D5D6","Y  c #ADAFB3","Z  c #F5F8F8",
"`  c #7E8184"," . c #ACAFB1",".. c #B8BABD","+. c #656566","@. c #E4E7E7","#. c #ACAEB2","$. c #B7B9BC",
"%. c #CED1D2","&. c #C0C3C4","*. c #E2E5E5","=. c #C7C9CB","-. c #ACAEB1",";. c #D4D6D7",">. c #A2A5A7",
",. c #E0E3E3","'. c #DBDEDF","). c #CCCED0","!. c #7F8285","~. c #CDD0D2","{. c #CACBCD","]. c #CCBBBB",
"^. c #E2D4D2","/. c #E7D9D7","(. c #ECDEDB","_. c #7E7C7F",":. c #56595A","<. c #474A4A","[. c #636465",
"}. c #D7D9DA","|. c #C6C8C9","1. c #888A8E","2. c #777A7C","3. c #76797C","4. c #949699","5. c #CFDBDD",
"6. c #E8B0A8","7. c #B66A61","8. c #E5705E","9. c #D06F62","0. c #D16F62","a. c #D46454","b. c #A3473E",
"c. c #9B9EA0","d. c #CED0D2","e. c #D2D5D6","f. c #C9CDCF","g. c #E3A69D","h. c #C33725","i. c #EAA99D",
"j. c #EE725D","k. c #ED583F","l. c #EF735E","m. c #E8A99E","n. c #E13C22","o. c #7B7D80","p. c #CBCDCF",
"q. c #B66B63","r. c #EBA69A","s. c #ED513A","t. c #EC492D","u. c #ED4C31","v. c #E9A69C","w. c #BB3726",
"x. c #6E7174","y. c #A0A3A4","z. c #E5E7E8","A. c #DCDEE0","B. c #CCBCBB","C. c #E56653","D. c #F4634D",
"E. c #EC492E","F. c #F46650","G. c #D47061","H. c #5F5E5F","I. c #C8CBCC","J. c #EFF2F2","K. c #D15B4A",
"L. c #ED543A","M. c #ED543B","N. c #D36657","O. c #69696A","P. c #858789","Q. c #6A6D70","R. c #5D6063",
"S. c #CBCCCF","T. c #E5D8D6","U. c #D74A38","V. c #EF5239","W. c #EC4D33","X. c #EC4B30","Y. c #D85443",
"Z. c #F9FCFB","`. c #E0E2E3"," + c #EBDEDB",".+ c #D43F2A","++ c #F36A56","@+ c #F26853","#+ c #EC533B",
"$+ c #EC543C","%+ c #D74B38","&+ c #7C7F81","*+ c #7D8083","=+ c #A24840","-+ c #F66F5C",";+ c #F8725F",
">+ c #F7705D",",+ c #873126","'+ c #B43223",")+ c #F9725F","!+ c #F97360","~+ c #DA513E",
"                                                ","                . + @ @ # $                     ",
"          .     % & * = -       .               ","        ; > , ' ) ! ~ ~ { ]   ^ / (             ",
"      ; _ : < [ } | 1 1 2 3 4 5 : 6 7           ","    . 8 2 9 0 a b c d d c e f * g h i j         ",
"      k l m c c c n o o p c 1 c q r s           ","      t u a c v w x y z A B c C D E             ",
"  F G H A b c w I J K L M N O c P Q R S T       ","  U V & | c n x J         W X 1 Y < & Z `       ",
"   .O ~ ~ 1 ..y K         +.@.#.1 i Y 6 `       ","   .$.c | r %.&.L         +.*.=.r r -.;.`       ",
"  >.,.,.'.).).A !.        >.~.{.].^./.(._.      ","  :.<.[.P w ).}.|.1.2.3.4.5.6.7.8.9.0.a.b.      ",
"        c.d.w ).f r e.*.f.g.h.i.j.k.k.l.m.n.    ","      o.r w w ).).w ).p.{.q.r.s.t.u.u.t.s.v.w.  ",
"    x.y.z.| Q A.Q w w w B.C.D.E.u.u.u.u.E.F.G.  ","      H.I.J.~ k r ).w p.^.K.L.u.u.u.u.u.u.M.N.  ",
"        O.P.Q.  R.A ).S.T.U.V.W.X.X.X.X.W.V.Y.  ","          F     G Z.N `. +.+++@+#+$+$+#+@+++%+  ",
"                T ` &+*+_.=+-+;+>+>+>+>+;+>+,+  ","                            '+-+)+!+!+)+-+'+    ",
"                              ,+~+Y.Y.~+,+      ","                                                "};
