/* XPM */
static char * cog_go_xpm[] = {"24 24 235 2",
"   c None",   ".  c #858888","+  c #BABCBC","@  c #BBBDBD","#  c #B1B3B3","$  c #838686","%  c #868989",
"&  c #828585","*  c #EBECED","=  c #AFB1B5","-  c #E3E4E4",";  c #9EA1A2",">  c #B7B9BD",",  c #8C8F8F",
"'  c #717378",")  c #898C8D","!  c #E9EAEB","~  c #A5A7AC","{  c #A6A8AC","]  c #E6E7E7","^  c #7E8083",
"/  c #929596","(  c #B9BBBF","_  c #909394",":  c #D8D9DB","<  c #CFD1D2","[  c #D9DADB","}  c #BDBFC0",
"|  c #D0D1D4","1  c #C6C8CA","2  c #A7A9AE","3  c #A8AAAE","4  c #CDCFD1","5  c #CDCED1","6  c #B9BBBB",
"7  c #DDDEDF","8  c #D5D6D7","9  c #D2D3D5","0  c #949798","a  c #B8BABE","b  c #A7A9AD","c  c #B5B7BA",
"d  c #BCBEC1","e  c #ACAEB2","f  c #A9ABAF","g  c #AAACB0","h  c #C5C6C8","i  c #B0B2B5","j  c #A3A5AA",
"k  c #EAEBEB","l  c #A4A7AA","m  c #848787","n  c #75777B","o  c #D7D8D9","p  c #A8AAAF","q  c #ABADB1",
"r  c #B1B3B7","s  c #B0B2B6","t  c #D0D2D4","u  c #BDBEC1","v  c #67696D","w  c #73757A","x  c #AFB1B4",
"y  c #B9BBBE","z  c #B4B6B9","A  c #D6D7D8","B  c #D1D2D5","C  c #C5C7C8","D  c #C7C9CC","E  c #D4D5D8",
"F  c #C6C7CA","G  c #B3B5B8","H  c #B4B5B9","I  c #CACCCF","J  c #909296","K  c #888B8B","L  c #6B6E71",
"M  c #76787C","N  c #BCBDC0","O  c #BEBFC2","P  c #D6D7D9","Q  c #C0C1C5","R  c #727478","S  c #484A4A",
"T  c #545455","U  c #818387","V  c #C3C4C7","W  c #BDBEC2","X  c #D5D6D9","Y  c #63656A","Z  c #757779",
"`  c #898D8C"," . c #ADAEB0",".. c #EFF0F0","+. c #EDEEEE","@. c #D3D4D5","#. c #C2C3C6","$. c #CFD0D4",
"%. c #8D8F92","&. c #D6D7DB","*. c #E2E3E4","=. c #EDEEEF","-. c #F7F8F8",";. c #7E8084",">. c #ADAFB1",
",. c #BFC0C3","'. c #BEC0C3","). c #494A4A","!. c #6C6D6F","~. c #DCDDDF","{. c #BCBDC1","]. c #BBBCBF",
"^. c #DBDCDE","/. c #7F8184","(. c #B3B5B6","_. c #505151",":. c #636464","<. c #D1D3D5","[. c #BBBCC0",
"}. c #A3A5A7","|. c #E1E2E2","1. c #E2E3E3","2. c #D8D9DA","3. c #C1C2C5","4. c #D2D3D6","5. c #9C9DA1",
"6. c #E8E9E9","7. c #DFDFE1","8. c #E6E6E7","9. c #7D7F82","0. c #585A5D","a. c #4A4C4E","b. c #646568",
"c. c #C0C1C4","d. c #CDCDD0","e. c #C9CBCE","f. c #8E8F93","g. c #75787A","h. c #76787A","i. c #9B9CA0",
"j. c #D3D4D7","k. c #CCCDD0","l. c #CCCBD3","m. c #49702D","n. c #4A5B44","o. c #696970","p. c #A2A4A7",
"q. c #D6D7DA","r. c #D4D5D7","s. c #D7D8DB","t. c #DBDCDF","u. c #817F8B","v. c #448C00","w. c #5A9502",
"x. c #808285","y. c #D5D6D8","z. c #D8D9DC","A. c #D7D8DC","B. c #CCD3BF","C. c #C2CCBF","D. c #C3CDC0",
"E. c #CFD9CA","F. c #BDC4BD","G. c #4B8E0C","H. c #C7E15D","I. c #4E9002","J. c #6D6F73","K. c #BFC1C5",
"L. c #DADBDE","M. c #DDDEE1","N. c #D9DADD","O. c #DEDBE8","P. c #5B9C00","Q. c #84B434","R. c #80B224",
"S. c #80B225","T. c #7FB124","U. c #81B325","V. c #94BE40","W. c #D0E66B","X. c #B7D834","Y. c #559600",
"Z. c #5F6061","`. c #C9CBCB"," + c #E1E2E4",".+ c #77787D","++ c #DFDCE7","@+ c #498D0A","#+ c #C9E15A",
"$+ c #A3CB0D","%+ c #A3CB0E","&+ c #A3CB0F","*+ c #9EC80B","=+ c #9FC909","-+ c #C1DD4B",";+ c #599800",
">+ c #666768",",+ c #828586","'+ c #6C6E72",")+ c #5F6165","!+ c #DCDDE0","~+ c #E2DFE9","{+ c #488C01",
"]+ c #BDDC30","^+ c #9BC603","/+ c #9BC604","(+ c #A1D502","_+ c #6DAA05",":+ c #6D6F74","<+ c #696B6F",
"[+ c #EEEFF0","}+ c #FCF9FF","|+ c #478D00","1+ c #C7E536","2+ c #A4D204","3+ c #A5D205","4+ c #A4D205",
"5+ c #9ECD05","6+ c #A1CF05","7+ c #90C305","8+ c #528A0B","9+ c #707276","0+ c #7F8185","a+ c #7C7E82",
"b+ c #81818A","c+ c #44790F","d+ c #4E9108","e+ c #4B8F04","f+ c #569804","g+ c #A9DB07","h+ c #93C702",
"i+ c #497817","j+ c #96C904","k+ c #438803","l+ c #539403",
"                                                ","                . + @ @ # $                     ",
"          %     & * = = -       %               ","        ; > , ' ) ! ~ { ] ^   / ( _             ",
"      ; : < [ } | 1 2 3 4 5 6 7 8 9 0           ","    % a < b c d e f g g f e h i j k l m         ",
"      n o c f p q = r s = g 3 f t u v           ","      w x y z i A B C D E F G H I J             ",
"  K L M | N O P Q R S T U P V O W X Y Z `       ","   ...+.@.O #.$.R         %.&.u N *.=.-.;.      ",
"  >.V N u ,.#.'.).        !.~.{.,.N ].^./.      ","  >.V N u ,.#.(._.        :.<.u ,.N [.^./.      ",
"  }.|.1.2.O 3.4.U         5.E u u 6.7.8.9.      ","  0.a.b.&.c.O d.e.f.g.h.i.j.,.u k.l.m.n.o.      ",
"        p.q.N u E r.5 5 X s.E E t.u.v.w.        ","      x.y.s.z.z.s.s.s.A.B.C.D.C.E.F.G.H.I.      ",
"    J.K.! q.L.M.N.q.s.O.P.Q.R.S.T.U.V.W.X.Y.    ","      Z.`. +f .+u s.s.++@+#+$+%+%+%+&+*+=+-+;+  ",
"        >+,+'+  )+!+q.~+{+]+^+^+^+^+^+^+/+(+_+  ","          :+    <+[+t.}+|+1+2+3+3+3+4+5+6+7+8+  ",
"                9+0+a+b+c+d+e+e+e+e+f+g+h+i+    ","                                    e+j+i+      ",
"                                    k+l+        ","                                                "};
