/* XPM */
static char * control_write_red_xpm[] = {"24 24 208 2",
"   c None",   ".  c #3577AE","+  c #296DA2","@  c #4E8ABA","#  c #74A8D1","$  c #92B9D4","%  c #91B8D4",
"&  c #3476AE","*  c #4188BE","=  c #BCD8EA","-  c #E6F5F8",";  c #D4EFFD",">  c #C3E5FA",",  c #BBDFF5",
"'  c #3B7CB2",")  c #6AA3CF","!  c #FCFFFF","~  c #D5EEFB","{  c #A3C8E4","]  c #A5C9E4","^  c #A5CAE4",
"/  c #9AC0DC","(  c #E4F7FF","_  c #B7D8EE",":  c #AAD2EE","<  c #AAD0EA","[  c #B3DAF4","}  c #B2DAF3",
"|  c #E3F7FE","1  c #B6DCF5","2  c #AFD6F0","3  c #B2D9F3","4  c #B1D8F2","5  c #6BA4CF","6  c #2E638D",
"7  c #4085BA","8  c #BEE1F6","9  c #B4DCF5","0  c #B3D5EE","a  c #B3C6DB","b  c #B2C3D8","c  c #C0E1F6",
"d  c #E7FBFF","e  c #4186BA","f  c #205985","g  c #BCD9EB","h  c #AED6F2","i  c #B3D9F3","j  c #BEE9FF",
"k  c #A3A7BC","l  c #C47772","m  c #D76E60","n  c #DD7666","o  c #BFE9FF","p  c #D6EFFB","q  c #4D86B5",
"r  c #E6F4F7","s  c #AFD8F3","t  c #A9A4B5","u  c #B64338","v  c #F3AEA2","w  c #ED7A66","x  c #E85338",
"y  c #B4443A","z  c #A4A7BB","A  c #4D87B5","B  c #D4EEFC","C  c #B0D7F2","D  c #B3D4EC","E  c #C17571",
"F  c #F3A89B","G  c #EB543B","H  c #E8462B","I  c #E94E34","J  c #C27571","K  c #AFD7F2","L  c #D2ECFA",
"M  c #6CA0C9","N  c #CBEAFD","O  c #BBDFF7","P  c #BADFF7","Q  c #BCC9DA","R  c #D66D60","S  c #EE6750",
"T  c #EB5036","U  c #EB563C","V  c #D76D60","W  c #C7E8FD","X  c #84B3D5","Y  c #90B7D4","Z  c #CBEAFC",
"`  c #C1E4FA"," . c #C4E6FC",".. c #C5E7FD","+. c #B3BFCE","@. c #DD5B47","#. c #F25E46","$. c #EF5A42",
"%. c #EF5B43","&. c #CAE9FC","*. c #8EB7D4","=. c #90B8D4","-. c #C4E7FD",";. c #B2BDCD",">. c #DC4E3A",
",. c #F4624C","'. c #F2604A","). c #F26049","!. c #8AB5D4","~. c #D2EEFC","{. c #C3E5FC","]. c #B2C0D0",
"^. c #D64A38","/. c #F76853","(. c #F56651","_. c #F56751",":. c #CFECFD","<. c #7EAFD5","[. c #73A8D2",
"}. c #D4EFFC","|. c #C2E5FC","1. c #B4CFE2","2. c #BB685F","3. c #F96A56","4. c #FB6D59","5. c #F86C57",
"6. c #F86C58","7. c #D3EDFA","8. c #6CA0CA","9. c #487BA2","0. c #E5F4F7","a. c #C3E5FB","b. c #C0E0F5",
"c. c #9E99A6","d. c #B34136","e. c #FB6E5C","f. c #FD7461","g. c #DEF1F7","h. c #39729F","i. c #1C517D",
"j. c #BCD9EC","k. c #E3F6FC","l. c #C6E7FC","m. c #C4E5FA","n. c #D0F0FE","o. c #97929E","p. c #B6645B",
"q. c #D95341","r. c #E05441","s. c #E5F7FD","t. c #9EC6E3","u. c #1C4D78","v. c #163042","w. c #3F81B3",
"x. c #E6FAFF","y. c #D4EEFB","z. c #D5EEFC","A. c #D5EEFA","B. c #C9E1ED","C. c #B5C5CF","D. c #A4A7AD",
"E. c #9F9EA4","F. c #E9FCFF","G. c #3270A4","H. c #183344","I. c #2A5E87","J. c #85B3D5","K. c #E8F9FD",
"L. c #D7F0FC","M. c #D7F0FB","N. c #D2EBF7","O. c #CBE2EE","P. c #C8E0EB","Q. c #E9F9FC","R. c #58A0D1",
"S. c #2F6188","T. c #387AB1","U. c #99BFDC","V. c #D7F1FD","W. c #D8F1FD","X. c #D5EFFB","Y. c #E8F8FD",
"Z. c #84B1D2","`. c #3979AF"," + c #84B2D5",".+ c #FAFFFF","++ c #E2F5FC","@+ c #D5EFFC","#+ c #E4F6FC",
"$+ c #E8FAFF","%+ c #6BA4D1","&+ c #3779B0","*+ c #2A5F87","=+ c #3D80B3","-+ c #E2F3F7",";+ c #EAF9FD",
">+ c #DAF2FC",",+ c #DBF2FC","'+ c #E8F8FC",")+ c #E3F3F7","!+ c #ABD7F2","~+ c #3B81B5","{+ c #2C6087",
"]+ c #487AA2","^+ c #7CAFD6","/+ c #8FB7D4","(+ c #1D517D","_+ c #173042",
"                                                ","            . + @ # $ % % $ # @ + .             ",
"          & * = - ; > , , > ; - = * &           ","        ' ) ! ~ { { ] ^ ^ ] { { ~ ! ) '         ",
"      ' / ( _ : < [ } } } } [ < : _ ( / '       ","    & ) | 1 2 3 3 4 3 3 3 3 4 3 3 2 1 | 5 &     ",
"  6 7 ! 8 4 4 4 9 0 a b b a 0 9 4 4 4 c d e 6   ","  f g ~ h 3 i j k l m n n m l k o i 3 h p g f   ",
"  q r s 4 4 9 t u v w x x w v y z 9 4 4 s - A   ","  # B C 4 4 D E F G H I I H G F J D 4 4 K L M   ",
"  $ N 4 O P Q R S T U U U U T S V Q P P P W X   ","  Y Z `  ...+.@.#.$.%.%.%.%.$.#.@.+... . .&.*.  ",
"  =.&. . .-.;.>.,.'.).).).).'.,.>.;.-. . .&.*.  ","  !.~.{. ...].^./.(._._._._.(./.^.]... .{.:.<.  ",
"  [.}.|. . .1.2.3.4.5.6.6.5.4.3.2.1. . .|.7.8.  ","  9.0.a.{. .b.c.d.e.f.f.f.f.e.d.c.b. .{.a.g.h.  ",
"  i.j.k.l.|.m.n.o.p.q.r.r.q.p.o.n.m.|.l.s.t.u.  ","  v.w.x.y.y.z.A.B.C.D.E.E.D.C.B.A.z.y.y.F.G.H.  ",
"    I.J.K.L.M.L.L.N.O.P.P.O.N.L.L.M.L.Q.R.S.    ","      T.U.K.y.p L.L.V.W.W.V.L.L.p X.Y.Z.`.      ",
"        T. +.+++X.@+L.L.L.L.@+X.#+$+%+&+        ","          *+=+j.-+;+>+,+,+,+'+)+!+~+{+          ",
"            v.i.]+^+=./+/+% [.9.(+_+            ","                                                "};
