/* XPM */
static char * control_write_white_xpm[] = {"24 24 208 2",
"   c None",   ".  c #3577AE","+  c #296DA2","@  c #4E8ABA","#  c #74A8D1","$  c #92B9D4","%  c #91B8D4",
"&  c #3476AE","*  c #4188BE","=  c #BCD8EA","-  c #E6F5F8",";  c #D4EFFD",">  c #C3E5FA",",  c #BBDFF5",
"'  c #3B7CB2",")  c #6AA3CF","!  c #FCFFFF","~  c #D5EEFB","{  c #A3C8E4","]  c #A5C9E4","^  c #A5CAE4",
"/  c #9AC0DC","(  c #E4F7FF","_  c #B7D8EE",":  c #AAD2EE","<  c #AAD0EA","[  c #B3DAF4","}  c #B2DAF3",
"|  c #E3F7FE","1  c #B6DCF5","2  c #AFD6F0","3  c #B2D9F3","4  c #B1D8F2","5  c #6BA4CF","6  c #2E638D",
"7  c #4085BA","8  c #BEE1F6","9  c #B3DBF5","0  c #B3D5ED","a  c #B5D6ED","b  c #B6D8EF","c  c #C0E1F6",
"d  c #E7FBFF","e  c #4186BA","f  c #205985","g  c #BCD9EB","h  c #AED6F2","i  c #B3D9F3","j  c #BAE3FC",
"k  c #B7C1D0","l  c #D0CBCE","m  c #E1D7D5","n  c #E6E4E3","o  c #BBE3FC","p  c #D6EFFB","q  c #4D86B5",
"r  c #E6F4F7","s  c #AFD8F3","t  c #BBC4D1","u  c #D2CCCD","v  c #EBEBEC","w  c #DCDEDD","x  c #D1D3D3",
"y  c #D1CBCC","z  c #B7C0CF","A  c #B3DBF4","B  c #4D87B5","C  c #D4EEFC","D  c #B0D7F2","E  c #B1D8F3",
"F  c #B1D2E9","G  c #CBC6C9","H  c #E9EAEA","I  c #D3D5D6","J  c #D0D2D3","K  c #D3D3D4","L  c #CDC8CA",
"M  c #B1D2EA","N  c #AFD7F2","O  c #D2ECFA","P  c #6CA0C9","Q  c #CBEAFD","R  c #BBDFF7","S  c #BBE0F8",
"T  c #B7D0E2","U  c #E0D8D6","V  c #D9DBDC","W  c #D4D7D7","X  c #D6D8D8","Y  c #D5D8D8","Z  c #E1D8D6",
"`  c #BADFF7"," . c #C7E8FD",".. c #84B3D5","+. c #90B7D4","@. c #CBEAFC","#. c #C1E4FA","$. c #C4E6FC",
"%. c #C6E8FE","&. c #A9C2D2","*. c #E1E1E0","=. c #D9DADB","-. c #CAE9FC",";. c #8EB7D4",">. c #90B8D4",
",. c #C5E8FE","'. c #A7BFD0","). c #E0DEDE","!. c #DCDDDE","~. c #8AB5D4","{. c #D2EEFC","]. c #C3E5FC",
"^. c #A6BDCD","/. c #DAD3D2","(. c #E0E0E1","_. c #DFE0E1",":. c #DFDFE0","<. c #CFECFD","[. c #7EAFD5",
"}. c #73A8D2","|. c #D4EFFC","1. c #C2E5FC","2. c #C5E7FD","3. c #A7C0D1","4. c #BCB5B5","5. c #E3E4E6",
"6. c #E3E2E3","7. c #E2E2E3","8. c #D3EDFA","9. c #6CA0CA","0. c #487BA2","a. c #E5F4F7","b. c #C3E5FB",
"c. c #B8D7EC","d. c #A0A3AA","e. c #CDC8C9","f. c #E6E8E8","g. c #E6E6E8","h. c #E5E6E7","i. c #DEF1F7",
"j. c #39729F","k. c #1C517D","l. c #BCD9EC","m. c #E3F6FC","n. c #C6E7FC","o. c #C3E4FA","p. c #BBD6E3",
"q. c #95979E","r. c #B6B0B1","s. c #DFD9D9","t. c #E7E6E6","u. c #E5F7FD","v. c #9EC6E3","w. c #1C4D78",
"x. c #163042","y. c #3F81B3","z. c #E6FAFF","A. c #D4EEFB","B. c #D5EFFC","C. c #D3ECF8","D. c #BBD2DD",
"E. c #99A7B0","F. c #838F94","G. c #7B868C","H. c #E9FCFF","I. c #3270A4","J. c #183344","K. c #2A5E87",
"L. c #85B3D5","M. c #E8F9FD","N. c #D7F0FC","O. c #D7F0FB","P. c #CDE4F0","Q. c #CAE2EE","R. c #E9F9FC",
"S. c #58A0D1","T. c #2F6188","U. c #387AB1","V. c #99BFDC","W. c #D7F1FD","X. c #D8F1FD","Y. c #D5EFFB",
"Z. c #E8F8FD","`. c #84B1D2"," + c #3979AF",".+ c #84B2D5","++ c #FAFFFF","@+ c #E2F5FC","#+ c #E4F6FC",
"$+ c #E8FAFF","%+ c #6BA4D1","&+ c #3779B0","*+ c #2A5F87","=+ c #3D80B3","-+ c #E2F3F7",";+ c #EAF9FD",
">+ c #DAF2FC",",+ c #DBF2FC","'+ c #E8F8FC",")+ c #E3F3F7","!+ c #ABD7F2","~+ c #3B81B5","{+ c #2C6087",
"]+ c #487AA2","^+ c #7CAFD6","/+ c #8FB7D4","(+ c #1D517D","_+ c #173042",
"                                                ","            . + @ # $ % % $ # @ + .             ",
"          & * = - ; > , , > ; - = * &           ","        ' ) ! ~ { { ] ^ ^ ] { { ~ ! ) '         ",
"      ' / ( _ : < [ } } } } [ < : _ ( / '       ","    & ) | 1 2 3 3 4 3 3 3 3 4 3 3 2 1 | 5 &     ",
"  6 7 ! 8 4 4 4 9 0 a b b a 0 9 4 4 4 c d e 6   ","  f g ~ h 3 i j k l m n n m l k o i 3 h p g f   ",
"  q r s 4 4 [ t u v w x x w v y z A 4 4 s - B   ","  # C D 4 E F G H I J K K J I H L M E 4 N O P   ",
"  $ Q 4 R S T U V W X Y Y X W V Z T S ` `  ...  ","  +.@.#.$.%.&.*.=.=.=.=.=.=.=.=.*.&.%.$.$.-.;.  ",
"  >.-.$.$.,.'.).!.!.!.!.!.!.!.!.).'.,.$.$.-.;.  ","  ~.{.].$.,.^./.(._.:.:.:.:._.(./.^.,.$.].<.[.  ",
"  }.|.1.$.2.3.4.5.6.7.7.7.7.6.5.4.3.2.$.1.8.9.  ","  0.a.b.].$.c.d.e.f.g.h.h.g.f.e.d.c.$.].b.i.j.  ",
"  k.l.m.n.1.o.p.q.r.s.t.t.s.r.q.p.o.1.n.u.v.w.  ","  x.y.z.A.A.B.C.D.E.F.G.G.F.E.D.C.B.A.A.H.I.J.  ",
"    K.L.M.N.O.N.N.C.P.Q.Q.P.C.N.N.O.N.R.S.T.    ","      U.V.M.A.p N.N.W.X.X.W.N.N.p Y.Z.`. +      ",
"        U..+++@+Y.B.N.N.N.N.B.Y.#+$+%+&+        ","          *+=+l.-+;+>+,+,+,+'+)+!+~+{+          ",
"            x.k.]+^+>./+/+% }.0.(+_+            ","                                                "};
