/* XPM */
static char * control_pause_xpm[] = {"24 24 222 2",
"   c None",   ".  c #2F6793","+  c #3D7CB0","@  c #4786B9","#  c #4E8ABA","$  c #4E89BA","%  c #387EB6",
"&  c #81B0D4","*  c #BDD9E9","=  c #CEEDFF","-  c #E6F9FF",";  c #DBF2FD",">  c #4D8CC1",",  c #E4F4F8",
"'  c #E3F7FD",")  c #B4D3EA","!  c #AACCE5","~  c #A7CAE5","{  c #A6C9E4","]  c #74A5CC","^  c #EEFBFD",
"/  c #C1E3F8","(  c #A8CEEB","_  c #B3DAF5",":  c #B2D9F4","<  c #5691C1","[  c #E7F7FC","}  c #C3E5F9",
"|  c #A9CEEA","1  c #B2DAF5","2  c #B1D8F3","3  c #3179B3","4  c #E7F6FA","5  c #C4E5F9","6  c #B8DEF7",
"7  c #B9DEF7","8  c #B7DDF7","9  c #2769A0","0  c #A1C5E1","a  c #E6F7FC","b  c #ADD6F3","c  c #89B9DE",
"d  c #4282B6","e  c #4080B5","f  c #4988BB","g  c #ABD3EF","h  c #A7D1EE","i  c #4987BB","j  c #4382B7",
"k  c #396F99","l  c #E6F5F8","m  c #B5DBF5","n  c #73A7CF","o  c #ABD3F0","p  c #7FB5DD","q  c #518FC1",
"r  c #BDDEF2","s  c #ACD3EE","t  c #72A7D0","u  c #8ABCE2","v  c #77AED7","w  c #76A9D0","x  c #396F9A",
"y  c #6BA2CE","z  c #D0ECFB","A  c #AFD7F3","B  c #B7DCF5","C  c #7DAED2","D  c #A8D1EF","E  c #3A82BB",
"F  c #3379B2","G  c #BBDEF2","H  c #BADDF2","I  c #73A8D1","J  c #5091C5","K  c #3E83BB","L  c #84B3D6",
"M  c #CEEAF9","N  c #669BC6","O  c #91B8D4","P  c #D6F0FD","Q  c #B0D7F3","R  c #B6DCF5","S  c #7DAFD3",
"T  c #9BBFDC","U  c #4C9ED4","V  c #3B86BE","W  c #BBDDF2","X  c #6A9CC6","Y  c #5CA5D7","Z  c #4C9ACF",
"`  c #83B1D4"," . c #D2EEFD",".. c #81B1D5","+. c #8FB7D4","@. c #D5F0FD","#. c #AED6F3","$. c #7CAED3",
"%. c #9DC0DD","&. c #4B9CD3","*. c #3984BD","=. c #6C9DC6","-. c #5BA5D6",";. c #4A98CE",">. c #82B1D4",
",. c #90B8D4","'. c #D4EFFC","). c #CAE9FA","!. c #CAE9FB","~. c #D0EDFD","{. c #82BEE7","]. c #4E9ED3",
"^. c #458EC5","/. c #5B9BCC","(. c #55A2D6","_. c #5CA8DB",":. c #80AFD3","<. c #CEECFC","[. c #CFEDFC",
"}. c #7EAED2","|. c #7DBCE8","1. c #64B1E3","2. c #448EC5","3. c #589ACC","4. c #6BB5E6","5. c #5DA8DB",
"6. c #7DAFD4","7. c #63B0E2","8. c #4892C8","9. c #68B3E4","0. c #63AFE1","a. c #7FAFD2","b. c #CBEAFB",
"c. c #76A8CF","d. c #578CB5","e. c #E1F2F8","f. c #CCEBFC","g. c #7DBCE7","h. c #6DBCEE","i. c #4A94CB",
"j. c #B9DCF2","k. c #5799CB","l. c #72BDEE","m. c #67B4E6","n. c #7FAED2","o. c #DFF1F7","p. c #4983B1",
"q. c #19456A","r. c #D3E9F3","s. c #D0EDFC","t. c #CDEBFC","u. c #72B2E0","v. c #5194C9","w. c #D6EAF2",
"x. c #5094C9","y. c #73B3E0","z. c #D2EEFC","A. c #B2D8F0","B. c #163F62","C. c #1F4D70","D. c #5F97C4",
"E. c #F9FFFF","F. c #CAEAFB","G. c #B6DBF2","H. c #8FB6D2","I. c #94BDDB","J. c #C6E7F9","K. c #EBFDFF",
"L. c #4A84B4","M. c #235073","N. c #2B638E","O. c #A5CAE3","P. c #E2F7FE","Q. c #CDEBFB","R. c #D3EFFC",
"S. c #D1EEFC","T. c #E5F9FF","U. c #8AB9DD","V. c #2C628C","W. c #3E7EB4","X. c #C3DDEC","Y. c #D6F0FC",
"Z. c #D1EDFB","`. c #AFCEE3"," + c #3B7CB2",".+ c #4B88BA","++ c #B0D1E6","@+ c #FBFFFF","#+ c #DFF4FC",
"$+ c #CEECFB","%+ c #CAEAFC","&+ c #DEF3FB","*+ c #E0F4FC","=+ c #EBFCFF","-+ c #A1C7E1",";+ c #366B93",
">+ c #66A4D4",",+ c #DDEEF6","'+ c #F2FEFE",")+ c #EBF9FB","!+ c #EAF9FC","~+ c #E9F9FB","{+ c #ECFAFC",
"]+ c #F6FFFE","^+ c #CCECFC","/+ c #5EA2D6","(+ c #336892","_+ c #193548",":+ c #2E75AF","<+ c #6699C2",
"[+ c #C0E1F4","}+ c #D8EBF2","|+ c #D9ECF2","1+ c #A7D0ED","2+ c #679AC2","3+ c #2F75AE","4+ c #225175",
"5+ c #246CA9","6+ c #2169A7","7+ c #2069A7","8+ c #276EAA","9+ c #225075",
"              . + @ # $ $ # @ + .               ","            % & * = - ; ; - = * & %             ",
"          > , ' ) ! ~ { { ~ ! ) ' , >           ","        ] ^ / ( { _ : : : : _ { ( / ^ ]         ",
"      < [ } | 1 1 2 : : : : 2 1 1 | } [ <       ","    3 4 5 2 : _ 6 7 8 : : 8 7 6 _ : 2 5 4 3     ",
"  9 0 a b : : c d e f g h i e j c : : b a 0 9   ","  k l 7 2 : m n o p q r s t u v w m : 2 7 l x   ",
"  y z A : : B C D E F G H I J K L B : : A M N   ","  O P Q : : R S T U V W H X Y Z ` R : : Q  ...  ",
"  +.@.#.Q A 5 $.%.&.*.W H =.-.;.>.5 A Q #.@.,.  ","  +.'.).!.).~.C {.].^.W H /.(._.:.~.).!.).'.,.  ",
"  +.'.<.<.<.[.}.|.1.2.W W 3.4.5.:.[.<.<.<.[.6.  ","  & <.<.<.<.[.}.|.7.8.W W 3.9.0.a.[.<.<.<.b.c.  ",
"  d.e.f.<.<.[.}.g.h.i.j.j.k.l.m.n.[.<.<.f.o.p.  ","  q.r.s.t.<.[.& u.|.v.w.w.x.|.y.& [.<.t.z.A.B.  ",
"  C.D.E.F.<.<.G.O H.I.J.J.I.H.O G.<.<.b.K.L.M.  ","    N.O.P.Q.Q.<.R.'.S.<.<.S.'.R.<.Q.Q.T.U.V.    ",
"      W.X.Y.Z.t.t.<.<.<.<.<.<.t.t.Z.Y.`. +      ","        .+++@+#+$+f.f.f.f.f.%+&+*+=+-+e         ",
"          ;+>+,+'+)+!+!+!+~+{+]+^+/+(+          ","            _+:+<+[+}+w.w.|+1+2+3+_+            ",
"                4+5+6+6+6+7+8+9+                ","                                                "};
