/* XPM */
static char * control_play_xpm[] = {"24 24 215 2",
"   c None",   ".  c #2F6792","+  c #3D7CAF","@  c #4786B8","#  c #4F8AB9","$  c #4E89B9","%  c #397DB4",
"&  c #82B0D2","*  c #BDD9E9","=  c #D2EFFF","-  c #E2F7FF",";  c #DBF2FD",">  c #4F8CBF",",  c #E4F4F7",
"'  c #DEF4FD",")  c #B3D3E9","!  c #ABCCE5","~  c #A7CAE4","{  c #A5C9E3","]  c #74A5CB","^  c #EDFBFD",
"/  c #C9E7F7","(  c #A7CEEB","_  c #A6C9E3",":  c #B2DAF5","<  c #B1D9F4","[  c #5791C0","}  c #E4F5FC",
"|  c #BEE1F9","1  c #A8CEEA","2  c #B1DAF5","3  c #B0D8F3","4  c #5891C0","5  c #3277AF","6  c #E8F7FA",
"7  c #C7E7F9","8  c #B7DEF7","9  c #B0D8F4","0  c #C9E7F9","a  c #D4EDFA","b  c #3378AF","c  c #27699E",
"d  c #A1C5E0","e  c #E5F6FC","f  c #ACD6F3","g  c #A9D2EF","h  c #4381B5","i  c #A5CDEA","j  c #B4DBF5",
"k  c #E6F7FC","l  c #396E98","m  c #E6F5F8","n  c #B4DBF7","o  c #AFD8F3","p  c #B4D9F2","q  c #72A8D1",
"r  c #7CAFD6","s  c #82B3D8","t  c #BEE2FA","u  c #AFD7F3","v  c #396F98","w  c #6AA2CE","x  c #D8F0FB",
"y  c #AED7F3","z  c #B3D8F2","A  c #6C9FC7","B  c #5996C6","C  c #94BBDA","D  c #81B3D8","E  c #C6E7FC",
"F  c #D7EEF9","G  c #659AC5","H  c #91B9D4","I  c #CCEAFD","J  c #B3DAF5","K  c #B3DAF4","L  c #B2D9F4",
"M  c #C3E5FB","N  c #B2D8F2","O  c #6C9EC6","P  c #5292C3","Q  c #4C8EC1","R  c #6FA2CA","S  c #A2CBE9",
"T  c #C9E8FD","U  c #BCE0F8","V  c #85B3D4","W  c #90B7D3","X  c #BBE0F8","Y  c #C6E6FC","Z  c #C5E6FC",
"`  c #B1D7F2"," . c #639CC8",".. c #59A4D5","+. c #4E9DD1","@. c #6FB3E0","#. c #6A9FC8","$. c #88B7DB",
"%. c #CAE9FE","&. c #CAE9FC","*. c #89B5D3","=. c #CCEAFC","-. c #C4E5FB",";. c #C4E5FC",">. c #C1E0F2",
",. c #5A9ACB","'. c #56A1D4","). c #4D9BD0","!. c #4FA0D6","~. c #ABCFE9","{. c #387AB1","]. c #CEEDFF",
"^. c #90B8D3","/. c #8EB7D3","(. c #CDEBFC","_. c #C3E5FC",":. c #C3E1F2","<. c #5999CA","[. c #67B0E1",
"}. c #61ACDE","|. c #87BCE1","1. c #4784B6","2. c #E3FAFF","3. c #82B1D3","4. c #79ADD3","5. c #D7F0FC",
"6. c #62ADDE","7. c #77B9E5","8. c #669EC9","9. c #CFEBFB","0. c #C2E4FB","a. c #D5EEFB","b. c #72A6CF",
"c. c #578CB5","d. c #E3F3F8","e. c #C1E4FC","f. c #C2E4FC","g. c #C4E1F2","h. c #5798C9","i. c #8FCBF1",
"j. c #4484B7","k. c #CEEBFB","l. c #E1F2F7","m. c #4A82AF","n. c #1A4468","o. c #D3E9F3","p. c #D8F0FC",
"q. c #D5EFFC","r. c #4584B7","s. c #E8FCFF","t. c #CDEAFB","u. c #D9F1FC","v. c #B9DBF0","w. c #163F62",
"x. c #1F4D70","y. c #6096C1","z. c #EDFDFF","A. c #D1ECFB","B. c #CDEAFC","C. c #D1EBF9","D. c #84B3D7",
"E. c #D4EEFB","F. c #D6EFFB","G. c #D2EDFC","H. c #D0ECFB","I. c #F2FFFF","J. c #4984B3","K. c #235073",
"L. c #2B628D","M. c #A2C8E3","N. c #E8FAFE","O. c #D6EFFC","P. c #ECFBFF","Q. c #75B7E1","R. c #2D628C",
"S. c #3E7EB2","T. c #C3DCEC","U. c #DDF3FC","V. c #AECEE3","W. c #3C7CB1","X. c #4B88B9","Y. c #B1D1E6",
"Z. c #EFFEFF","`. c #D5EFFB"," + c #DFF4FC",".+ c #E4F9FF","++ c #A2C6E0","@+ c #4080B4","#+ c #366B93",
"$+ c #67A3D1","%+ c #DBEDF6","&+ c #F2FEFE","*+ c #EAF9FB","=+ c #D4EEFC","-+ c #EBFAFC",";+ c #F3FEFE",
">+ c #CCEBFB",",+ c #61A1D2","'+ c #336892",")+ c #193549","!+ c #2F74AC","~+ c #6699C1","{+ c #B8DCF4",
"]+ c #DAECF2","^+ c #D7EAF2","/+ c #DBECF2","(+ c #A7D0ED","_+ c #679AC2",":+ c #3074AC","<+ c #225175",
"[+ c #256DA8","}+ c #2069A6","|+ c #2169A6","1+ c #286EA9","2+ c #225075",
"              . + @ # $ $ # @ + .               ","            % & * = - ; ; - = * & %             ",
"          > , ' ) ! ~ { { ~ ! ) ' , >           ","        ] ^ / ( _ : < < < < : _ ( / ^ ]         ",
"      [ } | 1 2 2 3 < < < < 3 2 2 1 | } 4       ","    5 6 7 3 < 3 < < 8 9 < < < < 3 < 3 0 a b     ",
"  c d e f < < < 3 g h i j 3 < < < < < f k d c   ","  l m n 3 < < < o p q r s t u < < < < 3 n m v   ",
"  w x y < < < < y z A B C D E y 3 < < < y F G   ","  H I o J K K L M N O P Q R S T U K K K L T V   ",
"  W I X E Y Y Y Z `  ...+.@.#.$.%.Y Y Y Y &.*.  ","  W =.Z -.Z Z Z ;.>.,.'.).!.~.{.].Z Z Z Z =.^.  ",
"  /.(.;.Z Z Z Z _.:.<.[.}.|.1.2.M Z Z Z ;.&.3.  ","  4.5._.Z Z Z Z _.:.<.6.7.8.9.0.Z Z Z Z _.a.b.  ",
"  c.d.e.Z Z Z Z f.g.h.i.j.k.Z Z Z Z Z Z e.l.m.  ","  n.o.p.;.;.;._.q.:.h.r.s.t.;.;.;.;.;.;.u.v.w.  ",
"  x.y.z.A.B.B.B.q.C.D.E.F.G.B.B.B.B.B.H.I.J.K.  ","    L.M.N.F.5.5.5.5.5.O.O.5.5.5.5.5.F.P.Q.R.    ",
"      S.T.U.F.O.5.5.5.5.5.5.5.5.O.F.U.V.W.      ","        X.Y.Z.U.`.q.5.5.5.5.q.`. +.+++@+        ",
"          #+$+%+&+*+=+q.q.E.-+;+>+,+'+          ","            )+!+~+{+]+^+^+/+(+_+:+)+            ",
"                <+[+}+|+|+}+1+2+                ","                                                "};
