/* XPM */
static char * control_stop_xpm[] = {"24 24 196 2",
"   c None",   ".  c #2E6793","+  c #3D7CB0","@  c #4786B9","#  c #4F8ABA","$  c #4E89BA","%  c #387EB6",
"&  c #81B1D4","*  c #BDD9E9","=  c #D2EFFE","-  c #E2F7FF",";  c #DCF2FD",">  c #4B8DC2",",  c #E4F4F8",
"'  c #DEF4FD",")  c #B2D3EA","!  c #AACCE6","~  c #A6CAE5","{  c #A5C9E4","]  c #74A5CC","^  c #EDFAFD",
"/  c #C9E7F7","(  c #A7CEEA","_  c #B3DAF4",":  c #B2D9F3","<  c #5492C2","[  c #E4F5FC","}  c #BEE1F9",
"|  c #A8CEEA","1  c #B2DAF4","2  c #B1D8F2","3  c #E3F5FC","4  c #5692C2","5  c #307AB3","6  c #E7F7FB",
"7  c #C8E7F8","8  c #B0D8F2","9  c #C9E7F8","0  c #D3EDFB","a  c #317BB3","b  c #2769A0","c  c #A0C5E1",
"d  c #E5F6FC","e  c #ADD6F2","f  c #AED6F1","g  c #B1D7F2","h  c #B2D8F2","i  c #E6F7FC","j  c #386F99",
"k  c #E6F5F8","l  c #B4DBF6","m  c #B5DBF4","n  c #86B7DC","o  c #669ECA","p  c #74A8D1","q  c #7EAFD5",
"r  c #7DAED5","s  c #396F9A","t  c #6AA2CE","u  c #D8F0FB","v  c #AFD7F2","w  c #B4DBF4","x  c #77AAD2",
"y  c #A8D1ED","z  c #4B90C4","A  c #5295C7","B  c #D7EEF9","C  c #659AC6","D  c #92B9D4","E  c #CBEAFD",
"F  c #B4DAF4","G  c #B3D9F3","H  c #C7E8FD","I  c #76AAD2","J  c #A6CEEB","K  c #3E89C0","L  c #519ED1",
"M  c #509CD0","N  c #C8E8FD","O  c #85B3D5","P  c #90B7D4","Q  c #BBE0F7","R  c #C5E7FC","S  c #C5E6FC",
"T  c #76AAD3","U  c #9CC0DC","V  c #4A9ACF","W  c #549DCF","X  c #5A9ECF","Y  c #C9E9FC","Z  c #8AB5D4",
"`  c #CBEAFC"," . c #C4E6FC",".. c #C3E5FB","+. c #C7E8FC","@. c #82B0D2","#. c #7FBEE8","$. c #5F9DCB",
"%. c #639FCD","&. c #65A0CD","*. c #90B8D4","=. c #8EB7D4","-. c #CCEBFC",";. c #C3E5FC",">. c #C8E8FC",
",. c #83B0D2","'. c #7BBCE9","). c #67B3E5","!. c #69B4E6","~. c #82B1D4","{. c #7AADD4","]. c #D7F0FC",
"^. c #C2E5FC","/. c #65B0E3","(. c #67B1E4","_. c #D5EEFB",":. c #72A6CF","<. c #578CB5","[. c #E3F3F8",
"}. c #C0E4FC","|. c #82AFD1","1. c #7DBFEB","2. c #85C7F3","3. c #86C8F3","4. c #E0F2F7","5. c #4883B2",
"6. c #18466A","7. c #D2E9F3","8. c #D8F0FC","9. c #C7E7FC","0. c #AAD1EB","a. c #4B87B9","b. c #4683B6",
"c. c #D9F1FC","d. c #B9DBF0","e. c #163E62","f. c #1F4D70","g. c #5F98C4","h. c #EEFDFF","i. c #D0ECFB",
"j. c #CDEAFC","k. c #CEEBFB","l. c #DAF2FD","m. c #E0F7FF","n. c #F2FFFF","o. c #4984B4","p. c #235073",
"q. c #2B638E","r. c #A2C8E3","s. c #E8FAFE","t. c #D6EFFB","u. c #D6EFFC","v. c #ECFCFF","w. c #76B6E0",
"x. c #2D628C","y. c #3E7EB4","z. c #C2DCEC","A. c #DDF3FC","B. c #AECEE3","C. c #3C7CB2","D. c #4B88BA",
"E. c #B1D1E6","F. c #EFFEFF","G. c #D5EFFB","H. c #D5EFFC","I. c #DFF4FC","J. c #E4F8FF","K. c #9FC7E2",
"L. c #4080B5","M. c #376A93","N. c #65A5D4","O. c #DAEDF6","P. c #F2FEFE","Q. c #EAF9FB","R. c #D4EEFC",
"S. c #D4EEFB","T. c #EBFAFC","U. c #F3FEFE","V. c #CAECFD","W. c #5EA4D6","X. c #336892","Y. c #193548",
"Z. c #2E75AF","`. c #669AC2"," + c #B7DCF4",".+ c #DAECF2","++ c #D7EAF2","@+ c #DBECF2","#+ c #A8D0EC",
"$+ c #679BC2","%+ c #2F75AE","&+ c #225075","*+ c #256DA9","=+ c #2069A7","-+ c #2169A7",";+ c #276EAA",
"              . + @ # $ $ # @ + .               ","            % & * = - ; ; - = * & %             ",
"          > , ' ) ! ~ { { ~ ! ) ' , >           ","        ] ^ / ( { _ : : : : _ { ( / ^ ]         ",
"      < [ } | _ 1 2 : : : : 2 1 _ | } 3 4       ","    5 6 7 2 : : 2 8 8 8 8 8 8 2 : : 2 9 0 a     ",
"  b c d e : : f g h h h h h h g f : : e i c b   ","  j k l 2 : m n o p q r r q p o n m : 2 l k s   ",
"  t u v : : w x y z A A A A z y x w : : v B C   ","  D E 2 F G H I J K L M M L K J I H G F G N O   ",
"  P E Q R S R T U V W X X W V U T R S S S Y Z   ","  P `  ... .+.@.#.$.%.&.&.%.$.#.@.+. . . .` *.  ",
"  =.-.;. . .>.,.'.).!.!.!.!.).'.,.>. . .;.Y ~.  ","  {.].^. . .>.,.'./.(.(.(.(./.'.,.>. . .^._.:.  ",
"  <.[.}. . .>.|.1.2.3.3.3.3.2.1.|.>. . .}.4.5.  ","  6.7.8.;.;.9.0.a.b.b.b.b.b.b.a.0.9.;.;.c.d.e.  ",
"  f.g.h.i.j.k.l.m.m.m.m.m.m.m.m.l.k.j.i.n.o.p.  ","    q.r.s.t.].u.].].].].].].].].u.].t.v.w.x.    ",
"      y.z.A.t.u.].].].].].].].].u.t.A.B.C.      ","        D.E.F.A.G.H.].].].].H.G.I.J.K.L.        ",
"          M.N.O.P.Q.R.H.H.S.T.U.V.W.X.          ","            Y.Z.`. +.+++++@+#+$+%+Y.            ",
"                &+*+=+-+-+=+;+&+                ","                                                "};
