/* XPM */
static char * cross_xpm[] = {"24 24 114 2",
"   c None",   ".  c #D1685B","+  c #DC877C","@  c #C64B3D","#  c #EE9180","$  c #E8563C","%  c #E9AEA5",
"&  c #8A2A20","*  c #BF463A","=  c #F3A99E","-  c #E54226",";  c #E74D32",">  c #E85339",",  c #DC8278",
"'  c #C64A3C",")  c #BE564C","!  c #EE8C7D","~  c #E54326","{  c #E64B30","]  c #EB6750","^  c #EC8A7B",
"/  c #D06559","(  c #D87B70","_  c #E8543A",":  c #E8543B","<  c #E2998F","[  c #E29A8F","}  c #E75339",
"|  c #DA7B6F","1  c #DA7B6E","2  c #EA6148","3  c #E64B2F","4  c #E64C31","5  c #E64A2F","6  c #EA674F",
"7  c #D64D39","8  c #D97467","9  c #EC5B44","0  c #EB563E","a  c #EB563D","b  c #E28E82","c  c #EB573E",
"d  c #EC5840","e  c #DA6E62","f  c #EE6752","g  c #D96D61","h  c #EC5E47","i  c #EB573F","j  c #D96558",
"k  c #F3654F","l  c #F3614A","m  c #DA6759","n  c #F46C56","o  c #F36049","p  c #E1776B","q  c #F3634D",
"r  c #F26048","s  c #F26049","t  c #973227","u  c #E16252","v  c #F56953","w  c #F56853","x  c #F46651",
"y  c #DC5F50","z  c #9E3125","A  c #E46454","B  c #F76E59","C  c #F56752","D  c #F66F5B","E  c #E45340",
"F  c #D94F3D","G  c #F76F5B","H  c #F76E5A","I  c #E56C5C","J  c #F56954","K  c #F46752","L  c #F56A55",
"M  c #ED6756","N  c #4B1914","O  c #E56B5B","P  c #DC5D4E","Q  c #F9715E","R  c #F9705D","S  c #FA715E",
"T  c #ED6553","U  c #631E17","V  c #EC6453","W  c #DA5C4C","X  c #D24E3E","Y  c #F66B57","Z  c #F86F5C",
"`  c #FA705C"," . c #F1614F",".. c #631E18","+. c #E15A49","@. c #FB705D","#. c #C64335","$. c #FB6E58",
"%. c #F9705E","&. c #EF5D4A","*. c #4C1914","=. c #DF5645","-. c #C64234",";. c #F96F5C",">. c #E75842",
",. c #631F19","'. c #E55742","). c #F66751","!. c #C64334","~. c #D04939","{. c #DF523F","]. c #63201A",
"^. c #E1523F","/. c #A2382C",
"                                                ","        . +                         + .         ",
"      @ # $ %                     % $ # @       ","  & * = - ; > ,                 , > ; - = '     ",
"  ) ! ~ ; ; { ] ,             , ] { ; ; ~ ^ /   ","  ( _ ; ; ; ; { : <         < : { ; ; ; ; _ (   ",
"    [ } { ; ; ; ; } |     | } ; ; ; ; { } [     ","      1 2 3 4 4 4 5 6 7 7 6 5 4 4 4 3 2 1       ",
"        8 9 0 0 0 0 a 0 0 a 0 0 0 0 9 8         ","          b 9 c d d d d d d d d c 9 b           ",
"            e f c d d d d d d c f e             ","              g h i i i i i i h g               ",
"              j k l l l l l l k j               ","            m n o l l l l l l o n m             ",
"          p q r s s s s s s s s r q p           ","      t u v w w w w w x x w w w w w v y         ",
"    z A B C w w w C D E F G C w w w C H y       ","  z I J K K K K K L M N   y L K K K K K J O     ",
"  P Q R R R R R S T U       V S R R R R R Q W   ","  X Y R Z R R `  ...          +.@.R R Z R Y X   ",
"    #.$.%.Z R &.*.              =.R Z %.$.#.    ","      -.x ;.>.,.                  '.;.).!.      ",
"        ~.{.].                    ].^./.        ","                                                "};
