/* XPM */
static char * delete_xpm[] = {"24 24 200 2",
"   c None",   ".  c #962E24","+  c #AD2D1F","@  c #C3412F","#  c #D96754","$  c #D97661","%  c #D97561",
"&  c #D96B58","*  c #D96C59","=  c #D75E4C","-  c #C34330",";  c #AD3022",">  c #962F24",",  c #B73526",
"'  c #C63F2D",")  c #F59C87","!  c #F8B298","~  c #FDBCA2","{  c #FEC2A8","]  c #FFC2A8","^  c #FFC0A5",
"/  c #FEC0A6","(  c #F79D85","_  c #F67A66",":  c #C73F2D","<  c #B63628","[  c #BC392B","}  c #DA644D",
"|  c #FFC8AF","1  c #FBC2AC","2  c #F9937D","3  c #F6634E","4  c #D93E27","5  c #CA3B27","6  c #D94028",
"7  c #EE523A","8  c #F9957E","9  c #FBB096","0  c #FB9781","a  c #E64E34","b  c #B7382A","c  c #E97F6B",
"d  c #FED1BB","e  c #FA9883","f  c #ED5C41","g  c #E8472B","h  c #E94B2F","i  c #EB4D32","j  c #EC4D32",
"k  c #E94C30","l  c #E8472C","m  c #ED593F","n  c #FB8D77","o  c #F89B84","p  c #D75B46","q  c #BA392A",
"r  c #FC8A76","s  c #EA4D32","t  c #E94C31","u  c #EA4D33","v  c #FC836F","w  c #FA9D85","x  c #CB4532",
"y  c #B83728","z  c #972F24","A  c #EA4E33","B  c #FA8570","C  c #FE7E6A","D  c #C33F2C","E  c #972F25",
"F  c #8E2317","G  c #F59D88","H  c #EB573D","I  c #F99981","J  c #E6614C","K  c #8F2A1E","L  c #BD3F2D",
"M  c #E9482D","N  c #F5866F","O  c #F67F68","P  c #C63A27","Q  c #F66550","R  c #E94B30","S  c #E94A2F",
"T  c #F76853","U  c #F48771","V  c #C94936","W  c #FDC1A7","X  c #EC4E35","Y  c #EF5C44","Z  c #EA4C31",
"`  c #F38D75"," . c #F2A799",".. c #F2A596","+. c #EB4F36","@. c #FB9680","#. c #DD4B36","$. c #FDC2A7",
"%. c #E9472C","&. c #F1614A","*. c #E94529","=. c #FDFFFF","-. c #FCFFFE",";. c #F16049",">. c #EF5941",
",. c #FA957F","'. c #DB4C37","). c #FDBEA4","!. c #F05A44","~. c #F15F49","{. c #EA472B","]. c #F05B44",
"^. c #F9927B","/. c #D7412A","(. c #FDBFA5","_. c #F05740",":. c #F05F48","<. c #F15D46","[. c #F6957F",
"}. c #F6B1A5","|. c #F3A597","1. c #F2A495","2. c #F15F47","3. c #EF5A43","4. c #FA937C","5. c #D8422B",
"6. c #D85F4D","7. c #FCAA91","8. c #F57C66","9. c #F05C45","0. c #F05E46","a. c #F05C44","b. c #EF5942",
"c. c #F05D46","d. c #F86A56","e. c #F68770","f. c #D23F29","g. c #AA3D2D","h. c #F89E86","i. c #F15C45",
"j. c #F9705C","k. c #FA735F","l. c #F66752","m. c #F68872","n. c #EB543D","o. c #A33326","p. c #832317",
"q. c #F77B67","r. c #FCA890","s. c #F7735E","t. c #FA725E","u. c #FA715D","v. c #F97763","w. c #FB836E",
"x. c #D6412B","y. c #862A1E","z. c #4A1612","A. c #BF3D2B","B. c #F99780","C. c #F9725E","D. c #F97460",
"E. c #F78E78","F. c #F0593F","G. c #BA3B2A","H. c #4B1712","I. c #902E25","J. c #E84E34","K. c #F99A83",
"L. c #F8937C","M. c #EF664D","N. c #CC402C","O. c #922F25","P. c #D75C46","Q. c #FB9B83","R. c #F8927C",
"S. c #FA7965","T. c #F96F5B","U. c #FA705C","V. c #F97662","W. c #CA3D29","X. c #CC4532","Y. c #F9927C",
"Z. c #F7826D","`. c #FA6E5A"," + c #FA6E5B",".+ c #F7846F","++ c #F78973","@+ c #BB3C2A","#+ c #E7634E",
"$+ c #F96A55","%+ c #FA947E","&+ c #FA937D","*+ c #F9917A","=+ c #F78B74","-+ c #F9705B",";+ c #EB563E",
">+ c #84261A",",+ c #B33725","'+ c #CA4A36",")+ c #D2402A",
"                                                ","            . + @ # $ % & * = - ; >             ",
"          , ' ) ! ~ { ] ^ / ~ ( _ : <           ","        [ } | 1 2 3 4 5 5 6 7 8 9 0 a b         ",
"      [ c d e f g h i j j i k l m n o p q       ","    , } d r s t s s s s s s s s t u v w x y     ",
"  z ' | e s s s s s s s s s s s s s A B C D E   ","  F G 1 f t s s s s s s s s s s s s t H I J K   ",
"  L ! 2 g s s s s s s s s s s s s s s M N O P   ","  # ~ Q k s R S S S S S S S S S S R s k T U V   ",
"  $ W X Y Z `  ................. .` Z Y +.@.#.  ","  % $.%.&.*.=.-.-.-.-.-.-.-.-.-.-.=.*.;.>.,.'.  ",
"  & ).!.~.{.=.-.-.-.-.-.-.-.-.-.-.=.{.~.].^./.  ","  * (._.:.<.[.}.|.1.1.1.1.1.1.|.}.[.<.2.3.4.5.  ",
"  6.7.8.9.0.9.a.b.>.>.>.>.>.>.b.a.9.c.c.d.e.f.  ","  g.h.4.i.j.k.k.k.k.k.k.k.k.k.k.k.k.k.l.m.n.o.  ",
"  p.q.r.s.j.t.t.t.t.t.t.t.t.t.t.t.t.u.v.w.x.y.  ","  z.A.0 B.C.C.t.t.t.t.t.t.t.t.t.t.t.D.E.F.G.H.  ",
"    I.J.K.L.C.u.t.t.t.t.t.t.t.C.u.D.v.M.N.O.    ","      b P.Q.R.S.T.U.C.t.t.C.U.U.V.E.M.W.y       ",
"        q X.C Y.@.Z.`.T.T. +.+++w.F.N.y         ","          O.@+#+$+U %+&+*+=+-+;+x.G.O.          ",
"            z.>+,+'+#.'./.5.)+o.y.H.            ","                                                "};
