/* XPM */
static char * divide_xpm[] = {"24 24 134 2",
"   c None",   ".  c #418403","+  c #5A9402","@  c #478803","#  c #86B332","$  c #93BA1D","%  c #458701",
"&  c #387500","*  c #629100","=  c #7EB22C","-  c #93B957",";  c #92B955",">  c #93B956",",  c #95BA2A",
"'  c #B3D132",")  c #A8C650","!  c #478800","~  c #2D5404","{  c #498B00","]  c #A8CA2D","^  c #C8DF60",
"/  c #B7DE47","(  c #ADCB23","_  c #A4C51C",":  c #A4C41B","<  c #A4C41C","[  c #9FC111","}  c #98BD05",
"|  c #ABC92D","1  c #A6C54B","2  c #488900","3  c #2D5703","4  c #488706","5  c #BEDC4C","6  c #B9D94D",
"7  c #99D004","8  c #99BB05","9  c #A5C712","0  c #A4C611","a  c #98BC05","b  c #99BD06","c  c #99BD07",
"d  c #9ABE08","e  c #9ABE06","f  c #DBE994","g  c #5A9521","h  c #579300","i  c #AFD440","j  c #B0D92F",
"k  c #96CF00","l  c #9BCA03","m  c #B8D342","n  c #CCDF64","o  c #C7DB5C","p  c #C7DB5D","q  c #B0CC32",
"r  c #94B900","s  c #C5DA62","t  c #81AD25","u  c #468800","v  c #2A4F03","w  c #458902","x  c #94BE24",
"y  c #B1DF2C","z  c #99CF01","A  c #9ED509","B  c #C7E25B","C  c #A9CA1A","D  c #79AD19","E  c #599517",
"F  c #579217","G  c #569217","H  c #74A507","I  c #C7DF57","J  c #7DAA13","K  c #428500","L  c #3E7603",
"M  c #5E9C08","N  c #62A109","O  c #64A409","P  c #62A409","Q  c #A8CA18","R  c #B2DF33","S  c #9BD105",
"T  c #9DD208","U  c #C0E14B","V  c #7AA80B","W  c #3B7F03","X  c #356403","Y  c #85B333","Z  c #7BA90C",
"`  c #3E8204"," . c #377C00",".. c #A3D51D","+. c #A8DA12","@. c #A8DB13","#. c #A8DB12","$. c #A8D827",
"%. c #98CF00","&. c #9AD002","*. c #ACD82E","=. c #8DB72C","-. c #428501",";. c #4F8D01",">. c #448602",
",. c #387C00","'. c #9FD21C","). c #99D003","!. c #9AD004","~. c #98D000","{. c #C2DC5C","]. c #5A8F02",
"^. c #A4D61D","/. c #A9DC12","(. c #AADC13","_. c #407803",":. c #4E8D06","<. c #509007","[. c #519207",
"}. c #5FA208","|. c #3B7F00","1. c #356404","2. c #9FD509","3. c #C6E357","4. c #AFD13E","5. c #79AC17",
"6. c #B8D240","7. c #99D005","8. c #B5DC45","9. c #ACCB1F","0. c #326A00","a. c #619000","b. c #77AA21",
"c. c #8CB646",
"                                                ","                                      .         ",
"                                      + @       ","                                      # $ %     ",
"                    & * = - ; ; ; ; > , ' ) !   ","                ~ { ] ^ / ( _ : : : < [ } | 1 2 ",
"              3 4 5 6 7 8 9 0 a b b b c d e f g ","              h i j k l m n o o o o p q r s t u ",
"          v w x y z A B C D E F F F G H I J K   ","  L M N O P Q R S T U V W X           Y Z `     ",
"   ...+.@.#.$.%.&.*.=.-.              ;.>.      ","  ,.'.).!.!.!.S ~.{.].                          ",
"  ,.'.).!.!.!.S ~.{.].                          ","   .^./.(.#.$.%.&.*.=.-.              ;.>.      ",
"  _.:.<.[.}.Q R S T U V |.1.          Y Z `     ","          v w x y z 2.3.4.5.E F F F G H I J K   ",
"              h i j k k 6.n o o o o p q r s t u ","              3 4 5 6 7.8 9 0 a b b b c d e f g ",
"                ~ { ] ^ 8.9._ : : : < [ } | 1 2 ","                    0.a.b.c.; ; ; ; > , ' ) !   ",
"                                      # $ %     ","                                      + @       ",
"                                      .         ","                                                "};
