/* XPM */
static char * door_out_xpm[] = {"24 24 185 2",
"   c None",   ".  c #E7DAB4","+  c #C2A678","@  c #E6D7B1","#  c #E5D3B5","$  c #D3B07A","%  c #C3A97C",
"&  c #A37548","*  c #AB8352","=  c #AA8252","-  c #9B7248",";  c #C8A16D",">  c #E2C7A6",",  c #D5B187",
"'  c #CCA068",")  c #D2AC76","!  c #AC8553","~  c #233141","{  c #2C3642","]  c #222E3F","^  c #D0BA83",
"/  c #D4A15C","(  c #CCA16B","_  c #CEA36D",":  c #D2AB76","<  c #956C46","[  c #2D3743","}  c #333A43",
"|  c #293442","1  c #CC9B53","2  c #CCA26E","3  c #CEA36C","4  c #AC8453","5  c #3D434D","6  c #525256",
"7  c #525255","8  c #39404B","9  c #CA9B56","0  c #CDA26E","a  c #CFA873","b  c #D2B784","c  c #A57850",
"d  c #4C4E56","e  c #505054","f  c #515155","g  c #394049","h  c #BA9669","i  c #C3965F","j  c #C49861",
"k  c #BD915D","l  c #CFAB83","m  c #609F01","n  c #469100","o  c #9B6B4B","p  c #4C4F56","q  c #383F49",
"r  c #BA9667","s  c #B88A52","t  c #B98B53","u  c #BF945F","v  c #CFAC83","w  c #529504","x  c #C3E039",
"y  c #51970B","z  c #8C6B40","A  c #3A4A41","B  c #4E564A","C  c #515055","D  c #4A4C54","E  c #C09A6B",
"F  c #B78951","G  c #BA8C54","H  c #BE9360","I  c #589900","J  c #B7D831","K  c #CDDE64","L  c #9AC13D",
"M  c #8ABE2C","N  c #9AC14A","O  c #4A8C07","P  c #514E59","Q  c #494B53","R  c #B88B53","S  c #C8975A",
"T  c #DEAD46","U  c #CDAA84","V  c #5B9B00","W  c #C4DF47","X  c #A6D416","Y  c #A7D31B","Z  c #92C110",
"`  c #8EBE0C"," . c #BBD93D",".. c #569A0C","+. c #514D59","@. c #B68956","#. c #EFB62D","$. c #AD8050",
"%. c #D0AD84","&. c #70AA0A","*. c #A2D20E","=. c #A4D312","-. c #A3D211",";. c #A5D412",">. c #C4E438",
",. c #55990A","'. c #494C53","). c #BD9768","!. c #B68957","~. c #F1B827","{. c #A57A57","]. c #4F8505",
"^. c #91C309","/. c #A6D413","(. c #A9D612","_. c #A9D712",":. c #CBE83B","<. c #579B0B","[. c #4A4D55",
"}. c #AC8352","|. c #B68955","1. c #E7AF41","2. c #DCAA45","3. c #C7A073","4. c #437A06","5. c #94C707",
"6. c #ABD813","7. c #5A9B08","8. c #4B9502","9. c #549A06","0. c #418100","a. c #524E59","b. c #AD8454",
"c. c #BE9056","d. c #AE7E45","e. c #C59861","f. c #97C70A","g. c #4A9502","h. c #A0694F","i. c #4D4C5B",
"j. c #54505B","k. c #535356","l. c #535357","m. c #4B4E56","n. c #BB8D54","o. c #A7784B","p. c #C79B63",
"q. c #538805","r. c #438D01","s. c #9D6C4C","t. c #5C5F64","u. c #666668","v. c #54575D","w. c #BD9057",
"x. c #CFA56F","y. c #996F4A","z. c #616469","A. c #646466","B. c #656567","C. c #5E6166","D. c #AF8656",
"E. c #BC8E57","F. c #CFA46E","G. c #996F49","H. c #5F6268","I. c #AF8756","J. c #BC8E56","K. c #CDA26C",
"L. c #C39760","M. c #906B4B","N. c #5F6166","O. c #626264","P. c #5D6065","Q. c #A58258","R. c #B78851",
"S. c #B68852","T. c #C69860","U. c #666667","V. c #4E4E52","W. c #4D4D51","X. c #555D68","Y. c #A06E42",
"Z. c #7F6856","`. c #A17044"," + c #C99552",
"                                                ","                                          . +   ",
"                                      @ # $ %   ","            & * = = = = = = = * - ; > , ' ) %   ",
"            ! ~ { { { { { { { { ] ^ / ( _ : %   ","            < [ } } } } } } } } | 1 2 3 _ : %   ",
"            4 5 6 7 7 7 7 7 7 6 8 9 0 _ _ a b   ","            c d e f f f f f f f g h ( i j k l   ",
"        m n o p e f f f f f f f q r ( s t u v   ","      w x y z A B C f f f f f e D E F G t H v   ",
"    I J K L M N O P f f f f f f Q E s R S T U   ","  V W X Y Z `  ...+.f f f f f f Q E s @.#.$.%.  ",
"  &.*.=.-.;.;.>.,.+.f f f f f f '.).s !.~.{.%.  ","  ].^./.-.(._.:.<.+.f f f f f f [.}.G |.1.2.3.  ",
"    4.5.6.7.8.9.0.a.f f f f f f [.b.G t c.d.e.  ","      4.f.g.h.i.j.k.l.l.l.l.l.l.m.b.G G n.o.p.  ",
"        q.r.s.t.u.u.u.u.u.u.u.u.v.4 G G t w.x.  ","            y.z.A.B.B.B.B.B.B.B.C.D.G G G E.F.  ",
"            G.z.B.B.B.B.B.B.B.B.H.I.G G G J.K.  ","            G.z.B.B.B.B.B.B.B.B.H.I.G G G t L.  ",
"            G.z.B.B.B.B.B.B.B.B.H.I.G G G t j   ","            M.N.O.O.O.O.O.O.O.O.P.Q.R.S.R.S.T.  ",
"  A.A.A.A.U.  V.V.V.V.V.V.V.V.V.W.X.Y.  Z.`. +  ","                                                "};
