/* XPM */
static char * help_xpm[] = {"24 24 264 2",
"   c None",   ".  c #124788","+  c #074897","@  c #1E66B3","#  c #3F81C4","$  c #528FCE","%  c #518ECD",
"&  c #4F8DCC","*  c #3479BF","=  c #2068B4","-  c #094A98",";  c #134888",">  c #1258A9",",  c #155AA8",
"'  c #7FB7E6",")  c #A6D7F6","!  c #C6ECFB","~  c #CDF1FE","{  c #CDF2FE","]  c #B6E2FB","^  c #8EC3EF",
"/  c #68A7DE","(  c #1559A8","_  c #165BAB",":  c #337DC4","<  c #B2DEFD","[  c #BBE5F9","}  c #93C5EF",
"|  c #488FCF","1  c #1C6AB9","2  c #1764B6","3  c #1B6AB9","4  c #4A90CF","5  c #88C0EC","6  c #A8D7F8",
"7  c #89C1EB","8  c #2F7AC2","9  c #145AAB","0  c #5596D2","a  c #C0E8FD","b  c #9BCDED","c  c #448BCD",
"d  c #1E6BBA","e  c #2D79C2","f  c #2F7BC3","g  c #307CC3","h  c #2C79C1","i  c #2775BF","j  c #4389CC",
"k  c #8BC2EA","l  c #97CCF0","m  c #3B82C7","n  c #7BB5E2","o  c #327DC4","p  c #2D7AC2","q  c #2E7AC2",
"r  c #77B3E3","s  c #307BC2","t  c #134889","u  c #1358A7","v  c #317DC4","w  c #458ACA","x  c #478AC9",
"y  c #448ACA","z  c #347FC5","A  c #83BBE8","B  c #72AFE2","C  c #1458A7","D  c #053B7C","E  c #74AFE2",
"F  c #BDE7FA","G  c #4E94D3","H  c #3681C7","I  c #438DCF","J  c #3E88CB","K  c #3783C9","L  c #AED0EA",
"M  c #FDFFFF","N  c #FFFFFF","O  c #FEFFFF","P  c #BCDAEF","Q  c #3381C8","R  c #3883C8","S  c #448DCF",
"T  c #3682C7","U  c #4A91D1","V  c #9CCEF5","W  c #448CCE","X  c #0A3F7E","Y  c #1E65AE","Z  c #9ACBF3",
"`  c #95C7F0"," . c #317EC5",".. c #428CCE","+. c #2E7CC5","@. c #BCD5EE","#. c #FFFFFC","$. c #FDFEFD",
"%. c #80B4E0","&. c #7DB4E0","*. c #EFFFFF","=. c #FEFFFC","-. c #D0E3F1",";. c #2C7CC5",">. c #3C87CB",
",. c #8BC2EF","'. c #65A5DA","). c #1A60AB","!. c #B6E3FB","~. c #61A3D9","{. c #408ACD","]. c #418BCD",
"^. c #2D7CC5","/. c #D5E7F2","(. c #F0F8FB","_. c #91BDE1",":. c #3D89CC","<. c #3B86CB","[. c #83AFDB",
"}. c #FAFDFC","|. c #E2EEF5","1. c #408BCD","2. c #5196D2","3. c #89C1EE","4. c #1C66B4","5. c #4A8ACB",
"6. c #CAEFFD","7. c #3784CA","8. c #4F97D4","9. c #5FA3DD","0. c #4991D1","a. c #CDE1F1","b. c #FCFFFC",
"c. c #E2EDF7","d. c #3785CB","e. c #3A86CA","f. c #A2D2F6","g. c #246DB9","h. c #4989CA","i. c #C9EEFD",
"j. c #3A86CB","k. c #3F8ACD","l. c #3181C9","m. c #DDE9F6","n. c #FDFFFC","o. c #60A0D8","p. c #3E89CC",
"q. c #A1D1F5","r. c #236DB9","s. c #5297D3","t. c #5EA0D8","u. c #5B9DD7","v. c #3886CB","w. c #DBE8F6",
"x. c #ECF3F9","y. c #5FA0D8","z. c #3B87CB","A. c #A1D0F5","B. c #226CB8","C. c #4384C7","D. c #C8EEFC",
"E. c #4990D0","F. c #5C9ED7","G. c #5D9FD8","H. c #589BD6","I. c #60A3DC","J. c #F0F8FA","K. c #F2F9FA",
"L. c #69A5DA","M. c #4890D0","N. c #4B92D1","O. c #9BCCF3","P. c #1964B3","Q. c #3479C0","R. c #A7D5F7",
"S. c #68A8DC","T. c #5B9ED7","U. c #70AFE4","V. c #F8FEFD","W. c #F4FAFB","X. c #5DA1DA","Y. c #6CAADE",
"Z. c #6FACDF","`. c #145EB0"," + c #175699",".+ c #7CB7E8","++ c #589BD5","@+ c #5297D4","#+ c #4C92D0",
"$+ c #5398D5","%+ c #599CD6","&+ c #8EC4F0","*+ c #4C91D0","=+ c #145197","-+ c #0A4082",";+ c #4E94D2",
">+ c #A6D7F8",",+ c #6BA9DE","'+ c #97C5EA",")+ c #67A7DD","!+ c #85BDEA","~+ c #1D6ABA","{+ c #0F4585",
"]+ c #0B2544","^+ c #1255A1","/+ c #73B0E2","(+ c #9FD0F6","_+ c #599DD7",":+ c #AFD0EA","<+ c #347BC3",
"[+ c #1354A0","}+ c #0B2644","|+ c #134583","1+ c #206BBA","2+ c #86BEE8","3+ c #9ACEF5","4+ c #61A2DA",
"5+ c #75B1E1","6+ c #74B0E1","7+ c #71AEE0","8+ c #76B3E5","9+ c #DEEEF7","0+ c #73B0E1","a+ c #7EB8E6",
"b+ c #5E9ED9","c+ c #1E6ABA","d+ c #2B75BE","e+ c #7EB7E6","f+ c #9CCEF6","g+ c #7BB6E5","h+ c #6FADDF",
"i+ c #71AFE0","j+ c #5EA1DA","k+ c #71AEDF","l+ c #79B5E4","m+ c #1863B4","n+ c #1359AA","o+ c #216CBB",
"p+ c #569CD7","q+ c #94C8EF","r+ c #9DCEF5","s+ c #85BEEC","t+ c #6EACDE","u+ c #70AEDF","v+ c #6FADDE",
"w+ c #87C0ED","x+ c #90C6F1","y+ c #87BEEB","z+ c #1254A0","A+ c #2E7BC4","B+ c #86BEEC","C+ c #97C9F2",
"D+ c #9ACBF2","E+ c #91C4F0","F+ c #6EABDE","G+ c #327EC6","H+ c #1662B4","I+ c #1355A0","J+ c #14549C",
"K+ c #1B66B4","L+ c #1863B2","M+ c #115BAD","N+ c #135DB0","O+ c #17569D",
"                                                ","            . + @ # $ % % & * = - ;             ",
"          > , ' ) ! ~ { { ~ ] ^ / ( >           ","        _ : < [ } | 1 2 2 3 4 5 6 7 8 9         ",
"      _ 0 a b c d e f g g f h i j k l m 9       ","    > : a n o p f q f f f f f f q f r l s >     ",
"  t u < b v v v q v w x x y z q g v f A B C t   ","  D E F G H I J K L M N N O P Q R S T U V W X   ",
"  Y Z `  .....+.@.#.$.%.&.*.=.-.;.....>.,.'.).  ","  # !.~.{.]...^./.(._.:.<.[.}.|.^.....1.2.3.4.  ",
"  5.6.7.....].].8.9.0...].a.b.c.d.].....e.f.g.  ","  h.i.j.].{.{.{.k.k...l.m.n.N o.p.{.{.].>.q.r.  ",
"  h.i.j.s.t.t.t.t.u.v.w.n.x.y...s.t.t.s.z.A.B.  ","  C.D.E.t.F.G.G.G.H.I.J.K.L.M.y.G.F.F.t.N.O.P.  ",
"  Q.R.S.T.G.G.G.G.T.U.V.W.X.F.F.G.G.G.T.Y.Z.`.  ","   +.+O.++G.G.G.G.G.@+#+#+$+G.G.G.G.G.%+&+*+=+  ",
"  -+;+>+,+F.G.G.G.T.'+N N '+T.G.G.G.F.)+!+~+{+  ","  ]+^+/+(+t.G.u.T._+:+n.n.:+_+T.T.T.G.5 <+[+}+  ",
"    |+1+2+3+4+5+6+7+8+9+9+8+7+6+6+0+a+b+c+|+    ","      9 d+e+f+g+h+i+Y.j+j+Y.i+k+l+5 b+m+n+      ",
"        9 o+p+q+r+s+t+u+u+v+w+x+y+<+c+n+        ","          |+z+A+*+B+C+O.D+E+F+G+H+I+|+          ",
"            ]+  J+K+P.P.L+M+N+O+  }+            ","                                                "};
