/* XPM */
static char * hub_xpm[] = {"24 24 110 2",
"   c None",   ".  c #1A191A","+  c #1B191B","@  c #1F1D1F","#  c #010001","$  c #040204","%  c #565456",
"&  c #E8E7E8","*  c #E1E1E1","=  c #E1E0E1","-  c #E0E1E0",";  c #F1EFF1",">  c #817F81",",  c #403F40",
"'  c #000000",")  c #D4D5D4","!  c #D4D6D4","~  c #D3D6D3","{  c #D8D6D8","]  c #787578","^  c #737373",
"/  c #8A8C8A","(  c #333133","_  c #E9E9E9",":  c #D7D8D7","<  c #D6D4D6","[  c #D6D8D6","}  c #D6D6D6",
"|  c #D6D7D6","1  c #D7D6D7","2  c #A7A2A7","3  c #4A4A4A","4  c #9EA19E","5  c #858585","6  c #737173",
"7  c #616061","8  c #656165","9  c #606060","0  c #646164","a  c #636063","b  c #5F5F5F","c  c #716D71",
"d  c #A6A9A6","e  c #9C9F9C","f  c #848484","g  c #908E90","h  c #ADAAAD","i  c #ACAAAC","j  c #A4A2A4",
"k  c #A2A0A2","l  c #A8A6A8","m  c #ABA8AB","n  c #ABA9AB","o  c #ACA9AC","p  c #B1AFB1","q  c #0B090B",
"r  c #979897","s  c #9CA19C","t  c #ADABAD","u  c #060606","v  c #0B0D0B","w  c #A7A6A7","x  c #A7A5A7",
"y  c #090909","z  c #0A0C0A","A  c #C7C5C7","B  c #656365","C  c #141514","D  c #2B2C2B","E  c #D1CED1",
"F  c #242224","G  c #161816","H  c #797779","I  c #131113","J  c #A1A3A1","K  c #9C9E9C","L  c #989A98",
"M  c #AEACAE","N  c #A5A3A5","O  c #C9C7C9","P  c #5F5D5F","Q  c #100E10","R  c #D3D1D3","S  c #191719",
"T  c #A4A5A4","U  c #797B79","V  c #020002","W  c #AFADAF","X  c #858785","Y  c #B4B3B4","Z  c #A3A0A3",
"`  c #303030"," . c #7E807E",".. c #C1BFC1","+. c #525052","@. c #6D6F6D","#. c #878887","$. c #CBC9CB",
"%. c #080608","&. c #878987","*. c #A9A9A9","=. c #110F11","-. c #939593",";. c #030103",">. c #8E8C8E",
",. c #A6A4A6","'. c #A3A1A3","). c #A9A7A9","!. c #A6A3A6","~. c #171517",
"                                                ","                                                ",
"                                                ","                                                ",
"                                                ","                                                ",
"            . + + + + + + + + + + + + + @ # $   ","          % & * * * * * * * * * * = - ; > , '   ",
"        % ) ! ~ ! ! ! ! ! ! ! ! ! ! { ] ^ / '   ","      ( _ : < [ < : } | | 1 [ < } { 2 3 4 5 '   ",
"    ' 6 7 8 9 9 9 0 9 9 7 a 9 9 b c 3 d e f '   ","  ' g h i j j h i k l i m k n o p q d e r s '   ",
"  ' t u v w x y z A B C D E F G H I J K L '     ","  ' M ' ' j N ' ' O P ' Q R S ' B I T U V       ",
"  ' W ' X Y Z `  ...+.@.#.$.%.&.*.=.-.;.        ","  ' >.M N j N m ,.'.).x !.'.t N W ~.'           ",
"    ' ' ' ' ' ' ' ' ' ' ' ' ' ' ' #             ","                                                ",
"                                                ","                                                ",
"                                                ","                                                ",
"                                                ","                                                "};
