/* XPM */
static char * information_xpm[] = {"24 24 243 2",
"   c None",   ".  c #134888","+  c #084997","@  c #226AB6","#  c #4082C4","$  c #5691CF","%  c #5490CE",
"&  c #538FCE","*  c #4A89CB","=  c #367AC1","-  c #1E66B3",";  c #0A4A98",">  c #1258A9",",  c #1358A7",
"'  c #72AEE2",")  c #A8D9F7","!  c #B7E4FB","~  c #CEF5FF","{  c #CCF4FF","]  c #CBF3FF","^  c #B5E3FB",
"/  c #93C7F1","(  c #63A3DB","_  c #1459A7",":  c #165CAC","<  c #327CC4","[  c #B7E3FF","}  c #BCE7FA",
"|  c #86BEEB","1  c #4D93D2","2  c #1B69B9","3  c #1664B6","4  c #4C93D2","5  c #87BFEC","6  c #ABD9F9",
"7  c #89C2EB","8  c #2E79C2","9  c #145AAB","0  c #5697D4","a  c #BCE7FD","b  c #9ACEED","c  c #4289CD",
"d  c #1E6BBA","e  c #2B78C2","f  c #2E7AC3","g  c #2E7BC3","h  c #2B77C1","i  c #2674BF","j  c #3D86CA",
"k  c #8BC3EC","l  c #96CBEF","m  c #3881C6","n  c #7EB8E5","o  c #307CC4","p  c #2C79C2","q  c #2A77C1",
"r  c #2272BF","s  c #2D79C2","t  c #7AB6E5","u  c #96CCEF","v  c #2F7AC2","w  c #134889","x  c #307BC4",
"y  c #2F7BC4","z  c #2C78C2","A  c #6BA8DE","B  c #FFFFFF","C  c #82BAE9","D  c #74B2E5","E  c #053B7C",
"F  c #73AFE3","G  c #BBE7FA","H  c #4A91D1","I  c #3480C6","J  c #3F8ACC","K  c #3F89CC","L  c #327EC5",
"M  c #9ABEDF","N  c #FFFFFC","O  c #478FD0","P  c #99CCF4","Q  c #448CCE","R  c #0A3F7E","S  c #1D64AE",
"T  c #94C8F1","U  c #9ACCF2","V  c #2E7BC4","W  c #3E89CC","X  c #3D88CB","Y  c #3A86CA","Z  c #69A6DD",
"`  c #3884C9"," . c #8AC1EE",".. c #64A5DB","+. c #1A60AB","@. c #B4E2FB","#. c #60A3DA","$. c #3B87CB",
"%. c #3D89CC","&. c #3A87CB","*. c #2273C0","=. c #2272C0","-. c #3C87CB",";. c #5499D6",">. c #88C0ED",
",. c #1B65B4","'. c #4B8ACB","). c #C9F1FE","!. c #3A87CC","~. c #448ED0","{. c #448ECF","]. c #4990CE",
"^. c #AACBE7","/. c #95BCE0","(. c #97BDE0","_. c #6DA6D8",":. c #428DCF","<. c #9DCEF5","[. c #226CB8",
"}. c #4989CA","|. c #C8F0FE","1. c #3784CA","2. c #4B94D4","3. c #4A93D4","4. c #4992D2","5. c #ABCCE7",
"6. c #FFFFFD","7. c #9DC3E3","8. c #4791D2","9. c #448FD0","0. c #9BCDF4","a. c #216BB8","b. c #C8F1FE",
"c. c #3885CB","d. c #5197D4","e. c #5498D4","f. c #5598D4","g. c #9CC2E3","h. c #FEFFFC","i. c #5096D4",
"j. c #4590D1","k. c #206AB7","l. c #4385C7","m. c #BFEAFC","n. c #4E95D5","o. c #5397D3","p. c #5095D3",
"q. c #9FC5E5","r. c #4F96D4","s. c #1963B3","t. c #3076BE","u. c #A0D1F5","v. c #66A7DC","w. c #579BD6",
"x. c #5EA0DA","y. c #5FA1DA","z. c #4F95D2","A. c #A3C8E8","B. c #579AD6","C. c #6AAADD","D. c #6FADDF",
"E. c #145EB0","F. c #175599","G. c #7BB7E8","H. c #9FD0F5","I. c #5599D5","J. c #60A2DB","K. c #5C9FDA",
"L. c #A2C8E7","M. c #5D9FD9","N. c #8DC4F0","O. c #448BCD","P. c #155297","Q. c #094082","R. c #5298D5",
"S. c #A5D6F7","T. c #6DABE0","U. c #5A9ED9","V. c #9EC5E6","W. c #6AA9DF","X. c #7FBAE9","Y. c #1D6ABA",
"Z. c #0F4585","`. c #0B2544"," + c #1356A1",".+ c #75B2E5","++ c #9CCEF5","@+ c #61A3DB","#+ c #5EA1DA",
"$+ c #71ACDE","%+ c #88C1EC","&+ c #347CC4","*+ c #1354A0","=+ c #0B2644","-+ c #134583",";+ c #206BBB",
">+ c #88C0EA",",+ c #99CDF4","'+ c #64A5DC",")+ c #73B1E1","!+ c #74B1E1","~+ c #589ED9","{+ c #599ED9",
"]+ c #72B0E1","^+ c #5699D6","/+ c #1E6ABA","(+ c #2B75BF","_+ c #7DB7E7",":+ c #A0D1F7","<+ c #7CB7E5",
"[+ c #6FAEDF","}+ c #71AFE0","|+ c #73B0E1","1+ c #70AEDF","2+ c #79B5E4","3+ c #1864B4","4+ c #1359AA",
"5+ c #226DBB","6+ c #549AD6","7+ c #93C7EF","8+ c #8FC5F0","9+ c #86BFEC","0+ c #6DACDE","a+ c #6EADDE",
"b+ c #87C0ED","c+ c #8EC5F0","d+ c #80BBEA","e+ c #1254A0","f+ c #2B79C2","g+ c #4F94D3","h+ c #98CAF2",
"i+ c #97C9F2","j+ c #8CC2EE","k+ c #6BAADD","l+ c #3A85CB","m+ c #1662B4","n+ c #1355A0","o+ c #14549C",
"p+ c #1A65B4","q+ c #1862B2","r+ c #115BAD","s+ c #135DB0","t+ c #16559D",
"                                                ","            . + @ # $ % & * = - ; .             ",
"          > , ' ) ! ~ { { ] ^ / ( _ >           ","        : < [ } | 1 2 3 3 2 4 5 6 7 8 9         ",
"      : 0 a b c d e f g g f h i j k l m 9       ","    > < a n o p f f q r r q f f s f t u v >     ",
"  w , [ b x o y x z A B B A z x y o f C D , w   ","  E F G H I J K J L M N N M L J K J I O P Q R   ",
"  S T U V W X W X Y Z B B Z Y X W X W `  ...+.  ","  = @.#.$.X X X X %.&.*.=.$.W X X X X -.;.>.,.  ",
"  '.).!.~.{.{.{.~.].^./.(._.:.{.{.{.{.~.%.<.[.  ","  }.|.1.2.3.3.3.3.4.5.6.6.7.8.3.3.3.3.2.9.0.a.  ",
"  }.b.c.d.e.e.e.f.8.g.h.h.g.8.f.e.e.e.i.j.0.k.  ","  l.m.n.o.o.o.o.o.p.q.h.h.q.p.o.o.o.o.o.r.0.s.  ",
"  t.u.v.w.x.x.x.y.z.A.h.h.A.z.y.x.x.x.B.C.D.E.  ","  F.G.H.I.J.J.J.y.K.L.h.h.L.K.y.J.J.y.M.N.O.P.  ",
"  Q.R.S.T.y.J.J.J.U.V.h.h.V.U.J.J.J.y.W.X.Y.Z.  ","  `. +.+++@+J.#+#+$+6.6.6.6.$+#+#+#+J.%+&+*+=+  ",
"    -+;+>+,+'+)+!+J.~+{+{+~+J.!+]+]+t ^+/+-+    ","      9 (+_+:+<+[+}+|+|+|+|+}+1+2+%+^+3+4+      ",
"        9 5+6+7+8+9+0+[+[+a+b+c+d+&+/+4+        ","          -+e+f+g+9+h+i+i+j+k+l+m+n+-+          ",
"            `.  o+p+s.s.q+r+s+t+  =+            ","                                                "};
