/* XPM */
static char * jack_xpm[] = {"24 24 200 2",
"   c None",   ".  c #C5C5B5","+  c #BDBDAE","@  c #CECEBD","#  c #5D5E58","$  c #999A8C","%  c #B3B3A3",
"&  c #C4C4B6","*  c #C9C9B9","=  c #A7A797","-  c #C6C6B8",";  c #C0C0B2",">  c #E2E2D2",",  c #868677",
"'  c #6A6959",")  c #C3C3B5","!  c #9A9A8B","~  c #ECECDB","{  c #F1F1E0","]  c #98998B","^  c #DDDDCC",
"/  c #E9E9D8","(  c #CFCFC1","_  c #92938A",":  c #8B8E8E","<  c #DADAC9","[  c #98998C","}  c #F2F2E1",
"|  c #F8F8E7","1  c #9F9F8E","2  c #9C9C8D","3  c #DCDCCB","4  c #A7A795","5  c #585854","6  c #C8C8BB",
"7  c #AAAB9D","8  c #A0A093","9  c #D4D4C3","0  c #F0F0DF","a  c #F7F7E6","b  c #CBCBBA","c  c #DDDECE",
"d  c #EDEDDC","e  c #D2D2C3","f  c #A4A494","g  c #707060","h  c #6A6A60","i  c #9F9F90","j  c #BFBFB0",
"k  c #ABAB9A","l  c #A8A899","m  c #D3D3C3","n  c #F3F3E2","o  c #F6F6E5","p  c #E2E2D1","q  c #E4E4D3",
"r  c #F5F5E4","s  c #9E9E8D","t  c #6F6F5F","u  c #747362","v  c #63645E","w  c #D4D4C4","x  c #9D9C8B",
"y  c #ADAD9D","z  c #DFDFCF","A  c #EEEEDD","B  c #E6E6D5","C  c #EAEAD9","D  c #6F7169","E  c #404657",
"F  c #A9AA9A","G  c #C5C5B7","H  c #90907F","I  c #B5B6A7","J  c #A2A293","K  c #B9B9A9","L  c #DEDECE",
"M  c #E8E8D7","N  c #DBDBCA","O  c #DFDFCE","P  c #E7E7D6","Q  c #868884","R  c #B9BAAB","S  c #F8F8E6",
"T  c #C2C2B3","U  c #9FA092","V  c #585954","W  c #B8B8A6","X  c #D8D8C9","Y  c #C7C7B8","Z  c #F4F4E3",
"`  c #E1E1D0"," . c #DBDBCC",".. c #969789","+. c #C8C8B7","@. c #FAF9E8","#. c #C9C9BA","$. c #96978A",
"%. c #6C6D62","&. c #B8B8A8","*. c #B6B6A7","=. c #C2C2B4","-. c #DEDECD",";. c #929386",">. c #B8B8A7",
",. c #D9D9C9","'. c #B3B3A5","). c #4F504A","!. c #9D9E8E","~. c #4F525B","{. c #747363","]. c #B3B3A1",
"^. c #5E6266","/. c #C7C7B6","(. c #EAEADA","_. c #F7F7E5",":. c #FAFAE9","<. c #9E9E8F","[. c #BDBDAC",
"}. c #EFEFDE","|. c #B0B1A3","1. c #5E5F56","2. c #747464","3. c #545550","4. c #AEB0A2","5. c #B9C4C6",
"6. c #B4B4A7","7. c #4F504B","8. c #89897A","9. c #F4F4E2","0. c #DCDCCC","a. c #BBBBA9","b. c #939487",
"c. c #78796F","d. c #414144","e. c #100E15","f. c #485483","g. c #B4B9BF","h. c #CBCDC7","i. c #586696",
"j. c #5C5F5E","k. c #CDCDBE","l. c #959689","m. c #C4C4B5","n. c #B0B0A2","o. c #858679","p. c #09070E",
"q. c #2F3039","r. c #495788","s. c #9C9D91","t. c #D8E3E3","u. c #8BA1D5","v. c #949483","w. c #B1B2A4",
"x. c #ADADA0","y. c #99998A","z. c #E1E1CF","A. c #898C8F","B. c #7B7C6C","C. c #74756C","D. c #23222C",
"E. c #313138","F. c #464B5A","G. c #B9BAAA","H. c #84867B","I. c #777769","J. c #97988B","K. c #737364",
"L. c #A3A391","M. c #6F6F69","N. c #7D7E77","O. c #9A9A8F","P. c #232223","Q. c #4D4E4C","R. c #5F5F5F",
"S. c #7C7C6C","T. c #747465","U. c #6B6B5C","V. c #88897C","W. c #EAEADB","X. c #6E6F66","Y. c #A7A796",
"Z. c #3C3B3B","`. c #4E4F52"," + c #808075",".+ c #6D7074","++ c #85867A","@+ c #A2A395","#+ c #CCCCBC",
"$+ c #7C7C6E","%+ c #87887C","&+ c #65665C","*+ c #68695E","=+ c #63635D","-+ c #7F7F70",";+ c #D9D9CB",
">+ c #686865",",+ c #585855","'+ c #F0F0DE",")+ c #DBDBCB",
"                                                ","                                                ",
"                                        . +     ","                                      @ # $     ",
"                    % & *     = - ; > , '       ","                  ) ! ~ {   ] ^ / ( _ :         ",
"                < [ } | 1 2 3 { * 4 5           ","            6 7 8 9 0 a b c d e f g h i         ",
"          j k l m n o p q o r s t u v           ","      w x ] y z n A B n ^ C n A D E F G         ",
"    H I J K L { M B N M O r o P Q R S T         ","  U V W X Y | Z n n } ` } |  ...+.@.#.i         ",
"  $.%.&.*.=.-.e ~ Z n r { . ;.>.,.'.).          ","  !.~.{.].^./.(.e > _.:.+.<.[.}.|.1.            ",
"  2.3.4.5.6.7.8.9.,.0.a.b.* }.}.c.              ","    d.e.f.g.h.i.j.k./.l.m.}.Z n.!               ",
"    o.p.q.r.s.t.u.v.w.x.y.z.A.B.                ","    k.C.D.E.F.G.H.I.J.K.L.M.N.                  ",
"        O.P.Q.R.S.T.U.V.W.X.                    ","          Y.Z.`. +.+++@+0.                      ",
"            #+$+%+&+*+=+-+;+                    ","                    >+,+'+                      ",
"                      )+                        ","                                                "};
