/* XPM */
static char * open_xpm[] = {"24 23 332 2",
"   c None",   ".  c #2B5191","+  c #2D528E","@  c #375C98","#  c #4D74B9","$  c #4E75B9","%  c #23447A",
"&  c #133062","*  c #153164","=  c #0C1A36","-  c #010000",";  c #335A99",">  c #8FB0E2",",  c #E6F4E2",
"'  c #E4F2E3",")  c #5E7FB7","!  c #264983","~  c #315795","{  c #4068A8","]  c #4269AA","^  c #436AAA",
"/  c #4268A8","(  c #547DBE","_  c #203A65",":  c #091329","<  c #030106","[  c #426095","}  c #C0D3DF",
"|  c #E3FAC2","1  c #D7E5E6","2  c #597AB0","3  c #133268","4  c #143164","5  c #476EAF","6  c #7E9DD4",
"7  c #819FD5","8  c #6C95D9","9  c #6D95D9","0  c #7F9DD2","a  c #6089CD","b  c #2B508D","c  c #081735",
"d  c #07122A","e  c #385A99","f  c #AACABB","g  c #EBFFBF","h  c #C9DAF2","i  c #5A79B1","j  c #123269",
"k  c #153265","l  c #4C74B5","m  c #86A1D2","n  c #6A93D7","o  c #6B93D7","p  c #6C94D6","q  c #6E96D9",
"r  c #4B72B1","s  c #436AA7","t  c #294D8A","u  c #31588B","v  c #86ABAE","w  c #E4F2E2","x  c #C0D2EE",
"y  c #5576AF","z  c #143165","A  c #122E60","B  c #153266","C  c #365D9B","D  c #6C91D0","E  c #7297D5",
"F  c #7096D7","G  c #7498D6","H  c #779BD9","I  c #6F97DA","J  c #7A9EDC","K  c #5A81C0","L  c #284C8C",
"M  c #507875","N  c #D5EDBE","O  c #E5F3E3","P  c #7696C7","Q  c #2D5392","R  c #496CA6","S  c #4D74B1",
"T  c #163366","U  c #446CAC","V  c #7597D3","W  c #7699D4","X  c #5B80BC","Y  c #6485BC","Z  c #6485BD",
"`  c #6384BB"," . c #7098DB",".. c #7E9FD9","+. c #6087C7","@. c #294F8E","#. c #557B7E","$. c #BBE97A",
"%. c #E2EFE8","&. c #5B7CB6","*. c #274D8B","=. c #89ABE5","-. c #7696CC",";. c #183569",">. c #4D74B5",
",. c #6E96DA","'. c #466DAB","). c #2C518E","!. c #2D528F","~. c #2D5290","{. c #2B518E","]. c #4D75B3",
"^. c #3D63A1","/. c #2E5391","(. c #122F64","_. c #567C81",":. c #BDE97E","<. c #5C7DBA","[. c #143266",
"}. c #1B386C","|. c #345A98","1. c #102B5C","2. c #1D3D75","3. c #7098DC","4. c #234782","5. c #214374",
"6. c #375C96","7. c #385C97","8. c #3B5F9A","9. c #365B99","0. c #284D8A","a. c #3B6398","b. c #5683A2",
"c. c #55839F","d. c #72A36C","e. c #B8E978","f. c #DBF1D2","g. c #87B2A0","h. c #3D6B82","i. c #4466A0",
"j. c #224176","k. c #264A86","l. c #5D82BC","m. c #577DB9","n. c #274C89","o. c #4D7396","p. c #A9BFDE",
"q. c #B1C5E7","r. c #BDD1F0","s. c #8FAFE6","t. c #2E5596","u. c #4F8382","v. c #A8FA4F","w. c #9AEA50",
"x. c #96E653","y. c #A2F452","z. c #90E24B","A. c #92E649","B. c #A6EC57","C. c #D7E3FF","D. c #5673A8",
"E. c #3760A8","F. c #DFEEEA","G. c #B1CBEA","H. c #315695","I. c #4E75B6","J. c #729BDE","K. c #274C88",
"L. c #5776AE","M. c #B3C9E4","N. c #B7CDE6","O. c #B7CEE6","P. c #AFC7E4","Q. c #98B5DA","R. c #537DBC",
"S. c #62947B","T. c #94E550","U. c #A8F755","V. c #8DDB55","W. c #88D653","X. c #C5F98D","Y. c #DAEBE4",
"Z. c #5479B5","`. c #678AC4"," + c #CDE0E0",".+ c #E7F4E2","++ c #7A9ACF","@+ c #2F5492","#+ c #173468",
"$+ c #39609E","%+ c #466DAA","&+ c #4C73B4","*+ c #92AFE0","=+ c #96B2E0","-+ c #95B0E0",";+ c #ACC5E2",
">+ c #C7D7F0",",+ c #7394C9","'+ c #2E5398",")+ c #5D8E77","!+ c #95E453","~+ c #A7F457","{+ c #AEF464",
"]+ c #BCDABC","^+ c #6D95D7","/+ c #305490","(+ c #90ABD4","_+ c #E9F5E5",":+ c #9AB6DC","<+ c #2F5595",
"[+ c #1F4078","}+ c #5E86C5","|+ c #83A1D6","1+ c #90AAD9","2+ c #92ACDB","3+ c #97B3E1","4+ c #A5BEE2",
"5+ c #A6C0E2","6+ c #B6CCE8","7+ c #8BACE5","8+ c #2C5292","9+ c #5C976B","0+ c #ACE869","a+ c #D9E4F8",
"b+ c #5F82C0","c+ c #254D8D","d+ c #B4C7E9","e+ c #EBF8E8","f+ c #C9DAEC","g+ c #5982C9","h+ c #143267",
"i+ c #284C88","j+ c #0D2656","k+ c #244883","l+ c #749ADB","m+ c #8BA2D0","n+ c #88A1D0","o+ c #86A0D0",
"p+ c #92ADDB","q+ c #97B2E1","r+ c #9AB5E1","s+ c #B9CFE6","t+ c #B0C8E5","u+ c #7A9AD2","v+ c #527CB3",
"w+ c #417180","x+ c #4C6FAA","y+ c #5A7DB9","z+ c #8BA8D4","A+ c #EBF7E5","B+ c #EEFAE0","C+ c #B9CFE3",
"D+ c #5C83C6","E+ c #859FCF","F+ c #95B0DE","G+ c #96B1E0","H+ c #C7D8F0","I+ c #6F90C8","J+ c #305694",
"K+ c #173467","L+ c #8BA8D5","M+ c #E8F5E3","N+ c #C8D8F2","O+ c #DBE9E8","P+ c #D4E2F0","Q+ c #5E87CC",
"R+ c #244985","S+ c #254882","T+ c #2F5491","U+ c #476EAC","V+ c #537ABA","W+ c #6D94D6","X+ c #849ECE",
"Y+ c #99B4E1","Z+ c #98B3E1","`+ c #94B0E0"," @ c #B1C9E3",".@ c #A6BDDE","+@ c #8BACE2","@@ c #AEC3DE",
"#@ c #BBCFED","$@ c #C9D9F2","%@ c #CADAF1","&@ c #C5D6F0","*@ c #A4BFE4","=@ c #577FC2","-@ c #1C3E76",
";@ c #132F61",">@ c #3C63A1",",@ c #729ADE","'@ c #6F95D6",")@ c #8AA2D0","!@ c #87A0CF","~@ c #9CB6E2",
"{@ c #9AB4E1","]@ c #B5CDE5","^@ c #B3CBE4","/@ c #CFDFF3","(@ c #DDEBEF","_@ c #CFDEF2",":@ c #CBDBF2",
"<@ c #E0EEE6","[@ c #9CB9E6","}@ c #1F3E73","|@ c #2A4F8C","1@ c #3A609E","2@ c #4970AE","3@ c #4A71AF",
"4@ c #486FAD","5@ c #6E96D8","6@ c #7C9CD5","7@ c #89A3D2","8@ c #8AA4D2","9@ c #8AA3D2","0@ c #8BA4D3",
"a@ c #8DA6D5","b@ c #9BB6E3","c@ c #B1C9E5","d@ c #B3CBE5","e@ c #7293CA","f@ c #264984","g@ c #254883",
"h@ c #244782","i@ c #22457F","j@ c #21437E","k@ c #3B609B","l@ c #395E9A","m@ c #385E9A","n@ c #375D99",
"o@ c #355B99","p@ c #3E64A1","q@ c #2E5390",
"                                                ","                                                ",
"                . + @ # $ %                     ","& & & & & & * = - ; > , ' )                     ",
"! ~ { ] ^ / ( _ : < [ } | 1 2 3                 ","4 5 6 7 8 9 0 a b c d e f g h i j               ",
"k l m n o o p q r s t b u v w x y z A A A       ","B C D E F G G G H I J K L M N O P Q R S T       ",
"k U V W X Y Z Z `  ...+.@.#.$.%.&.*.=.-.;.      ","k >.,.'.).!.~.~.{.].^./.(._.:.%.<.[.}.|.k 1.2.b ",
"k >.3.4.5.6.7.8.9.0.a.b.c.d.e.f.g.h.i.j.k.l.m.'.","k >.3.n.o.p.q.r.s.t.u.v.w.x.y.z.A.B.C.D.E.F.G.H.",
"k I.J.K.L.M.N.O.P.Q.R.S.T.U.V.W.X.Y.Z.`. +.+++@+","#+$+%+).&+*+=+-+;+>+,+'+)+!+~+{+]+^+/+(+_+:+<+b ",
").[+k.}+|+1+2+3+4+5+6+7+8+9+0+a+b+c+d+e+f+g+h+  ","i+j+k+l+m+n+o+p+q+r+s+t+u+v+w+x+y+z+A+B+C+D+    ",
").).0.I o n n+E+F+q+G+;+H+I+J+K+L+M+N+O+P+Q+R+  ","S+T+U+V+9 p W+n+X+Y+Z+`+ @.@+@@@#@$@%@&@*@=@-@  ",
";@>@%+,@q ,.'@)@!@~@{@q+]@^@/@(@_@:@<@[@5 }@    ","|@1@2@3@3@4@ .5@5@5@6@7@8@9@0@a@b@c@d@e@/.      ",
"f@g@h@h@h@S+i@i@j@k@l@m@m@m@m@m@n@9.o@p@q@      ","                                                ",
"                                                "};