/* XPM */
static char * refresh_xpm[] = {"24 24 195 2",
"   c None",   ".  c #498A03","+  c #529000","@  c #579310","#  c #AAC93B","$  c #488902","%  c #468802",
"&  c #519008","*  c #579411","=  c #589412","-  c #57930F",";  c #56920D",">  c #659C1B",",  c #D7E46C",
"'  c #94BA15",")  c #3E8300","!  c #589701","~  c #92B945","{  c #C8DD54","]  c #CAE14C","^  c #C9E04B",
"/  c #C1DB3C","(  c #B9D72E","_  c #BAD72E",":  c #BAD731","<  c #A7CB20","[  c #B3D328","}  c #9DC028",
"|  c #519203","1  c #89B339","2  c #D1E475","3  c #C8DB4E","4  c #9FCA0E","5  c #9CC806","6  c #9BC805",
"7  c #9BC705","8  c #9AC705","9  c #99C704","0  c #B0D11D","a  c #83B028","b  c #438602","c  c #7CAC27",
"d  c #D6E57F","e  c #A6CC11","f  c #97C601","g  c #9BC906","h  c #9CCA06","i  c #9CCB06","j  c #9DCB06",
"k  c #9CC706","l  c #9BCA06","m  c #9EC70E","n  c #589009","o  c #3F7C03","p  c #579401","q  c #D0EB60",
"r  c #A5D518","s  c #9FC707","t  c #9FD209","u  c #B1DC20","v  c #9BD211","w  c #83C10F","x  c #74B408",
"y  c #72B108","z  c #7BB809","A  c #AAD80D","B  c #9DD311","C  c #588E0A","D  c #3A7800","E  c #ADD850",
"F  c #A4DE12","G  c #A2DB0C","H  c #A0D904","I  c #BFE757","J  c #7CB305","K  c #498405","L  c #243D05",
"M  c #305D03","N  c #509204","O  c #A1D812","P  c #4E8507","Q  c #649E07","R  c #B9E352","S  c #A1DC08",
"T  c #A2DC0C","U  c #C3EB62","V  c #83B600","W  c #285204","X  c #508F04","Y  c #699B04","Z  c #77AF08",
"`  c #A8E108"," . c #A8E20C",".. c #C3EA47","+. c #B2DB46","@. c #387900","#. c #448503","$. c #488504",
"%. c #519205","&. c #519204","*. c #55930C","=. c #509106","-. c #2C5103",";. c #468803",">. c #4E8E06",
",. c #569312","'. c #579312","). c #4F8E0A","!. c #387A00","~. c #B9D550","{. c #CFE05E","]. c #BCD247",
"^. c #BDD348","/. c #79AA23","(. c #5C9600","_. c #4C8C03",":. c #397503","<. c #80AA00","[. c #CFDF79",
"}. c #9ABB05","|. c #9ABA07","1. c #97B907","2. c #5C9203","3. c #519003","4. c #C0D84F","5. c #579412",
"6. c #448801","7. c #427B04","8. c #4E8F06","9. c #7DAA10","0. c #CBDD6D","a. c #9FC600","b. c #9ABC08",
"c. c #9BC706","d. c #8DBE05","e. c #326703","f. c #559200","g. c #AECA2F","h. c #CCDD5D","i. c #94B937",
"j. c #8FB843","k. c #8FB842","l. c #8EB742","m. c #89B242","n. c #9FC34D","o. c #B5D252","p. c #CBDF60",
"q. c #A0CA0A","r. c #9AC107","s. c #9AC905","t. c #A3C807","u. c #569003","v. c #346704","w. c #5B9905",
"x. c #BBD345","y. c #9EC90A","z. c #9EC80C","A. c #A2CB0F","B. c #A4CD15","C. c #A3CC15","D. c #A2CB15",
"E. c #A1CB14","F. c #9DC808","G. c #9BC806","H. c #A8CF09","I. c #5B9704","J. c #3E7703","K. c #83AE28",
"L. c #AACE12","M. c #A1C80B","N. c #66A004","O. c #458703","P. c #4D8505","Q. c #90BE10","R. c #A1D408",
"S. c #A0C709","T. c #A4D509","U. c #A4D70A","V. c #A4D80A","W. c #A6CE0A","X. c #A4D709","Y. c #99C405",
"Z. c #77AF05","`. c #578F03"," + c #346803",".+ c #427A04","++ c #93C714","@+ c #ABE20C","#+ c #5C9C06",
"$+ c #519005","%+ c #4C8904","&+ c #305A03","*+ c #96CB10","=+ c #5B8E03","-+ c #4B8B04",
"                                                ","                              . +               ",
"                              @ # $             ","            % & * = - ; ; ; ; > , ' $           ",
"        ) ! ~ { ] ^ / ( _ _ _ : < [ } |         ","      % 1 2 3 4 5 6 7 8 8 8 8 8 8 9 0 a         ",
"    b c d e f g h i j j j j j i k l m n         ","  o p q r s t u v w x y y y y z A B C           ",
"  D E F G H I J K L M         N O P             ","  Q R S T U V W               X Y               ",
"  Z `  ...+.@.                #.                ","  $.%.&.*.=.-.                                  ",
"                                  ;.>.= ,.'.).  ","                ;.                !.~.{.].^./.  ",
"              (._.              :.<.[.}.|.1.2.  ","            3.4.5.        6.7.8.9.0.a.b.c.d.e.  ",
"          f.g.h.i.j.k.k.l.m.n.o.p.q.r.s.t.u.v.  ","        w.x.y.z.A.B.B.B.C.D.C.E.F.8 G.H.I.J.    ",
"        K.L.8 8 8 8 8 8 8 8 8 8 G.6 M.N.O.      ","        P.Q.R.S.T.U.U.U.U.V.W.X.Y.Z.`. +        ",
"          .+++@+#+%.%.%.%.%.$+&.%+&+            ","            .+*+&.                              ",
"              =+-+                              ","                                                "};
