/* XPM */
static char * save_xpm[] = {"24 23 314 2",
"   c None",   ".  c #2F579B","+  c #30589C","@  c #2E569A","#  c #2F589D","$  c #2353A0","%  c #1A4388",
"&  c #1A4286","*  c #194186","=  c #204A90","-  c #2759A9",";  c #2F5699",">  c #3662AD",",  c #3562AD",
"'  c #19448A",")  c #2A5296","!  c #184187","~  c #2E5BA6","{  c #638BCC","]  c #89A6D5","^  c #8AA6D5",
"/  c #8BA7D6","(  c #799BD2","_  c #3D68B0",":  c #1C468B","<  c #244D91","[  c #325DA6","}  c #1A458B",
"|  c #244D92","1  c #11387A","2  c #2B5EB0","3  c #A0BBE3","4  c #E8EEF7","5  c #EEF2F9","6  c #F1F4FA",
"7  c #EFF3F9","8  c #F0F4FA","9  c #D1DDEE","0  c #4D7BC8","a  c #16438C","b  c #164188","c  c #2D5598",
"d  c #1B478E","e  c #2F579C","f  c #3A67B1","g  c #4577C8","h  c #3B68B4","i  c #94B1E1","j  c #C5D3EA",
"k  c #99B5DF","l  c #ABC3E9","m  c #ADC5EA","n  c #AEC5EA","o  c #9FB9E2","p  c #A2BBE2","q  c #E3E9F4",
"r  c #D8E1F0","s  c #4E7ECC","t  c #2A5BAB","u  c #5079BD","v  c #3B6DBC","w  c #0F3578","x  c #2558AA",
"y  c #4D7AC4","z  c #618ED7","A  c #3967B3","B  c #95B2E1","C  c #EDF1F9","D  c #D2DDEF","E  c #B1C5E6",
"F  c #B9CCE9","G  c #BBCDEA","H  c #B1C3E4","I  c #5180CD","J  c #446EB4","K  c #5D89D2","L  c #3A6BBA",
"M  c #0F3678","N  c #2658A9","O  c #4872BA","P  c #4A7BC9","Q  c #3A68B4","R  c #ECF0F8","S  c #F3F6FB",
"T  c #F9FAFD","U  c #F7F9FC","V  c #F2F5FB","W  c #4F7ECC","X  c #3364B3","Y  c #5B88D2","Z  c #4570B8",
"`  c #517ABD"," . c #3A68B5",".. c #C4D2E9","+. c #93AFDC","@. c #A0BAE2","#. c #A1BBE2","$. c #94AEDB",
"%. c #E4EBF5","&. c #4E7DCC","*. c #2D61B2","=. c #5A88D2","-. c #4670B7",";. c #4676C3",">. c #EDF2F9",
",. c #D0DCEE","'. c #B1C6E7","). c #BED1EE","!. c #C0D2EF","~. c #C1D3EF","{. c #B4C8E8","]. c #B8CCE9",
"^. c #E6ECF6","/. c #D9E2F0","(. c #2D60B2","_. c #5179BB",":. c #3E6FBE","<. c #8DADE1","[. c #F8F9FC",
"}. c #F1F3F9","|. c #FCFDFD","1. c #FCFCFD","2. c #FEFEFE","3. c #E8EDF5","4. c #CFDDF3","5. c #4976BF",
"6. c #3866B2","7. c #5B88D1","8. c #456FB6","9. c #5A86CF","0. c #5885CF","a. c #5983C9","b. c #6892D7",
"c. c #6691D6","d. c #6992D7","e. c #6590D6","f. c #6A94D9","g. c #5A81C3","h. c #507ABF","i. c #5A87D2",
"j. c #5D8AD4","k. c #5A87D0","l. c #446EB6","m. c #2659AA","n. c #2759AB","o. c #3160AD","p. c #2558A8",
"q. c #3865B1","r. c #2457A8","s. c #3764B0","t. c #547EC3","u. c #5D8AD5","v. c #3B6CBB","w. c #527FC9",
"x. c #5080CD","y. c #4D7AC3","z. c #557DC0","A. c #547DC0","B. c #567EC1","C. c #557EC1","D. c #517CC3",
"E. c #527BBF","F. c #5D8BD6","G. c #5C89D4","H. c #5C89D3","I. c #608DD7","J. c #214C93","K. c #325A9E",
"L. c #325B9F","M. c #224D93","N. c #204C93","O. c #547FC4","P. c #557FC5","Q. c #4172C1","R. c #355C9F",
"S. c #3D69B4","T. c #345B9E","U. c #3A64AB","V. c #406CB6","W. c #3F6BB6","X. c #416DB6","Y. c #4878C6",
"Z. c #4F78BC","`. c #537EC5"," + c #3661A7",".+ c #295194","++ c #7099DC","@+ c #8BABDE","#+ c #7DA2DB",
"$+ c #7BA1DA","%+ c #88A8DB","&+ c #9DB6DF","*+ c #A2BBE3","=+ c #B3C7E6","-+ c #CCDAF0",";+ c #EAEFF7",
">+ c #C5D4EC",",+ c #3364B5","'+ c #305DA8",")+ c #5986D1","!+ c #2C5BA7","~+ c #285094","{+ c #7DA1D9",
"]+ c #7696CE","^+ c #345FA5","/+ c #4B78C1","(+ c #5281CC","_+ c #6993D7",":+ c #AEC5E7","<+ c #D3DDEE",
"[+ c #D0DBED","}+ c #DBE4F2","|+ c #DCE4F2","1+ c #2A59A8","2+ c #2B5AA6","3+ c #2C5AA6","4+ c #315FAB",
"5+ c #789DD7","6+ c #4972B5","7+ c #0E2955","8+ c #163F85","9+ c #1B468D","0+ c #305EAB","a+ c #95B0DD",
"b+ c #C2D3ED","c+ c #B2C8EB","d+ c #D3DEEE","e+ c #D9E2F1","f+ c #426DB4","g+ c #2A59A5","h+ c #436DB3",
"i+ c #315EAB","j+ c #557DBD","k+ c #102B56","l+ c #204D96","m+ c #244F96","n+ c #3769B9","o+ c #96B0DC",
"p+ c #BCCFEC","q+ c #C7D6EC","r+ c #CAD8EE","s+ c #F4F6FB","t+ c #426CB4","u+ c #1F4C96","v+ c #3F67AA",
"w+ c #749BD7","x+ c #406CB5","y+ c #0C2650","z+ c #143F86","A+ c #16428A","B+ c #264F97","C+ c #82A4DA",
"D+ c #B0C7EC","E+ c #ACC4EA","F+ c #B1C7EB","G+ c #E7EDF6","H+ c #30589D","I+ c #446FB7","J+ c #5A86D0",
"K+ c #5886D1","L+ c #305EAA","M+ c #91ACDB","N+ c #6C90CB","O+ c #2D5599","P+ c #4C76BB","Q+ c #4771B7",
"R+ c #658ECD","S+ c #B3C9EB","T+ c #CDD9EC","U+ c #CBD8EC","V+ c #CFDBEE","W+ c #2253A2","X+ c #3F6AB3",
"Y+ c #6D94D2","Z+ c #6C94D3","`+ c #2A5AA7"," @ c #2F5BA7",".@ c #92AEDD","+@ c #ABC2E7","@@ c #94AFDD",
"#@ c #BACEEE","$@ c #E6EDF7","%@ c #D3DFF0","&@ c #2B5AA9","*@ c #2A5AA6","=@ c #6D94D1","-@ c #3767B5",
";@ c #153C7C",">@ c #123776",",@ c #1A407F","'@ c #497AC9",")@ c #4572BD","!@ c #2D59A2","~@ c #2C5599",
"{@ c #5882C7","]@ c #6E91CC","^@ c #779AD1","/@ c #83A2D4","(@ c #91B0E2","_@ c #89A6D4",":@ c #8CA8D5",
"<@ c #7299D7","[@ c #2F599F","}@ c #315EA8","|@ c #406AB1","1@ c #183669","2@ c #113779","3@ c #2E579C",
"4@ c #1E4A92","5@ c #224C93","6@ c #224D94","7@ c #1B4489","8@ c #1F4A91","9@ c #2657A7",
". + @ # $ % & & & & & & & & & & * = - ; > , '   ","+ ) ! ~ { ] ^ ^ ^ ^ ^ ^ ^ ^ ^ ^ / ( _ : < [ }   ",
"+ | 1 2 3 4 5 6 7 7 7 7 7 7 8 8 5 9 0 a b c d   ","e f g h i 5 j k l m m m m n o p q r s t u v w   ",
"x y z A B C D E F F F F F F G H 4 r I J K L M   ","N O P Q B R S T U U U U U U U T V r W X Y L M   ",
"N Z `  .B 5 ..+.@.@.@.@.@.@.#.$.%.r &.*.=.L M   ","N -.;.Q B >.,.'.).!.!.!.!.~.{.].^./.s (.=.L M   ",
"N Z _.:.<.S [.}.|.1.1.1.1.1.2.3.2.4.5.6.7.L M   ","N 8.9.0.a.b.b.c.b.b.b.b.b.b.d.e.f.g.h.i.j.L M   ",
"N 8.k.k.l.m.n.o.N N N N N N p.q.r.s.t.u.` v.M   ","N 8.k.7.w.x.y.z.A.A.B.C.C.C.B.A.D.E.F.G.E.v.M   ",
"N 8.k.H.G.I.+ J.K.L.J.M.M.M.M.M.N.. O.F.` v.M   ","N 8.k.H.P.Q.K.R.S.T.U.V.W.V.X.X.l.Y.Z.`.j.L M   ",
"N 8.k.k. +.+++@+#+$+%+&+*+=+].-+;+>+,+'+i.L M   ","N 8.k.)+!+~+{+]+^+/+(+_+:+<+[+}+S |+1+2+=.L M   ",
"N 8.k.)+3+4+5+6+7+8+9+0+a+b+c+d+S e+f+g+=.L M   ","N h+k.)+3+i+5+j+k+l+m+n+o+p+q+r+s+e+t+g+=.L M   ",
"u+v+k.)+3+i+w+x+y+z+A+B+C+D+E+F+G+e+t+g+=.L M   ","H+I+J+K+3+L+M+N+O+P+Q+R+S+T+U+V+V e+f+g+i.L w   ",
"W+X+Y+Z+`+ @.@+@@@#@$@s+7 C >.C C %@&@*@=@-@;@  ",">@,@'@)@!@~@{@]@]@^@/@(@_@^ ^ ^ :@<@[@}@|@1@    ",
"  2@3@H+. + 4@5@6@& & 7@& & & & * 8@9@K.&       "};
