/* XPM */
static char * tick_xpm[] = {"24 24 79 1",
"   c None",   ".  c #3C8000","+  c #6A9F21","@  c #FCFF92","#  c #8BB93D","$  c #C9DB47","%  c #90AF00",
"&  c #8BBA3E","*  c #AEC821","=  c #9AB701","-  c #9CB904",";  c #91BE42",">  c #679F1B",",  c #C1D936",
"'  c #9BB804",")  c #95B603","!  c #5C9500","~  c #86B736","{  c #97B400","]  c #9BB704","^  c #9DBD04",
"/  c #98B903","(  c #5D9604","_  c #3E8100",":  c #7FB628","<  c #A9C61A","[  c #9AB702","}  c #9DC604",
"|  c #98C003","1  c #549004","2  c #629E12","3  c #DEFF53","4  c #639E12","5  c #BBE129","6  c #9CC602",
"7  c #9DC704","8  c #9DC804","9  c #97C103","0  c #5D9503","a  c #7BB31F","b  c #B6DF1F","c  c #96C000",
"d  c #99C300","e  c #9CC604","f  c #9EC704","g  c #80B721","h  c #A6D011","i  c #7BB41F","j  c #98CB03",
"k  c #549104","l  c #5D9A02","m  c #97CC03","n  c #9CC603","o  c #AFDC14","p  c #5F9D0C","q  c #5C9904",
"r  c #5C9903","s  c #98CC03","t  c #9FCC04","u  c #9DCB04","v  c #9DCC04","w  c #9BC901","x  c #ACDA15",
"y  c #539204","z  c #9ED104","A  c #9DCF03","B  c #97CC04","C  c #9DD004","D  c #5C9D03","E  c #99D103",
"F  c #A0D504","G  c #5C9D04","H  c #549304","I  c #99D203","J  c #A0DB04","K  c #99D604","L  c #99D603",
"M  c #5F9F04","N  c #5F9F03",
"                        ","                        ","                   .    ","                  +@+   ",
"                 #$%$#  ","                &*=-=*; ","               >,=-'-)! ","              ~,{-]^/(  ",
"    _        :<[']}|1   ","   232      45677890    ","  abcba    abd7ef|0     "," gh676hi  ih6777jk      ",
" lm7eenopponee7mq       ","  rstuvwxxwvutsr        ","   yszzzAAzzzsy         ","    qBzCzzCzmr          ",
"     DEFCCFEG           ","      HIJJIH            ","       DKLD             ","        MN              ",
"                        ","                        ","                        ","                        "};
