/* XPM */
static char * wrench_xpm[] = {"24 24 139 2",
"   c None",   ".  c #828487","+  c #8B8D8F","@  c #9D9EA1","#  c #929496","$  c #8E9093","%  c #7F8083",
"&  c #87898C","*  c #C7C8C9","=  c #CCCDCE","-  c #D4D5D5",";  c #D5D6D6",">  c #E6E7E6",",  c #D5D4D5",
"'  c #7F8183",")  c #78797B","!  c #C8C9CA","~  c #B6B7B9","{  c #9B9C9F","]  c #86878A","^  c #888A8D",
"/  c #8C8D90","(  c #CACBCC","_  c #A1A2A5",":  c #999B9E","<  c #8D8F92","[  c #C9C9CA","}  c #98999C",
"|  c #B6B8BA","1  c #989A9C","2  c #CCCDCD","3  c #AAACAE","4  c #B3B5B7","5  c #989A9D","6  c #8A8B8E",
"7  c #C9CACB","8  c #B2B4B6","9  c #9F9FA0","0  c #DDDDDD","a  c #B5B7B9","b  c #B4B6B8","c  c #C4C5C7",
"d  c #9A9B9D","e  c #969698","f  c #9A9B9C","g  c #7D7D7F","h  c #097FB7","i  c #898D91","j  c #FFFEFA",
"k  c #BCBDBF","l  c #DEDDDE","m  c #D9D8D9","n  c #A7A7A9","o  c #394953","p  c #2F90C1","q  c #99CDEF",
"r  c #49A9E2","s  c #6995AD","t  c #AEACAD","u  c #797A7C","v  c #757678","w  c #7A7C7E","x  c #767779",
"y  c #3C99C7","z  c #9ED1F3","A  c #61B2E3","B  c #58B1E6","C  c #268DC2","D  c #5B8195","E  c #13709F",
"F  c #4E9EC5","G  c #91C7E9","H  c #60B2E4","I  c #53AEE4","J  c #44A5DE","K  c #43A4DD","L  c #1382B8",
"M  c #16709D","N  c #3191C1","O  c #AAD1EB","P  c #5EB2E5","Q  c #58B0E5","R  c #43A5DE","S  c #47A8E1",
"T  c #1C85B8","U  c #1473A4","V  c #5AAEE0","W  c #B7D8EE","X  c #5FB1E3","Y  c #56AFE4","Z  c #42A4DE",
"`  c #42A5DE"," . c #1F88BB",".. c #0F6F9F","+. c #61AEDA","@. c #A0CCE8","#. c #5FB2E4","$. c #54AEE4",
"%. c #45A7E1","&. c #1F6D94","*. c #0D6A99","=. c #84BFE4","-. c #A5CFEA",";. c #5FB3E5",">. c #48A8E1",
",. c #1D7DAC","'. c #152631","). c #1974A2","!. c #82BDE1","~. c #B1D5EC","{. c #60B2E3","]. c #57B0E5",
"^. c #1E87BB","/. c #141E25","(. c #1E76A3","_. c #7CB7D9",":. c #A4CEE9","<. c #45A6DF","[. c #2185B7",
"}. c #16709E","|. c #308EBD","1. c #ABD2EC","2. c #61B3E5","3. c #59B1E5","4. c #48A8E2","5. c #1E85B8",
"6. c #52AADE","7. c #92C9EB","8. c #44A6DF","9. c #1F85B8","0. c #156E9C","a. c #2B85B2","b. c #90CDF3",
"c. c #46A7E1","d. c #2286B9","e. c #16719E","f. c #2684B3","g. c #238ABE","h. c #2187BA",
"                                                ","                                . + @ # $ %     ",
"                              & * = - ; > , '   ","                            ) ! ~ @ { ] ^ # .   ",
"                            / ( @ _ :           ","                            < [ } | 1           ",
"                            $ 2 3 4 5           ","                            6 7 8 4 :           ",
"                            9 0 a b c d e f g   ","                        h i j ! | k l l m n o   ",
"                      p q r s t u v w x v       ","                    y z A B C D                 ",
"                E F G H I J K L                 ","              M N O P Q R S T                   ",
"            U V W X Y Z `  .                    ","          ..+.@.#.$.J %.&.                      ",
"        *.=.-.;.Q R >.,.'.                      ","      ).!.~.{.].Z J ^./.                        ",
"    (._.:.{.$.J <.[.}.                          ","    |.1.2.3.J 4.5.}.                            ",
"    6.7.].Z 8.9.0.                              ","    a.b.c.<.d.e.                                ",
"      f.g.h.e.                                  ","                                                "};
