/* XPM */
static char * accept_xpm[] = {"32 32 16 1",
"   c None",   ".  c #3C7104","+  c #498904","@  c #8DBB1E","#  c #B1D650",
"$  c #BFDF5E","%  c #A8D42A","&  c #73AB07","*  c #5F9A04","=  c #E7FC9A",
"-  c #D7F573",";  c #98C805",">  c #DCEFA5",",  c #1F3604","'  c #FCFEFA",
")  c #9AD104",
"                                ","          .++++++++++.          ",
"        .++@#$$$#%@&*++.        ","       ++#==-------$%@*++       ",
"      +&===$%;@;;;;%$$;&*+      ","     +#==-;;;;;;;;;;;;##&*+     ",
"    +#=-%;;;;;;;;;;;;;;%$@*+    ","   +&>=%;;;;;;;;;;;;;;;;%#&*+   ",
"  .+$-%;;;;;;;;;;;;;;;;;;%#&+.  ","  +@--;;;;;;;;;;;;;;;;;;;;#;*+  ",
" ,+$-;;;;;;;;;;;;;;;;>>;;;;#&+, "," .&$$;;;;;;;;;;;;;;;>''%;;;#@*+ ",
" +@$%;;;;;;;;;;;;;;>'''';;;%%&+ "," +@-);;;;;;;;;;;;;>''''>;;;)#&+ ",
" +@-;)));;;;)));;>''''>;;)))$&+ "," +@-;)));>>;;);;>''''>;;))))$&+ ",
" +&$)));%''>;;;>''''>;;)))))$&+ "," +&$)));''''>;>''''>;)))))))$&+ ",
" +&$))))>'''''''''>;))))))))#&+ "," +&%%)));>'''''''>;))))))))%%&+ ",
" .*@#))));>'''''>;)))))))))#@*. "," ,+&$))))))>'''>)))))))))))#&+, ",
"  +*;#))))))>'>)))))))))))#;*+  ","  ,+&#%))))))))))))))))))%#&+,  ",
"   .*&#%))))))))))))))))%#&*.   ","    +*@#%))))))))))))))%#@*+    ",
"     +*&##))))))))))))##&*+     ","      +*&;##%))))))%##;&*+      ",
"       .+*&@%#$$$$#%@&*+.       ","        ,++*&&&&&&&&*++,        ",
"           .++++++++.           ","                                "};
