/* XPM */
static char * add_xpm[] = {"32 32 16 1",
"   c None",   ".  c #3C7104","+  c #498904","@  c #8DBB1E","#  c #A4CA54",
"$  c #BFDF5E","%  c #B3D850","&  c #73AB07","*  c #5F9A04","=  c #E5F6A7",
"-  c #D7F573",";  c #A8D42B",">  c #96C706",",  c #FCFEFB","'  c #1F3604",
")  c #99D204",
"                                ","          .++++++++++.          ",
"        .++@#$$$%#@&*++.        ","       ++%==-------$#@*++       ",
"      +&==-$;>>>>>>;$$>&*+      ","     +#=-->>>>>>>>>>>>%%&*+     ",
"    +#=-;>>>>>>>>>>>>>>;$@*+    ","   +&=-;>>>>>>>>>>>>>>>>;%&*+   ",
"  .+$-;>>>>>>>=,,=>>>>>>>;%&+.  ","  +@-->>>>>>>>,,,,>>>>>>>>%>*+  ",
" '+$->>>>>>>>>,,,,>>>>>>>>>%&+' "," .&$$>>>>>>>>>,,,,>>>>>>>>>%@*+ ",
" +@$;>>>>>>>>>,,,,>>>>>>>>>;;&+ "," +@-)>>>>>>>>@,,,,@>>>>>>>>)%&+ ",
" +@->))>=,,,,,,,,,,,,,,=>)))$&+ "," +@->))>,,,,,,,,,,,,,,,,>)))$&+ ",
" +&$)))>,,,,,,,,,,,,,,,,>)))$&+ "," +&$)))>=,,,,,,,,,,,,,,=>)))$&+ ",
" +&$)))))>>>>>,,,,>>>>>)))))%&+ "," +&;;))))))))>,,,,>))))))));;&+ ",
" .*@%))))))))>,,,,>))))))))%@*. "," '+&$))))))))),,,,)))))))))%&+' ",
"  +*>%)))))))),,,,))))))))%>*+  ","  '+&%;)))))))=,,=)))))));%&+'  ",
"   .*&%;))))))))))))))));%&*.   ","    +*@%;))))))))))))));%@*+    ",
"     +*&%%))))))))))))%%&*+     ","      +*&>%%;))))));%%>&*+      ",
"       .+*&@;%$$$$%;@&*+.       ","        '++*&&&&&&&&*++'        ",
"           .++++++++.           ","                                "};
