/* XPM */
static char * cancel_xpm[] = {"32 32 16 1",
"   c None",   ".  c #C23D2C","+  c #DF9890","@  c #EFBAB4","#  c #E6A79E",
"$  c #DB887E","%  c #D7776B","&  c #E6482C","*  c #D16659","=  c #FBC7C0",
"-  c #ED5339",";  c #FCFBF9",">  c #C95242",",  c #FCD4CF","'  c #F7654F",
")  c #FC7563",
"                                ","         ..............         ",
"        .+@####+++$$$$%.        ","       .#@&&&&&&&&&&&&$*.       ",
"      .#=&&&&&&&&&&&&&&%*.      ","     .+@&&&&&&&&&&&&&&&&%*.     ",
"    .+@&&&&&&&&&&&&&&&&&&%*.    ","   .+@-&&&--&------&--&---**.   ",
"  .$#---&&;;&&----&&;;&&---*>.  "," .$#-----;;;;&&--&&;;;;-----*>. ",
" .@----&;;;;;;----;;;;;;&----*. "," .#-----=;;;;;;&&;;;;;;=-----*. ",
" .#-----&=;;;;;,,;;;;;=&----->. "," .#------&=;;;;;;;;;;=&------>. ",
" .+--'''---=;;;;;;;;=---'''''>. "," .+-''''''-&@;;;;;;@&-'''''''>. ",
" .+'''''''--,;;;;;;,--'''''''>. "," .$''''''-';;;;;;;;;;'-''''''>. ",
" .$''''''';;;;;;;;;;;;'''''''>. "," .$'''''';;;;;;==;;;;;;''''''.. ",
" .%''''';;;;;;=--=;;;;;,'''''.. "," .%''''',;;;;=-''-=;;;;,'''').. ",
" .*%)'''',;;;-''''';;;,'''))... ","  .>*)))'',;''))))'';,'')))...  ",
"   .>*)))''''))))))'''))))...   ","    .>*))))))))))))))))))...    ",
"     .>*))))))))))))))))...     ","      .>>))))))))))))))>..      ",
"       .>>))))))))))))>..       ","        ..>>............        ",
"         ..............         ","                                "};
