/* XPM */
static char * chart_xpm[] = {"32 32 16 1",
"   c None",   ".  c #A2A89F","+  c #F9FAFA","@  c #DBDADA","#  c #61A6C9",
"$  c #278CBF","%  c #0577B4","&  c #C5CCC7","*  c #E6E7E8","=  c #3A8505",
"-  c #387C04",";  c #5E991D",">  c #D28E88",",  c #C03526","'  c #CB665A",
")  c #D8ADAB",
"                                "," .............................. ",
" .++++++++++++++++++++++++++++. "," .+@@@@@@@@@@@@@@@@@@@@@@@@@@+. ",
" .+@#$%%$#&*@@@&@@@@&@@@@&@@@+. "," .+$$.@@&#%#*@@&@@@@&@@@@&**@+. ",
" .+**&****&$$**&*@@*&*@**.=-&+. "," .+**&****&*#$@&****&***.=&**+. ",
" .+&&&&&&&&&&#$&&&&&&&&&=&&&&+. "," .+**&****&***#$****&**;.&***+. ",
" .+**&****&****$#++*&*&=*&***+. "," .+*+&****&**@>,%,,,'>;.+&***+. ",
" .+=-=&***&+>,')#$+@>'=')@+**+. "," .+@@&=.@@&',)@@@$#@@;;>,,>&&+. ",
" .+**@@=&+',*+*&+@%@@=*++)',++. "," .+**&+&=',*+**&*+.$.;+**@++*+. ",
" .+**@++.-@+***&**+#=@+**&+**+. "," .+*+@++,;.++++@+++.=#+++@+**+. ",
" .+@@@@>'&=.@@@@@@&=.%#@@@@@@+. "," .+++@+,@+.=&++@++;.@*$#+@++++. ",
" .+++@),++@&=;***;;+@++#%#*+++. "," .+++*')++@++.=-=.++@+++@#%%@+. ",
" .+++@,+++@++++*++++@++++@++++. "," .+@*''*@@@@@@@@@@@@@@@@@@@@@+. ",
" .+++,*+++@++++@++++@++++@++++. "," .++),++++@++++@++++@++++@++++. ",
" .++'>++++@++++@++++@++++@++++. "," .++,@++++@++++@++++@++++@++++. ",
" .+&>************************+. "," .++++++++++++++++++++++++++++. ",
" .............................. ","                                "};
