/* XPM */
static char * cog_xpm[] = {"32 32 16 1",
"   c None",   ".  c #8A8D91","+  c #F0F4F5","@  c #EBEBED","#  c #AAABAF",
"$  c #828487","%  c #E2E4E4","&  c #787A7D","*  c #96989A","=  c #D7D8DA",
"-  c #C1C4C6",";  c #B4B7B9",">  c #CBCCCE",",  c #5F6163","'  c #6B6D6F",
")  c #4E4C4E",
"                                ","            .......             ",
"            .++@++#             ","      $..   .%###%#   ..$       ",
"     .#@#.  .%###%# &$*=#$      ","    $#@-@;.$#%###%;.##@>+#$     ",
"   &#@;#;%@+%>###-%@%@;#;+#&    ","   $=-###################-=$    ",
"   &*@;#################;@#&    ","    &#%;;;;;;##-##;;;;;#%;&     ",
"     &=>;;;;-%+%+%-;;;;>=&      ","     &%-;;;>%#&&&#@>;;;-%&      ",
" $$&&*%;;;-%.,   ,$%-;;;%#&&$$  "," &+@@@>;;;=#,     ,#%;;;>=@@+&  ",
" &@;;-----@&       &@-----;;@&  "," .@-------=&       &=-------@&  ",
" &@-------@&       &@-------@&  "," &@@%=>---=*'     '*=--->=@@@&  ",
" &&&&#=--->%&'   '.%>---=#'&&&  ","     '%>>>>=%*'&'*==->>>%&      ",
"     '%>>>>>>=%=%=>>>>>>%.)     ","    '*%>>>>>>>>=>>>>>>>>%*'     ",
"   '$%=>>>>>>>>>>>>>>>>>==$'    ","   '>==>>===>>>>>>>===>>==>'    ",
"   )*%====%%=======%%====%*)    ","    ,*%==.''*=====*,'*==%*,     ",
"     ,.>$,  ,====='  ,$>.,      ","      )',   '%===%,   ,')       ",
"            '%%=%%'             ","            '',&,''             ",
"                                ","                                "};
