/* XPM */
static char * cog_go_xpm[] = {"32 32 16 1",
"   c None",   ".  c #898C8C","+  c #ECEDED","@  c #AAACB0","#  c #717377",
"$  c #BFC0C3","%  c #D7D8DB","&  c #505051","*  c #373939","=  c #408604",
"-  c #86B904",";  c #D9EA8F",">  c #CEE657",",  c #9CC704","'  c #A2D507",
")  c #477519",
"                                ","           .......              ",
"           .+++++.              ","      ..   .+@@@+.   ..         ",
"     .@@. #.+@@@+.# .@@.        ","    .@++$.@%+@@@+%@.$++@.       ",
"   .@+$@++%$@@@@@$%++@$+@.      ","   .@+@@@$@@@@@@@@@$@@@+@.      ",
"    #$+@@@@@@@@@@@@@@@+$#       ","     #%$@@@$%%+%%$@@@$%#        ",
"    #@%@$$$+$@.@$+$$$@%@#       "," ..##%$$$$+@#&*&#@+$$$$%##..    ",
" #++++$$$%$#     #$%$$$++++#    "," #+$$$$$$%@&     &@%$$$$$$+#    ",
" #+$$$$$$%.*     &.+$$$$$$+#    "," #+$$$$$$%.&     &.%$$$$$$+#    ",
" #++++$$$%$#     #$%$$$++++#    "," ####%%$$$%@#####@%$$$%%####    ",
"  **&@%$$$%%$...$%%$$$%@==*     ","     #%%$$$%%%%%%%%%%%%#=-=     ",
"    #$%%%%%%%%%%%%%%%%+$=;-=    ","   #@+%%%%%%%%%%-========;>-=   ",
"   #@+%%%%%%%%%%=;>>>>>>>;,>-=  ","    &.+%@##$%%%%=;,,,,,,,,,,>-= ",
"     &..# *#%%%%=>,,,,,,,,,,''= ","      ##   #%%%+=>,,,,,,,,,,'-= ",
"           #+%%+=>''''''''''-)  ","           #####)========''-)   ",
"                        ='-)    ","                        =-=     ",
"                        ==      ","                                "};
