/* XPM */
static char * cog_stop_xpm[] = {"32 32 16 1",
"   c None",   ".  c #8D8F91","+  c #EAEDED","@  c #B2B4B7","#  c #707376",
"$  c #CDCFD1","%  c #535151","&  c #343634","*  c #EE604B","=  c #BB3929",
"-  c #846264",";  c #F97360",">  c #EF8B7A",",  c #EDB0A5","'  c #ED4C31",
")  c #522B27",
"                                ","           .......              ",
"           .+++++.              ","      ..   .+@@@+.   ..         ",
"     .@@. #.+@@@+.# .@@.        ","    .@++$.@$+@@@+$@.$++@.       ",
"   .@+@@+++$@@@@@$+++@@+@.      ","   .@+@@@$@@@@@@@@@$@@@+@.      ",
"    #$+@@@@@@@@@@@@@@@+$#       ","     #+$@@@@$+++$@@@@$+#        ",
"    #@+@@@@+$...$+@@@@+@#       "," ####$$@@@+@#%&%#@+@@@$$####    ",
" #++++@@@$$#     #$$@@@++++#    "," #+@@@@@@+.%     %.+@@@@@@+#    ",
" #+@@@@@@+.&     %.+@@@@@@+#    "," #+@@$$$$+.%     %.+$$$$@@+#    ",
" #++++$$$$$#     #$$$$$++++#    "," ####$$$$$+.#####.+$@*=====-    ",
"  &&%.$$$$$+@...@+$;=>,,,,>==   ","     #$$$$$$$$++$$*=,>''''>,'=  ",
"    #@$$$$$$$$$$$@=,*''''''*,== ","   #.+$$$$$$$$$$$*>;'''''''';>= ",
"   #.+$$$$+$$$$$$=>'''''''''',= ","    %.++@##$$$$$+=>''''''''''>= ",
"     %..# &#$$$$+=;'''''''''';= ","      ##   #+$$$+=***''''''***= ",
"           #++$++=*;;******;;*= ","           ######-=;;;;;;;;;;=) ",
"                  ==;;;;;;;;==  ","                   ==*;;;;*==   ",
"                    )======)    ","                                "};
