/* XPM */
static char * control_pause_xpm[] = {"32 32 16 1",
   "   c None",".  c #31668F","+  c #387AB1","@  c #4389C0","#  c #83B1D4",
"$  c #B2D9F4","%  c #EEFBFC","&  c #A6C9E4","*  c #CEECFC","=  c #68A0CD",
"-  c #193344",";  c #509FD4",">  c #87C6F0",",  c #65B1E3","'  c #71BEEF",
")  c #0C1824",
"          .++++++++++.          ","        ++@#$%%%%%%$#@++        ",
"       +@&%%**$$$$**%%&@+       ","      +=%%*&&&&&&&&&&*%%=+      ",
"     +&%*$&&$$$$$$$$&&$*%&+     ","    +&%*&$$$$$$$$$$$$$$&*%&+    ",
"   +=%*$$$$$$$$$$$$$$$$$$*%=+   ","  .@%*$$$$$$$$$$$$$$$$$$$$*%@.  ",
"  +&%$$$$$=+++=$$=+++=$$$$$%&+  "," -@%*$$$$$+$$$+*$+$$$+$$$$$*%@- ",
" +#%$$$$$*+$@@+**+$@@+*$$$$$%#+ "," +$*$$$$$*+$@@+**+$@@+*$$$$$*&+ ",
" +%*$$$$$*+&;;+**+&;;+*$$$$$**+ "," +%*$$$$$*+&;;+**+&;;+*$$$$$*%+ ",
" +%*$$$$**+&;;+**+&;;+**$$$$*%+ "," +%*******+>;,+**+>;,+*******%+ ",
" +%*******+>,,+**+>,,+********+ "," +%*******+>,,+**+>,,+********+ ",
" +$*******+>,'+**+>,'+*******&+ "," .#%******+>''+**+>''+******%=. ",
" )@%******+>>>+%%+>>>+*******+) ","  +&%*****=+++=**=+++=*****%#+  ",
"  -@%******%%%****%%%*******+-  ","   .#%********************%=.   ",
"    +&%******************%#+    ","     +&%%**************%%#+     ",
"      +#%%%*********%%%*=+      ","       .@&%%%%%%%%%%%%>@.       ",
"        -+@#*%%%%%%$#@+-        ","          ).++++++++.)          ",
"                                ","                                "};
