/* XPM */
static char * control_write_white_xpm[] = {"32 32 93 2",
"   c None",   ".  c #31668F","+  c #387AB1","@  c #428AC0","#  c #83B1D4",
"$  c #B2D9F3","%  c #EEFBFC","&  c #A5C9E4","*  c #D7F0FC","=  c #C4E6FC",
"-  c #65A1CF",";  c #C2E4FA",">  c #C0C0CB",",  c #CFB8B6","'  c #D9D9D9",
")  c #193344","!  c #C0E2F8","~  c #B39EA3","{  c #DBDBDB","]  c #E5E5E5",
"^  c #EAEBEB","/  c #ECEDED","(  c #BCDEF4","_  c #BDA7A9",":  c #DDDDDD",
"<  c #ECEBED","[  c #E2E3E2","}  c #D3D5D5","|  c #CDCFD0","1  c #BEE0F6",
"2  c #B0D7F1","3  c #B7B6C0","4  c #DCDCDB","5  c #D7D9DA","6  c #D1D2D3",
"7  c #D2D3D4","8  c #D3D3D4","9  c #B9B8C2","0  c #BADAF0","a  c #CAB5B3",
"b  c #E7E7E7","c  c #DCDDDE","d  c #D3D6D5","e  c #D5D7D7","f  c #CBB6B4",
"g  c #ADCBDF","h  c #E9E9EA","i  c #D5D7D8","j  c #A4C1D3","k  c #E2E4E5",
"l  c #D9DADB","m  c #DADBDC","n  c #A3BFD2","o  c #DAD9D9","p  c #E0E1E2",
"q  c #DADAD9","r  c #DEDFE1","s  c #DEDFE0","t  c #C4B2B0","u  c #DEDEDF",
"v  c #E2E1E2","w  c #E1E1E2","x  c #9A9397","y  c #DADADA","z  c #E3E4E6",
"A  c #E4E3E4","B  c #E3E3E4","C  c #A4B6C0","D  c #A79698","E  c #E6E7E8",
"F  c #E5E6E7","G  c #0C1824","H  c #BFD5E0","I  c #A0BCCE","J  c #A59396",
"K  c #E3E2E4","L  c #EAEAEB","M  c #D1EAF6","N  c #B8CFD9","O  c #91A2AA",
"P  c #8C8588","Q  c #BFAEAD","R  c #D9D9D8","S  c #D8D8D8","T  c #88989F",
"U  c #78868C","V  c #748188","W  c #D6EFFB","X  c #CAE1ED","Y  c #C5DCE7",
"Z  c #C4DBE6","`  c #509CD0"," . c #85C6F1",
"                                                                ",
"                    . + + + + + + + + + + .                     ",
"                + + @ # $ % % % % % % $ # @ + +                 ",
"              + @ & % % * = $ $ $ $ = * % % & @ +               ",
"            + - % % = & & & & & & & & & & = % % - +             ",
"          + & % * $ & & $ $ $ $ $ $ $ $ & & $ * % & +           ",
"        + & % = & $ $ $ $ $ $ $ $ $ $ $ $ $ $ & = % & +         ",
"      + - % = $ $ $ $ $ $ $ $ $ $ $ $ $ $ $ $ $ $ = % - +       ",
"    . @ % * $ $ $ $ $ $ $ $ $ $ $ $ $ $ $ $ $ $ $ $ * * @ .     ",
"    + & % $ $ $ $ $ $ ; > , ' ' ' ' , > ; $ $ $ $ $ $ % & +     ",
"  ) @ % = $ $ $ $ = ! ~ { ] ^ / / ^ ] { ~ ! = $ $ $ $ = % @ )   ",
"  + # % $ $ $ $ $ ( _ : < [ } | | } [ < : ~ 1 $ $ $ $ $ % # +   ",
"  + $ * $ $ $ $ 2 3 4 ^ 5 6 7 8 8 7 6 5 ^ 4 9 2 $ $ $ $ * & +   ",
"  + % = $ $ $ $ 0 a b c d e e e e e e d c b f 0 $ $ $ $ = * +   ",
"  + % = $ = = = g ' h i 5 5 5 5 5 5 5 5 i h ' g = = = = = * +   ",
"  + % = = = = = j ' k l m m m m m m m m l k ' j = = = = = % +   ",
"  + % = = = = = n o p c c c c c c c c c c p o n = = = = = % +   ",
"  + % = = = = = n q r s s s s s s s s s s r q n = = = = = * +   ",
"  + * * = = = = j t u v w w w w w w w w v u t j = = = = * = +   ",
"  + $ * = = = = g x y z A B B B B B B A z y x g = = = = * & +   ",
"  . # % = = = = 0 C D { E E F F F F E E { D C 0 = = = = % - .   ",
"  G @ % * = = = ; H I J { K h L L h K { J I H ; = = = * * + G   ",
"    + & % * = = = M N O P Q R S S R Q P O N M = = = * % # +     ",
"    ) @ * * * * * * M H C T U V V U T C H M * * * * * * + )     ",
"      . # % * * * * * W M X Y Z Z Y X M W * * * * * % ` .       ",
"        + & % * * * * * * * * * * * * * * * * * * % # +         ",
"          + & % * * * * * * * * * * * * * * * * % # +           ",
"            + # % % * * * * * * * * * * * * % * - +             ",
"              . @ & % % % * * * * * * % % %  .@ .               ",
"                ) + @ # = % % % % % % $ # @ + )                 ",
"                    G . + + + + + + + + . G                     ",
"                                                                "};
