/* XPM */
static char * control_write_red_xpm[] = {"32 32 110 2",
"   c None",   ".  c #31668F","+  c #387AB1","@  c #428AC0","#  c #83B1D4",
"$  c #B2D9F3","%  c #EEFBFC","&  c #A5C9E4","*  c #D7F0FC","=  c #C4E6FC",
"-  c #65A1CF",";  c #C3E5FB",">  c #BFBFCD",",  c #BE645D","'  c #C03828",
")  c #BF3727","!  c #193344","~  c #87525E","{  c #C74737","]  c #E3897B",
"^  c #F5B2A7","/  c #F8BCB0","(  c #C0E2F8","_  c #924C52",":  c #CA4F3F",
"<  c #F6B5AA","[  c #F18E7D","}  c #E9573E","|  c #E54225","1  c #87515D",
"2  c #C1E3F9","3  c #B1D8F2","4  c #BAB9C6","5  c #C74839","6  c #F6B2A6",
"7  c #EE644D","8  c #E9482D","9  c #E94B31","0  c #E94D33","a  c #BBBAC7",
"b  c #BFE0F6","c  c #BA5F59","d  c #E68F84","e  c #F0725B","f  c #EB4F34",
"g  c #EB5238","h  c #EB543A","i  c #BB6059","j  c #B8D8ED","k  c #C03A2A",
"l  c #F7A294","m  c #ED5339","n  c #ED563D","o  c #ED583F","p  c #B3D3E7",
"q  c #BF3A2A","r  c #F98572","s  c #F15941","t  c #F05B43","u  c #F05C44",
"v  c #B3D2E6","w  c #BF3B2C","x  c #F87561","y  c #F35F48","z  c #F26049",
"A  c #BF3C2D","B  c #F66550","C  c #F66650","D  c #F4654F","E  c #B85C53",
"F  c #E65B48","G  c #FA6C57","H  c #F86954","I  c #F76954","J  c #AFA4A9",
"K  c #C74232","L  c #FC6F5B","M  c #FA6E59","N  c #F96D59","O  c #BCD1DC",
"P  c #824951","Q  c #CA4635","R  c #FE7260","S  c #FE7461","T  c #FD7360",
"U  c #FC725F","V  c #0C1824","W  c #CBE2EE","X  c #81474E","Y  c #C74433",
"Z  c #EB6451","`  c #FF7865"," . c #FF7C69",".. c #D4EDF9","+. c #C7DFEA",
"@. c #B1C5CF","#. c #A5999D","$. c #B3584E","%. c #BF3B2B","&. c #BE3B2B",
"*. c #ABBFC8","=. c #A1B3BC","-. c #9EB0B9",";. c #D6EFFB",">. c #D1EAF6",
",. c #CAE1ED","'. c #C5DCE7","). c #C4DBE6","!. c #509CD0","~. c #85C6F1",
"                                                                ",
"                    . + + + + + + + + + + .                     ",
"                + + @ # $ % % % % % % $ # @ + +                 ",
"              + @ & % % * = $ $ $ $ = * % % & @ +               ",
"            + - % % = & & & & & & & & & & = % % - +             ",
"          + & % * $ & & $ $ $ $ $ $ $ $ & & $ * % & +           ",
"        + & % = & $ $ $ $ $ $ $ $ $ $ $ $ $ $ & = % & +         ",
"      + - % = $ $ $ $ $ $ $ $ $ $ $ $ $ $ $ $ $ $ = % - +       ",
"    . @ % * $ $ $ $ $ $ $ $ $ $ $ $ $ $ $ $ $ $ $ $ * * @ .     ",
"    + & % $ $ $ $ $ $ ; > , ' ) ) ' , > ; $ $ $ $ $ $ % & +     ",
"  ! @ % = $ $ $ $ = ; ~ { ] ^ / / ^ ] { ~ ; = $ $ $ $ = % @ !   ",
"  + # % $ $ $ $ $ ( _ : < [ } | | } [ < : 1 2 $ $ $ $ $ % # +   ",
"  + $ * $ $ $ $ 3 4 5 6 7 8 9 0 0 9 8 7 6 5 a 3 $ $ $ $ * & +   ",
"  + % = $ $ $ $ b c d e f g h h h h g f e d i b $ $ $ $ = * +   ",
"  + % = $ = = = j k l m n o o o o o o n m l k j = = = = = * +   ",
"  + % = = = = = p q r s t u u u u u u t s r q p = = = = = % +   ",
"  + % = = = = = v w x y z z z z z z z z y x w v = = = = = % +   ",
"  + % = = = = = v A B C D D D D D D D D C B A v = = = = = * +   ",
"  + * * = = = = p E F G H I I I I I I H G F E p = = = = * = +   ",
"  + $ * = = = = j J K L L M N N N N M L L K J j = = = = * & +   ",
"  . # % = = = = b O P Q R S T U U T S R Q P O b = = = = % - .   ",
"  V @ % * = = = ; W ; X Y Z `  . .` Z Y X ; W ; = = = * * + V   ",
"    + & % * = = = ..+.@.#.$.%.&.&.%.$.#.@.+...= = = * % # +     ",
"    ! @ * * * * * * ..W O *.=.-.-.=.*.O W ..* * * * * * + !     ",
"      . # % * * * * * ;.>.,.'.).).'.,.>.;.* * * * * % !..       ",
"        + & % * * * * * * * * * * * * * * * * * * % # +         ",
"          + & % * * * * * * * * * * * * * * * * % # +           ",
"            + # % % * * * * * * * * * * * * % * - +             ",
"              . @ & % % % * * * * * * % % % ~.@ .               ",
"                ! + @ # = % % % % % % $ # @ + !                 ",
"                    V . + + + + + + + + . V                     ",
"                                                                "};
