/* XPM */
static char * control_play_xpm[] = {"32 32 16 1",
"   c None",   ".  c #31668F","+  c #387AB0","@  c #4487BC","#  c #83B1D4",
"$  c #B1D9F4","%  c #EEFBFC","&  c #A6C9E3","*  c #D7F0FC","=  c #C5E6FC",
"-  c #6A9FCB",";  c #193344",">  c #4F9DD1",",  c #8AC5EC","'  c #61ACDE",
")  c #0C1824",
"          .++++++++++.          ","        ++@#$%%%%%%$#@++        ",
"       +@&%%*=$$$$=*%%&@+       ","      +-%%=&&&&&&&&&&=%%-+      ",
"     +&%*$&&$$$$$$$$&&$*%&+     ","    +&%=&$$$$$$$$$$$$$$&=%&+    ",
"   +-%=$$$$$$$$$$$$$$$$$$=%-+   ","  .@%*$$$$$$$$$$$$$$$$$$$$**@.  ",
"  +&%$$$$$$$$-+=$$$$$$$$$$$%&+  "," ;@%=$$$$$$$=+$+=$$$$$$$$$$=%@; ",
" +#%$$$$$$$$=+$$+=$$$$$$$$$$%#+ "," +$*$$$$$$$$=+&@&+==$$$$$$$$*&+ ",
" +%=$$$$$$$==+&@@&+===$$$$$$=*+ "," +%=$========+&>>>$+=========*+ ",
" +%==========+,>>>'&+========%+ "," +%=========*+,>>>'&+========%+ ",
" +%=========*+,'''&+*========*+ "," +**========*+,'',+*========*=+ ",
" +$*========*+,',+*=========*&+ "," .#%========*+,,+*==========%-. ",
" )@%*======**+,+**=========**+) ","  +&%*=====**-+***========*%#+  ",
"  ;@**********=*************+;  ","   .#%********************%>.   ",
"    +&%******************%#+    ","     +&%****************%#+     ",
"      +#%%************%*-+      ","       .@&%%%******%%%,@.       ",
"        ;+@#=%%%%%%$#@+;        ","          ).++++++++.)          ",
"                                ","                                "};
