/* XPM */
static char * control_stop_xpm[] = {"32 32 16 1",
"   c None",   ".  c #31668F","+  c #387AB1","@  c #428AC0","#  c #83B1D4",
"$  c #B2D9F3","%  c #EEFBFC","&  c #A5C9E4","*  c #D7F0FC","=  c #C4E6FC",
"-  c #65A1CF",";  c #193344",">  c #509CD0",",  c #85C6F1","'  c #69B3E5",
")  c #0C1824",
"          .++++++++++.          ","        ++@#$%%%%%%$#@++        ",
"       +@&%%*=$$$$=*%%&@+       ","      +-%%=&&&&&&&&&&=%%-+      ",
"     +&%*$&&$$$$$$$$&&$*%&+     ","    +&%=&$$$$$$$$$$$$$$&=%&+    ",
"   +-%=$$$$$$$$$$$$$$$$$$=%-+   ","  .@%*$$$$$$$$$$$$$$$$$$$$**@.  ",
"  +&%$$$$$$==========$$$$$$%&+  "," ;@%=$$$$=-++++++++++-=$$$$=%@; ",
" +#%$$$$$=+$$======$$+=$$$$$%#+ "," +$*$$$$$=+$@@@@@@@@$+=$$$$$*&+ ",
" +%=$$$$==+$@>>>>>>@$+==$$$$=*+ "," +%=$=====+&>>>>>>>>&+=======*+ ",
" +%=======+&>>---->>&+=======%+ "," +%======*+,--------,+*======%+ ",
" +%======*+,'''''''',+*======*+ "," +**=====*+,'''''''',+*=====*=+ ",
" +$*=====*+,'''''''',+*=====*&+ "," .#%=====*+,,,,,,,,,,+*=====%-. ",
" )@%*====*-++++++++++-*====**+) ","  +&%*===**************===*%#+  ",
"  ;@************************+;  ","   .#%********************%>.   ",
"    +&%******************%#+    ","     +&%****************%#+     ",
"      +#%%************%*-+      ","       .@&%%%******%%%,@.       ",
"        ;+@#=%%%%%%$#@+;        ","          ).++++++++.)          ",
"                                ","                                "};
