/* XPM */
static char * cross_xpm[] = {"32 32 16 1",
"   c None",   ".  c #C44234","+  c #F4C2B8","@  c #E74D32","#  c #8C2E24",
"$  c #F1B6AF","%  c #ECAA9F","&  c #EC9E91","*  c #EC5840","=  c #EC9287",
"-  c #EC8578",";  c #F3614A",">  c #F17867",",  c #F56853","'  c #2B0E0C",
")  c #F9705D",
"                                ","      ..                ..      ",
"     .++.              .++.     ","    .+@@+.            .+@@+.    ",
"  #.$@@@@$.          .$@@@@$.   "," #.$@@@@@@$.        .$@@@@@@$.  ",
" .$@@@@@@@@$.      .$@@@@@@@@$. "," .%@@@@@@@@@%.    .%@@@@@@@@@%. ",
"  .%@@@@@@@@@%.  .%@@@@@@@@@%.  ","   .%@@@@@@@@@%..%@@@@@@@@@%.   ",
"    .&@@@@@@@@@@@@@@@@@@@@&.    ","     .&******************&.     ",
"      .&****************&.      ","       .=**************=.       ",
"        .=************=.        ","         .=**********=.         ",
"         .-;;;;;;;;;;-.         ","        .-;;;;;;;;;;;;-.        ",
"       .-;;;;;;;;;;;;;;-.       ","      .-;;;;;;;;;;;;;;;;-.      ",
"    #.>,,,,,,,,,,,,,,,,,,>.     ","   #.>,,,,,,,,,**,,,,,,,,,>.    ",
"  #.>,,,,,,,,,>..>,,,,,,,,,>.   "," #.>,,,,,,,,,>.' .>,,,,,,,,,>.  ",
" .>)))))))))).'   .))))))))))>. "," .)))))))))).'     .)))))))))). ",
"  .,)))))),.'       .,)))))),.  ","   .,)))),.'         .,)))),.   ",
"    .;));.'           .;));.    ","     .;;.'            '.;;.     ",
"      ..'              '..'     ","                                "};
