/* XPM */
static char * delete_xpm[] = {"32 32 16 1",
"   c None",   ".  c #993126","+  c #BA3829","@  c #CA412E","#  c #DB6149",
"$  c #FB9882","%  c #FCBAA0","&  c #FCA890","*  c #F78973","=  c #FCC6B1",
"-  c #FA725E",";  c #EA4D32",">  c #F15F48",",  c #4C1813","'  c #FCFEFC",
")  c #240C08",
"                                ","          .++++++++++.          ",
"        .+@#$%%%&&&*#@+.        ","       +@*=%%%%%%%%%&$-@+       ",
"      +#%==$-;@@@@;>$%&*;+      ","     +*==&;;;;;;;;;;;;$&*#+     ",
"    +*==-;;;;;;;;;;;;;;-&*#+    ","   +#==-;;;;;;;;;;;;;;;;-&*@+   ",
"  .@%=-;;;;;;;;;;;;;;;;;;-$-@.  ","  +*=&;;;;;;;;;;;;;;;;;;;;**#+  ",
" ,@==;;;;;;;;;;;;;;;;;;;;;;&-@, "," +#%$;;;;;;;;;;;;;;;;;;;;;;**;+ ",
" +$%-;;;;;;;;;;;;;;;;;;;;;;-*#+ "," +%%>;>;;;;;;;;;;;;;;;;;;>;>$>@ ",
" +%%;>>;=''''''''''''''=;>>;$>@ "," +%%;>>;'''''''''''''''';>>>$>@ ",
" +&%>>>;'''''''''''''''';>>>$;@ "," +&%>>>>=''''''''''''''=>>>>$;@ ",
" +&%>>>>>>>;;;;;;;;;;>>>>>>>$;@ "," +*&*>>>>>>>>>>>>>>>>>>>>>>-*;+ ",
" .#&$>>------------------->*>@. "," )@$&----------------------*;@) ",
"  +-&$>-------------------*-@+  ","  ,@*&*------------------**;@,  ",
"   .;*&*-----------------*;@.   ","    +#*&*--------------**;@+    ",
"     +#*$$------------**;@+     ","      +@-*$$*------***-;@+      ",
"       .@#--*$$$$$*->;@@.       ","        ,+@;#>>>;;;;@@+,        ",
"          ).+@@@@@@+.)          ","                                "};
