/* XPM */
static char * divide_xpm[] = {"32 32 16 1",
"   c None",   ".  c #458704","+  c #79A806","@  c #CAE264","#  c #305A04",
"$  c #427A04","%  c #9ABE08","&  c #599A06","*  c #B7DE49","=  c #E1EC9E",
"-  c #A5C713",";  c #ACD03C",">  c #9BD105",",  c #FCFEFA","'  c #213D04",
")  c #ACDD1F",
"                                ","                                ",
"                         ..     ","                         .+.    ",
"                         .@+.   ","              #$..........%@+.  ",
"             .&%*=========%%=+. ","           #.%@@*--%%%%%%%%%%=+.",
"          #.;@;>%---%%%%%%%%%-,.","          .;@>>>%--%%%%%%%%%%=+.",
"         .%*>>>-@=========%%=+. ","      '#.+*)>>)@-+&.......%@+.  ",
"  $&&&&&%*)>>)@+.$#      .@+.   ","  .)))))*>>>>@+.         .+.    ",
"  .)>>>>>>>>*;.          ..     ","  .)>>>>>>>>@+$                 ",
"  .)>>>>>>>>@+$                 ","  .)>>>>>>>>*;.          ..     ",
"  .)))))*>>>>@+.         .+.    ","  $....&%*)>>)@+.$#      .@+.   ",
"      '#.+*)>>)@;+&.......%@+.  ","         .%*>>>>@=========%%=+. ",
"          .;@>>>%--%%%%%%%%%%=+.","          #.;@;>%---%%%%%%%%%-,.",
"           #.%@@*--%%%%%%%%%%=+.","             .&%;@========%%=+. ",
"              '$..........%@+.  ","                         .@+.   ",
"                         .+.    ","                         ..     ",
"                                ","                                "};
