/* XPM */
static char * help_xpm[] = {"32 32 16 1",
"   c None",   ".  c #144989","+  c #145AAB","@  c #428CCE","#  c #73B0E1",
"$  c #9CCDF5","%  c #8DC4F0","&  c #5D9FD8","*  c #A7D5F8","=  c #B6E3FC",
"-  c #C7EDFB",";  c #2F7BC3",">  c #1F6AB9",",  c #FBFEFC","'  c #0C2644",
")  c #E4EEF9",
"                                ","          .++++++++++.          ",
"        .++@#$$$$$%&@++.        ","       ++#*=-------=$%&++       ",
"      +;$=-$&;>>>>;&%=$#;+      ","     +&*-*;>;;;;;;;;;;$=#@+     ",
"    +&*-#;;;;;;;;;;;;;;&=#@+    ","   +;*-&;;;;;;;;;;;;;;;;&=#;+   ",
"  .+$-#;;;;;;;;;;;;;;;;;;&*&+.  ","  +&=*;;@@@;@-,,,,-&;;@@;;%%@+  ",
" '+*-@@@@@;&,,,,,,,,&;@@@@@*&+' "," +@*$;@@@@;),,)&&-,,,;@@@@@%#;+ ",
" +#=#@@@@@;,,,@@@;),,;@@@@@&%;+ "," +%-@@@@@@@#%#@@@@,,,@@@@@@@*@+ ",
" +%-@@@@@@@@@@@@@),,)@@@@@@@*@+ "," +%-@@@@@@@@@@@@),,,&@@@@@@@*@+ ",
" +%-@@&&&&&&&@@),,)&@@&&&&@@*@+ "," +%-@&&&&&&&&@#,,)@@&&&&&&&@*;+ ",
" +#-&&&&&&&&&@*,,#@&&&&&&&&&$;+ "," +&*#&&&&&&&&&%,,#&&&&&&&&&##>+ ",
" .;%$&&&&&&&&&@@@@&&&&&&&&&%&>. "," '+#=&&&&&&&&&*,,*&&&&&&&&&$;+' ",
"  +@%*&&&&&&&&,,,,&&&&&&&&%&>+  ","  '+&*%&&&&&&&,,,,&&&&&&&#%>+'  ",
"   .>&=%&####&*,,*&######$;>.   ","    +;&*%#####&&&&######$;>+    ",
"     +;&$$############%%;>+     ","      +>@#*$%######%%$&>>+      ",
"       .+;@&%$***$$#@>>+.       ","        '++>;;;;;>>>>++'        ",
"           .++++++++.           ","                                "};
