/* XPM */
static char * hub_xpm[] = {"32 32 16 1",
"   c None",   ".  c #040204","+  c #CCCECC","@  c #D4D2D4","#  c #DCD7DC",
"$  c #D4D6D4","%  c #949694","&  c #999A99","*  c #9C9F9C","=  c #BCBABC",
"-  c #ACB2AC",";  c #1C1B1C",">  c #242624",",  c #202220","'  c #2C2A2C",
")  c #A4A6A4",
"                                ","                                ",
"                                ","                                ",
"                                ","                                ",
"                                ","                                ",
"        ......................  ","       .+@@@@@@@@@@@@@@@@@@@..  ",
"      .@#$$$$$$$$$$$$$$$$$#.%.  ","     .@$$$$$$$$$$$$$$$$$@#.&*.  ",
"    .@$$@$$@$$@$$@$$@$@@#.&*&.  ","   .@$##$$$$#$$$$#$$$$$#.&**&.  ",
"  ......................&***&.  ","  .====================.***&-.  ",
"  .=;>,==;>,==;>>==;>'=.&*&).   ","  .=...==...==...==...=.&**.    ",
"  .=...==...==...==...=.&*.     ","  .=.%%==.%%==.%%==.%%=.%.      ",
"  .====================..       ","  ......................        ",
"                                ","                                ",
"                                ","                                ",
"                                ","                                ",
"                                ","                                ",
"                                ","                                "};
