/* XPM */
static char * information_xpm[] = {"32 32 16 1",
"   c None",   ".  c #144989","+  c #145AAB","@  c #4B94D4","#  c #72B0E1",
"$  c #A2D2F7","%  c #8DC4F0","&  c #60A2DB","*  c #3E89CC","=  c #B6E3FC",
"-  c #C6EFFC",";  c #5498D4",">  c #2E7AC3",",  c #1F6AB9","'  c #FCFEFC",
")  c #0C2644",
"                                ","          .++++++++++.          ",
"        .++@#$$$$%%&*++.        ","       ++&$==------=$%;++       ",
"      +>$=-%&>,,,,>&%=$#>+      ","     +&$-$>,>>>>>>>>>>%=#*+     ",
"    +&$-#>>>>>>>>>>>>>>&=#*+    ","   +>$-&>>>>>>>>>>>>>>>>&=#>+   ",
"  .+$-#>>>>>>>$''$>>>>>>>&$&+.  ","  +&=$>>****>>''''>>****>>%%*+  ",
" )+$-********>''''>********$&+) "," +*$$>*******>$''$>********%#>+ ",
" +&=#**********>>**********&%>+ "," +%-@**********>>**********@$*+ ",
" +%-*@@@@@@@*'''''*@@@@@@@@*$*+ "," +%-*@@@@@@@@*''''*@@@@@@@@@$*+ ",
" +%-*@;;;;;;@*''''*@;;;;;;@@$*+ "," +%-@;;;;;;;;*''''*;;;;;;;;@$>+ ",
" +#=&;;;;;;;;@''''@;;;;;;;;&$>+ "," +;$#;&&&&&&;@''''@;&&&&&&;##,+ ",
" .>%$;&&&&&&&@''''@&&&&&&&&%;,. "," )+#=&&&&&&&&;'''';&&&&&&&&%>+) ",
"  +@%$&&&&&&&@''''@&&&&&&&%&,+  ","  )+&$%&&&&&&''''''&&&&&&#%,+)  ",
"   .,&=%&###&&&&&&&&#####%>,.   ","    +>&$%###############%>,+    ",
"     +>&$$############%%>,+     ","      +,*#$%%######%%%&,,+      ",
"       .+>*&%$$$$$%#@,,+.       ","        )++,>>>>>,,,,++)        ",
"           .++++++++.           ","                                "};
