/* XPM */
static char * jack_xpm[] = {"32 32 14 1",
"   c None",   ".  c #DFDFCE","+  c #BBBBAC","@  c #545551","#  c #929386",
"$  c #CCCCBE","%  c #707061","&  c #A9A998","*  c #F4F4E3","=  c #404659",
"-  c #99AFC7",";  c #302F36",">  c #161419",",  c #697BBF",
"                                ","                                ",
"                                ","                          .++   ",
"                         +.@#   ","              .$.    $$$$$%%+   ",
"             $%$++ .&$++*#%     ","            $%.** +#.*.$#=.     ",
"           .#.**&&#.*.+&@&      ","          .#+.**&#**.$&%@&      ",
"        $##+.******.$&%%%#      ","       +&&+.***..***&%%%@.      ",
"    . &#&+***.**..***#@=#+$     ","   &#%&$+**......****$=#*$$     ",
"  +%.$+&**.**..*.***.#&**&$     ","  #@&$.$*******.***$#&**$%$     ",
"  #%+++$.$.******.+#&.$+@%      ","  #=%+##.*$$*****&#&..&@%       ",
"  #@%+&=#$*.$***&&+.*.@%        ","  %@&-$+@@&*.$.&#+.**&@         ",
"  &;>=,$$,=%$.&#+.**$%$         ","   @>;=,$*-,#$$++**$%%          ",
"   &>>==@-*-####%+&=#           ","   $#;;;=%.%%##%&&;#            ",
"     +@>@;#%%%%#*@#             ","      .%;=&&##@#*&              ",
"       +%>@@=##++.              ","        .&%#%@%@%$              ",
"             #;@.               ","              $$                ",
"                                ","                                "};
