/* XPM */
static char * open_xpm[] = {"32 30 17 1",
"   c None",   ".  c #132F61","+  c #2C518E","@  c #486FAD","#  c #6C94D7",
"$  c #05050C","%  c #B1C9E4","&  c #E9F6E2","*  c #98B3E1","=  c #87A1D1",
"-  c #C6F187",";  c #CBDBF1",">  c #5B8A7B",",  c #87AF71","'  c #6AAB6E",
")  c #A4F355","!  c #88D555",
"                                ","                                ",
"          .++.....              ","          .++@@##@.             ",
"..........$$+#%&&*+             ","++++++++@+$$$+*&&&=+.           ",
".+@######@+.$$+=-&&*+.          ",".+#==###=##+.$.+=-&;=+.         ",
".+#=#######@@++++>%&;=+.....    ",".+@############@++,&&%@++@+.    ",
".+@==#======#==#++,-&*++=*@.    ",".+###@@@@@@@###@++,-&*++#=@.    ",
".+##@+++++++@@++.+,-&*+..++...++",".+##+.++++++++@@@>,-&%>+++.+@@@@",
".+##++>==**#++')!!!))!!!;=.+%;#+",".+##++=;;;;*@@')))))!))-;=@#&&#+",
".+##++=%%%%%%#@>!))!!)&;@@*&&*@+",".+@@++#****%;*@+>!)))-%#+@;&%@++",
"++++@#=****%%%*#+>!-&%@+=;&;#+. ","+..+#====****%;*@+'!%#+@;&&%#.  ",
"+..+#=====***%%%*#@++@=%&&&%#.  ","++++####===****%;*@+.@;&;;&;#+  ",
"+++@@####===****%%=#=*;;;;;%#+  ",".+@@#####===****%%%;&;;;;;*#@.  ",
".+@@#####===****%%%;;;;;&%#+.   ","++@@@@@@######=======**%%*@+    ",
"++++++++++++@@@@@@@@@@@@@@@+    ","..........................++    ",
"                                ","                                "};
