/* XPM */
static char * refresh_xpm[] = {"32 32 16 1",
"   c None",   ".  c #478904","+  c #7CAB04","@  c #D9E97A","#  c #CEDF78",
"$  c #C9DC4E","%  c #84B714","&  c #9BBC09","*  c #A6CC0D","=  c #9BC806",
"-  c #609A12",";  c #407804",">  c #C1E960",",  c #A3DD0D","'  c #1F3304",
")  c #2C5104",
"                                ","                    ..          ",
"                    .+.         ","                    .@+.        ",
"        .............#$+.       ","      ...%$@@@$$$$$$$@&$+.      ",
"     ..%#@$***==========$%.     ","    .-#@$===============*$.     ",
"   .-##*================*%;     ","  ;.$>====,,,,,,,,,,,**,%;      ",
"  .%>,**,$,%-........,,%;       "," ;.>,,,,>=.;')      .,%;        ",
" .%>,,,>=.'         .=;         "," .*,,,>>.           .;          ",
" .,,,,@%;                       "," ;......)                       ",
"                       ........ ","                       .%@###@. ",
"          ..          '.#$&&&+. ","         .+.         ;.&#&&&&+; ",
"        .+@.      .;..&#*&&==.) ","       .+$#........-%##*&===+.  ",
"      .+$&@$@@@@@##@#$=====&.)  ","     .%$=================*=.;   ",
"     .$*================*=..    ","     ;%*================+.;     ",
"      ;%,**,,,,,,,,*,=+..)      ","       ;%,,...........;)        ",
"        ;%,.                    ","         ;=.                    ",
"          ;.                    ","                                "};
