/* XPM */
static char * save_xpm[] = {"32 30 16 1",
"   c None",   ".  c #30589C","+  c #2457A9","@  c #1D488F","#  c #153D81",
"$  c #3966B2","%  c #5079BD","&  c #5C89D3","*  c #B0C7EB","=  c #CEDAED",
"-  c #A0BAE2",";  c #749AD5",">  c #EFF3FA",",  c #4274C4","'  c #8DA9D9",
")  c #0E2852",
".....+@################@+..$$@  ","...@.$%%%%%%%%%%%%%%%%%%$.@.$@  ",
"..##+&*================-%@#@.@  ","..@#+;=>>>>>>>>>>>>>>>>=&+#@.@  ",
"..,,$&=>=--********--=>=&+$%,#  ","+$&&$&=>='----------'=>=&$%&,#  ",
"+$&&$&=>>>>>>>>>>>>>>>>=&$%&,#  ","+$%,$&=>>>>>>>>>>>>>>>>=&+,&,#  ",
"+$%%$&=>='----------'=>=&+,&,#  ","+$%,$&=>=--********--=>=&+,&,#  ",
"+$%%$&=>>>>>>>>>>>>>>>>=&+,&,#  ","+$%%,&*>>=>>>>>>>>>>=>>*%$%&,#  ",
"+$%&&%&&&&&&&&&&&&&&&&&%%&&&,#  ","+$%&&%$++$++++++++++$++$%&&%,#  ",
"+$%&&%,,,%%%%%%%%%%%%%%%&&&%,#  ","+$%&&&&&%%%%%%%%%%%%%%,%&&&%,#  ",
"+$%&&&&&.@@..@@@@@@@@@@.%&&%,#  ","+$%&&&%,...$..$$$$$$$$$,%%&&,#  ",
"+$%&&%..&;;;;;''''---==-,.,&,#  ","+$%&&,@.;-';;;'-*===>>>=$@,&,#  ",
"+$%&&,@.;'$@$,,&-====>>=$@,&,#  ","+$%&&,@$;;@)#@@$'*=*=>>=%@,&,#  ",
"+$%&&,@$;;.)@.@,'*===>>=%@,&,#  ","+.%&&,@$;;.)@+@$'****>>=%@,&,#  ",
"@.%&&,@$;&@)#@#.;****=>=%@,&,#  ",".$%&&,@$''%.%%%;*====>>=%@,&,#  ",
"+$%;;,@$'*-'*=>>>>>>>>>=$@,;,@  ","#@$&&$+.;'''-*=========-$@,%.)  ",
" )@,$...$%%%%%%&%%%%%%%,..$.)   ","  #.....@@@@###########@+..#    "};
