/* XPM */
static char * tick_xpm[] = {"32 32 15 1",
"   c None",   ".  c #478804","+  c #E9F78C","@  c #9CB904","#  c #E4F87C",
"$  c #D9F26C","%  c #84AF04","&  c #9DC704","*  c #CCF250","=  c #C2EE3C",
"-  c #9ED104",";  c #83BA04",">  c #B4E828",",  c #84C204","'  c #A0DC04",
"                                ","                                ",
"                                ","                         ..     ",
"                        .++.    ","                       .+@@+.   ",
"                      .#@@@@#.  ","                     .#@@@@@@#. ",
"                    .$@@@@@@@%. ","                   .$@@@@@@@%.  ",
"     .            .$@@@@@@&%.   ","     ..          .*@@@@@&&%.    ",
"    .**.        .*&&&&&&&%.     ","   .=&&=.      .=&&&&&&&%.      ",
"  .=&&&&=.    .=&&&&&&&%.       "," .=&&&&&&=.  .=&&&&&&-;.        ",
" .;-&&&&&&>..>&&&&&&-;.         ","  .;-&&&&&&>>&&&&&&-;.          ",
"   .;------&&------;.           ","    .;------------;.            ",
"     .;----------;.             ","      .,--------,.              ",
"       .,'----',.               ","        .;'''';.                ",
"         .,'',.                 ","          .,,.                  ",
"           ..                   ","                                ",
"                                ","                                ",
"                                ","                                "};
