/* XPM */
static char * wrench_xpm[] = {"32 32 16 1",
"   c None",   ".  c #818386","+  c #9C9DA0","@  c #767779","#  c #D5D4D5",
"$  c #F9FAF8","%  c #B3B5B7","&  c #1F87BA","*  c #162E3C","=  c #9ED3F4",
"-  c #7CBBE2",";  c #45A6DF",">  c #6094B0",",  c #5BB2E6","'  c #1772A0",
")  c #C0DDF0",
"                                ","                     ...+...@   ",
"                    .+#$$$$#.@  ","                   .%$%+++%$#.  ",
"                  @+$++++.....  ","                  .#%++%.       ",
"                  .$++%%.       ","                  .#++%%.       ",
"                  .$+%%%.       ","                  .#%%%%.       ",
"                  @##%%%%@@@@@  ","                 .#$%%%######@  ",
"               &&+$#%%%####+.*  ","              &=-;>%+@@@.@@@    ",
"             &=-,,&>@   *       ","           '&=-,,;;&            ",
"          '&)-,,;;;&            ","         '&)-,,;;;&             ",
"        ';)-,,;;;&              ","       ';)-,,;;;&               ",
"      ';)-,,;;;&*               ","     '-)-,,;;;&*                ",
"    '-)-,,;;;&*                 ","   '-)-,,;;;&'                  ",
"  '-)-,,;;;&'                   ","  &)-,,;;;&'                    ",
"  ;),,;;;&'                     ","  &);;;;&'                      ",
"  '=,;;&'                       ","   '&&&'                        ",
"                                ","                                "};
