/* XPM */
static char * add_xpm[] = {
"24 24 123 2",
"  	c None",
". 	c #6D973A",
"+ 	c #759E41",
"@ 	c #719B3C",
"# 	c #6F9A39",
"$ 	c #91B25B",
"% 	c #E6F1A0",
"& 	c #E5F09C",
"* 	c #E6F09E",
"= 	c #C5D880",
"- 	c #719A39",
"; 	c #90B25A",
"> 	c #E1EE8B",
", 	c #D7E866",
"' 	c #DCEB79",
") 	c #C4D87E",
"! 	c #8FB158",
"~ 	c #DEEC88",
"{ 	c #D4E664",
"] 	c #D9E977",
"^ 	c #C2D67C",
"/ 	c #709A39",
"( 	c #8EB056",
"_ 	c #DAE883",
": 	c #D0E260",
"< 	c #D5E572",
"[ 	c #BED378",
"} 	c #8CAF54",
"| 	c #D6E67E",
"1 	c #CCDF5D",
"2 	c #D2E26F",
"3 	c #BBD174",
"4 	c #6F9B39",
"5 	c #6C9739",
"6 	c #729B3E",
"7 	c #9EBC5D",
"8 	c #D2E279",
"9 	c #C7DB59",
"0 	c #CDDF6A",
"a 	c #C4D775",
"b 	c #749D3F",
"c 	c #709A3A",
"d 	c #6F9A38",
"e 	c #90B252",
"f 	c #D3E283",
"g 	c #D2E280",
"h 	c #CDDE72",
"i 	c #C3D856",
"j 	c #C8DB64",
"k 	c #D3E282",
"l 	c #B4CC6B",
"m 	c #709A38",
"n 	c #8FB050",
"o 	c #C9DB6F",
"p 	c #BED452",
"q 	c #C4D861",
"r 	c #B1C967",
"s 	c #6F9938",
"t 	c #8DAE4E",
"u 	c #C5D76A",
"v 	c #BAD04F",
"w 	c #C0D45D",
"x 	c #ADC663",
"y 	c #8BAD4C",
"z 	c #C1D465",
"A 	c #B6CD4B",
"B 	c #BBD159",
"C 	c #A9C45F",
"D 	c #87AB49",
"E 	c #BCD061",
"F 	c #B2CA4B",
"G 	c #B2CA4A",
"H 	c #B1C948",
"I 	c #B1C949",
"J 	c #B7CD57",
"K 	c #A6C05B",
"L 	c #6F9937",
"M 	c #84A745",
"N 	c #B5CB62",
"O 	c #B9CF63",
"P 	c #B7CD5A",
"Q 	c #ADC644",
"R 	c #B2C94F",
"S 	c #BBD064",
"T 	c #B5CC62",
"U 	c #9EBA53",
"V 	c #6D9937",
"W 	c #6C9737",
"X 	c #6B9636",
"Y 	c #85A845",
"Z 	c #B1C855",
"` 	c #A8C241",
" .	c #ADC54B",
"..	c #A2BE52",
"+.	c #6A9536",
"@.	c #6E9738",
"#.	c #7EA342",
"$.	c #ACC44F",
"%.	c #A4BE3D",
"&.	c #A8C146",
"*.	c #9AB74D",
"=.	c #6D9737",
"-.	c #7CA23F",
";.	c #A8C04A",
">.	c #A0BB3A",
",.	c #A4BE42",
"'.	c #96B449",
").	c #7AA13D",
"!.	c #A2BC44",
"~.	c #9BB736",
"{.	c #9FBA3D",
"].	c #92B144",
"^.	c #6C9735",
"/.	c #789F3C",
"(.	c #9DB83F",
"_.	c #98B535",
":.	c #9BB73A",
"<.	c #8EAE3F",
"[.	c #759D39",
"}.	c #95B23C",
"|.	c #86A93A",
"1.	c #6A9635",
"2.	c #6C9736",
"                                                ",
"                                                ",
"                . + + + + + @ #                 ",
"                $ % & & & * = -                 ",
"                ; > , , , ' ) -                 ",
"                ! ~ { { { ] ^ /                 ",
"                ( _ : : : < [ /                 ",
"                } | 1 1 1 2 3 4                 ",
"    5 6 6 6 6 6 7 8 9 9 9 0 a b 6 6 6 6 c d     ",
"    e f g g g g g h i i i j g g g g g k l m     ",
"    n o p p p p p p p p p p p p p p p q r s     ",
"    t u v v v v v v v v v v v v v v v w x s     ",
"    y z A A A A A A A A A A A A A A A B C s     ",
"    D E F F F F F G H H H I F F F F F J K L     ",
"    M N N N N N O P Q Q Q R S T N N N N U V     ",
"    W W W W W X Y Z ` ` `  ...+.W W W W W @.    ",
"                #.$.%.%.%.&.*.=.                ",
"                -.;.>.>.>.,.'.=.                ",
"                ).!.~.~.~.{.].^.                ",
"                /.(._._._.:.<.^.                ",
"                [.}.}.}.}.}.|.^.                ",
"                1.X X X X X X 2.                ",
"                                                ",
"                                                "};
