/* XPM */
static char * add_comment_xpm[] = {
"24 24 59 1",
" 	c None",
".	c #000000",
"+	c #0D0D0D",
"@	c #FFFFFF",
"#	c #9F9F9F",
"$	c #0A0A0A",
"%	c #D5D5D5",
"&	c #222222",
"*	c #F5F5F5",
"=	c #595959",
"-	c #D4D4D4",
";	c #646464",
">	c #1C1C1C",
",	c #202020",
"'	c #C8C8C8",
")	c #7B7B7B",
"!	c #171717",
"~	c #ADADAD",
"{	c #686868",
"]	c #BFBFBF",
"^	c #3F3F3F",
"/	c #434343",
"(	c #525252",
"_	c #F1F1F1",
":	c #F0F0F0",
"<	c #E7E7E7",
"[	c #6D6D6D",
"}	c #141414",
"|	c #333333",
"1	c #E4E4E4",
"2	c #191919",
"3	c #BABABA",
"4	c #F7F7F7",
"5	c #B6B6B6",
"6	c #F9F9F9",
"7	c #ECECEC",
"8	c #AEAEAE",
"9	c #4A4A4A",
"0	c #353535",
"a	c #3C3C3C",
"b	c #7D7D7D",
"c	c #BCBCBC",
"d	c #EBEBEB",
"e	c #373737",
"f	c #606060",
"g	c #FBFBFB",
"h	c #FAFAFA",
"i	c #EEEEEE",
"j	c #ABABAB",
"k	c #080808",
"l	c #C6C6C6",
"m	c #4C4C4C",
"n	c #1B1B1B",
"o	c #1A1A1A",
"p	c #C0C0C0",
"q	c #FEFEFE",
"r	c #F2F2F2",
"s	c #FDFDFD",
"t	c #F6F6F6",
"                        ",
"                        ",
"                        ",
"                        ",
"...................+    ",
".@@@@@@@@@@@@@@@@@.#$   ",
".@@@@@@@@@@@@@@@@@.@%&+ ",
".@@@@@@@@@@@@@@@@@.@@*=$",
".@@@@@@@@@@@@@@@@@......",
".@@@@@@@@@@@@@@@@@@@@@@.",
".@@@@@@@@@@@@@@@@@@@@@@.",
".@@@@@@@@@@@@@@@@@@@@@@.",
".@@@@@@@@@@@@@@@@@@@@@@.",
".@-;>,')!~@{!]!!!!^@@@@.",
".@/(_:<[}|12.345.16@@@@.",
".7.8@@@[90ab.3@c.d@@@@@.",
".@efghi[9jk<.3@c.d@@@@@.",
".@lmnop[9qrs.3@c.d@@@@@.",
".@@@tg@@@@@@@@@@@@@@@@@.",
".@@@@@@@@@@@@@@@@@@@@@@.",
"........................",
"                        ",
"                        ",
"                        "};
