/* XPM */
static char * add_connection_xpm[] = {
"24 24 68 1",
" 	c None",
".	c #000000",
"+	c #010101",
"@	c #020202",
"#	c #030303",
"$	c #040404",
"%	c #050505",
"&	c #060606",
"*	c #070707",
"=	c #161616",
"-	c #C7C7C7",
";	c #FFFFFF",
">	c #BCBCBC",
",	c #151515",
"'	c #C3C3C3",
")	c #B9B9B9",
"!	c #CACACA",
"~	c #BABABA",
"{	c #B6B6B6",
"]	c #171717",
"^	c #CCCCCC",
"/	c #B8B8B8",
"(	c #B2B2B2",
"_	c #CFCFCF",
":	c #DBDBDB",
"<	c #7C7C7C",
"[	c #353535",
"}	c #5B5B5B",
"|	c #181818",
"1	c #CDCDCD",
"2	c #AFAFAF",
"3	c #D1D1D1",
"4	c #595959",
"5	c #D5D5D5",
"6	c #B1B1B1",
"7	c #B4B4B4",
"8	c #191919",
"9	c #7F7F7F",
"0	c #1D1D1D",
"a	c #F9F9F9",
"b	c #DADADA",
"c	c #D2D2D2",
"d	c #878787",
"e	c #C2C2C2",
"f	c #141414",
"g	c #F6F6F6",
"h	c #0E0E0E",
"i	c #B0B0B0",
"j	c #FEFEFE",
"k	c #C1C1C1",
"l	c #828282",
"m	c #545454",
"n	c #2F2F2F",
"o	c #C6C6C6",
"p	c #BFBFBF",
"q	c #C0C0C0",
"r	c #F2F2F2",
"s	c #B5B5B5",
"t	c #D9D9D9",
"u	c #C5C5C5",
"v	c #BBBBBB",
"w	c #C4C4C4",
"x	c #FDFDFD",
"y	c #FCFCFC",
"z	c #FBFBFB",
"A	c #FAFAFA",
"B	c #BDBDBD",
"C	c #F8F8F8",
"                        ",
"                        ",
"                        ",
"                        ",
"                        ",
"...+++@@###$$%#$&&**.   ",
".=-;;;;;;;;;;;>,';;;.   ",
".)=!;;;;;;;;;;;~,-;;.   ",
".;{]^;;;;;;;;;;;/=!;.   ",
".;;(]_;;;:<[};;;;{|1.   ",
".;;;2|3;;[456;;;;;78.   ",
".;;;;90ab.c;;;;;;;;d....",
".;;;ef/;ghi;j;;;;;-8.   ",
".;;kf);;;lfmn;;;;o8p.   ",
".;qf~;;;;;rst;;;u8q;.   ",
".pfv;;;;;;;;;;;w8k;;.   ",
".f>jjjxxyyyzzAp|BaCC.   ",
"...++@@@###$$%#$&&***   ",
"                        ",
"                        ",
"                        ",
"                        ",
"                        ",
"                        "};
