/* XPM */
static char * add_variable_xpm[] = {
"24 24 80 1",
" 	c None",
".	c #070707",
"+	c #060606",
"@	c #050505",
"#	c #040404",
"$	c #030303",
"%	c #020202",
"&	c #010101",
"*	c #000000",
"=	c #F8F8F8",
"-	c #F9F9F9",
";	c #FAFAFA",
">	c #FBFBFB",
",	c #FCFCFC",
"'	c #FDFDFD",
")	c #FEFEFE",
"!	c #FFFFFF",
"~	c #878787",
"{	c #7D7D7D",
"]	c #4E4E4E",
"^	c #BDBDBD",
"/	c #717171",
"(	c #404040",
"_	c #ECECEC",
":	c #999999",
"<	c #3F3F3F",
"[	c #484848",
"}	c #7C7C7C",
"|	c #B2B2B2",
"1	c #0C0C0C",
"2	c #F5F5F5",
"3	c #BFBFBF",
"4	c #080808",
"5	c #F0F0F0",
"6	c #EAEAEA",
"7	c #1E1E1E",
"8	c #949494",
"9	c #777777",
"0	c #2D2D2D",
"a	c #BCBCBC",
"b	c #151515",
"c	c #A6A6A6",
"d	c #626262",
"e	c #585858",
"f	c #919191",
"g	c #323232",
"h	c #8E8E8E",
"i	c #353535",
"j	c #1A1A1A",
"k	c #646464",
"l	c #2A2A2A",
"m	c #E9E9E9",
"n	c #6E6E6E",
"o	c #424242",
"p	c #0E0E0E",
"q	c #B6B6B6",
"r	c #333333",
"s	c #525252",
"t	c #D7D7D7",
"u	c #252525",
"v	c #767676",
"w	c #101010",
"x	c #DDDDDD",
"y	c #CDCDCD",
"z	c #181818",
"A	c #D4D4D4",
"B	c #9C9C9C",
"C	c #A7A7A7",
"D	c #363636",
"E	c #787878",
"F	c #383838",
"G	c #5C5C5C",
"H	c #C2C2C2",
"I	c #E6E6E6",
"J	c #C5C5C5",
"K	c #DEDEDE",
"L	c #CFCFCF",
"M	c #CECECE",
"N	c #E3E3E3",
"O	c #C3C3C3",
"                        ",
"                        ",
"                        ",
"                        ",
"                        ",
"...++@@@###$$%%%&&***   ",
"*==---;;>>>,,'')))!!*   ",
"*!!!!!!!!!!!!!!!!!!!*   ",
"*!!!!!!!!!!!!!!!!!!!*   ",
"*!~{!)]^!/(_!:<[}'!!*   ",
"*!|123456@78!903$a!!*   ",
"*!>bcde!fghi!9jklm!!****",
"*!!nopq!r0s*t9uvwx!!*   ",
"*!!y*z,A*BCDE9F!<G!!*   ",
"*!!!HA!IJ!!KLxM!NO!!*   ",
"*!!!!!!!!!!!!!!!!!!!*   ",
"*!!!!!!!!!!!!!!!!!!!*   ",
"*..+++@@###$$%%&&&***   ",
"                        ",
"                        ",
"                        ",
"                        ",
"                        ",
"                        "};
