/* XPM */
static char * add_block_xpm[] = {
"24 24 24 1",
" 	c None",
".	c #000000",
"+	c #FFFFFF",
"@	c #A7A7A7",
"#	c #070707",
"$	c #D1D1D1",
"%	c #727272",
"&	c #1F1F1F",
"*	c #393939",
"=	c #EAEAEA",
"-	c #E7E7E7",
";	c #FEFEFE",
">	c #E2E2E2",
",	c #A5A5A5",
"'	c #F1F1F1",
")	c #0B0B0B",
"!	c #282828",
"~	c #0C0C0C",
"{	c #3D3D3D",
"]	c #3A3A3A",
"^	c #737373",
"/	c #1C1C1C",
"(	c #323232",
"_	c #CFCFCF",
"                        ",
"   ..................   ",
"   .++++++++++++++++.   ",
"   .+++@.##$%#&*=+++.   ",
"   .+++@#--;%*>#,+++.   ",
"   .+++@.&&'%)!~$+++.   ",
"   .+++@#+++%{+]^+++.   ",
"   .+++@#+++%#/(_+++.   ",
"....++++++++++++++++....",
"   .++++++++++++++++.   ",
"   .++++++++++++++++.   ",
"   .++++++++++++++++.   ",
"   .++++++++++++++++.   ",
"   .++++++++++++++++.   ",
"....++++++++++++++++....",
"   .++++++++++++++++.   ",
"   .++++++++++++++++.   ",
"   .++++++++++++++++.   ",
"   .++++++++++++++++.   ",
"   .++++++++++++++++.   ",
"....++++++++++++++++.   ",
"   .++++++++++++++++.   ",
"   .++++++++++++++++.   ",
"   ..................   "};
