/* XPM */
static char * compiler_xpm[] = {
"24 24 253 2",
"  	c None",
". 	c #B8BABF",
"+ 	c #D7D9DD",
"@ 	c #B4B7BB",
"# 	c #B6B9BC",
"$ 	c #909396",
"% 	c #E1E4E9",
"& 	c #DFE2E6",
"* 	c #B9BCC0",
"= 	c #B0B3B7",
"- 	c #E9EBEF",
"; 	c #E8EAED",
"> 	c #A5A7AB",
", 	c #C2C7CE",
"' 	c #ABAFB5",
") 	c #8A8D91",
"! 	c #B8BCC2",
"~ 	c #D5D9E0",
"{ 	c #D7DBE1",
"] 	c #D8DCE2",
"^ 	c #DADEE3",
"/ 	c #DBDFE4",
"( 	c #DDE1E6",
"_ 	c #BEC1C7",
": 	c #8B8E93",
"< 	c #C2C8D2",
"[ 	c #C4CAD4",
"} 	c #C5CBD5",
"| 	c #C7CDD6",
"1 	c #C7CCD6",
"2 	c #9DA0A7",
"3 	c #898B93",
"4 	c #848890",
"5 	c #9599A0",
"6 	c #B1B5BC",
"7 	c #D1D6DD",
"8 	c #C4C8CF",
"9 	c #A1A5AA",
"0 	c #BABDC3",
"a 	c #636363",
"b 	c #7D7F83",
"c 	c #BCC3CE",
"d 	c #BAC1CD",
"e 	c #B0B7C1",
"f 	c #7A7F87",
"g 	c #737683",
"h 	c #757885",
"i 	c #777A88",
"j 	c #797D8A",
"k 	c #7C7F8D",
"l 	c #828590",
"m 	c #AAB0B7",
"n 	c #C6CBD3",
"o 	c #C8CDD5",
"p 	c #B3B8BF",
"q 	c #737577",
"r 	c #BAC1CC",
"s 	c #B8C0CB",
"t 	c #9297A1",
"u 	c #747884",
"v 	c #757884",
"w 	c #7A7D8B",
"x 	c #7E8290",
"y 	c #808492",
"z 	c #838695",
"A 	c #999FA7",
"B 	c #B8BEC8",
"C 	c #8F949B",
"D 	c #737578",
"E 	c #92969C",
"F 	c #B8BFCB",
"G 	c #B7BEC9",
"H 	c #858994",
"I 	c #7C808E",
"J 	c #858998",
"K 	c #888C9C",
"L 	c #939AA3",
"M 	c #A5ADB8",
"N 	c #ADB3BC",
"O 	c #B9C0CC",
"P 	c #B8BFCA",
"Q 	c #B6BDC9",
"R 	c #B5BCC8",
"S 	c #8B929A",
"T 	c #747784",
"U 	c #888B9B",
"V 	c #8A8E9E",
"W 	c #9094A2",
"X 	c #A2AAB7",
"Y 	c #939BA6",
"Z 	c #747A83",
"` 	c #A3A8B0",
" .	c #B7BFCA",
"..	c #B4BCC7",
"+.	c #B3BAC6",
"@.	c #9EA4AD",
"#.	c #757987",
"$.	c #8D90A1",
"%.	c #8F92A3",
"&.	c #979DA9",
"*.	c #9FA7B4",
"=.	c #9DA6B3",
"-.	c #7A808B",
";.	c #5E5E5E",
">.	c #7F8285",
",.	c #90959B",
"'.	c #989DA5",
").	c #B2BAC6",
"!.	c #B1B8C4",
"~.	c #ADB4C0",
"{.	c #898C9D",
"].	c #9195A6",
"^.	c #959AA7",
"/.	c #9DA5B3",
"(.	c #949BA7",
"_.	c #666B74",
":.	c #666666",
"<.	c #5F5F5F",
"[.	c #A0A6AE",
"}.	c #B0B7C3",
"|.	c #A7AFBA",
"1.	c #9498A9",
"2.	c #959BA8",
"3.	c #9BA3B1",
"4.	c #89909C",
"5.	c #1E1F20",
"6.	c #616161",
"7.	c #76787B",
"8.	c #BBC2CC",
"9.	c #B8BEC9",
"0.	c #B5BCC6",
"a.	c #ADB3BE",
"b.	c #959AAB",
"c.	c #979EAB",
"d.	c #99A2AF",
"e.	c #9098A5",
"f.	c #575757",
"g.	c #7F8085",
"h.	c #C2C8D1",
"i.	c #C1C6CF",
"j.	c #BDC3CC",
"k.	c #BBC1CB",
"l.	c #B4B9C3",
"m.	c #9AA2B0",
"n.	c #97A0AE",
"o.	c #969EAC",
"p.	c #878F9C",
"q.	c #8F9296",
"r.	c #CDD1D9",
"s.	c #CCD1D8",
"t.	c #C9CED6",
"u.	c #C6CBD4",
"v.	c #C3C9D1",
"w.	c #C0C5CE",
"x.	c #BEC3CD",
"y.	c #B5BBC3",
"z.	c #B0B5BF",
"A.	c #B3B9C4",
"B.	c #ACB1BB",
"C.	c #AAB1BC",
"D.	c #A7AFBB",
"E.	c #A4ABB7",
"F.	c #A0A8B4",
"G.	c #9CA4B2",
"H.	c #98A0AE",
"I.	c #737984",
"J.	c #797A7C",
"K.	c #D2D6DB",
"L.	c #D5D9DF",
"M.	c #D3D7DD",
"N.	c #C9CED4",
"O.	c #CDD1D8",
"P.	c #CACED5",
"Q.	c #C7CBD3",
"R.	c #C3C8D1",
"S.	c #BDC2CB",
"T.	c #BABFC9",
"U.	c #B6BCC6",
"V.	c #B3B9C3",
"W.	c #AFB6C0",
"X.	c #A5ABB6",
"Y.	c #414347",
"Z.	c #646970",
"`.	c #676D74",
" +	c #828286",
".+	c #DBDEE2",
"++	c #AAACB2",
"@+	c #545555",
"#+	c #87898D",
"$+	c #CACDD4",
"%+	c #D1D5DB",
"&+	c #CED2D9",
"*+	c #CBCFD6",
"=+	c #C7CCD3",
"-+	c #C4C9D1",
";+	c #C1C6CE",
">+	c #BEC3CB",
",+	c #BAC0C9",
"'+	c #686A70",
")+	c #252627",
"!+	c #212224",
"~+	c #5B5B5C",
"{+	c #666768",
"]+	c #545455",
"^+	c #505151",
"/+	c #4D4D4E",
"(+	c #535455",
"_+	c #D3D6DB",
":+	c #D9DCE1",
"<+	c #D6D9DF",
"[+	c #D0D4DA",
"}+	c #CDD1D7",
"|+	c #C6CBD2",
"1+	c #94989F",
"2+	c #1A1B1D",
"3+	c #545454",
"4+	c #474848",
"5+	c #494A4A",
"6+	c #D9DBDF",
"7+	c #E4E7EA",
"8+	c #E2E4E8",
"9+	c #989BA0",
"0+	c #4A4C4E",
"a+	c #3D3F40",
"b+	c #B2B6BC",
"c+	c #CED2D8",
"d+	c #5B5E63",
"e+	c #E2E4E7",
"f+	c #F0F1F3",
"g+	c #EEEFF1",
"h+	c #797A7E",
"i+	c #373839",
"j+	c #333435",
"k+	c #494A4D",
"l+	c #D7DADF",
"m+	c #AFB2B8",
"n+	c #525458",
"o+	c #7D7F82",
"p+	c #A9AAAE",
"q+	c #C8CBCE",
"r+	c #646568",
"s+	c #2C2D2E",
"t+	c #303032",
"u+	c #3C3D3F",
"v+	c #242527",
"w+	c #454647",
"x+	c #424243",
"y+	c #393A3B",
"z+	c #2F3031",
"A+	c #272829",
"B+	c #3E3F3F",
"C+	c #404142",
"D+	c #3F3F40",
"              . + @     #                       ",
"              $ % & * = - ; >                   ",
"        , ' ) ! ~ { ] ^ / ( _                   ",
"      : < [ } | 1 2 3 4 5 6 7 8 9 0             ",
"      a b c d e f g h i j k l m n o p           ",
"      a q r s t g u v w k x y z A B C           ",
"      D E F G H           I z J K L M           ",
"    N O P Q R S             T U V W X Y Z       ",
"    `  .Q ..+.@.              #.$.%.&.*.=.-.    ",
"  ;.>.,.'.).!.~.                {.].^./.(._.    ",
"    :.a <.[.+.}.|.                1.2.3.4.5.    ",
"    6.6.<.7.8.9.0.a.              b.c.d.e.      ",
"        f.g.h.i.j.k.l.            c.m.n.o.p.    ",
"        q.r.s.t.u.v.w.x.y.z.A.B.C.D.E.F.G.H.I.  ",
"        J.K.L.M.N.O.P.Q.R.w.S.T.U.V.W.X.Y.Z.`.  ",
"        <. +.+++@+#+$+%+&+*+=+-+;+>+,+'+)+!+    ",
"        ;.~+{+]+^+/+(+_+:+<+M.[+}+P.|+1+)+2+    ",
"          ~+3+  4+/+5+6+7+8+9+0+a+b+K.c+d+      ",
"                    5+e+f+g+h+i+j+k+l+m+n+      ",
"                    5+o+p+q+r+s+j+t+u+v+        ",
"                    5+w+x+y+    z+t+A+          ",
"                    B+C+D+                      ",
"                                                ",
"                                                "};
