/* XPM */
static char * cur_move_xpm[] = {
"32 32 153 2",
"  	c None",
". 	c #272727",
"+ 	c #4E4E4E",
"@ 	c #616161",
"# 	c #444444",
"$ 	c #292929",
"% 	c #1B1B1B",
"& 	c #535353",
"* 	c #A2A2A2",
"= 	c #CCCCCC",
"- 	c #909090",
"; 	c #515151",
"> 	c #000000",
", 	c #2C2C2C",
"' 	c #2B2B2B",
") 	c #262626",
"! 	c #9D9D9D",
"~ 	c #DADADA",
"{ 	c #F2F2F2",
"] 	c #D4D4D4",
"^ 	c #878787",
"/ 	c #050505",
"( 	c #333333",
"_ 	c #1D1D1D",
": 	c #383838",
"< 	c #6A6A6A",
"[ 	c #9B9B9B",
"} 	c #A0A0A0",
"| 	c #747474",
"1 	c #BCBCBC",
"2 	c #F3F3F3",
"3 	c #FEFEFE",
"4 	c #F5F5F5",
"5 	c #9F9F9F",
"6 	c #373737",
"7 	c #7A7A7A",
"8 	c #A6A6A6",
"9 	c #949494",
"0 	c #696969",
"a 	c #1F1F1F",
"b 	c #545454",
"c 	c #AFAFAF",
"d 	c #E7E7E7",
"e 	c #EEEEEE",
"f 	c #BFBFBF",
"g 	c #626262",
"h 	c #F7F7F7",
"i 	c #FFFFFF",
"j 	c #FBFBFB",
"k 	c #A3A3A3",
"l 	c #6E6E6E",
"m 	c #C3C3C3",
"n 	c #F1F1F1",
"o 	c #E2E2E2",
"p 	c #A5A5A5",
"q 	c #2E2E2E",
"r 	c #DBDBDB",
"s 	c #FAFAFA",
"t 	c #E5E5E5",
"u 	c #FCFCFC",
"v 	c #C7C7C7",
"w 	c #353535",
"x 	c #6D6D6D",
"y 	c #EDEDED",
"z 	c #787878",
"A 	c #979797",
"B 	c #EFEFEF",
"C 	c #FDFDFD",
"D 	c #CFCFCF",
"E 	c #343434",
"F 	c #ECECEC",
"G 	c #969696",
"H 	c #393939",
"I 	c #454545",
"J 	c #8A8A8A",
"K 	c #8D8D8D",
"L 	c #595959",
"M 	c #2F2F2F",
"N 	c #CECECE",
"O 	c #4D4D4D",
"P 	c #898989",
"Q 	c #D9D9D9",
"R 	c #DEDEDE",
"S 	c #9E9E9E",
"T 	c #4C4C4C",
"U 	c #CDCDCD",
"V 	c #CBCBCB",
"W 	c #F9F9F9",
"X 	c #6C6C6C",
"Y 	c #727272",
"Z 	c #DCDCDC",
"` 	c #EAEAEA",
" .	c #707070",
"..	c #555555",
"+.	c #848484",
"@.	c #6F6F6F",
"#.	c #757575",
"$.	c #BEBEBE",
"%.	c #737373",
"&.	c #717171",
"*.	c #494949",
"=.	c #F8F8F8",
"-.	c #B3B3B3",
";.	c #AAAAAA",
">.	c #DDDDDD",
",.	c #646464",
"'.	c #D1D1D1",
").	c #767676",
"!.	c #F6F6F6",
"~.	c #E6E6E6",
"{.	c #EBEBEB",
"].	c #E9E9E9",
"^.	c #DFDFDF",
"/.	c #D3D3D3",
"(.	c #E4E4E4",
"_.	c #797979",
":.	c #656565",
"<.	c #A9A9A9",
"[.	c #B6B6B6",
"}.	c #F0F0F0",
"|.	c #BABABA",
"1.	c #5B5B5B",
"2.	c #464646",
"3.	c #4F4F4F",
"4.	c #252525",
"5.	c #5A5A5A",
"6.	c #808080",
"7.	c #404040",
"8.	c #888888",
"9.	c #C1C1C1",
"0.	c #D7D7D7",
"a.	c #F4F4F4",
"b.	c #D5D5D5",
"c.	c #B9B9B9",
"d.	c #8C8C8C",
"e.	c #323232",
"f.	c #202020",
"g.	c #363636",
"h.	c #484848",
"i.	c #919191",
"j.	c #A4A4A4",
"k.	c #B4B4B4",
"l.	c #C2C2C2",
"m.	c #B0B0B0",
"n.	c #666666",
"o.	c #282828",
"p.	c #585858",
"q.	c #5E5E5E",
"r.	c #686868",
"s.	c #636363",
"t.	c #5D5D5D",
"u.	c #575757",
"v.	c #505050",
"                                                                ",
"                                                                ",
"                                                                ",
"                          . + @ # $                             ",
"                        % & * = - ;                             ",
"                > , ' > ) ! ~ { ] ^ > / ( _ >                   ",
"              : < [ } | # 1 2 3 4 5 6 7 8 9 0 a                 ",
"              b c d e f g f h i j k l m n o p q                 ",
"              0 r s 3 t | f h i j * - d u u v w                 ",
"              x t 3 i y z f h i j * A B C i D E > > > >         ",
"              x t 3 i F z f h i j * G e C i D H I J K L M       ",
"              x t 3 i F z f h i j * G e C i N O P Q R S T       ",
"              x t 3 i F z f h i j * G e C i U < V 2 W ~ 0       ",
"          > > X t 3 i F z f h i j * G e C i U Y Z s i `  .      ",
"      q ..+.| @.t 3 i F #.$.h i j } 9 e C i U %.R j i F &.      ",
"      *.A ] 1 | t 3 i e K v =.i u -.;.n C i U Y >.j i F &.      ",
"      ,.'.4 V ).t 3 i !.D ~.C i 3 {.].j i i N 7 ^.j i F &.      ",
"      X o i U ).t 3 i C 2 W i i i u u i i i F /.{ 3 i F &.      ",
"      x t i U ).t 3 i i i i i i i i i i i i 3 u i i i `  .      ",
"      x t i U #.t 3 i i i i i i i i i i i i i i i i 3 t x       ",
"      x (.i N _.t 3 i i i i i i i i i i i i i i i i j >.0       ",
"      :.] =.Z <.y i i i i i i i i i i i i i i i i i 4 D ,.      ",
"      L [.F }.Z =.i i i i i i i i i i i i i i i i i F |.1.      ",
"      2.K >.i C i i i i i i i i i i i i i i i i i i o ! 3.      ",
"      4.5.= s C i i i i i i i i i i i i i i i i i i Q 6.7.      ",
"        q 8.|.Z h i i i i i i i i i i i i i i i i n $.5.$       ",
"          > g ! 9.D 0.^.t ` }.4 j W a.e ].(.>.b.D c.d.e.        ",
"            f.q g.h.@.i.j.k.l.'.>.~ N f m.* J n.I ( o.          ",
"                    w *.; p.q.,.0 r.s.t.u.v.I M                 ",
"                                                                ",
"                                                                ",
"                                                                "};
