/* XPM */
static char * cursor_xpm[] = {
"24 24 146 2",
"  	c None",
". 	c #464749",
"+ 	c #515253",
"@ 	c #363738",
"# 	c #D7D9DA",
"$ 	c #303132",
"% 	c #F8F8F9",
"& 	c #DBDCDD",
"* 	c #919394",
"= 	c #313334",
"- 	c #E6E7E8",
"; 	c #D8DADA",
"> 	c #DADBDB",
", 	c #98999C",
"' 	c #313134",
") 	c #E8E9EA",
"! 	c #B9BBBC",
"~ 	c #CACCCD",
"{ 	c #E0E1E3",
"] 	c #949798",
"^ 	c #2F3032",
"/ 	c #E5E8E8",
"( 	c #C3C5C5",
"_ 	c #B9BBBD",
": 	c #C7C9C9",
"< 	c #D8DAD9",
"[ 	c #BCBEC0",
"} 	c #2F3031",
"| 	c #E4E6E7",
"1 	c #C5C6C8",
"2 	c #C3C5C6",
"3 	c #C0C2C3",
"4 	c #C7C8CA",
"5 	c #CECFD1",
"6 	c #B6B8BA",
"7 	c #2E2F30",
"8 	c #E3E3E5",
"9 	c #C7C8CB",
"0 	c #C7C7CA",
"a 	c #C4C5C8",
"b 	c #C5C7C9",
"c 	c #D2D3D4",
"d 	c #B8B9BC",
"e 	c #737476",
"f 	c #2D2E2F",
"g 	c #CBCDCE",
"h 	c #C8C9CB",
"i 	c #C9CACC",
"j 	c #C8CACB",
"k 	c #C7C9CA",
"l 	c #D1D2D3",
"m 	c #BEC0C2",
"n 	c #727476",
"o 	c #2C2D2E",
"p 	c #DFE0E2",
"q 	c #CECFD0",
"r 	c #CACBCD",
"s 	c #CBCCCE",
"t 	c #D1D2D4",
"u 	c #C0C1C3",
"v 	c #8F9092",
"w 	c #2B2D2D",
"x 	c #DDDFDF",
"y 	c #D0D2D3",
"z 	c #CDCFD0",
"A 	c #CED0D1",
"B 	c #D0D1D3",
"C 	c #D3D4D6",
"D 	c #BFC0C1",
"E 	c #9B9DA0",
"F 	c #2A2B2D",
"G 	c #DBDCDE",
"H 	c #CFD1D2",
"I 	c #D1D2D5",
"J 	c #D2D3D5",
"K 	c #D9DBDC",
"L 	c #DBDDDF",
"M 	c #E2E4E6",
"N 	c #CFD0D2",
"O 	c #A9AAAD",
"P 	c #292A2B",
"Q 	c #DADBDD",
"R 	c #D7D7D9",
"S 	c #D2D2D4",
"T 	c #D9D9DB",
"U 	c #D8D8DA",
"V 	c #CBCDCF",
"W 	c #898A8D",
"X 	c #747577",
"Y 	c #6A6A6D",
"Z 	c #6D6D70",
"` 	c #727275",
" .	c #5C5D5F",
"..	c #28292A",
"+.	c #D8D9DA",
"@.	c #D9D9DA",
"#.	c #DCDCDE",
"$.	c #BEC1C2",
"%.	c #DCDCDD",
"&.	c #DBDBDC",
"*.	c #B3B5B7",
"=.	c #272829",
"-.	c #D4D5D7",
";.	c #E2E2E4",
">.	c #D5D6D8",
",.	c #838587",
"'.	c #8C8E90",
").	c #DDDDDF",
"!.	c #D3D3D4",
"~.	c #88898C",
"{.	c #262729",
"].	c #D9DADC",
"^.	c #DEDFE0",
"/.	c #96989B",
"(.	c #48484A",
"_.	c #BBBDBF",
":.	c #DFDEE0",
"<.	c #B7B8BB",
"[.	c #A1A3A5",
"}.	c #858689",
"|.	c #E5E5E6",
"1.	c #919295",
"2.	c #313233",
"3.	c #A4A6AA",
"4.	c #515254",
"5.	c #3D3E3F",
"6.	c #B2B3B6",
"7.	c #DEDEE0",
"8.	c #E4E5E7",
"9.	c #BABBBE",
"0.	c #606164",
"a.	c #656769",
"b.	c #787A7B",
"c.	c #CCCDCF",
"d.	c #EAEAEB",
"e.	c #DADBDC",
"f.	c #9E9FA0",
"g.	c #A1A2A5",
"h.	c #E5E6E7",
"i.	c #E0E1E2",
"j.	c #B7B8BA",
"k.	c #6C6D70",
"l.	c #C8C8CA",
"m.	c #5B5C5E",
"n.	c #9D9EA1",
"o.	c #606162",
"        . +                                     ",
"        @ #                                     ",
"        $ % & *                                 ",
"        = - ; > ,                               ",
"        ' ) ! ~ { ]                             ",
"        ^ / ( _ : < [                           ",
"        } | 1 2 3 4 5 6                         ",
"        7 8 9 1 0 a b c d e                     ",
"        f { g h i i j k l m n                   ",
"        o p q r s s s s ~ t u v                 ",
"        w x y z A A 5 A B z C D E               ",
"        F G C B H B I y J K L M N O             ",
"        P Q R S T U R V W X Y Y Z `  .          ",
"        ..+.@.#.h $.%.&.*.                      ",
"        =.-.;.>.,.'.-.).!.~.                    ",
"        {.].^./.  (._.:.).<.                    ",
"        =.V [.      }.5 |.c 1.                  ",
"        2.3.4.      5.6.7.8.9.0.                ",
"          a.          b.c.d.e.f.                ",
"                        g.h.i.j.5.              ",
"                        k.l.9.m.                ",
"                          n.o.                  ",
"                                                ",
"                                                "};
