/* XPM */
static char * del_xpm[] = {
"24 24 34 1",
" 	c None",
".	c #A73839",
"+	c #A53738",
"@	c #A93A3A",
"#	c #AD4141",
"$	c #E7827B",
"%	c #E17A74",
"&	c #A73838",
"*	c #AD4040",
"=	c #E2756F",
"-	c #DA4C45",
";	c #DB524B",
">	c #DD726E",
",	c #AC4040",
"'	c #DF6C69",
")	c #D64541",
"!	c #D74B47",
"~	c #DA6B68",
"{	c #A73738",
"]	c #AB3E3F",
"^	c #DB6361",
"/	c #D33E3C",
"(	c #D44341",
"_	c #D76261",
":	c #AB3D3D",
"<	c #D75A5B",
"[	c #CF3738",
"}	c #D03C3D",
"|	c #D35A5B",
"1	c #A63738",
"2	c #AA3C3D",
"3	c #D45559",
"4	c #CF5155",
"5	c #A83637",
"                        ",
"                        ",
"                        ",
"                        ",
"                        ",
"                        ",
"                        ",
"                        ",
"  .++++++++++++++++++@  ",
"  #$$$$$$$$$$$$$$$$$%&  ",
"  *=---------------;>&  ",
"  ,')))))))))))))))!~{  ",
"  ]^///////////////(_{  ",
"  :<[[[[[[[[[[[[[[[}|1  ",
"  23333333333333333341  ",
"  1++++++++++++++++++5  ",
"                        ",
"                        ",
"                        ",
"                        ",
"                        ",
"                        ",
"                        ",
"                        "};
