/* XPM */
static char * dev_xpm[] = {
"24 24 339 2",
"  	c None",
". 	c #CDCBCD",
"+ 	c #AFADAE",
"@ 	c #868381",
"# 	c #5C5A56",
"$ 	c #413C3A",
"% 	c #B1B1AF",
"& 	c #A5A3A4",
"* 	c #8B8985",
"= 	c #807E7C",
"- 	c #524F4D",
"; 	c #34312E",
"> 	c #2A2D25",
", 	c #224528",
"' 	c #20552D",
") 	c #1C5A32",
"! 	c #7D867F",
"~ 	c #C7C5C7",
"{ 	c #48453F",
"] 	c #6F706E",
"^ 	c #D6D4D4",
"/ 	c #B8B9B3",
"( 	c #4F5E55",
"_ 	c #4B5B52",
": 	c #5A8F70",
"< 	c #7DB28E",
"[ 	c #A3BDB1",
"} 	c #C6CDCA",
"| 	c #E2E1E3",
"1 	c #EAE9EA",
"2 	c #4B484A",
"3 	c #717270",
"4 	c #C9C5C9",
"5 	c #CECCCA",
"6 	c #D2D3D1",
"7 	c #D6D7D6",
"8 	c #DEDADB",
"9 	c #D8D6D3",
"0 	c #C4C7C6",
"a 	c #A2B8AA",
"b 	c #7B9584",
"c 	c #BBB8BA",
"d 	c #E7E6E8",
"e 	c #4F504F",
"f 	c #534C4A",
"g 	c #717170",
"h 	c #C9CBC9",
"i 	c #BFBEBF",
"j 	c #C5C6C5",
"k 	c #989996",
"l 	c #535452",
"m 	c #28673E",
"n 	c #067441",
"o 	c #45785E",
"p 	c #7B877F",
"q 	c #C5C3C2",
"r 	c #000000",
"s 	c #A3A4A3",
"t 	c #A6A7A6",
"u 	c #A1A1A1",
"v 	c #C6C6C6",
"w 	c #524B49",
"x 	c #716F70",
"y 	c #C9CAC9",
"z 	c #C3C1C3",
"A 	c #CAC6CA",
"B 	c #ADABAC",
"C 	c #939392",
"D 	c #B6B3B1",
"E 	c #CBC6CC",
"F 	c #D8D6D6",
"G 	c #E2DDDB",
"H 	c #E3E2E3",
"I 	c #E8E6E8",
"J 	c #D4D5D4",
"K 	c #C8CAC8",
"L 	c #D1D3D1",
"M 	c #E5E4E5",
"N 	c #E5E6E5",
"O 	c #E7E7E7",
"P 	c #383531",
"Q 	c #71726F",
"R 	c #CACBC9",
"S 	c #C5C3C5",
"T 	c #CBC9CB",
"U 	c #D7D9D6",
"V 	c #E2E0DE",
"W 	c #DEDFDE",
"X 	c #DEE0DE",
"Y 	c #EBE9EB",
"Z 	c #E7E5E7",
"` 	c #E2E2E2",
" .	c #ECEAEC",
"..	c #E4E2E4",
"+.	c #A1A3A1",
"@.	c #ACAEAC",
"#.	c #989997",
"$.	c #7E7B77",
"%.	c #CBCACB",
"&.	c #B9B5BD",
"*.	c #CECDCB",
"=.	c #D6D6D6",
"-.	c #DADADA",
";.	c #DAD9DA",
">.	c #E6E5E6",
",.	c #E9E8E9",
"'.	c #E4E3E4",
").	c #777877",
"!.	c #C5C5C5",
"~.	c #D1CFD1",
"{.	c #D7D7D7",
"].	c #A6A2A1",
"^.	c #C9C5C6",
"/.	c #72698F",
"(.	c #85829F",
"_.	c #C5C6C6",
":.	c #E4E1E4",
"<.	c #E1DDE1",
"[.	c #DDDBDD",
"}.	c #DDD8DC",
"|.	c #DED8D7",
"1.	c #DED9D8",
"2.	c #DBDADB",
"3.	c #DADCDA",
"4.	c #D6D4D6",
"5.	c #E9E7E9",
"6.	c #E1DFE1",
"7.	c #B8B7B8",
"8.	c #CCCDD0",
"9.	c #D9D8DA",
"0.	c #D9D7D9",
"a.	c #D3D2D3",
"b.	c #A2A2A1",
"c.	c #C8C5C5",
"d.	c #675F8A",
"e.	c #210D68",
"f.	c #746D94",
"g.	c #CDCBCC",
"h.	c #D3CFD3",
"i.	c #D5D0CF",
"j.	c #D6D3D5",
"k.	c #D7D8D7",
"l.	c #CBCCCA",
"m.	c #D1CECD",
"n.	c #D5D3D5",
"o.	c #9A989A",
"p.	c #A19FA1",
"q.	c #BBBBBB",
"r.	c #CACACA",
"s.	c #CCCACC",
"t.	c #D0CED0",
"u.	c #CCCCCC",
"v.	c #A9A7A9",
"w.	c #CCC6C9",
"x.	c #A09BAC",
"y.	c #413276",
"z.	c #645E86",
"A.	c #CCCDCD",
"B.	c #D4D6D4",
"C.	c #BCBBBA",
"D.	c #C1C2C1",
"E.	c #B1B3B5",
"F.	c #969896",
"G.	c #848585",
"H.	c #858483",
"I.	c #A29FA0",
"J.	c #DAD8DA",
"K.	c #E0DEDC",
"L.	c #DFDFDF",
"M.	c #C6C5C6",
"N.	c #CCCECC",
"O.	c #D1D0D1",
"P.	c #B8B3B3",
"Q.	c #D9D9D6",
"R.	c #C8C9CA",
"S.	c #8A84A2",
"T.	c #CECECE",
"U.	c #D4D7D4",
"V.	c #CCCAC6",
"W.	c #7C7C78",
"X.	c #5F5F5E",
"Y.	c #6D6968",
"Z.	c #60504C",
"`.	c #7B4744",
" +	c #623F39",
".+	c #5D5856",
"++	c #D5D5D4",
"@+	c #D1D2CF",
"#+	c #D5D6D5",
"$+	c #C6C8C6",
"%+	c #D4D3D4",
"&+	c #DFDDDF",
"*+	c #D2D3D2",
"=+	c #898A89",
"-+	c #D3D2CF",
";+	c #E3E2DC",
">+	c #DFE2DF",
",+	c #D3D1D3",
"'+	c #E0DEE0",
")+	c #8D8E8C",
"!+	c #542525",
"~+	c #8C2826",
"{+	c #882A2C",
"]+	c #A52A2B",
"^+	c #AC2726",
"/+	c #692C2A",
"(+	c #63625F",
"_+	c #C9C8C9",
":+	c #D4D4D4",
"<+	c #7E7D7E",
"[+	c #C7C9C7",
"}+	c #D5D1D3",
"|+	c #D1CFD0",
"1+	c #CBCCCB",
"2+	c #AEACAC",
"3+	c #8C8989",
"4+	c #D0D2D1",
"5+	c #90928E",
"6+	c #7E2D2C",
"7+	c #A12925",
"8+	c #802A2C",
"9+	c #962A2A",
"0+	c #A22728",
"a+	c #6F3839",
"b+	c #6D6A6A",
"c+	c #828281",
"d+	c #C5C4C5",
"e+	c #BFBFBE",
"f+	c #CBCDCB",
"g+	c #969694",
"h+	c #C2C0C1",
"i+	c #D3D4D3",
"j+	c #DCDEDC",
"k+	c #8C8D8A",
"l+	c #75332E",
"m+	c #7F3132",
"n+	c #5D302D",
"o+	c #593336",
"p+	c #5C4F39",
"q+	c #4C4F3A",
"r+	c #706E6B",
"s+	c #B8B9B8",
"t+	c #C7C7C7",
"u+	c #8D8A88",
"v+	c #8B8989",
"w+	c #534040",
"x+	c #544646",
"y+	c #383734",
"z+	c #413635",
"A+	c #4E4A3D",
"B+	c #505545",
"C+	c #73706D",
"D+	c #AFB1AF",
"E+	c #AAAAAA",
"F+	c #5E5D5E",
"G+	c #747270",
"H+	c #777570",
"I+	c #8C8985",
"J+	c #685651",
"K+	c #685957",
"L+	c #575855",
"M+	c #4A4A49",
"N+	c #4B474B",
"O+	c #494243",
"P+	c #777573",
"Q+	c #787571",
"R+	c #DADDDA",
"S+	c #D4D4D3",
"T+	c #DBDEE0",
"U+	c #878684",
"V+	c #474E56",
"W+	c #427DA6",
"X+	c #3E617D",
"Y+	c #4B433E",
"Z+	c #484042",
"`+	c #3E3735",
" @	c #7B797A",
".@	c #958F8D",
"+@	c #787271",
"@@	c #DEDDDE",
"#@	c #858583",
"$@	c #374B5D",
"%@	c #5399C8",
"&@	c #43667F",
"*@	c #46515F",
"=@	c #415A6F",
"-@	c #4E4947",
";@	c #837E7C",
">@	c #96928E",
",@	c #787371",
"'@	c #D0CFD0",
")@	c #D0D1D0",
"!@	c #DBDEDB",
"~@	c #DBDDDB",
"{@	c #DDDCDD",
"]@	c #848483",
"^@	c #3A4956",
"/@	c #498AB7",
"(@	c #3B6883",
"_@	c #3C75A0",
":@	c #2C72A1",
"<@	c #403E3C",
"[@	c #888481",
"}@	c #908E89",
"|@	c #73706C",
"1@	c #CFCECF",
"2@	c #C8C9C8",
"3@	c #DBDCDB",
"4@	c #848283",
"5@	c #344553",
"6@	c #3D7CA4",
"7@	c #3B5566",
"8@	c #4F5D6A",
"9@	c #6E727A",
"0@	c #9C9A96",
"a@	c #C7C8C6",
"b@	c #8F8F8F",
"c@	c #CBC8CB",
"d@	c #C4C4C4",
"e@	c #CECFCE",
"f@	c #D9D9D9",
"g@	c #8E8A89",
"h@	c #72706F",
"i@	c #8D8C89",
"j@	c #B3AEAB",
"k@	c #D3D1D1",
"l@	c #CECECC",
"m@	c #CFCBCA",
"n@	c #B8B5B7",
"o@	c #817D7D",
"p@	c #B1AEB0",
"q@	c #BCBEBC",
"r@	c #D0D0D0",
"s@	c #DCDCDD",
"t@	c #C7CAD0",
"u@	c #E0DAD8",
"v@	c #BEBBBC",
"w@	c #B9BAB9",
"x@	c #D2D4D2",
"                . + @ # $ %                     ",
"        & * = - ; > , ' ) ! ~                   ",
"        { ] ^ / ( _ : < [ } | 1                 ",
"        2 3 4 5 6 7 8 9 0 a b c d             e ",
"        f g h i j k l m n o p q     r   s t u v ",
"        w x y z A B C D E F G H I J K L M N O   ",
"        P Q R S T U V W W X H N Y Z ` 1 1  .Z ..",
"+.r r @.#.$.%.&.*.=.X O ..........-.;.>.,.1 '...",
").!.~.;.{.].^./.(._.;.N :.<.[.}.|.1.2.3.4.5.6...",
"7.8.9.0.a.b.c.d.e.f.g.h.i.j.k.l.m.n.o.p.0.......",
"q.r.s.t.u.v.w.x.y.z.A.B.-.C.D.E.F.G.H.I.J.K.;.L.",
"M.N.O.r.-.4.P.Q.R.S.T.U.V.W.X.Y.Z.`. +.+++@+{.#+",
"$+%+&+~.0.*+=+-+;+>+,+'+)+!+~+{+]+^+/+(+  _+:+<+",
"[+}+|+%+1+2+3+4+X -.,+'+5+6+7+8+9+0+a+b+c+r r +.",
"d+e+f+%+L g+h+i+j+3.,+'+k+l+m+n+o+p+q+r+        ",
"s+'+N 6.t+u+s.:+j+3.,+'+v+w+x+y+z+A+B+C+        ",
"D+E+F+r G+H+~.:+j+3.a.'+I+J+K+L+M+N+O+P+        ",
"e         Q+~.:+j+R+S+T+U+V+W+X+Y+Z+`+ @        ",
"        .@+@~.:+j+R+:+@@#@$@%@&@*@=@-@;@        ",
"        >@,@'@)@!@~@%+{@]@^@/@(@_@:@<@[@        ",
"        }@|@1@2@J -.J 3@4@5@6@7@8@9@0@a@        ",
"          b@T c@d@|+e@f@g@h@i@j@k@              ",
"            l@m@n@o@p@q@v r@s@t@                ",
"              u@v@w@x@                          "};
