/* XPM */
static char * down_xpm[] = {
"24 24 186 2",
"  	c None",
". 	c #CB6C2F",
"+ 	c #CB6A30",
"@ 	c #CB6B30",
"# 	c #D78649",
"$ 	c #EBB676",
"% 	c #E7AC6D",
"& 	c #D1783D",
"* 	c #ECB876",
"= 	c #ECB36C",
"- 	c #EDB36E",
"; 	c #E39F60",
"> 	c #C9622D",
", 	c #CF7237",
"' 	c #EDB876",
") 	c #EAAA62",
"! 	c #E9AB63",
"~ 	c #E9AC6B",
"{ 	c #C9612B",
"] 	c #CF7037",
"^ 	c #ECB371",
"/ 	c #E9A65D",
"( 	c #E8A65F",
"_ 	c #E8A967",
": 	c #C85E2A",
"< 	c #CE6D35",
"[ 	c #EBAF6C",
"} 	c #E7A159",
"| 	c #E7A25A",
"1 	c #E7A463",
"2 	c #C75B28",
"3 	c #CD6933",
"4 	c #EAAA67",
"5 	c #E69D54",
"6 	c #E69D55",
"7 	c #E5A05E",
"8 	c #C65827",
"9 	c #CC6631",
"0 	c #E9A763",
"a 	c #E59850",
"b 	c #E59950",
"c 	c #E49B59",
"d 	c #C65526",
"e 	c #CB622F",
"f 	c #E7A35D",
"g 	c #E4944C",
"h 	c #E39755",
"i 	c #C55224",
"j 	c #CB602D",
"k 	c #E69D59",
"l 	c #E39047",
"m 	c #E39048",
"n 	c #E2924F",
"o 	c #C45023",
"p 	c #CA5D2B",
"q 	c #E59953",
"r 	c #E28B43",
"s 	c #E18B43",
"t 	c #E18E4B",
"u 	c #C44D22",
"v 	c #C55325",
"w 	c #C45223",
"x 	c #C9592A",
"y 	c #E4944E",
"z 	c #E1863F",
"A 	c #E28740",
"B 	c #E18948",
"C 	c #C34A20",
"D 	c #C34720",
"E 	c #C2461F",
"F 	c #C3441E",
"G 	c #C55225",
"H 	c #DA8147",
"I 	c #E59C5B",
"J 	c #DC8850",
"K 	c #C34D23",
"L 	c #C85628",
"M 	c #E5904A",
"N 	c #E2823C",
"O 	c #E3823D",
"P 	c #E28444",
"Q 	c #C2471F",
"R 	c #C44B21",
"S 	c #DD793E",
"T 	c #E48446",
"U 	c #CE592B",
"V 	c #C44F23",
"W 	c #E79E5D",
"X 	c #E3914C",
"Y 	c #EDB278",
"Z 	c #E49E67",
"` 	c #C85325",
" .	c #E58A46",
"..	c #E37D39",
"+.	c #E57E3A",
"@.	c #E27F3E",
"#.	c #C1441F",
"$.	c #C54921",
"%.	c #E27C40",
"&.	c #E77F3E",
"*.	c #E67B3A",
"=.	c #DE6F36",
"-.	c #C03D1B",
";.	c #C34E22",
">.	c #DC8348",
",.	c #E6924F",
"'.	c #E3853F",
").	c #EDAC72",
"!.	c #E69D67",
"~.	c #CA5529",
"{.	c #E68441",
"].	c #E47935",
"^.	c #E47734",
"/.	c #E37A3C",
"(.	c #C54920",
"_.	c #E37B3D",
":.	c #E87A3A",
"<.	c #E67131",
"[.	c #E87C3B",
"}.	c #CE5527",
"|.	c #C44B22",
"1.	c #DD8045",
"2.	c #E68D4A",
"3.	c #E47E3A",
"4.	c #ECA56B",
"5.	c #E6965F",
"6.	c #E67C3A",
"7.	c #E57432",
"8.	c #E57231",
"9.	c #E37335",
"0.	c #E47337",
"a.	c #E77737",
"b.	c #E76E2E",
"c.	c #E97738",
"d.	c #D15728",
"e.	c #BF3A19",
"f.	c #C1461E",
"g.	c #DA743D",
"h.	c #E88745",
"i.	c #E57634",
"j.	c #E67837",
"k.	c #E36E2F",
"l.	c #E6702F",
"m.	c #E66E2E",
"n.	c #E46B2D",
"o.	c #E76E2D",
"p.	c #E76C2C",
"q.	c #E87436",
"r.	c #CE5023",
"s.	c #BE3818",
"t.	c #C1421C",
"u.	c #D66734",
"v.	c #E8813F",
"w.	c #E67030",
"x.	c #E66C2D",
"y.	c #E3662A",
"z.	c #E5672A",
"A.	c #E76829",
"B.	c #E86A2B",
"C.	c #E76E32",
"D.	c #CB4920",
"E.	c #BE3517",
"F.	c #C03D1A",
"G.	c #D35B2B",
"H.	c #E9793A",
"I.	c #E76A2C",
"J.	c #E86628",
"K.	c #E86527",
"L.	c #E8672A",
"M.	c #E8692F",
"N.	c #C9421E",
"O.	c #BE3516",
"P.	c #BF3919",
"Q.	c #CF5024",
"R.	c #E96F32",
"S.	c #E86629",
"T.	c #E96628",
"U.	c #E5642A",
"V.	c #C63C1A",
"W.	c #BD3216",
"X.	c #CC451E",
"Y.	c #E35D28",
"Z.	c #E15A25",
"`.	c #C33919",
" +	c #BC3115",
".+	c #BC3014",
"                                                ",
"                      . +                       ",
"                  @ # $ % &                     ",
"                  + * = - ; >                   ",
"                  , ' ) ! ~ {                   ",
"                  ] ^ / ( _ :                   ",
"                  < [ } | 1 2                   ",
"                  3 4 5 6 7 8                   ",
"                  9 0 a b c d                   ",
"                  e f g g h i                   ",
"                  j k l m n o                   ",
"                  p q r s t u                   ",
"        v v w     x y z A B C     D E F         ",
"      G H I J K   L M N O P Q   R S T U         ",
"      V W X Y Z u `  ...+.@.#.$.%.&.*.=.-.      ",
"      ;.>.,.'.).!.~.{.].^./.(._.:.<.[.}.        ",
"        |.1.2.3.4.5.6.7.8.9.0.a.b.c.d.e.        ",
"          f.g.h.i.j.k.l.m.n.o.p.q.r.s.          ",
"            t.u.v.w.x.y.z.A.B.C.D.E.            ",
"              F.G.H.I.J.K.L.M.N.O.              ",
"                P.Q.R.S.T.U.V.W.                ",
"                  E.X.Y.Z.`.                    ",
"                       +.+                      ",
"                                                "};
