/* XPM */
static char * edit_button_xpm[] = {
"24 24 246 2",
"  	c None",
". 	c #74A6CE",
"+ 	c #91B6D5",
"@ 	c #8DB4D4",
"# 	c #8EB4D4",
"$ 	c #8CB3D3",
"% 	c #8CB3D4",
"& 	c #92B7D5",
"* 	c #9FCCF1",
"= 	c #FFFEFC",
"- 	c #FDFFFF",
"; 	c #FCFFFF",
"> 	c #FBFFFF",
", 	c #FFFFFF",
"' 	c #9BC8ED",
") 	c #002243",
"! 	c #D9EFFF",
"~ 	c #EAF8FF",
"{ 	c #D2EBFC",
"] 	c #D6EDFD",
"^ 	c #D6EEFD",
"/ 	c #D7EEFD",
"( 	c #E0F4FE",
"_ 	c #BFDDEF",
": 	c #B4D5EA",
"< 	c #D2EAF8",
"[ 	c #DDF2FE",
"} 	c #E8F6FE",
"| 	c #D5ECFE",
"1 	c #0C3253",
"2 	c #002343",
"3 	c #D7EFFF",
"4 	c #E6F6FF",
"5 	c #D9EFFE",
"6 	c #DCF1FF",
"7 	c #DCF0FF",
"8 	c #DBF0FE",
"9 	c #EFFEFF",
"0 	c #A6C9E3",
"a 	c #377CB5",
"b 	c #2871AE",
"c 	c #649CC8",
"d 	c #EAF9FF",
"e 	c #D1EAFE",
"f 	c #0C3353",
"g 	c #E5F6FF",
"h 	c #D7EEFE",
"i 	c #DAF0FF",
"j 	c #D9F0FF",
"k 	c #EDFDFF",
"l 	c #A3C8E3",
"m 	c #3C7FB7",
"n 	c #4485B9",
"o 	c #4F8DBF",
"p 	c #2C74B0",
"q 	c #8DB8D9",
"r 	c #CFE8FD",
"s 	c #D8EFFF",
"t 	c #E4F5FF",
"u 	c #D6EDFE",
"v 	c #D8EEFE",
"w 	c #ECFCFF",
"x 	c #A3C9E3",
"y 	c #4988BC",
"z 	c #4C8ABD",
"A 	c #2D74B0",
"B 	c #8CB8D9",
"C 	c #F9FFFF",
"D 	c #E3F5FF",
"E 	c #D5EDFE",
"F 	c #D7EEFF",
"G 	c #EAFCFF",
"H 	c #A2C9E3",
"I 	c #3C80B7",
"J 	c #4485B8",
"K 	c #4989BD",
"L 	c #4989BC",
"M 	c #397DB4",
"N 	c #639CC8",
"O 	c #CEE7F7",
"P 	c #E8F7FF",
"Q 	c #D3EBFE",
"R 	c #002443",
"S 	c #D7F0FF",
"T 	c #E1F4FF",
"U 	c #D3ECFE",
"V 	c #D6EEFF",
"W 	c #D5EEFF",
"X 	c #E8FBFF",
"Y 	c #A1C8E3",
"Z 	c #3D80B7",
"` 	c #4384B8",
" .	c #4888BC",
"..	c #4A89BC",
"+.	c #397DB5",
"@.	c #629BC8",
"#.	c #D7EEF9",
"$.	c #DEF4FF",
"%.	c #DFF3FF",
"&.	c #D3ECFF",
"*.	c #0C3453",
"=.	c #D5F0FF",
"-.	c #E0F3FF",
";.	c #D2EBFE",
">.	c #D5EDFF",
",.	c #D4ECFE",
"'.	c #E7FAFF",
").	c #A0C7E3",
"!.	c #4989BB",
"~.	c #619AC8",
"{.	c #D6EEFA",
"].	c #DEF3FF",
"^.	c #CFE9FD",
"/.	c #E1F3FF",
"(.	c #D1ECFF",
"_.	c #D3F0FF",
":.	c #D0EBFE",
"<.	c #D4EDFF",
"[.	c #E5F9FF",
"}.	c #4385B8",
"|.	c #3A7DB4",
"1.	c #629AC8",
"2.	c #D4EDF8",
"3.	c #DDF3FF",
"4.	c #D1EBFE",
"5.	c #CFECFF",
"6.	c #0D3453",
"7.	c #D1EFFF",
"8.	c #DDF2FF",
"9.	c #CFEAFE",
"0.	c #D2ECFF",
"a.	c #D3EDFE",
"b.	c #9FC7E3",
"c.	c #3A7DB5",
"d.	c #D3EDF9",
"e.	c #DCF2FF",
"f.	c #D0EAFE",
"g.	c #CDEBFF",
"h.	c #CEEEFF",
"i.	c #CEE9FE",
"j.	c #CFEAFF",
"k.	c #9BC5E2",
"l.	c #3E80B7",
"m.	c #4385B9",
"n.	c #D2ECFA",
"o.	c #D9F1FF",
"p.	c #D1EBFF",
"q.	c #CAEAFF",
"r.	c #0E3453",
"s.	c #CBEDFF",
"t.	c #DBF0FF",
"u.	c #CBE7FE",
"v.	c #DDF4FF",
"w.	c #D3EDF7",
"x.	c #4485BB",
"y.	c #3D7FB6",
"z.	c #4B8ABD",
"A.	c #609AC8",
"B.	c #D0EBF8",
"C.	c #D8F1FF",
"D.	c #CDE9FE",
"E.	c #D0EBFF",
"F.	c #DBF1FF",
"G.	c #C7E9FF",
"H.	c #CAEBFF",
"I.	c #D3EEFF",
"J.	c #B0D3EE",
"K.	c #80B0D8",
"L.	c #4D8BBE",
"M.	c #3B7EB5",
"N.	c #6199C8",
"O.	c #CFEBF9",
"P.	c #CCE8FE",
"Q.	c #CEEAFF",
"R.	c #C6E7FF",
"S.	c #0F3453",
"T.	c #C7EAFF",
"U.	c #DDF5FF",
"V.	c #75A9D1",
"W.	c #2E74AF",
"X.	c #5E99C7",
"Y.	c #87B6DC",
"Z.	c #5D98C6",
"`.	c #CEEAFA",
" +	c #D5EFFF",
".+	c #CAE7FE",
"++	c #CDE9FF",
"@+	c #C3E6FF",
"#+	c #C3E8FF",
"$+	c #C4E3FA",
"%+	c #518EC1",
"&+	c #4383B8",
"*+	c #4E8DBF",
"=+	c #A6CDE9",
"-+	c #C3E1F5",
";+	c #CDE8FF",
">+	c #CBE6FE",
",+	c #D8EEFF",
"'+	c #C0E5FF",
")+	c #BDE5FF",
"!+	c #E7FBFF",
"~+	c #88B7DA",
"{+	c #2B72AE",
"]+	c #3F82B7",
"^+	c #4C8BBD",
"/+	c #7BAED6",
"(+	c #DBF4FE",
"_+	c #D0ECFF",
":+	c #C9E6FF",
"<+	c #CBE8FF",
"[+	c #C9E6FE",
"}+	c #BDE4FE",
"|+	c #103453",
"1+	c #C0E8FF",
"2+	c #E2F8FF",
"3+	c #90BCDE",
"4+	c #538FC0",
"5+	c #9CC6E7",
"6+	c #CDEAFF",
"7+	c #D4EEFF",
"8+	c #C8E7FE",
"9+	c #C8E6FE",
"0+	c #CAE7FF",
"a+	c #C7E5FE",
"b+	c #BFE6FE",
"c+	c #042947",
"d+	c #B0DEFF",
"e+	c #D2ECFE",
"f+	c #DEF5FF",
"g+	c #C9E6FD",
"h+	c #C8E5FD",
"i+	c #D8EFFE",
"j+	c #ACDAFB",
"k+	c #143957",
"l+	c #508ABA",
"m+	c #B4DEFA",
"n+	c #D4F4FF",
"o+	c #CDEFFF",
"p+	c #D0F1FF",
"q+	c #D1F2FF",
"r+	c #D0F2FF",
"s+	c #D5F6FF",
"t+	c #4C86B6",
"u+	c #2F5F86",
"v+	c #33658D",
"w+	c #32648C",
"                                                ",
"      . + @ # # # # # # # # # # $ $ % & .       ",
"    * = - ; ; ; ; ; ; ; ; ; ; > , , - > = '     ",
"  ) ! ~ { ] ] ] ] ] ] ] ] ^ / ( _ : < [ } | 1   ",
"  2 3 4 5 6 6 6 6 6 6 6 7 8 9 0 a b c < d e f   ",
"  2 3 g h i i i i i i j 5 k l m n o p q > r f   ",
"  2 s t u ! ! ! ! ! ! v w x m n y z A B C r f   ",
"  2 s D E s s s s F u G H I J K L M N O P Q f   ",
"  R S T U V V V W E X Y Z `  ...+.@.#.$.%.&.*.  ",
"  R =.-.;.>.>.>.,.'.).m n y !.M ~.{.].^./.(.*.  ",
"  R _.-.:.<.&.;.[.).I }.K L |.1.2.3.:.4.-.5.6.  ",
"  R 7.8.9.0.a.[.b.Z `  .L c.~.d.e.f.&.9.8.g.6.  ",
"  R h.6 i.j.V k.l.m.y !.|.~.n.o.i.p.p.i.6 q.r.  ",
"  R s.t.u.v.w.x.y.z.L |.A.B.C.D.E.E.E.D.F.G.r.  ",
"  R H.s I.J.c K.L.` M.N.O.S P.Q.Q.Q.Q.P.! R.S.  ",
"  R T.| U.V.W.X.Y.Z Z.`. +.+++++++++++u.F @+S.  ",
"  R #+F.$+%+&+|.*+=+-+S .+++;+;+;+;+;+>+,+'+S.  ",
"  R )+!+~+{+]+^+/+(+_+:+<+<+<+<+<+<+<+[+>.}+|+  ",
"  R 1+2+3+4+5+6+7+8+9+0+0+0+0+0+0+0+0+a+&.b+|+  ",
"  c+d+h e+f+7+++g+.+.+.+.+.+.+.+.+.+.+h+i+j+k+  ",
"    l+m+n+o+p+q+q+q+q+q+q+q+q+q+q+q+r+s+m+t+    ",
"      u+v+w+w+w+w+w+w+w+w+w+w+w+w+w+w+v+u+      ",
"                                                ",
"                                                "};
