/* XPM */
static char * f_xpm[] = {
"16 16 97 2",
"  	c #000000",
". 	c #000006",
"+ 	c #00000C",
"@ 	c #000012",
"# 	c #000018",
"$ 	c #00001E",
"% 	c #000024",
"& 	c #00002A",
"* 	c #000031",
"= 	c #000037",
"- 	c #00003D",
"; 	c #000043",
"> 	c #000049",
", 	c #00004F",
"' 	c #000055",
") 	c #00005B",
"! 	c #FEFEFE",
"~ 	c #000062",
"{ 	c #000068",
"] 	c #FDFDFD",
"^ 	c #ECECEC",
"/ 	c #A1A1A1",
"( 	c #F0F0F0",
"_ 	c #00006E",
": 	c #2B2B2B",
"< 	c #7B7B7B",
"[ 	c #BDBDBD",
"} 	c #000074",
"| 	c #FCFCFC",
"1 	c #C1C1C1",
"2 	c #0B0B0B",
"3 	c #A0A0A0",
"4 	c #EDEDED",
"5 	c #00007A",
"6 	c #6D6D6D",
"7 	c #252525",
"8 	c #A5A5A5",
"9 	c #CDCDCD",
"0 	c #FBFBFB",
"a 	c #DCDCDC",
"b 	c #F8F8F8",
"c 	c #000080",
"d 	c #313131",
"e 	c #626262",
"f 	c #B6B6B6",
"g 	c #A3A3A3",
"h 	c #F9F9F9",
"i 	c #D6D6D6",
"j 	c #E9E9E9",
"k 	c #EAEAEA",
"l 	c #9B9B9B",
"m 	c #000086",
"n 	c #CCCCCC",
"o 	c #040404",
"p 	c #B3B3B3",
"q 	c #5A5A5A",
"r 	c #909090",
"s 	c #505050",
"t 	c #767676",
"u 	c #ACACAC",
"v 	c #6B6B6B",
"w 	c #00008D",
"x 	c #FAFAFA",
"y 	c #404040",
"z 	c #D1D1D1",
"A 	c #B4B4B4",
"B 	c #686868",
"C 	c #B8B8B8",
"D 	c #E5E5E5",
"E 	c #444444",
"F 	c #E2E2E2",
"G 	c #B7B7B7",
"H 	c #9E9E9E",
"I 	c #000093",
"J 	c #979797",
"K 	c #232323",
"L 	c #606060",
"M 	c #EFEFEF",
"N 	c #848484",
"O 	c #CFCFCF",
"P 	c #858585",
"Q 	c #888888",
"R 	c #EBEBEB",
"S 	c #000099",
"T 	c #707070",
"U 	c #414141",
"V 	c #E7E7E7",
"W 	c #C6C6C6",
"X 	c #D0D0D0",
"Y 	c #00009F",
"Z 	c #484848",
"` 	c #0000A5",
" .	c #6E6E6E",
"..	c #0000AB",
"+.	c #F7F7F7",
"@.	c #0000B1",
"#.	c #0000B7",
"  . + @ # $ % & * = - ; > , ' ) ",
". ! ! ! ! ! ! ! ! ! ! ! ! ! ! ~ ",
"+ ! ! ! ! ! ! ! ! ! ! ! ! ! ! { ",
"@ ] ] ] ^ / ( ] ] ] ] ] ] ] ] _ ",
"# ] ] ] : < [ ] ] ] ] ] ] ] ] } ",
"$ | | 1 2 3 4 | | | | | | | | 5 ",
"% | | 6 7 8 | | 9 0 | | | a b c ",
"& 0 0 d e 0 0 f g h i j i k l m ",
"* 0 n o p 0 0 q 0 r s t u 4 v w ",
"= x y   a z A B C D E p F G H I ",
"- h J   K L M N O P Q P C < R S ",
"; h T U V h h W h h h h X R h Y ",
"> b Z v b b b b b b b b b b b ` ",
", b  .[ b b b b b b b b b b b ..",
"' +.+.+.+.+.+.+.+.+.+.+.+.+.+.@.",
") ~ { _ } 5 c m w I S Y ` ..@.#."};
