/* XPM */
static char * fbd_xpm[] = {
"16 16 41 1",
" 	c #BDCCCD",
".	c #BAC9CE",
"+	c #B8C6D0",
"@	c #B6C3D1",
"#	c #B3C0D3",
"$	c #B1BED5",
"%	c #AFBBD6",
"&	c #ADB8D8",
"*	c #AAB5DA",
"=	c #A8B3DC",
"-	c #A6B0DD",
";	c #A4ADDF",
">	c #A1AAE0",
",	c #9FA8E2",
"'	c #9DA5E4",
")	c #9BA2E5",
"!	c #FEFEFE",
"~	c #989FE7",
"{	c #969CE9",
"]	c #FDFDFD",
"^	c #000000",
"/	c #949AEB",
"(	c #9197EC",
"_	c #FCFCFC",
":	c #8F94EE",
"<	c #8D91EF",
"[	c #FBFBFB",
"}	c #8B8FF1",
"|	c #00FFFF",
"1	c #888CF3",
"2	c #FAFAFA",
"3	c #8689F5",
"4	c #F9F9F9",
"5	c #8486F6",
"6	c #8284F8",
"7	c #F8F8F8",
"8	c #7F81FA",
"9	c #7D7EFB",
"0	c #F7F7F7",
"a	c #7B7BFD",
"b	c #7979FE",
" .+@#$%&*=-;>,')",
".!!!!!!!!!!!!!!~",
"+!!!!!!!!!!!!!!{",
"@]]^^^^]]]]]]]]/",
"#]^^]]^^^]]]]]](",
"$__^__^_^______:",
"%__^^^^_^_^^^^_<",
"&[[[[[[[^^^[[^[}",
"*[||||||^[^[[^[1",
"=2|^^^^|^2^^^^23",
"-4^^44^^^4444445",
";4|^44^|44444446",
">7|^^^^|77777778",
",7||||||77777779",
"'00000000000000a",
")~{/(:<}135689ab"};
