/* XPM */
static char * il_xpm[] = {
"16 16 54 1",
" 	c #BDCCCD",
".	c #BAC9CE",
"+	c #B8C6D0",
"@	c #B6C3D1",
"#	c #B3C0D3",
"$	c #B1BED5",
"%	c #AFBBD6",
"&	c #ADB8D8",
"*	c #AAB5DA",
"=	c #A8B3DC",
"-	c #A6B0DD",
";	c #A4ADDF",
">	c #A1AAE0",
",	c #9FA8E2",
"'	c #9DA5E4",
")	c #9BA2E5",
"!	c #FEFEFE",
"~	c #989FE7",
"{	c #969CE9",
"]	c #FDFDFD",
"^	c #949AEB",
"/	c #038103",
"(	c #F2F8F2",
"_	c #2A952A",
":	c #CBE4CB",
"<	c #9197EC",
"[	c #FCFCFC",
"}	c #F1F7F1",
"|	c #8F94EE",
"1	c #8D91EF",
"2	c #FBFBFB",
"3	c #F0F6F0",
"4	c #299429",
"5	c #CAE3CA",
"6	c #8B8FF1",
"7	c #888CF3",
"8	c #FAFAFA",
"9	c #EFF5EF",
"0	c #C9E2C9",
"a	c #8689F5",
"b	c #F9F9F9",
"c	c #EEF4EE",
"d	c #C8E1C8",
"e	c #8486F6",
"f	c #138913",
"g	c #168A16",
"h	c #F7F8F7",
"i	c #8284F8",
"j	c #F8F8F8",
"k	c #7F81FA",
"l	c #7D7EFB",
"m	c #F7F7F7",
"n	c #7B7BFD",
"o	c #7979FE",
" .+@#$%&*=-;>,')",
".!!!!!!!!!!!!!!~",
"+!!!!!!!!!!!!!!{",
"@]]]]]]]]]]]]]]^",
"#]]]/(]_:]]]]]]<",
"$[[[/}[_:[[[[[[|",
"%[[[/}[_:[[[[[[1",
"&222/32452222226",
"*222/32452222227",
"=888/9840888888a",
"-bbb/cb4dbbbbbbe",
";bbb/cb4fggghbbi",
">jjjjjjjjjjjjjjk",
",jjjjjjjjjjjjjjl",
"'mmmmmmmmmmmmmmn",
")~{^<|167aeiklno"};
