/* XPM */
static char * ld_xpm[] = {
"16 16 47 1",
" 	c #BDCCCD",
".	c #BAC9CE",
"+	c #B8C6D0",
"@	c #B6C3D1",
"#	c #B3C0D3",
"$	c #B1BED5",
"%	c #AFBBD6",
"&	c #ADB8D8",
"*	c #AAB5DA",
"=	c #A8B3DC",
"-	c #A6B0DD",
";	c #A4ADDF",
">	c #A1AAE0",
",	c #9FA8E2",
"'	c #9DA5E4",
")	c #9BA2E5",
"!	c #FEFEFE",
"~	c #989FE7",
"{	c #969CE9",
"]	c #FDFDFD",
"^	c #000000",
"/	c #00FFFF",
"(	c #949AEB",
"_	c #00D8D8",
":	c #393939",
"<	c #9197EC",
"[	c #FCFCFC",
"}	c #838383",
"|	c #8F94EE",
"1	c #00C7C7",
"2	c #343434",
"3	c #00C8C8",
"4	c #8D91EF",
"5	c #FBFBFB",
"6	c #8B8FF1",
"7	c #888CF3",
"8	c #FAFAFA",
"9	c #8689F5",
"0	c #F9F9F9",
"a	c #8486F6",
"b	c #8284F8",
"c	c #F8F8F8",
"d	c #7F81FA",
"e	c #7D7EFB",
"f	c #F7F7F7",
"g	c #7B7BFD",
"h	c #7979FE",
" .+@#$%&*=-;>,')",
".!!!!!!!!!!!!!!~",
"+!!!!!!!!!!!!!!{",
"@]^]]]]]]////^](",
"#]^]^]^]]_::_^]<",
"$[^^^[^^^^}}^^[|",
"%[^[^[^[^1223^[4",
"&5^55555^////^56",
"*5^55555^5555557",
"=8^8^8^8^8888889",
"-0^^^0^^^000000a",
";0^0^0^00000000b",
">c^ccccccccccccd",
",cccccccccccccce",
"'ffffffffffffffg",
")~{(<|4679abdegh"};
