/* XPM */
static char * move_xpm[] = {
"24 24 122 2",
"  	c None",
". 	c #2D2D2D",
"+ 	c #4B4B4B",
"@ 	c #333333",
"# 	c #242424",
"$ 	c #8B8B8B",
"% 	c #D2D2D2",
"& 	c #9A9A9A",
"* 	c #282828",
"= 	c #3B3B3B",
"- 	c #6B6B6B",
"; 	c #393939",
"> 	c #4A4A4A",
", 	c #D6D6D6",
"' 	c #FBFBFB",
") 	c #E3E3E3",
"! 	c #4D4D4D",
"~ 	c #292929",
"{ 	c #6C6C6C",
"] 	c #444444",
"^ 	c #404040",
"/ 	c #B7B7B7",
"( 	c #ECECEC",
"_ 	c #BCBCBC",
": 	c #707070",
"< 	c #E1E1E1",
"[ 	c #FFFFFF",
"} 	c #EDEDED",
"| 	c #777777",
"1 	c #A6A6A6",
"2 	c #EFEFEF",
"3 	c #C5C5C5",
"4 	c #424242",
"5 	c #535353",
"6 	c #E6E6E6",
"7 	c #838383",
"8 	c #DDDDDD",
"9 	c #E8E8E8",
"0 	c #8C8C8C",
"a 	c #D4D4D4",
"b 	c #515151",
"c 	c #565656",
"d 	c #EAEAEA",
"e 	c #878787",
"f 	c #DEDEDE",
"g 	c #8F8F8F",
"h 	c #DADADA",
"i 	c #F3F3F3",
"j 	c #525252",
"k 	c #1E1E1E",
"l 	c #454545",
"m 	c #575757",
"n 	c #E9E9E9",
"o 	c #868686",
"p 	c #8E8E8E",
"q 	c #D9D9D9",
"r 	c #F0F0F0",
"s 	c #616161",
"t 	c #E4E4E4",
"u 	c #A7A7A7",
"v 	c #373737",
"w 	c #909090",
"x 	c #7F7F7F",
"y 	c #CFCFCF",
"z 	c #343434",
"A 	c #E7E7E7",
"B 	c #D8D8D8",
"C 	c #EBEBEB",
"D 	c #DCDCDC",
"E 	c #5A5A5A",
"F 	c #353535",
"G 	c #A2A2A2",
"H 	c #CBCBCB",
"I 	c #828282",
"J 	c #949494",
"K 	c #9F9F9F",
"L 	c #818181",
"M 	c #DBDBDB",
"N 	c #F2F2F2",
"O 	c #4E4E4E",
"P 	c #E2E2E2",
"Q 	c #888888",
"R 	c #F7F7F7",
"S 	c #F4F4F4",
"T 	c #FAFAFA",
"U 	c #EEEEEE",
"V 	c #999999",
"W 	c #555555",
"X 	c #FEFEFE",
"Y 	c #FCFCFC",
"Z 	c #F1F1F1",
"` 	c #545454",
" .	c #E5E5E5",
"..	c #CACACA",
"+.	c #D0D0D0",
"@.	c #383838",
"#.	c #A5A5A5",
"$.	c #F6F6F6",
"%.	c #FDFDFD",
"&.	c #B1B1B1",
"*.	c #3E3E3E",
"=.	c #8D8D8D",
"-.	c #171717",
";.	c #666666",
">.	c #BDBDBD",
",.	c #F8F8F8",
"'.	c #F5F5F5",
").	c #595959",
"!.	c #3F3F3F",
"~.	c #727272",
"{.	c #9E9E9E",
"].	c #B6B6B6",
"^.	c #C7C7C7",
"/.	c #CCCCCC",
"(.	c #BBBBBB",
"_.	c #A8A8A8",
":.	c #5B5B5B",
"<.	c #131313",
"[.	c #464646",
"}.	c #505050",
"|.	c #494949",
"1.	c #232323",
"                                                ",
"                                                ",
"                    . + @                       ",
"                  # $ % & *                     ",
"            = - ; > , ' ) ! ~ { ]               ",
"          ^ / ( _ : < [ } | 1 2 3 4             ",
"          5 6 [ 6 7 8 [ 9 0 a [ 2 b             ",
"          c ( [ d e f [ 9 g h [ i j k l .       ",
"          m ( [ n o f [ 9 p q [ r s $ t u v     ",
"          c ( [ n e f [ 9 w q [ ( x y [ 6 5     ",
"      . z s d [ n 7 8 [ A $ B [ C o D [ i E     ",
"    F G H I ) [ C J < [ C K f [ C L M [ N E     ",
"    O P d Q ) [ R q S [ T C R [ U V < [ N E     ",
"    W r U Q ) [ X Y [ [ [ [ [ [ Y 2 T [ N E     ",
"    W Z U o ) [ [ [ [ [ [ [ [ [ [ [ [ [ U m     ",
"    ` U U w  .[ [ [ [ [ [ [ [ [ [ X [ [ t j     ",
"    > a Z ..N [ [ [ [ [ [ [ [ [ [ [ [ ' +.+     ",
"    @.#.$.%.Y X X X [ [ [ [ [ X X %.[ $.&.*.    ",
"      - 6 T X [ [ [ [ [ [ [ [ [ [ X [ Z =..     ",
"      -.;.>.n i S R T %.[ %.T ,.'.N Z H ).      ",
"          !.b ~.{.].^.B 6 f /.(._.I :.l <.      ",
"                v !.[.O 5 }.|.4 ; 1.            ",
"                                                ",
"                                                "};
