/* XPM */
static char * project_xpm[] = {
"16 16 91 1",
" 	c #BDCCCD",
".	c #BAC9CE",
"+	c #B8C6D0",
"@	c #B6C3D1",
"#	c #B3C0D3",
"$	c #B1BED5",
"%	c #AFBBD6",
"&	c #ADB8D8",
"*	c #AAB5DA",
"=	c #A8B3DC",
"-	c #A6B0DD",
";	c #A4ADDF",
">	c #A1AAE0",
",	c #9FA8E2",
"'	c #9DA5E4",
")	c #9BA2E5",
"!	c #FEFEFE",
"~	c #F6F6F6",
"{	c #BEBEBE",
"]	c #F5F5F5",
"^	c #989FE7",
"/	c #CBCBCB",
"(	c #242424",
"_	c #323232",
":	c #DCDCDC",
"<	c #969CE9",
"[	c #FDFDFD",
"}	c #565656",
"|	c #BCBCBC",
"1	c #D0D0D0",
"2	c #949AEB",
"3	c #383838",
"4	c #B2B2B2",
"5	c #333333",
"6	c #9197EC",
"7	c #FCFCFC",
"8	c #B4B4B4",
"9	c #1E1E1E",
"0	c #BBBBBB",
"a	c #DDDDDD",
"b	c #D6D6D6",
"c	c #8F94EE",
"d	c #D8D8D8",
"e	c #9E9E9E",
"f	c #272727",
"g	c #2E2E2E",
"h	c #A3A3A3",
"i	c #8D91EF",
"j	c #FBFBFB",
"k	c #555555",
"l	c #4B4B4B",
"m	c #F4F4F4",
"n	c #F0F0F0",
"o	c #FAFAFA",
"p	c #8B8FF1",
"q	c #DBDBDB",
"r	c #A7A7A7",
"s	c #EAEAEA",
"t	c #414141",
"u	c #494949",
"v	c #C3C3C3",
"w	c #888CF3",
"x	c #1D1D1D",
"y	c #2C2C2C",
"z	c #363636",
"A	c #F1F1F1",
"B	c #464646",
"C	c #939393",
"D	c #8689F5",
"E	c #C4C4C4",
"F	c #0F0F0F",
"G	c #C8C8C8",
"H	c #040404",
"I	c #F2F2F2",
"J	c #929292",
"K	c #F9F9F9",
"L	c #8486F6",
"M	c #E8E8E8",
"N	c #313131",
"O	c #535353",
"P	c #424242",
"Q	c #808080",
"R	c #F7F7F7",
"S	c #8284F8",
"T	c #F8F8F8",
"U	c #E7E7E7",
"V	c #7F81FA",
"W	c #7D7EFB",
"X	c #A8A8A8",
"Y	c #7B7BFD",
"Z	c #7979FE",
" .+@#$%&*=-;>,')",
".!!!!!!!!!~{]!!^",
"+!!!!!!!!/(_:!!<",
"@[[[[[[[[}|[[1~2",
"#[[[[[[[[34[[5{6",
"$77777777890a(bc",
"%7777d~777efgh7i",
"&jjjjklmjjnojjjp",
"*jjqrstums_vjjjw",
"=o|xyzAtB_CooooD",
"-EFG:HIntJKKKKKL",
";MNOPQKKRKKKKKKS",
">TUNf]TTTTTTTTTV",
",TTUNkTTTTTTTTTW",
"'RRRUXRRRRRRRRRY",
")^<26cipwDLSVWYZ"};
