/* XPM */
static char * properties_xpm[] = {
"16 16 55 1",
" 	c #BDCCCD",
".	c #BAC9CE",
"+	c #B8C6D0",
"@	c #B6C3D1",
"#	c #B3C0D3",
"$	c #B1BED5",
"%	c #AFBBD6",
"&	c #ADB8D8",
"*	c #AAB5DA",
"=	c #A8B3DC",
"-	c #A6B0DD",
";	c #A4ADDF",
">	c #A1AAE0",
",	c #9FA8E2",
"'	c #9DA5E4",
")	c #9BA2E5",
"!	c #FEFEFE",
"~	c #989FE7",
"{	c #FDFDFD",
"]	c #E2E2E2",
"^	c #1B1B1B",
"/	c #969CE9",
"(	c #ABABAB",
"_	c #AEAEAE",
":	c #949AEB",
"<	c #747474",
"[	c #9D9D9D",
"}	c #9197EC",
"|	c #6A6A6A",
"1	c #D5D5D5",
"2	c #FCFCFC",
"3	c #8F94EE",
"4	c #5F5F5F",
"5	c #8D91EF",
"6	c #FAFAFA",
"7	c #929292",
"8	c #FBFBFB",
"9	c #8B8FF1",
"0	c #ADADAD",
"a	c #888CF3",
"b	c #8689F5",
"c	c #F9F9F9",
"d	c #ACACAC",
"e	c #1A1A1A",
"f	c #8486F6",
"g	c #8284F8",
"h	c #F8F8F8",
"i	c #7F81FA",
"j	c #7D7EFB",
"k	c #F7F7F7",
"l	c #CECECE",
"m	c #666666",
"n	c #656565",
"o	c #7B7BFD",
"p	c #7979FE",
" .+@#$%&*=-;>,')",
".!!!!!!!!!!!!!!~",
"+{]!!]{!^^^^^!!/",
"@(_{{_({{{{{{{{:",
"#<[{{[<{^^^^^^{}",
"$<|11|<222222223",
"%(4444(222222225",
"&674476^88^88^89",
"*80440888888888a",
"=60440666666666b",
"-cd44dcecceccecf",
";cd44dcccccccccg",
">hd44dhhhhhhhhhi",
",hd44dhehhehhehj",
"'klmnlkkkkkkkkko",
")~/:}359abfgijop"};
