/* XPM */
static char * resource_xpm[] = {
"16 16 41 1",
" 	c #BDCCCD",
".	c #BAC9CE",
"+	c #B8C6D0",
"@	c #B6C3D1",
"#	c #B3C0D3",
"$	c #B1BED5",
"%	c #AFBBD6",
"&	c #ADB8D8",
"*	c #AAB5DA",
"=	c #A8B3DC",
"-	c #A6B0DD",
";	c #A4ADDF",
">	c #A1AAE0",
",	c #9FA8E2",
"'	c #9DA5E4",
")	c #9BA2E5",
"!	c #FEFEFE",
"~	c #989FE7",
"{	c #000000",
"]	c #969CE9",
"^	c #FDFDFD",
"/	c #00FFFF",
"(	c #949AEB",
"_	c #9197EC",
":	c #FCFCFC",
"<	c #8F94EE",
"[	c #8D91EF",
"}	c #FBFBFB",
"|	c #8B8FF1",
"1	c #888CF3",
"2	c #FAFAFA",
"3	c #8689F5",
"4	c #F9F9F9",
"5	c #8486F6",
"6	c #8284F8",
"7	c #F8F8F8",
"8	c #7F81FA",
"9	c #7D7EFB",
"0	c #F7F7F7",
"a	c #7B7BFD",
"b	c #7979FE",
" .+@#$%&*=-;>,')",
".!!!!!!!!!!!!!!~",
"+!{{{{{{{{{{{{!]",
"@^{//////////{^(",
"#^{/{{{{/{{{/{^_",
"$:{/{//{/{/{/{:<",
"%:{/{//{/{/{/{:[",
"&}{/{{{{/{{{/{}|",
"*}{//////////{}1",
"=2{{{{{{{{{{{{23",
"-444444{44444445",
";444444{44444446",
">777777{77777778",
",{{{{{{{{{{{{{{9",
"'00000000000000a",
")~](_<[|135689ab"};
