/* XPM */
static char * resources_xpm[] = {
"16 16 79 1",
" 	c #BDCCCD",
".	c #BAC9CE",
"+	c #B8C6D0",
"@	c #B6C3D1",
"#	c #B3C0D3",
"$	c #B1BED5",
"%	c #AFBBD6",
"&	c #ADB8D8",
"*	c #AAB5DA",
"=	c #A8B3DC",
"-	c #A6B0DD",
";	c #A4ADDF",
">	c #A1AAE0",
",	c #9FA8E2",
"'	c #9DA5E4",
")	c #9BA2E5",
"!	c #FEFEFE",
"~	c #989FE7",
"{	c #000000",
"]	c #969CE9",
"^	c #FDFDFD",
"/	c #00FFFF",
"(	c #09F6F4",
"_	c #949AEB",
":	c #17E7D9",
"<	c #1B2B1D",
"[	c #05FAFA",
"}	c #9197EC",
"|	c #FCFCFC",
"1	c #1FDFB8",
"2	c #28532C",
"3	c #28D6AF",
"4	c #0FEFEF",
"5	c #8F94EE",
"6	c #1FDF92",
"7	c #2A7F32",
"8	c #2AD487",
"9	c #1AE4E4",
"0	c #8D91EF",
"a	c #FBFBFB",
"b	c #17E666",
"c	c #20AF2F",
"d	c #25DADA",
"e	c #8B8FF1",
"f	c #09F435",
"g	c #0DF031",
"h	c #2FCFCF",
"i	c #888CF3",
"j	c #FAFAFA",
"k	c #00FE1A",
"l	c #3A3A3A",
"m	c #8689F5",
"n	c #F9F9F9",
"o	c #7CFB89",
"p	c #8486F6",
"q	c #69E876",
"r	c #56D563",
"s	c #ADADAD",
"t	c #8182D2",
"u	c #F8F8F8",
"v	c #169523",
"w	c #51D05E",
"x	c #A3A3A3",
"y	c #CDCDCD",
"z	c #7F81FA",
"A	c #199826",
"B	c #32B13F",
"C	c #646464",
"D	c #323232",
"E	c #7D7EFB",
"F	c #F7F7F7",
"G	c #61E06E",
"H	c #47C654",
"I	c #8E8E8E",
"J	c #C2C2C2",
"K	c #7B7BFD",
"L	c #8283BD",
"M	c #8182BE",
"N	c #7979FE",
" .+@#$%&*=-;>,')",
".!!!!!!!!!!!!!!~",
"+!{{{{{{{{{{{{!]",
"@^{/////((((/{^_",
"#^{/{{{{:<<<[{^}",
"$|{/{//{12324{|5",
"%|{/{//{67879{|0",
"&a{/{{{{bcccd{ae",
"*a{/////fgggh{ai",
"=j{{{{{{kkkkl{jm",
"-nnnnokkkkkkkkop",
";nnnnnqkkkkkkrst",
">uuuuuuvkkkkwxyz",
",{{{{{{{AkkBCD{E",
"'FFFFFFFFGHIJFFK",
")~]_}50eimLMzEKN"};
