/* XPM */
static char * show_code_xpm[] = {
"24 24 143 2",
"  	c None",
". 	c #77AB2F",
"+ 	c #77AE30",
"@ 	c #75A92F",
"# 	c #78AC34",
"$ 	c #88C03D",
"% 	c #86BE3B",
"& 	c #7DB335",
"* 	c #7FB438",
"= 	c #85BD3B",
"- 	c #7EB436",
"; 	c #88C03C",
"> 	c #84BC3A",
", 	c #75A731",
"' 	c #75A633",
") 	c #8CC344",
"! 	c #79AC36",
"~ 	c #81B53C",
"{ 	c #80B23B",
"] 	c #80B13F",
"^ 	c #8ABE46",
"/ 	c #85B742",
"( 	c #84B540",
"_ 	c #83B343",
": 	c #8FC34E",
"< 	c #898989",
"[ 	c #BABABA",
"} 	c #BCBBBB",
"| 	c #B5B5B5",
"1 	c #999999",
"2 	c #87B947",
"3 	c #85B645",
"4 	c #95C657",
"5 	c #748F52",
"6 	c #BCBCBC",
"7 	c #DBD1CC",
"8 	c #EBD6CF",
"9 	c #EED9D5",
"0 	c #EBDBDB",
"a 	c #DCD5D7",
"b 	c #B3B3B3",
"c 	c #8ABA4D",
"d 	c #88B84B",
"e 	c #749B42",
"f 	c #A5A7A3",
"g 	c #CFCAB6",
"h 	c #EED4C7",
"i 	c #EFD7CF",
"j 	c #EFDBD6",
"k 	c #EEDCDB",
"l 	c #EFE0E3",
"m 	c #DDD8DB",
"n 	c #A2A2A2",
"o 	c #8BBA51",
"p 	c #8AB950",
"q 	c #6B6B6B",
"r 	c #B0C09E",
"s 	c #9AAF68",
"t 	c #88A854",
"u 	c #9DB26E",
"v 	c #9BB26F",
"w 	c #89AB5C",
"x 	c #9DB676",
"y 	c #88AB5B",
"z 	c #C6CAC2",
"A 	c #90BD58",
"B 	c #8DB955",
"C 	c #808080",
"D 	c #A0B882",
"E 	c #BCBE8F",
"F 	c #92AD61",
"G 	c #B5BE8D",
"H 	c #ADBE8C",
"I 	c #93B26D",
"J 	c #B6C8A2",
"K 	c #8EB067",
"L 	c #D3D4D2",
"M 	c #797979",
"N 	c #92BE5D",
"O 	c #90BA5A",
"P 	c #838383",
"Q 	c #9FB883",
"R 	c #8AAE61",
"S 	c #7FA751",
"T 	c #8FB068",
"U 	c #8CAF64",
"V 	c #80A853",
"W 	c #8DAF65",
"X 	c #C2C9B9",
"Y 	c #95BF62",
"Z 	c #93BC5F",
"` 	c #C1C7BB",
" .	c #D9DCD6",
"..	c #CDD5C4",
"+.	c #D7DBD3",
"@.	c #D4D9CE",
"#.	c #91B26C",
"$.	c #B2C59C",
"%.	c #95B470",
"&.	c #C4C4C4",
"*.	c #96C167",
"=.	c #94BF64",
"-.	c #959595",
";.	c #D6D6D6",
">.	c #E1E1E1",
",.	c #E3E3E3",
"'.	c #E0E1DE",
").	c #8BAE63",
"!.	c #A2BC83",
"~.	c #B9C5AA",
"{.	c #848484",
"].	c #99C26C",
"^.	c #97BF6A",
"/.	c #989898",
"(.	c #D3D3D3",
"_.	c #DCDCDC",
":.	c #DBDCD9",
"<.	c #A2BB86",
"[.	c #C8CDC2",
"}.	c #979494",
"|.	c #493A3A",
"1.	c #3C3737",
"2.	c #9CC472",
"3.	c #9AC06F",
"4.	c #8AB160",
"5.	c #AFD58B",
"6.	c #ACD388",
"7.	c #9ABE75",
"8.	c #878F7F",
"9.	c #9B9D99",
"0.	c #9F9F9F",
"a.	c #979797",
"b.	c #696969",
"c.	c #3C3636",
"d.	c #483737",
"e.	c #9FC476",
"f.	c #9BC173",
"g.	c #92B767",
"h.	c #97BC6D",
"i.	c #3D3737",
"j.	c #373333",
"k.	c #433535",
"l.	c #3D3636",
"                                                ",
"                                                ",
"          . + @                                 ",
"      # $ % & * =         - - - - ; > - - - ,   ",
"    ' ) !                         ~ {           ",
"    ] ^                           / (           ",
"    _ :     < [ } | 1             2 3           ",
"      4 5 6 7 8 9 0 a b           c d           ",
"      e f g h i j k l m n         o p           ",
"      q r s t u v w x y z         A B           ",
"      C D E F G H I J K L M       N O           ",
"      P Q R S T U V W S X M       Y Z           ",
"        `  ...+.@.#.$.%.&.        *.=.          ",
"        -.;.>.,.'.).!.~.{.        ].^.          ",
"          /.(._.:.<.[.}.|.1.      2.3.          ",
"    4.5.6.7.8.9.0.a.b.c.d.d.1.    e.f.          ",
"        g.h.            i.d.d.1.                ",
"                          i.d.d.1.              ",
"                            1.d.d.i.            ",
"                              j.k.l.            ",
"                                                ",
"                                                ",
"                                                ",
"                                                "};
