/* XPM */
static char * st_xpm[] = {
"16 16 86 1",
" 	c #BDCCCD",
".	c #BAC9CE",
"+	c #B8C6D0",
"@	c #B6C3D1",
"#	c #B3C0D3",
"$	c #B1BED5",
"%	c #AFBBD6",
"&	c #ADB8D8",
"*	c #AAB5DA",
"=	c #A8B3DC",
"-	c #A6B0DD",
";	c #A4ADDF",
">	c #A1AAE0",
",	c #9FA8E2",
"'	c #9DA5E4",
")	c #9BA2E5",
"!	c #FEFEFE",
"~	c #989FE7",
"{	c #969CE9",
"]	c #FDFDFD",
"^	c #949AEB",
"/	c #F8F4E9",
"(	c #E7CE98",
"_	c #DBB460",
":	c #DCB766",
"<	c #EAD4A6",
"[	c #F5EBD8",
"}	c #DDB96C",
"|	c #DDB96D",
"1	c #9197EC",
"2	c #FCFCFC",
"3	c #E1C17E",
"4	c #E7CF9B",
"5	c #F9F6EE",
"6	c #F7F1E5",
"7	c #EFDFBD",
"8	c #FAF8F4",
"9	c #F5EDDC",
"0	c #DEBC72",
"a	c #E8D09E",
"b	c #F5EDDD",
"c	c #8F94EE",
"d	c #D5A846",
"e	c #F6EFE1",
"f	c #E1C17D",
"g	c #ECDAB3",
"h	c #8D91EF",
"i	c #FBFBFB",
"j	c #E5CB93",
"k	c #D6AA4C",
"l	c #E4CA91",
"m	c #F4EBD7",
"n	c #EBD9B2",
"o	c #8B8FF1",
"p	c #F3EAD6",
"q	c #E4C88D",
"r	c #D6A949",
"s	c #E1C383",
"t	c #888CF3",
"u	c #FAFAFA",
"v	c #F8F5F0",
"w	c #D4A541",
"x	c #F6F2E9",
"y	c #E0C07C",
"z	c #8689F5",
"A	c #F9F9F9",
"B	c #F1E8D4",
"C	c #F5EFE2",
"D	c #D5A949",
"E	c #F8F6F3",
"F	c #EAD8B1",
"G	c #8486F6",
"H	c #DAB25E",
"I	c #D8AE54",
"J	c #DBB564",
"K	c #D9B05A",
"L	c #EAD7AF",
"M	c #8284F8",
"N	c #F8F8F8",
"O	c #F5F3ED",
"P	c #F5F0E7",
"Q	c #7F81FA",
"R	c #7D7EFB",
"S	c #F7F7F7",
"T	c #7B7BFD",
"U	c #7979FE",
" .+@#$%&*=-;>,')",
".!!!!!!!!!!!!!!~",
"+!!!!!!!!!!!!!!{",
"@]]]]]]]]]]]]]]^",
"#]/(_:<[}}}}}|]1",
"$2345678990a9b2c",
"%2de222222fg222h",
"&ijklmiiiifniiio",
"*iipqrsiiifniiit",
"=uuuuvwxuuynuuuz",
"-ABAACDEAAyFAAAG",
";AHIJKLAAAyFAAAM",
">NNOPNNNNNNNNNNQ",
",NNNNNNNNNNNNNNR",
"'SSSSSSSSSSSSSST",
")~{^1chotzGMQRTU"};
