/* XPM */
static char * up_xpm[] = {
"24 24 179 2",
"  	c None",
". 	c #CB6D31",
"+ 	c #DA9054",
"@ 	c #D7894C",
"# 	c #CC6A30",
"$ 	c #D07335",
"% 	c #EEC18C",
"& 	c #F2C88E",
"* 	c #F0C286",
"= 	c #E9AF74",
"- 	c #CE6B31",
"; 	c #CF7237",
"> 	c #EFC38E",
", 	c #F1C78F",
"' 	c #EBAD67",
") 	c #EAAB62",
"! 	c #EEB877",
"~ 	c #E9AF73",
"{ 	c #CD6A32",
"] 	c #D1753C",
"^ 	c #F0C590",
"/ 	c #F0C389",
"( 	c #EAAA61",
"_ 	c #E9A860",
": 	c #E9A75E",
"< 	c #E8A55C",
"[ 	c #ECB16F",
"} 	c #E9AF6F",
"| 	c #CD6A34",
"1 	c #D17941",
"2 	c #F0C791",
"3 	c #EFBF83",
"4 	c #E9A55D",
"5 	c #E59E57",
"6 	c #E49A55",
"7 	c #E7A058",
"8 	c #E79F57",
"9 	c #EAA965",
"0 	c #E8AB6C",
"a 	c #CE6A35",
"b 	c #CA632B",
"c 	c #D57D46",
"d 	c #F0C792",
"e 	c #EEBA7C",
"f 	c #EAA963",
"g 	c #EAAB68",
"h 	c #E7A25D",
"i 	c #E7A158",
"j 	c #E59B57",
"k 	c #EAA663",
"l 	c #E79F59",
"m 	c #E7A15C",
"n 	c #E7A868",
"o 	c #CE6A36",
"p 	c #C65526",
"q 	c #D1743D",
"r 	c #F0C48D",
"s 	c #EDB676",
"t 	c #E9A761",
"u 	c #EDB576",
"v 	c #D78249",
"w 	c #E9A965",
"x 	c #E69C54",
"y 	c #E69B52",
"z 	c #E8A460",
"A 	c #D67C43",
"B 	c #EAAA69",
"C 	c #E69A55",
"D 	c #E59953",
"E 	c #E7A362",
"F 	c #CD6734",
"G 	c #C85E29",
"H 	c #E5A568",
"I 	c #EAAD6A",
"J 	c #E8A35D",
"K 	c #ECB272",
"L 	c #D57B43",
"M 	c #C85A28",
"N 	c #E9A763",
"O 	c #E5974F",
"P 	c #E4964E",
"Q 	c #E7A35D",
"R 	c #C55526",
"S 	c #D06D38",
"T 	c #E7A261",
"U 	c #E49650",
"V 	c #E4954E",
"W 	c #E29252",
"X 	c #C44E22",
"Y 	c #C75B28",
"Z 	c #E39E62",
"` 	c #EBB170",
" .	c #EBAF70",
"..	c #D47640",
"+.	c #C65826",
"@.	c #C65626",
"#.	c #E8A25E",
"$.	c #E4934B",
"%.	c #E39149",
"&.	c #E69E59",
"*.	c #C55124",
"=.	c #C45023",
"-.	c #CD6331",
";.	c #E59B58",
">.	c #E79B57",
",.	c #DF874A",
"'.	c #C24C21",
").	c #C95D2D",
"!.	c #D57942",
"~.	c #CB612D",
"{.	c #C65525",
"].	c #C55325",
"^.	c #E69E5A",
"/.	c #E28E46",
"(.	c #E28D45",
"_.	c #E59853",
":.	c #C44C21",
"<.	c #C65024",
"[.	c #CF6633",
"}.	c #C54D22",
"|.	c #C55023",
"1.	c #E69954",
"2.	c #E18A42",
"3.	c #E18840",
"4.	c #E4944E",
"5.	c #C34B21",
"6.	c #E4944F",
"7.	c #E2853E",
"8.	c #E2843D",
"9.	c #E58F4A",
"0.	c #C34920",
"a.	c #E58F4B",
"b.	c #E3803B",
"c.	c #E37F3A",
"d.	c #E58946",
"e.	c #C2461E",
"f.	c #C24820",
"g.	c #E58947",
"h.	c #E47C38",
"i.	c #E47A36",
"j.	c #E68541",
"k.	c #C1431D",
"l.	c #C2451E",
"m.	c #E68441",
"n.	c #E47734",
"o.	c #E57533",
"p.	c #E77F3D",
"q.	c #C0401C",
"r.	c #C1421D",
"s.	c #E57231",
"t.	c #E67130",
"u.	c #E77939",
"v.	c #C03D1B",
"w.	c #E66D2D",
"x.	c #E76C2C",
"y.	c #E87333",
"z.	c #BF3B19",
"A.	c #C03D1A",
"B.	c #E87334",
"C.	c #E7692A",
"D.	c #E76729",
"E.	c #E96E2F",
"F.	c #BE3818",
"G.	c #BF3A19",
"H.	c #E76A2D",
"I.	c #E86528",
"J.	c #E86327",
"K.	c #E86529",
"L.	c #BE3617",
"M.	c #BE3618",
"N.	c #D65122",
"O.	c #E96427",
"P.	c #E96226",
"Q.	c #D84E1E",
"R.	c #BE3216",
"S.	c #BF3416",
"T.	c #C83E1A",
"U.	c #CB3F19",
"V.	c #BC3014",
"                                                ",
"                                                ",
"                    . + @ #                     ",
"                  $ % & * = -                   ",
"                ; > , ' ) ! ~ {                 ",
"              ] ^ / ( _ : < [ } |               ",
"            1 2 3 : 4 5 6 7 8 9 0 a             ",
"        b c d e f g h i 8 j k l m n o p         ",
"        q r s t u v w x y z A B C D E F         ",
"      G H I J K L M N O P Q R S T U V W X       ",
"      Y Z `  ...+.@.#.$.%.&.*.=.-.;.>.,.'.      ",
"        ).!.~.{.  ].^./.(._.X   :.<.[.}.        ",
"                  |.1.2.3.4.5.                  ",
"                  X 6.7.8.9.0.                  ",
"                  5.a.b.c.d.e.                  ",
"                  f.g.h.i.j.k.                  ",
"                  l.m.n.o.p.q.                  ",
"                  r.p.s.t.u.v.                  ",
"                  q.u.w.x.y.z.                  ",
"                  A.B.C.D.E.F.                  ",
"                  G.H.I.J.K.L.                  ",
"                  M.N.O.P.Q.R.                  ",
"                    S.T.U.V.                    ",
"                                                "};
