/* XPM */
static char * var_inout_xpm[] = {
"16 16 86 1",
" 	c None",
".	c #BDCCCD",
"+	c #BAC9CE",
"@	c #B8C6D0",
"#	c #B6C3D1",
"$	c #B3C0D3",
"%	c #B1BED5",
"&	c #AFBBD6",
"*	c #ADB8D8",
"=	c #AAB5DA",
"-	c #A8B3DC",
";	c #A6B0DD",
">	c #A4ADDF",
",	c #A1AAE0",
"'	c #9FA8E2",
")	c #9DA5E4",
"!	c #9BA2E5",
"~	c #989FE7",
"{	c #969CE9",
"]	c #FE0000",
"^	c #949AEB",
"/	c #F40303",
"(	c #C32424",
"_	c #9197EC",
":	c #CD7684",
"<	c #FA0505",
"[	c #FB0303",
"}	c #F00101",
"|	c #FC0000",
"1	c #F80000",
"2	c #FB0000",
"3	c #E11C1C",
"4	c #8F94EE",
"5	c #C97281",
"6	c #ED1111",
"7	c #DF0A0A",
"8	c #EF0404",
"9	c #FA0000",
"0	c #DC2222",
"a	c #8D91EF",
"b	c #C87082",
"c	c #F30B0B",
"d	c #D52828",
"e	c #857A7A",
"f	c #7D7D7D",
"g	c #8B8FF1",
"h	c #A7B1D3",
"i	c #F70000",
"j	c #F70303",
"k	c #B74444",
"l	c #797979",
"m	c #888CF3",
"n	c #EA0000",
"o	c #945B5B",
"p	c #7A7A7A",
"q	c #0000F7",
"r	c #8689F5",
"s	c #0000FF",
"t	c #0303F4",
"u	c #1F1FAB",
"v	c #8486F6",
"w	c #0505FC",
"x	c #0303FB",
"y	c #0101FE",
"z	c #0000F8",
"A	c #1C1CE1",
"B	c #7D7FF4",
"C	c #1111EF",
"D	c #0B0BF3",
"E	c #0404FB",
"F	c #3334E2",
"G	c #0E0EB3",
"H	c #0E0ECC",
"I	c #0A0ADF",
"J	c #0404F0",
"K	c #2828D6",
"L	c #7A7B9E",
"M	c #0303FC",
"N	c #4545BA",
"O	c #7F7F7F",
"P	c #7C7CD8",
"Q	c #2121FD",
"R	c #6C6DC1",
"S	c #7E7FBA",
"T	c #7B7BEE",
"U	c #7979FE",
".+@#$%&*=-;>,')!",
"+              ~",
"@              {",
"#    ]         ^",
"$    ]/(       _",
":<[}]|123      4",
"5678]91]]0     a",
"b6c8]12|def    g",
"h    ijkl      m",
"-    nop   q   r",
";          stu v",
">      wxysszsAB",
",      CDEsszssF",
"'     GHIJzzzsKL",
")          sMNOP",
"!~{^_4agmrvQRSTU"};
