/* XPM */
static char * c_20_1_xpm[] = {
"20 20 3 1",
" 	c None",
".	c #FFFFFF",
"+	c #000000",
"..........+.........",
"....................",
"..........+.........",
"....................",
"..........+.........",
"......+++++++++.....",
"......+.......+.....",
"......+.......+.....",
"......+.......+.....",
"......+.+++++.++.+.+",
"......+.......+.....",
"......+.......+.....",
"......+.......+.....",
"......+++++++++.....",
"..........+.........",
"....................",
"..........+.........",
"....................",
"..........+.........",
"...................."};
