/* XPM */
static char * gw_xpm[] = {
"20 20 33 1",
" 	c None",
".	c #FFFFFF",
"+	c #DB903A",
"@	c #000000",
"#	c #003A90",
"$	c #DBFFFF",
"%	c #B66600",
"&	c #0066B6",
"*	c #000066",
"=	c #B6FFFF",
"-	c #B6663A",
";	c #90DBFF",
">	c #FFB666",
",	c #FFFFB6",
"'	c #66003A",
")	c #3A3A3A",
"!	c #3A90DB",
"~	c #FFDB90",
"{	c #3A003A",
"]	c #3A66B6",
"^	c #66B6FF",
"/	c #FFFFDB",
"(	c #903A00",
"_	c #3A0066",
":	c #3A3A90",
"<	c #00003A",
"[	c #DBFFB6",
"}	c #660066",
"|	c #903A3A",
"1	c #90B690",
"2	c #66B6B6",
"3	c #003A3A",
"4	c #3A0000",
"....................",
"....................",
"....................",
"....................",
"....................",
"..+@@@#$%&...%#$..+#",
".+*=..-;>#$.,');..%!",
"~{;.....~{;.~]%^.,';",
">#$...../(^.+!>&.~_=",
">#$......+&.-;~:$+&.",
">#$.%@<;.>#[}=/|;%!.",
"~{;..,';.,'1]..%2';.",
".%#$.,';..%)!..>3:$.",
"..+@@@#$..+<;..~4&..",
"....................",
"....................",
"....................",
"....................",
"....................",
"...................."};
