/* XPM */
static char * l_green_xpm[] = {
"24 24 327 2",
"  	c None",
". 	c #B4B4B4",
"+ 	c #B5B5B5",
"@ 	c #B2B2B2",
"# 	c #ACAEAC",
"$ 	c #B4B5B4",
"% 	c #B9B9B9",
"& 	c #B3B2B3",
"* 	c #AFB0AF",
"= 	c #AEAFAE",
"- 	c #ADAEAD",
"; 	c #AEAEAE",
"> 	c #AFAEAF",
", 	c #B6B6B6",
"' 	c #B4B2B4",
") 	c #B3B1B3",
"! 	c #A1A2A1",
"~ 	c #949693",
"{ 	c #8F928E",
"] 	c #A1A1A1",
"^ 	c #C2C3C2",
"/ 	c #B5B7B5",
"( 	c #B4B6B4",
"_ 	c #AEB0AE",
": 	c #979997",
"< 	c #80857F",
"[ 	c #71826D",
"} 	c #5F835A",
"| 	c #608A5B",
"1 	c #5F8A5B",
"2 	c #5E835A",
"3 	c #70836C",
"4 	c #80877E",
"5 	c #999A98",
"6 	c #AFB1AF",
"7 	c #B6B7B6",
"8 	c #BABBBA",
"9 	c #B8B9B8",
"0 	c #AAABAA",
"a 	c #858A84",
"b 	c #71896D",
"c 	c #7DA777",
"d 	c #B7D4B1",
"e 	c #E3F1DF",
"f 	c #ECF7E9",
"g 	c #EBF6E8",
"h 	c #E2F0DF",
"i 	c #B4D3AE",
"j 	c #7BA575",
"k 	c #71896E",
"l 	c #878D86",
"m 	c #ACACAC",
"n 	c #BBBBBB",
"o 	c #BEBEBE",
"p 	c #BCBCBC",
"q 	c #AFAFAF",
"r 	c #80897E",
"s 	c #74976E",
"t 	c #B5D5AF",
"u 	c #EBF4E8",
"v 	c #E3EEDE",
"w 	c #E0ECDB",
"x 	c #E0EBDA",
"y 	c #E0ECDA",
"z 	c #E1ECDB",
"A 	c #EBF5E8",
"B 	c #B2D2AD",
"C 	c #73976C",
"D 	c #828C81",
"E 	c #B0B0B0",
"F 	c #C5C4C5",
"G 	c #B7B7B7",
"H 	c #8A9088",
"I 	c #6A9362",
"J 	c #B2D5AB",
"K 	c #D8E8D6",
"L 	c #D0E3CD",
"M 	c #D0E3CC",
"N 	c #D8E8D5",
"O 	c #ADD2A6",
"P 	c #689461",
"Q 	c #8D948C",
"R 	c #B8B7B8",
"S 	c #C5C5C5",
"T 	c #C3C2C3",
"U 	c #C0BFC0",
"V 	c #A3A5A3",
"W 	c #6D8C66",
"X 	c #74B269",
"Y 	c #CCE3C9",
"Z 	c #C1DCBD",
"` 	c #C1DCBC",
" .	c #C0DCBC",
"..	c #C0DCBB",
"+.	c #C0DBBB",
"@.	c #BFDBBA",
"#.	c #C0DCBA",
"$.	c #CBE2C7",
"%.	c #6FAF62",
"&.	c #6F9069",
"*.	c #A5A7A5",
"=.	c #C4C3C4",
"-.	c #C9C9C9",
";.	c #C0BEC0",
">.	c #8A948A",
",.	c #4E9741",
"'.	c #97C78E",
").	c #B6D6B0",
"!.	c #B3D5AC",
"~.	c #B3D4AB",
"{.	c #B6D5AF",
"].	c #93C489",
"^.	c #4E9640",
"/.	c #8E988D",
"(.	c #C4C4C4",
"_.	c #C9CAC9",
":.	c #CACBCA",
"<.	c #C5C6C5",
"[.	c #7B9376",
"}.	c #449F31",
"|.	c #94C789",
"1.	c #A8D2A0",
"2.	c #A6D19E",
"3.	c #A6D09D",
"4.	c #A5D09D",
"5.	c #A5CF9C",
"6.	c #A7D09F",
"7.	c #8FC584",
"8.	c #419C2E",
"9.	c #7E9879",
"0.	c #B7B9B7",
"a.	c #C5C7C5",
"b.	c #CACACB",
"c.	c #CCCBCC",
"d.	c #C9C8C9",
"e.	c #ADAFAC",
"f.	c #6F9C64",
"g.	c #4CA536",
"h.	c #7CBD6E",
"i.	c #A0D096",
"j.	c #9CCD92",
"k.	c #9CCC91",
"l.	c #9BCC90",
"m.	c #9CCC90",
"n.	c #9ACC8F",
"o.	c #9ACC90",
"p.	c #9ECE94",
"q.	c #77BA68",
"r.	c #4AA434",
"s.	c #719F66",
"t.	c #B0B2AF",
"u.	c #CAC9CA",
"v.	c #CCCBCD",
"w.	c #CCCCCC",
"x.	c #CBCBCB",
"y.	c #ABAEAA",
"z.	c #6EA560",
"A.	c #50AC3A",
"B.	c #62B34F",
"C.	c #8FCA82",
"D.	c #95CB88",
"E.	c #92CA86",
"F.	c #92CA85",
"G.	c #91CA84",
"H.	c #92CA84",
"I.	c #91CA83",
"J.	c #93CA86",
"K.	c #8DC87D",
"L.	c #60B14C",
"M.	c #50AB39",
"N.	c #70A861",
"O.	c #CFD0CF",
"P.	c #CECFCE",
"Q.	c #AFB1AE",
"R.	c #75AE66",
"S.	c #59B742",
"T.	c #5DB646",
"U.	c #70BF5D",
"V.	c #87C977",
"W.	c #8CCB7E",
"X.	c #8ACA7C",
"Y.	c #89CA7B",
"Z.	c #89CA7A",
"`.	c #8ACA7B",
" +	c #8ACB7A",
".+	c #83C873",
"++	c #6DBE59",
"@+	c #5BB545",
"#+	c #58B441",
"$+	c #77AF67",
"%+	c #B3B7B3",
"&+	c #CFD1CF",
"*+	c #D5D5D5",
"=+	c #D2D2D2",
"-+	c #B7BAB7",
";+	c #83B278",
">+	c #62C14A",
",+	c #64BF4E",
"'+	c #65BF4E",
")+	c #6FC45A",
"!+	c #7AC866",
"~+	c #81CA6F",
"{+	c #84CB74",
"]+	c #85CB75",
"^+	c #85CB74",
"/+	c #83CA73",
"(+	c #80C96E",
"_+	c #79C765",
":+	c #6DC258",
"<+	c #62BD4C",
"[+	c #62BD4B",
"}+	c #60BE48",
"|+	c #86B47A",
"1+	c #BBBEBA",
"2+	c #D2D3D2",
"3+	c #D5D6D5",
"4+	c #D7D7D7",
"5+	c #D3D3D3",
"6+	c #97B092",
"7+	c #69C950",
"8+	c #6DC755",
"9+	c #6CC755",
"0+	c #6CC754",
"a+	c #6EC757",
"b+	c #73C95D",
"c+	c #76CA60",
"d+	c #77CA62",
"e+	c #75CA60",
"f+	c #6EC756",
"g+	c #6AC552",
"h+	c #6AC653",
"i+	c #6CC654",
"j+	c #67C74F",
"k+	c #9DB697",
"l+	c #C8C9C7",
"m+	c #D4D3D4",
"n+	c #ACB4AB",
"o+	c #7ECA69",
"p+	c #75D05D",
"q+	c #76D05E",
"r+	c #74CF5C",
"s+	c #75CF5D",
"t+	c #74D05C",
"u+	c #74D05D",
"v+	c #7DCC69",
"w+	c #B1BBAF",
"x+	c #D8D8D8",
"y+	c #D9D9D9",
"z+	c #DBDBDB",
"A+	c #DBDADB",
"B+	c #9EC195",
"C+	c #7DDC61",
"D+	c #7FD965",
"E+	c #7ED965",
"F+	c #7ED964",
"G+	c #7DD864",
"H+	c #7ED864",
"I+	c #7ADA60",
"J+	c #A1C498",
"K+	c #C8CAC8",
"L+	c #DCDCDC",
"M+	c #DDDDDD",
"N+	c #BCC3BA",
"O+	c #9BD18B",
"P+	c #85E568",
"Q+	c #88E36E",
"R+	c #87E36E",
"S+	c #86E26D",
"T+	c #86E36D",
"U+	c #82E467",
"V+	c #9BD38C",
"W+	c #C0C7BF",
"X+	c #DEDEDE",
"Y+	c #E0DFE0",
"Z+	c #DAD8DA",
"`+	c #BEC7BB",
" @	c #A2D992",
".@	c #8DEE72",
"+@	c #8FEC74",
"@@	c #90EB76",
"#@	c #8DED71",
"$@	c #A2DA93",
"%@	c #C0C9BD",
"&@	c #DBD9DB",
"*@	c #E1E0E1",
"=@	c #DFDFDF",
"-@	c #E4E3E4",
";@	c #E4E2E4",
">@	c #DCDBDC",
",@	c #C6CDC4",
"'@	c #B1D5A8",
")@	c #9FEC87",
"!@	c #97F678",
"~@	c #97F579",
"{@	c #98F57A",
"]@	c #98F47A",
"^@	c #97F479",
"/@	c #9FEC86",
"(@	c #B2D5A7",
"_@	c #C6CEC4",
":@	c #DDDBDD",
"<@	c #E4E6E4",
"[@	c #E0E2E0",
"}@	c #D5D6D4",
"|@	c #C5CDC3",
"1@	c #BBD4B5",
"2@	c #B3E1A5",
"3@	c #AEE79D",
"4@	c #AEE89E",
"5@	c #B3E2A5",
"6@	c #C4CDC3",
"7@	c #E4E5E4",
"8@	c #E8E8E8",
"9@	c #EAE9EA",
"0@	c #E9E8E9",
"a@	c #E8E6E8",
"b@	c #D7D8D6",
"c@	c #D3D7D3",
"d@	c #E0DFDF",
"e@	c #E8E6E9",
"f@	c #EBE9EB",
"g@	c #ECEAEC",
"h@	c #ECEBEC",
"i@	c #EBEAEB",
"j@	c #EBEBEB",
"k@	c #ECECEC",
"l@	c #ECEEEC",
"                . + @ # # @ $ .                 ",
"            % & * * = # - ; > * & %             ",
"          , ' ) > ! ~ { { ~ ] > ) ' ,           ",
"      ^ / ( _ : < [ } | 1 2 3 4 5 6 ( 7 ^       ",
"      8 9 0 a b c d e f g h i j k l m 9 n       ",
"    o p q r s t u v w x y z v A B C D E p o     ",
"  F p G H I J K L L L L L L L M N O P Q R p S   ",
"  T U V W X Y Z Z `  ... .+.@.#.#.$.%.&.*.U =.  ",
"-.=.;.>.,.'.).!.!.!.!.!.!.!.J J ~.{.].^./.U (._.",
":.<.7 [.}.|.1.2.3.3.3.3.3.4.4.4.5.6.7.8.9.0.a.b.",
"c.d.e.f.g.h.i.j.k.l.m.m.l.n.o.o.o.p.q.r.s.t.u.v.",
"w.x.y.z.A.B.C.D.E.F.F.G.G.F.H.I.J.K.L.M.N.t.x.w.",
"O.P.Q.R.S.T.U.V.W.X.X.Y.Z.`.Z. +.+++@+#+$+%+P.&+",
"*+=+-+;+>+,+'+)+!+~+{+]+^+/+(+_+:+<+[+}+|+1+2+3+",
"4+5+a.6+7+8+9+0+a+b+c+d+d+e+b+f+g+h+i+j+k+l+5+4+",
"4+4+m+n+o+p+q+p+p+r+r+s+s+r+t+s+s+u+t+v+w+*+x+y+",
"  z+A+a.B+C+D+D+E+E+F+G+G+G+G+H+H+H+I+J+K+z+L+  ",
"  M+L+4+N+O+P+Q+Q+Q+R+S+S+S+S+S+T+U+V+W+x+L+M+  ",
"    X+Y+Z+`+ @.@+@@@@@@@@@@@@@+@#@$@%@&@*@=@    ",
"      -@;@>@,@'@)@!@~@{@]@^@!@/@(@_@:@-@-@      ",
"        <@<@[@}@|@1@2@3@4@5@1@6@3+[@7@<@        ",
"          8@9@0@a@=@b@c@c@b@d@e@f@g@9@          ",
"            h@g@h@h@i@i@j@j@h@k@h@h@            ",
"                  l@l@l@l@l@l@                  "};
