/* XPM */
static char * table_edit_xpm[] = {
"24 24 301 2",
"  	c None",
". 	c #2288BB",
"+ 	c #278DC1",
"@ 	c #258CC1",
"# 	c #278CBF",
"$ 	c #268CC0",
"% 	c #268CC1",
"& 	c #278CBE",
"* 	c #2B8EBF",
"= 	c #157FB4",
"- 	c #84C0E0",
"; 	c #FFEEB5",
"> 	c #FFEAAE",
", 	c #FFEBAF",
"' 	c #FFEBAD",
") 	c #E9E6D7",
"! 	c #FFE9B5",
"~ 	c #FFEBA7",
"{ 	c #CFE3F4",
"] 	c #FFEBA8",
"^ 	c #FFE8A6",
"/ 	c #FFFFFD",
"( 	c #0073AF",
"_ 	c #7CBEE5",
": 	c #FFCD59",
"< 	c #FFC84C",
"[ 	c #FFC94E",
"} 	c #FFC949",
"| 	c #B9C0A3",
"1 	c #F4C85C",
"2 	c #FFC94C",
"3 	c #FFC94D",
"4 	c #FFCB3D",
"5 	c #85B9E1",
"6 	c #FFCB3F",
"7 	c #FFC33B",
"8 	c #FFFFEC",
"9 	c #0071AF",
"0 	c #85BEDA",
"a 	c #91C3ED",
"b 	c #81BBEF",
"c 	c #82BBEF",
"d 	c #83BDEE",
"e 	c #87BAE5",
"f 	c #86BDEB",
"g 	c #82BCEF",
"h 	c #86BEEE",
"i 	c #87B8DF",
"j 	c #84BDEF",
"k 	c #77B5EB",
"l 	c #FEFEFF",
"m 	c #0071AE",
"n 	c #80BAD8",
"o 	c #DEF8FF",
"p 	c #D7F4FF",
"q 	c #D8F5FF",
"r 	c #DAF7FF",
"s 	c #ACD2E8",
"t 	c #D1F0FB",
"u 	c #D8F6FF",
"v 	c #E1FDFF",
"w 	c #8BB7D8",
"x 	c #E0FCFF",
"y 	c #D4F4FF",
"z 	c #FFFFFF",
"A 	c #0070AD",
"B 	c #7FBAD8",
"C 	c #DBF4FF",
"D 	c #D2F0FD",
"E 	c #D3F1FD",
"F 	c #D6F3FF",
"G 	c #ABD0E7",
"H 	c #CEECF9",
"I 	c #D4F1FE",
"J 	c #DDF8FF",
"K 	c #8CB7D7",
"L 	c #DBF7FF",
"M 	c #CFF0FE",
"N 	c #0071AD",
"O 	c #80BBD9",
"P 	c #D7EEFB",
"Q 	c #D1ECF9",
"R 	c #D2EDF9",
"S 	c #D2ECF9",
"T 	c #D4EEFA",
"U 	c #ADCFE5",
"V 	c #CCE8F5",
"W 	c #D9F2FC",
"X 	c #91B9D8",
"Y 	c #D2ECFA",
"Z 	c #CEEFFB",
"` 	c #FFF6FA",
" .	c #0B75AF",
"..	c #82BDDA",
"+.	c #BAD7EA",
"@.	c #B0D1E6",
"#.	c #B0D1E7",
"$.	c #B1D2E7",
"%.	c #A0C4DE",
"&.	c #AFD0E6",
"*.	c #B6D5E9",
"=.	c #92BAD7",
"-.	c #B5D5E8",
";.	c #9FC4DE",
">.	c #B2D6E9",
",.	c #B1BCDC",
"'.	c #D590C9",
").	c #E793C6",
"!.	c #E6F9FF",
"~.	c #DFF4FF",
"{.	c #DFF5FF",
"].	c #E2F7FF",
"^.	c #B4D4E8",
"/.	c #D9F0FA",
"(.	c #E0F6FF",
"_.	c #E8FCFF",
":.	c #93BAD8",
"<.	c #E7FCFF",
"[.	c #DBF3FA",
"}.	c #E2FAFA",
"|.	c #929492",
"1.	c #D9A2D9",
"2.	c #CD9AD0",
"3.	c #C67EB1",
"4.	c #E8FAFF",
"5.	c #E2F6FF",
"6.	c #E5F9FF",
"7.	c #B7D4E8",
"8.	c #DDF1FA",
"9.	c #E3F7FF",
"0.	c #ECFEFF",
"a.	c #96BAD8",
"b.	c #EBFDFF",
"c.	c #E4F9FF",
"d.	c #B6D8F0",
"e.	c #DEEBE5",
"f.	c #98989F",
"g.	c #EAEBEC",
"h.	c #88978D",
"i.	c #C289C4",
"j.	c #C074A8",
"k.	c #81BCDA",
"l.	c #C1D9EB",
"m.	c #B6D4E7",
"n.	c #B7D4E7",
"o.	c #B9D5E8",
"p.	c #A6C7DF",
"q.	c #B6D3E6",
"r.	c #BDD8E9",
"s.	c #98BCD8",
"t.	c #BCD7E9",
"u.	c #B8D9F0",
"v.	c #AFBCC5",
"w.	c #DD962E",
"x.	c #CED7D9",
"y.	c #B0B9C6",
"z.	c #8C8B8D",
"A.	c #7A756B",
"B.	c #7FBAD9",
"C.	c #E6F5FB",
"D.	c #DFF1F9",
"E.	c #E0F2FA",
"F.	c #E3F3FA",
"G.	c #B9D4E6",
"H.	c #DBEDF5",
"I.	c #E1F2F9",
"J.	c #E0F2F9",
"K.	c #E9F8FC",
"L.	c #9BBED9",
"M.	c #E8F7FC",
"N.	c #E1F5F9",
"O.	c #DEEDEE",
"P.	c #D89433",
"Q.	c #FFF6D2",
"R.	c #FFC160",
"S.	c #B08A52",
"T.	c #6D6769",
"U.	c #1083BA",
"V.	c #7EBAD8",
"W.	c #F0FBFF",
"X.	c #E9F8FE",
"Y.	c #ECFAFF",
"Z.	c #BDD6E7",
"`.	c #E4F3F9",
" +	c #EAF9FF",
".+	c #F4FFFF",
"++	c #9BBDD8",
"@+	c #E8F5F2",
"#+	c #CD7716",
"$+	c #FFF6C0",
"%+	c #FFBE66",
"&+	c #FF9309",
"*+	c #C67413",
"=+	c #FFFDF3",
"-+	c #0074B2",
";+	c #7DB9D8",
">+	c #FAFFFF",
",+	c #F5FFFF",
"'+	c #F8FFFF",
")+	c #C4DAE9",
"!+	c #EEF9FC",
"~+	c #F6FFFF",
"{+	c #9EC1DF",
"]+	c #ECE2D2",
"^+	c #DA9433",
"/+	c #FEC271",
"(+	c #FF9B0F",
"_+	c #C5781D",
":+	c #E2E2DC",
"<+	c #83BEDB",
"[+	c #ACC7DC",
"}+	c #9EBED7",
"|+	c #9EBED8",
"1+	c #A0BFD8",
"2+	c #A1C0D9",
"3+	c #A2C1D9",
"4+	c #9FBED8",
"5+	c #A1C2DE",
"6+	c #9DC0DE",
"7+	c #E29A35",
"8+	c #FF9C0F",
"9+	c #A85F0A",
"0+	c #95BEE2",
"a+	c #9ABEDB",
"b+	c #FDFFFF",
"c+	c #CADBE9",
"d+	c #F5FAFC",
"e+	c #FEFFFF",
"f+	c #FCF9F4",
"g+	c #D37D18",
"h+	c #FF930A",
"i+	c #B8701B",
"j+	c #F2F5F4",
"k+	c #7DBAD8",
"l+	c #FCFFFF",
"m+	c #F6FCFF",
"n+	c #F9FEFF",
"o+	c #C7D9E8",
"p+	c #F0F6FA",
"q+	c #F9FFFF",
"r+	c #EADDCF",
"s+	c #D99433",
"t+	c #FF9B0E",
"u+	c #BE741B",
"v+	c #ACBCCC",
"w+	c #F2F9FF",
"x+	c #F6FDFF",
"y+	c #F7FDFF",
"z+	c #CDDCEA",
"A+	c #F7F9FB",
"B+	c #FCF3EB",
"C+	c #DB9531",
"D+	c #FFF5D1",
"E+	c #A75E0A",
"F+	c #FEFAF7",
"G+	c #CFDFEE",
"H+	c #F8FAFC",
"I+	c #82BEDB",
"J+	c #B4C9DD",
"K+	c #A6C0D9",
"L+	c #A6C1D9",
"M+	c #A7C1D9",
"N+	c #A7C2D9",
"O+	c #ABC9E6",
"P+	c #A59982",
"Q+	c #F4E6C3",
"R+	c #FFC36C",
"S+	c #FF9208",
"T+	c #C3771D",
"U+	c #ACCBE8",
"V+	c #A9C5DF",
"W+	c #A8C2D9",
"X+	c #A8C3D9",
"Y+	c #A0BCD6",
"Z+	c #85BEDB",
"`+	c #FAF9FC",
" @	c #FFF8ED",
".@	c #E4B96F",
"+@	c #FFEFC0",
"@@	c #F7AE52",
"#@	c #D87E19",
"$@	c #F3E6DE",
"%@	c #F8F7F9",
"&@	c #0072AE",
"*@	c #2189BD",
"=@	c #268DC0",
"-@	c #248BBF",
";@	c #248BC0",
">@	c #1990CF",
",@	c #6E7263",
"'@	c #9E8863",
")@	c #DAA353",
"!@	c #5D766F",
"~@	c #1A85BC",
"{@	c #2790C5",
"]@	c #258CC0",
"^@	c #258BBF",
"/@	c #2A8FC1",
"(@	c #1680B4",
"_@	c #515157",
":@	c #684E30",
"  . + @ @ @ @ # $ @ @ % & @ @ @ # $ @ @ * =     ",
"  - ; > , , ' ) ! , , ~ { ] , ' ) ! , ^ / (     ",
"  _ : < [ [ } | 1 2 3 4 5 6 [ } | 1 2 7 8 9     ",
"  0 a b c c d e f g g h i j c d e f g k l m     ",
"  n o p q q r s t u q v w x q r s t q y z A     ",
"  B C D E E F G H I E J K L E F G H I M z N     ",
"  O P Q R S T U V S S W X W S T U V Y Z `  .    ",
"  ..+.@.#.#.$.%.&.#.#.*.=.-.#.$.;.@.>.,.'.).    ",
"  B !.~.{.{.].^./.(.{._.:.<.{.].^.[.}.|.1.2.3.  ",
"  B 4.5.5.5.6.7.8.9.].0.a.b.5.c.d.e.f.g.h.i.j.  ",
"  k.l.m.n.n.o.p.q.n.n.r.s.t.7.u.v.w.x.y.z.A.    ",
"  B.C.D.E.E.F.G.H.I.J.K.L.M.N.O.P.Q.R.S.T.U.    ",
"  V.W.X.X.X.Y.Z.`. +X..+++.+@+#+$+%+&+*+=+-+    ",
"  ;+>+,+,+,+'+)+!+~+,+z {+]+^+$+/+(+_+:+z N     ",
"  <+[+}+|+|+1+2+3+4+4+5+6+7+Q.%+8+9+0+a+z N     ",
"  ;+z b+b+b+z c+d+e+z f+g+$+%+h+i+j+e+e+z A     ",
"  k+l+m+m+m+n+o+p+q+r+s+$+/+t+u+v+w+x+y+z A     ",
"  ;+z z z z z z+A+B+C+D+%+(+E+F+G+H+z z z A     ",
"  I+J+K+L+L+M+N+O+P+Q+R+S+T+U+V+W+X+M+Y+z N     ",
"  Z+z z z z z `+ @.@+@@@#@$@z z %@z z z z &@    ",
"  *@=@-@-@-@;@>@,@'@)@!@~@{@-@-@]@^@-@-@/@(@    ",
"                _@:@                            ",
"                                                ",
"                                                "};
