/* XPM */
static char * table_replace_xpm[] = {
"24 24 211 2",
"  	c None",
". 	c #7FBAD7",
"+ 	c #84BFDD",
"@ 	c #80BBD8",
"# 	c #82BDDB",
"$ 	c #86BEDA",
"% 	c #2086BA",
"& 	c #D6F2FF",
"* 	c #DEFAFF",
"= 	c #96A8B0",
"- 	c #DDF9FF",
"; 	c #D1EBF5",
"> 	c #B1C7D0",
", 	c #D8F4FF",
"' 	c #D5F2FF",
") 	c #FBFFFF",
"! 	c #268BBD",
"~ 	c #CEEEFD",
"{ 	c #D8F9FF",
"] 	c #879CA6",
"^ 	c #D7F7FF",
"/ 	c #CFEFFE",
"( 	c #CAE8F3",
"_ 	c #A6C0CA",
": 	c #D1F1FF",
"< 	c #CCEDFD",
"[ 	c #F5FFFF",
"} 	c #2589BD",
"| 	c #CFEEFE",
"1 	c #D9F9FF",
"2 	c #889DA7",
"3 	c #D8F8FF",
"4 	c #D0EFFE",
"5 	c #CBE9F3",
"6 	c #A7C0CA",
"7 	c #D2F1FF",
"8 	c #F6FFFF",
"9 	c #258ABC",
"0 	c #DBFAFF",
"a 	c #E5FFFF",
"b 	c #99A5A9",
"c 	c #EDFFFF",
"d 	c #E6F7F7",
"e 	c #C0CCCD",
"f 	c #EFFFFF",
"g 	c #ECFEFF",
"h 	c #FFFFFF",
"i 	c #298DBE",
"j 	c #3F80B6",
"k 	c #8B9EA7",
"l 	c #9BA5A9",
"m 	c #2482B1",
"n 	c #0A7BB5",
"o 	c #0D7AB3",
"p 	c #0D7DB6",
"q 	c #0F80B9",
"r 	c #0D7BB3",
"s 	c #0B7BB3",
"t 	c #1F87BB",
"u 	c #2A8DBF",
"v 	c #1A83B6",
"w 	c #5A94C2",
"x 	c #80AFD3",
"y 	c #DFFAFF",
"z 	c #FAFFFF",
"A 	c #D1E8FA",
"B 	c #A9D2EE",
"C 	c #ABD3EF",
"D 	c #AAD2EF",
"E 	c #D2E8FA",
"F 	c #298DBF",
"G 	c #76A7CE",
"H 	c #88BEE0",
"I 	c #8FBBDB",
"J 	c #78AAD0",
"K 	c #79ABD1",
"L 	c #5B95C3",
"M 	c #DAF2FD",
"N 	c #0C79B2",
"O 	c #B2D6F1",
"P 	c #7DBAE4",
"Q 	c #80BBE4",
"R 	c #B2D7F1",
"S 	c #268BBE",
"T 	c #71A6CE",
"U 	c #66ABDB",
"V 	c #4F9DD3",
"W 	c #5BA4D6",
"X 	c #5CA5D6",
"Y 	c #63AAD9",
"Z 	c #71A7D0",
"` 	c #DDF4FF",
" .	c #F9FFFF",
"..	c #0B79B2",
"+.	c #BCDCF3",
"@.	c #94C7E8",
"#.	c #96C8E9",
"$.	c #BDDDF3",
"%.	c #258BBD",
"&.	c #66A0CE",
"*.	c #63AEE0",
"=.	c #5FAADD",
"-.	c #5FABDE",
";.	c #60ACDE",
">.	c #65A1CF",
",.	c #E2FFFF",
"'.	c #087BBB",
").	c #DAEDFD",
"!.	c #BEDDF4",
"~.	c #BFDEF4",
"{.	c #C0DEF4",
"].	c #BFDDF4",
"^.	c #DDEEFD",
"/.	c #298DC0",
"(.	c #5396CA",
"_.	c #73BFEF",
":.	c #61A8DB",
"<.	c #569ACD",
"[.	c #579CCF",
"}.	c #4F8EBF",
"|.	c #C78329",
"1.	c #DC8725",
"2.	c #2A7396",
"3.	c #067CCB",
"4.	c #087AC4",
"5.	c #097AC4",
"6.	c #087BC5",
"7.	c #0884CA",
"8.	c #2089BF",
"9.	c #288DC0",
"0.	c #197BAB",
"a.	c #4F91C4",
"b.	c #65AADC",
"c.	c #FFF89C",
"d.	c #FFF89A",
"e.	c #FFF98E",
"f.	c #FFF987",
"g.	c #FFF986",
"h.	c #FFFF90",
"i.	c #FFA842",
"j.	c #407BAC",
"k.	c #F0CE4D",
"l.	c #F1CE4C",
"m.	c #F2CE4D",
"n.	c #F2CE4C",
"o.	c #F2CD4A",
"p.	c #FAE777",
"q.	c #E0A255",
"r.	c #F6DA69",
"s.	c #F5DA6A",
"t.	c #F6DA6A",
"u.	c #F5D968",
"v.	c #FDED86",
"w.	c #DDA156",
"x.	c #FBE681",
"y.	c #FAE680",
"z.	c #FBE680",
"A.	c #F9E67F",
"B.	c #F9E57F",
"C.	c #FFF491",
"D.	c #DFA255",
"E.	c #DFAC44",
"F.	c #E0AD47",
"G.	c #E8B64F",
"H.	c #E2B04B",
"I.	c #E2B14D",
"J.	c #E5B450",
"K.	c #E9B855",
"L.	c #E6B453",
"M.	c #E6B454",
"N.	c #EDBD5A",
"O.	c #C59B5B",
"P.	c #F1EDE1",
"Q.	c #FAF2E6",
"R.	c #A6A4A4",
"S.	c #F9F3E7",
"T.	c #F2EFE3",
"U.	c #EBE5DB",
"V.	c #C6C3BE",
"W.	c #F4F0E6",
"X.	c #F2F0E5",
"Y.	c #FFF7E9",
"Z.	c #2B8BBC",
"`.	c #F8FEFF",
" +	c #A2A7A9",
".+	c #F2F3F3",
"++	c #C7CACB",
"@+	c #F7FEFF",
"#+	c #238ABD",
"$+	c #FAFEFF",
"%+	c #A5A6A7",
"&+	c #FBFEFF",
"*+	c #F3F3F3",
"=+	c #C9CACA",
"-+	c #FDFFFF",
";+	c #2389BC",
">+	c #A2A1A0",
",+	c #F2F2F2",
"'+	c #C7C6C6",
")+	c #DFEEF5",
"!+	c #DEEDF5",
"~+	c #E4F3FA",
"{+	c #DFEEF6",
"]+	c #E2F1F8",
"^+	c #ECF5F9",
"/+	c #278ABB",
"(+	c #0069AB",
"_+	c #006AAC",
":+	c #006AAB",
"<+	c #006CAC",
"[+	c #1375A5",
"                                                ",
"  . . + . . @ # . . $ %                         ",
"  & * = - & ; > , ' ) !                         ",
"  ~ { ] ^ / ( _ : < [ }                         ",
"  | 1 2 3 4 5 6 7 ~ 8 9                         ",
"  0 a b [ c d e f g h i               j         ",
"  k l m n o p q r r s t ! u v       w x         ",
"  y z n A B C C C C C C D E F     G H I J K L   ",
"  M 8 N O P Q Q Q Q Q Q P R S   T U V W X Y Z   ",
"  `  ...+.@.#.#.#.#.#.#.@.$.%.  &.*.=.-.;.*.>.  ",
"  ,.h '.).!.~.~.~.~.~.{.].^./.    (._.:.<.[.}.  ",
"  |.1.2.3.4.5.5.5.5.6.7.8.9.0.      a.b.        ",
"  c.d.e.f.f.f.f.f.g.h.i.              j.        ",
"  k.l.m.n.n.n.n.n.o.p.q.                        ",
"  r.s.s.s.s.s.t.t.u.v.w.                        ",
"  x.x.y.z.z.y.A.A.B.C.D.                        ",
"  E.F.G.H.I.J.K.L.M.N.O.                        ",
"  P.Q.R.S.T.U.V.W.X.Y.Z.                        ",
"  `.h  +h  ..+++) @+h #+                        ",
"  $+h %+h &+*+=+-+$+h ;+                        ",
"  h h >+h h ,+'+h h h 9                         ",
"  )+!+~+!+)+{+]+)+)+^+/+                        ",
"  (+(+_+(+(+:+:+(+(+<+[+                        ",
"                                                "};
