/* XPM */
static char * table_xpm[] = {
"20 20 5 1",
" 	c None",
".	c #000000",
"+	c #6C77B5",
"@	c #C9C7C7",
"#	c #FFFFFF",
"....................",
".++++@++++@++++@+++.",
".++++@++++@++++@+++.",
".@@@@@@@@@@@@@@@@@@.",
".++++@####@####@###.",
".++++@####@####@###.",
".@@@@@@@@@@@@@@@@@@.",
".++++@####@####@###.",
".++++@####@####@###.",
".@@@@@@@@@@@@@@@@@@.",
".++++@####@####@###.",
".++++@####@####@###.",
".@@@@@@@@@@@@@@@@@@.",
".++++@####@####@###.",
".++++@####@####@###.",
".@@@@@@@@@@@@@@@@@@.",
".++++@####@####@###.",
".++++@####@####@###.",
".@@@@@@@@@@@@@@@@@@.",
"...................."};
